# Rhino

mtllib target6.mtl
o 6
usemtl Default
v 5.61400842666626 -6.113415241241455 1.871336102485657
v 5.61400842666626 -2.037805080413818 1.871336102485657
v 1.871336221694946 -2.037805080413818 1.871336102485657
v 1.871336221694946 -6.113415241241455 1.871336102485657
v 5.61400842666626 -2.037805080413818 1.871336102485657
v 5.61400842666626 -2.037805080413818 -1.871336221694946
v 1.871336221694946 -2.037805080413818 -1.871336221694946
v 1.871336221694946 -2.037805080413818 1.871336102485657
v 5.61400842666626 -6.113415241241455 -1.871336221694946
v 5.61400842666626 -2.037805080413818 -1.871336221694946
v 5.61400842666626 -2.037805080413818 1.871336102485657
v 5.61400842666626 -6.113415241241455 1.871336102485657
v 1.871336221694946 -6.113415241241455 -1.871336221694946
v 1.871336221694946 -2.037805080413818 -1.871336221694946
v 5.61400842666626 -2.037805080413818 -1.871336221694946
v 5.61400842666626 -6.113415241241455 -1.871336221694946
v 1.871336221694946 -6.113415241241455 1.871336102485657
v 1.871336221694946 -2.037805080413818 1.871336102485657
v 1.871336221694946 -2.037805080413818 -1.871336221694946
v 1.871336221694946 -6.113415241241455 -1.871336221694946
v 1.871336221694946 -6.113415241241455 1.871336102485657
v 1.871336221694946 -6.113415241241455 -1.871336221694946
v 5.61400842666626 -6.113415241241455 -1.871336221694946
v 5.61400842666626 -6.113415241241455 1.871336102485657
vn 0.5773502588272095 -0.5773502588272095 0.5773502588272095
vn 0.5773502588272095 0.5773502588272095 0.5773502588272095
vn -0.5773502588272095 0.5773502588272095 0.5773502588272095
vn -0.5773502588272095 -0.5773502588272095 0.5773502588272095
vn 0.5773502588272095 0.5773502588272095 0.5773502588272095
vn 0.5773502588272095 0.5773502588272095 -0.5773502588272095
vn -0.5773502588272095 0.5773502588272095 -0.5773502588272095
vn -0.5773502588272095 0.5773502588272095 0.5773502588272095
vn 0.5773502588272095 -0.5773502588272095 -0.5773502588272095
vn 0.5773502588272095 0.5773502588272095 -0.5773502588272095
vn 0.5773502588272095 0.5773502588272095 0.5773502588272095
vn 0.5773502588272095 -0.5773502588272095 0.5773502588272095
vn -0.5773502588272095 -0.5773502588272095 -0.5773502588272095
vn -0.5773502588272095 0.5773502588272095 -0.5773502588272095
vn 0.5773502588272095 0.5773502588272095 -0.5773502588272095
vn 0.5773502588272095 -0.5773502588272095 -0.5773502588272095
vn -0.5773502588272095 -0.5773502588272095 0.5773502588272095
vn -0.5773502588272095 0.5773502588272095 0.5773502588272095
vn -0.5773502588272095 0.5773502588272095 -0.5773502588272095
vn -0.5773502588272095 -0.5773502588272095 -0.5773502588272095
vn -0.5773502588272095 -0.5773502588272095 0.5773502588272095
vn -0.5773502588272095 -0.5773502588272095 -0.5773502588272095
vn 0.5773502588272095 -0.5773502588272095 -0.5773502588272095
vn 0.5773502588272095 -0.5773502588272095 0.5773502588272095
f 1//1 2//2 3//3 4//4
f 5//5 6//6 7//7 8//8
f 9//9 10//10 11//11 12//12
f 13//13 14//14 15//15 16//16
f 17//17 18//18 19//19 20//20
f 21//21 22//22 23//23 24//24
