<?xml version="1.0" encoding="utf-8"?>
<!-- Generator: Adobe Illustrator 16.0.0, SVG Export Plug-In . SVG Version: 6.00 Build 0)  -->
<!DOCTYPE svg PUBLIC "-//W3C//DTD SVG 1.1//EN" "http://www.w3.org/Graphics/SVG/1.1/DTD/svg11.dtd">
<svg version="1.1" id="Default" xmlns="http://www.w3.org/2000/svg" xmlns:xlink="http://www.w3.org/1999/xlink" x="0px" y="0px"
	 width="102.715px" height="102.676px" viewBox="0 0 102.715 102.676" enable-background="new 0 0 102.715 102.676"
	 xml:space="preserve">
<polygon fill="none" stroke="#000000" stroke-linecap="round" stroke-linejoin="round" points="0,-51.455 -2.342,-50.103 
	-4.683,-48.751 -7.025,-47.399 -9.367,-46.047 -11.709,-44.695 -14.051,-43.343 -16.392,-41.991 -18.734,-40.639 -21.076,-39.287 
	-23.418,-37.935 -25.76,-36.583 -28.101,-35.231 -30.443,-33.879 -32.785,-32.527 -35.127,-31.175 -37.469,-29.823 -39.81,-28.471 
	-42.152,-27.119 -44.494,-25.767 -44.494,-23.063 -44.494,-20.358 -44.494,-17.654 -44.494,-14.95 -44.494,-12.247 -44.494,-9.542 
	-44.494,-6.838 -44.494,-4.134 -44.494,-1.43 -44.494,1.274 -44.494,3.978 -44.494,6.682 -44.494,9.386 -44.494,12.09 
	-44.494,14.794 -44.494,17.498 -44.494,20.202 -44.494,22.906 -44.494,25.61 -42.152,26.962 -39.81,28.314 -37.469,29.667 
	-35.127,31.019 -32.785,32.371 -30.443,33.723 -28.101,35.075 -25.76,36.427 -23.418,37.779 -21.076,39.131 -18.734,40.483 
	-16.392,41.835 -14.051,43.187 -11.709,44.539 -9.367,45.891 -7.025,47.243 -4.683,48.595 -2.342,49.947 0,51.299 2.342,49.947 
	4.683,48.595 7.025,47.243 9.367,45.891 11.709,44.539 14.051,43.187 16.392,41.835 18.734,40.483 21.076,39.131 23.418,37.779 
	25.76,36.427 28.101,35.075 30.443,33.723 32.785,32.371 35.127,31.019 37.469,29.667 39.81,28.314 42.152,26.962 44.494,25.61 
	44.494,22.906 44.494,20.202 44.494,17.498 44.494,14.794 44.494,12.09 44.494,9.386 44.494,6.682 44.494,3.978 44.494,1.274 
	44.494,-1.43 44.494,-4.134 44.494,-6.838 44.494,-9.542 44.494,-12.247 44.494,-14.95 44.494,-17.654 44.494,-20.358 
	44.494,-23.063 44.494,-25.767 42.152,-27.119 39.81,-28.471 37.469,-29.823 35.127,-31.175 32.785,-32.527 30.443,-33.879 
	28.101,-35.231 25.76,-36.583 23.418,-37.935 21.076,-39.287 18.734,-40.639 16.392,-41.991 14.051,-43.343 11.709,-44.695 
	9.367,-46.047 7.025,-47.399 4.683,-48.751 2.342,-50.103 "/>
<polygon fill="none" stroke="#000000" stroke-linecap="round" stroke-linejoin="round" points="0,-51.455 -2.83,-51.377 
	-5.652,-51.144 -8.456,-50.754 -11.235,-50.211 -13.98,-49.517 -16.682,-48.671 -19.334,-47.679 -21.927,-46.542 -24.453,-45.263 
	-26.905,-43.847 -29.275,-42.299 -31.556,-40.622 -33.742,-38.822 -35.825,-36.904 -37.8,-34.875 -39.659,-32.74 -41.398,-30.505 
	-43.011,-28.179 -44.494,-25.767 -45.842,-23.276 -47.05,-20.716 -48.115,-18.093 -49.034,-15.415 -49.805,-12.69 -50.424,-9.928 
	-50.89,-7.135 -51.201,-4.321 -51.358,-1.494 -51.358,1.337 -51.201,4.165 -50.89,6.979 -50.424,9.771 -49.805,12.534 
	-49.034,15.259 -48.115,17.937 -47.05,20.56 -45.842,23.121 -44.494,25.61 -43.011,28.022 -41.398,30.349 -39.659,32.583 
	-37.8,34.719 -35.825,36.748 -33.742,38.666 -31.556,40.466 -29.275,42.143 -26.905,43.691 -24.453,45.107 -21.927,46.385 
	-19.334,47.522 -16.682,48.515 -13.98,49.36 -11.235,50.056 -8.456,50.598 -5.652,50.987 -2.83,51.221 0,51.299 2.83,51.221 
	5.652,50.987 8.456,50.598 11.235,50.056 13.98,49.36 16.682,48.515 19.334,47.522 21.927,46.385 24.453,45.107 26.905,43.691 
	29.275,42.143 31.556,40.466 33.742,38.666 35.825,36.748 37.8,34.719 39.659,32.583 41.398,30.349 43.011,28.022 44.494,25.61 
	45.842,23.121 47.05,20.56 48.115,17.937 49.034,15.259 49.805,12.534 50.424,9.771 50.89,6.979 51.201,4.165 51.358,1.337 
	51.358,-1.494 51.201,-4.321 50.89,-7.135 50.424,-9.928 49.805,-12.69 49.034,-15.415 48.115,-18.093 47.05,-20.716 
	45.842,-23.276 44.494,-25.767 43.011,-28.179 41.398,-30.505 39.659,-32.74 37.8,-34.875 35.825,-36.904 33.742,-38.822 
	31.556,-40.622 29.275,-42.299 26.905,-43.847 24.453,-45.263 21.927,-46.542 19.334,-47.679 16.682,-48.671 13.98,-49.517 
	11.235,-50.211 8.456,-50.754 5.652,-51.144 2.83,-51.377 "/>
</svg>
