<?xml version="1.0" encoding="utf-8"?>
<!-- Generator: Adobe Illustrator 16.0.0, SVG Export Plug-In . SVG Version: 6.00 Build 0)  -->
<!DOCTYPE svg PUBLIC "-//W3C//DTD SVG 1.1//EN" "http://www.w3.org/Graphics/SVG/1.1/DTD/svg11.dtd">
<svg version="1.1" id="Default" xmlns="http://www.w3.org/2000/svg" xmlns:xlink="http://www.w3.org/1999/xlink" x="0px" y="0px"
	 width="325.5px" height="323.7px" viewBox="0 0 325.5 323.7" enable-background="new 0 0 325.5 323.7" xml:space="preserve">
<polygon fill="none" stroke="#000000" stroke-linecap="round" stroke-linejoin="round" points="-140.03,81.235 -132.821,81.235 
	-125.612,81.235 -118.405,81.235 -111.195,81.235 -103.987,81.235 -96.779,81.235 -89.57,81.235 -82.362,81.235 -75.154,81.235 
	-67.945,81.235 -60.736,81.235 -53.529,81.235 -46.32,81.235 -39.11,81.235 -31.904,81.235 -24.693,81.235 -17.485,81.235 
	-10.276,81.235 -3.068,81.235 4.141,81.235 11.35,81.235 18.557,81.235 25.766,81.235 32.977,81.235 40.182,81.235 47.393,81.235 
	54.602,81.235 61.807,81.235 69.016,81.235 76.227,81.235 83.434,81.235 90.643,81.235 97.852,81.235 105.059,81.235 
	112.266,81.235 119.477,81.235 126.684,81.235 133.895,81.235 141.103,81.235 137.498,74.989 133.895,68.742 130.288,62.495 
	126.684,56.248 123.08,50 119.477,43.755 115.872,37.51 112.266,31.264 108.663,25.016 105.059,18.768 101.455,12.524 97.852,6.276 
	94.247,0.031 90.643,-6.218 87.038,-12.464 83.434,-18.71 79.83,-24.958 76.227,-31.205 72.622,-37.451 69.016,-43.698 
	65.412,-49.944 61.807,-56.191 58.205,-62.438 54.602,-68.685 50.994,-74.931 47.393,-81.177 43.787,-87.424 40.182,-93.671 
	36.579,-99.918 32.977,-106.164 29.371,-112.411 25.766,-118.658 22.162,-124.904 18.557,-131.151 14.954,-137.397 11.35,-143.645 
	7.743,-149.892 4.141,-156.139 0.535,-162.383 -3.068,-156.139 -6.671,-149.892 -10.276,-143.645 -13.882,-137.397 
	-17.485,-131.151 -21.09,-124.904 -24.693,-118.658 -28.298,-112.411 -31.904,-106.164 -35.507,-99.918 -39.11,-93.671 
	-42.715,-87.424 -46.32,-81.177 -49.923,-74.931 -53.529,-68.685 -57.132,-62.438 -60.736,-56.191 -64.34,-49.944 -67.945,-43.698 
	-71.548,-37.451 -75.154,-31.205 -78.758,-24.958 -82.362,-18.71 -85.965,-12.464 -89.57,-6.218 -93.176,0.031 -96.779,6.276 
	-100.383,12.524 -103.987,18.768 -107.591,25.016 -111.195,31.264 -114.801,37.51 -118.405,43.755 -122.008,50 -125.612,56.248 
	-129.218,62.495 -132.821,68.742 -136.426,74.989 "/>
<polygon fill="none" stroke="#000000" stroke-linecap="round" stroke-linejoin="round" points="-140.03,81.235 -135.47,88.67 
	-130.52,95.848 -125.192,102.746 -119.5,109.352 -113.463,115.639 -107.097,121.596 -100.421,127.203 -93.452,132.442 
	-86.214,137.299 -78.727,141.762 -71.008,145.813 -63.085,149.444 -54.978,152.647 -46.711,155.412 -38.307,157.725 
	-29.792,159.583 -21.19,160.977 -12.525,161.916 -3.821,162.383 4.893,162.383 13.598,161.916 22.262,160.977 30.863,159.583 
	39.381,157.725 47.781,155.412 56.051,152.647 64.156,149.444 72.081,145.813 79.799,141.762 87.285,137.299 94.523,132.442 
	101.492,127.203 108.169,121.596 114.535,115.639 120.573,109.352 126.266,102.746 131.592,95.848 136.542,88.67 141.103,81.235 
	145.257,73.569 148.992,65.69 152.299,57.624 155.169,49.387 157.594,41.012 159.569,32.516 161.08,23.928 162.131,15.27 
	162.716,6.567 162.833,-2.151 162.481,-10.864 161.663,-19.547 160.383,-28.174 158.639,-36.719 156.438,-45.156 153.791,-53.465 
	150.701,-61.621 147.177,-69.598 143.231,-77.372 138.871,-84.924 134.117,-92.232 128.977,-99.274 123.462,-106.029 
	117.596,-112.479 111.393,-118.604 104.868,-124.386 98.042,-129.812 90.938,-134.86 83.57,-139.521 75.967,-143.781 
	68.143,-147.625 60.125,-151.043 51.936,-154.025 43.6,-156.565 35.137,-158.652 26.573,-160.28 17.936,-161.448 9.247,-162.149 
	0.535,-162.383 -8.175,-162.149 -16.863,-161.448 -25.501,-160.28 -34.064,-158.652 -42.525,-156.565 -50.864,-154.025 
	-59.053,-151.043 -67.07,-147.625 -74.894,-143.781 -82.499,-139.521 -89.866,-134.86 -96.971,-129.812 -103.796,-124.386 
	-110.32,-118.604 -116.525,-112.479 -122.391,-106.029 -127.901,-99.274 -133.043,-92.232 -137.8,-84.924 -142.159,-77.372 
	-146.105,-69.598 -149.629,-61.621 -152.718,-53.465 -155.366,-45.156 -157.567,-36.719 -159.31,-28.174 -160.593,-19.547 
	-161.41,-10.864 -161.761,-2.151 -161.644,6.567 -161.059,15.27 -160.009,23.928 -158.496,32.516 -156.524,41.012 -154.098,49.387 
	-151.228,57.624 -147.919,65.69 -144.184,73.569 "/>
</svg>
