<?xml version="1.0" encoding="utf-8"?>
<!-- Generator: Adobe Illustrator 16.0.0, SVG Export Plug-In . SVG Version: 6.00 Build 0)  -->
<!DOCTYPE svg PUBLIC "-//W3C//DTD SVG 1.1//EN" "http://www.w3.org/Graphics/SVG/1.1/DTD/svg11.dtd">
<svg version="1.1" id="Default" xmlns="http://www.w3.org/2000/svg" xmlns:xlink="http://www.w3.org/1999/xlink" x="0px" y="0px"
	 width="325.5px" height="323.7px" viewBox="0 0 325.5 323.7" enable-background="new 0 0 325.5 323.7" xml:space="preserve">
<polygon fill="none" stroke="#010101" stroke-linecap="round" stroke-linejoin="round" points="162.751,0 96.179,14.16 
	41.133,54.146 7.127,113.076 0,180.742 21.043,245.482 66.57,296.063 128.721,323.7 196.78,323.7 258.931,296.063 304.455,245.482 
	325.5,180.742 318.371,113.076 284.368,54.146 229.319,14.16 "/>
<polygon fill="none" stroke="#010101" stroke-linecap="round" stroke-linejoin="round" points="162.751,0 134.407,49.116 
	106.067,98.183 77.725,147.299 49.383,196.367 21.043,245.482 77.725,245.482 134.407,245.482 191.091,245.482 247.776,245.482 
	304.455,245.482 276.116,196.367 247.776,147.299 219.431,98.183 191.091,49.116 "/>
</svg>
