<?xml version="1.0" encoding="utf-8"?>
<!-- Generator: Adobe Illustrator 16.0.0, SVG Export Plug-In . SVG Version: 6.00 Build 0)  -->
<!DOCTYPE svg PUBLIC "-//W3C//DTD SVG 1.1//EN" "http://www.w3.org/Graphics/SVG/1.1/DTD/svg11.dtd">
<svg version="1.1" id="Default" xmlns="http://www.w3.org/2000/svg" xmlns:xlink="http://www.w3.org/1999/xlink" x="0px" y="0px"
	 width="14.173px" height="12.274px" viewBox="0 0 14.173 12.274" enable-background="new 0 0 14.173 12.274" xml:space="preserve">
<polygon fill="none" stroke="#000000" stroke-linecap="round" stroke-linejoin="round" points="3.543,6.137 3.634,5.98 3.725,5.822 
	3.816,5.665 3.907,5.508 3.998,5.351 4.088,5.193 4.179,5.036 4.27,4.878 4.361,4.721 4.452,4.563 4.543,4.406 4.634,4.249 
	4.724,4.091 4.815,3.934 4.906,3.777 4.997,3.62 5.088,3.462 5.179,3.305 5.27,3.147 5.36,2.99 5.451,2.833 5.542,2.675 
	5.633,2.518 5.724,2.36 5.815,2.203 5.906,2.046 5.996,1.888 6.087,1.731 6.178,1.574 6.269,1.417 6.36,1.259 6.451,1.102 
	6.542,0.944 6.632,0.787 6.723,0.629 6.814,0.472 6.905,0.315 6.996,0.157 7.086,0 6.996,-0.157 6.905,-0.314 6.814,-0.472 
	6.723,-0.629 6.632,-0.787 6.542,-0.944 6.451,-1.102 6.36,-1.259 6.269,-1.417 6.178,-1.574 6.087,-1.731 5.996,-1.888 
	5.906,-2.046 5.815,-2.203 5.724,-2.36 5.633,-2.518 5.542,-2.675 5.451,-2.833 5.36,-2.99 5.27,-3.147 5.179,-3.305 5.088,-3.462 
	4.997,-3.62 4.906,-3.777 4.815,-3.934 4.724,-4.091 4.634,-4.249 4.543,-4.406 4.452,-4.563 4.361,-4.721 4.27,-4.878 
	4.179,-5.036 4.088,-5.193 3.998,-5.351 3.907,-5.508 3.816,-5.665 3.725,-5.822 3.634,-5.98 3.543,-6.137 3.362,-6.137 
	3.18,-6.137 2.998,-6.137 2.816,-6.137 2.635,-6.137 2.453,-6.137 2.271,-6.137 2.09,-6.137 1.908,-6.137 1.726,-6.137 
	1.544,-6.137 1.363,-6.137 1.181,-6.137 0.999,-6.137 0.818,-6.137 0.636,-6.137 0.454,-6.137 0.272,-6.137 0.091,-6.137 
	-0.091,-6.137 -0.272,-6.137 -0.454,-6.137 -0.636,-6.137 -0.818,-6.137 -1,-6.137 -1.181,-6.137 -1.363,-6.137 -1.545,-6.137 
	-1.726,-6.137 -1.908,-6.137 -2.09,-6.137 -2.271,-6.137 -2.453,-6.137 -2.635,-6.137 -2.817,-6.137 -2.998,-6.137 -3.18,-6.137 
	-3.362,-6.137 -3.543,-6.137 -3.634,-5.98 -3.725,-5.822 -3.816,-5.665 -3.907,-5.508 -3.998,-5.351 -4.088,-5.193 -4.179,-5.036 
	-4.27,-4.878 -4.361,-4.721 -4.452,-4.563 -4.543,-4.406 -4.634,-4.249 -4.724,-4.091 -4.815,-3.934 -4.906,-3.777 -4.997,-3.62 
	-5.088,-3.462 -5.179,-3.305 -5.27,-3.147 -5.36,-2.99 -5.451,-2.833 -5.542,-2.675 -5.633,-2.518 -5.724,-2.36 -5.815,-2.203 
	-5.906,-2.046 -5.997,-1.888 -6.087,-1.731 -6.178,-1.574 -6.269,-1.417 -6.36,-1.259 -6.451,-1.102 -6.542,-0.944 -6.632,-0.787 
	-6.723,-0.629 -6.814,-0.472 -6.905,-0.314 -6.996,-0.157 -7.087,0 -6.996,0.157 -6.905,0.315 -6.814,0.472 -6.723,0.629 
	-6.632,0.787 -6.542,0.944 -6.451,1.102 -6.36,1.259 -6.269,1.417 -6.178,1.574 -6.087,1.731 -5.997,1.888 -5.906,2.046 
	-5.815,2.203 -5.724,2.36 -5.633,2.518 -5.542,2.675 -5.451,2.833 -5.36,2.99 -5.27,3.147 -5.179,3.305 -5.088,3.462 -4.997,3.62 
	-4.906,3.777 -4.815,3.934 -4.724,4.091 -4.634,4.249 -4.543,4.406 -4.452,4.563 -4.361,4.721 -4.27,4.878 -4.179,5.036 
	-4.088,5.193 -3.998,5.351 -3.907,5.508 -3.816,5.665 -3.725,5.822 -3.634,5.98 -3.543,6.137 -3.362,6.137 -3.18,6.137 
	-2.998,6.137 -2.817,6.137 -2.635,6.137 -2.453,6.137 -2.271,6.137 -2.09,6.137 -1.908,6.137 -1.726,6.137 -1.545,6.137 
	-1.363,6.137 -1.181,6.137 -1,6.137 -0.818,6.137 -0.636,6.137 -0.454,6.137 -0.272,6.137 -0.091,6.137 0.091,6.137 0.272,6.137 
	0.454,6.137 0.636,6.137 0.818,6.137 0.999,6.137 1.181,6.137 1.363,6.137 1.544,6.137 1.726,6.137 1.908,6.137 2.09,6.137 
	2.271,6.137 2.453,6.137 2.635,6.137 2.816,6.137 2.998,6.137 3.18,6.137 3.362,6.137 "/>
<polygon fill="none" stroke="#000000" stroke-linecap="round" stroke-linejoin="round" points="3.543,6.137 3.543,5.98 3.543,5.822 
	3.543,5.665 3.543,5.508 3.543,5.351 3.543,5.193 3.543,5.036 3.543,4.878 3.543,4.721 3.543,4.563 3.543,4.406 3.543,4.249 
	3.543,4.091 3.543,3.934 3.543,3.777 3.543,3.62 3.543,3.462 3.543,3.305 3.543,3.147 3.543,2.99 3.543,2.833 3.543,2.675 
	3.543,2.518 3.543,2.36 3.543,2.203 3.543,2.046 3.543,1.888 3.543,1.731 3.543,1.574 3.543,1.417 3.543,1.259 3.543,1.102 
	3.543,0.944 3.543,0.787 3.543,0.629 3.543,0.472 3.543,0.315 3.543,0.157 3.543,0 3.543,-0.157 3.543,-0.314 3.543,-0.472 
	3.543,-0.629 3.543,-0.787 3.543,-0.944 3.543,-1.102 3.543,-1.259 3.543,-1.417 3.543,-1.574 3.543,-1.731 3.543,-1.888 
	3.543,-2.046 3.543,-2.203 3.543,-2.36 3.543,-2.518 3.543,-2.675 3.543,-2.833 3.543,-2.99 3.543,-3.147 3.543,-3.305 
	3.543,-3.462 3.543,-3.62 3.543,-3.777 3.543,-3.934 3.543,-4.091 3.543,-4.249 3.543,-4.406 3.543,-4.563 3.543,-4.721 
	3.543,-4.878 3.543,-5.036 3.543,-5.193 3.543,-5.351 3.543,-5.508 3.543,-5.665 3.543,-5.822 3.543,-5.98 3.543,-6.137 
	3.362,-6.137 3.18,-6.137 2.998,-6.137 2.816,-6.137 2.635,-6.137 2.453,-6.137 2.271,-6.137 2.09,-6.137 1.908,-6.137 
	1.726,-6.137 1.544,-6.137 1.363,-6.137 1.181,-6.137 0.999,-6.137 0.818,-6.137 0.636,-6.137 0.454,-6.137 0.272,-6.137 
	0.091,-6.137 -0.091,-6.137 -0.272,-6.137 -0.454,-6.137 -0.636,-6.137 -0.818,-6.137 -1,-6.137 -1.181,-6.137 -1.363,-6.137 
	-1.545,-6.137 -1.726,-6.137 -1.908,-6.137 -2.09,-6.137 -2.271,-6.137 -2.453,-6.137 -2.635,-6.137 -2.817,-6.137 -2.998,-6.137 
	-3.18,-6.137 -3.362,-6.137 -3.543,-6.137 -3.543,-5.98 -3.543,-5.822 -3.543,-5.665 -3.543,-5.508 -3.543,-5.351 -3.543,-5.193 
	-3.543,-5.036 -3.543,-4.878 -3.543,-4.721 -3.543,-4.563 -3.543,-4.406 -3.543,-4.249 -3.543,-4.091 -3.543,-3.934 -3.543,-3.777 
	-3.543,-3.62 -3.543,-3.462 -3.543,-3.305 -3.543,-3.147 -3.543,-2.99 -3.543,-2.833 -3.543,-2.675 -3.543,-2.518 -3.543,-2.36 
	-3.543,-2.203 -3.543,-2.046 -3.543,-1.888 -3.543,-1.731 -3.543,-1.574 -3.543,-1.417 -3.543,-1.259 -3.543,-1.102 -3.543,-0.944 
	-3.543,-0.787 -3.543,-0.629 -3.543,-0.472 -3.543,-0.314 -3.543,-0.157 -3.543,0 -3.543,0.157 -3.543,0.315 -3.543,0.472 
	-3.543,0.629 -3.543,0.787 -3.543,0.944 -3.543,1.102 -3.543,1.259 -3.543,1.417 -3.543,1.574 -3.543,1.731 -3.543,1.888 
	-3.543,2.046 -3.543,2.203 -3.543,2.36 -3.543,2.518 -3.543,2.675 -3.543,2.833 -3.543,2.99 -3.543,3.147 -3.543,3.305 
	-3.543,3.462 -3.543,3.62 -3.543,3.777 -3.543,3.934 -3.543,4.091 -3.543,4.249 -3.543,4.406 -3.543,4.563 -3.543,4.721 
	-3.543,4.878 -3.543,5.036 -3.543,5.193 -3.543,5.351 -3.543,5.508 -3.543,5.665 -3.543,5.822 -3.543,5.98 -3.543,6.137 
	-3.362,6.137 -3.18,6.137 -2.998,6.137 -2.817,6.137 -2.635,6.137 -2.453,6.137 -2.271,6.137 -2.09,6.137 -1.908,6.137 
	-1.726,6.137 -1.545,6.137 -1.363,6.137 -1.181,6.137 -1,6.137 -0.818,6.137 -0.636,6.137 -0.454,6.137 -0.272,6.137 -0.091,6.137 
	0.091,6.137 0.272,6.137 0.454,6.137 0.636,6.137 0.818,6.137 0.999,6.137 1.181,6.137 1.363,6.137 1.544,6.137 1.726,6.137 
	1.908,6.137 2.09,6.137 2.271,6.137 2.453,6.137 2.635,6.137 2.816,6.137 2.998,6.137 3.18,6.137 3.362,6.137 "/>
</svg>
