<?xml version="1.0" encoding="utf-8"?>
<!-- Generator: Adobe Illustrator 16.0.0, SVG Export Plug-In . SVG Version: 6.00 Build 0)  -->
<!DOCTYPE svg PUBLIC "-//W3C//DTD SVG 1.1//EN" "http://www.w3.org/Graphics/SVG/1.1/DTD/svg11.dtd">
<svg version="1.1" id="Layer_01" xmlns="http://www.w3.org/2000/svg" xmlns:xlink="http://www.w3.org/1999/xlink" x="0px" y="0px"
	 width="15.209px" height="13.126px" viewBox="0 0 15.209 13.126" enable-background="new 0 0 15.209 13.126" xml:space="preserve">
<polygon fill="none" stroke="#FF0000" stroke-linecap="round" stroke-linejoin="round" points="0,-6.563 -0.541,-6.563 
	-1.083,-6.563 -1.624,-6.563 -2.165,-6.563 -2.707,-6.563 -3.248,-6.563 -3.789,-6.563 -4.331,-6.563 -4.872,-6.563 -5.413,-6.563 
	-5.955,-6.563 -6.496,-6.563 -7.037,-6.563 -7.578,-6.563 -7.578,-5.625 -7.578,-4.688 -7.578,-3.75 -7.578,-2.813 -7.578,-1.875 
	-7.578,-0.938 -7.578,0 -7.578,0.938 -7.578,1.875 -7.578,2.813 -7.578,3.75 -7.578,4.688 -7.578,5.625 -7.578,6.563 -6.496,6.563 
	-5.413,6.563 -4.331,6.563 -3.248,6.563 -2.165,6.563 -1.083,6.563 0,6.563 1.083,6.563 2.165,6.563 3.248,6.563 4.331,6.563 
	5.413,6.563 6.496,6.563 7.578,6.563 7.578,6.094 7.578,5.625 7.578,5.157 7.578,4.688 7.578,4.219 7.578,3.75 7.578,3.282 
	7.578,2.813 7.578,2.344 7.578,1.875 7.578,1.406 7.578,0.938 7.578,0.469 7.578,0 7.037,0 6.496,0 5.955,0 5.413,0 4.872,0 
	4.331,0 3.789,0 3.248,0 2.707,0 2.165,0 1.624,0 1.083,0 0.541,0 0,0 0,-0.469 0,-0.938 0,-1.406 0,-1.875 0,-2.344 0,-2.813 
	0,-3.282 0,-3.75 0,-4.219 0,-4.688 0,-5.157 0,-5.625 0,-6.094 "/>
<polygon fill="none" stroke="#FF0000" stroke-linecap="round" stroke-linejoin="round" points="0,-6.563 -0.523,-5.658 
	-0.784,-5.205 -1.045,-4.752 -1.307,-4.3 -1.568,-3.847 -1.829,-3.395 -2.091,-2.942 -2.352,-2.49 -2.613,-2.037 -2.875,-1.584 
	-3.136,-1.132 -3.397,-0.679 -3.92,0.226 -4.181,0.679 -4.442,1.131 -4.704,1.584 -4.965,2.037 -5.227,2.489 -5.488,2.942 
	-5.749,3.395 -6.01,3.847 -6.272,4.3 -6.533,4.752 -6.794,5.205 -7.056,5.658 -7.578,6.563 -7.056,6.563 -6.533,6.563 -6.01,6.563 
	-5.488,6.563 -4.965,6.563 -4.442,6.563 -3.92,6.563 -3.397,6.563 -2.875,6.563 -2.352,6.563 -1.829,6.563 -1.307,6.563 
	-0.784,6.563 -0.261,6.563 0.261,6.563 0.784,6.563 1.307,6.563 1.829,6.563 2.352,6.563 2.875,6.563 3.397,6.563 3.92,6.563 
	4.442,6.563 4.965,6.563 5.488,6.563 6.01,6.563 6.533,6.563 7.056,6.563 7.578,6.563 7.317,6.11 7.056,5.658 6.794,5.205 
	6.533,4.752 6.272,4.3 6.01,3.847 5.749,3.395 5.488,2.942 5.227,2.489 4.965,2.037 4.704,1.584 4.442,1.131 4.181,0.679 
	3.92,0.226 3.659,-0.227 3.397,-0.679 3.136,-1.132 2.875,-1.584 2.613,-2.037 2.352,-2.49 2.091,-2.942 1.829,-3.395 1.568,-3.847 
	1.307,-4.3 1.045,-4.752 0.784,-5.205 0.523,-5.658 0.261,-6.11 "/>
</svg>
