<?xml version="1.0" encoding="utf-8"?>
<!-- Generator: Adobe Illustrator 16.0.0, SVG Export Plug-In . SVG Version: 6.00 Build 0)  -->
<!DOCTYPE svg PUBLIC "-//W3C//DTD SVG 1.1//EN" "http://www.w3.org/Graphics/SVG/1.1/DTD/svg11.dtd">
<svg version="1.1" id="Default" xmlns="http://www.w3.org/2000/svg" xmlns:xlink="http://www.w3.org/1999/xlink" x="0px" y="0px"
	 width="4.929px" height="4.285px" viewBox="0 0 4.929 4.285" enable-background="new 0 0 4.929 4.285" xml:space="preserve">
<polygon fill="none" stroke="#000000" stroke-linecap="round" stroke-linejoin="round" points="0.818,-0.709 0.636,-0.709 
	0.455,-0.709 0.273,-0.709 0.091,-0.709 -0.091,-0.709 -0.273,-0.709 -0.455,-0.709 -0.636,-0.709 -0.818,-0.709 -0.909,-0.551 
	-1,-0.394 -1.091,-0.236 -1.182,-0.079 -1.273,0.079 -1.364,0.236 -1.455,0.394 -1.546,0.551 -1.637,0.708 -1.546,0.866 
	-1.455,1.023 -1.364,1.181 -1.273,1.338 -1.182,1.496 -1.091,1.653 -1,1.811 -0.909,1.968 -0.818,2.126 -0.636,2.126 -0.455,2.126 
	-0.273,2.126 -0.091,2.126 0.091,2.126 0.273,2.126 0.455,2.126 0.636,2.126 0.818,2.126 0.909,1.968 1,1.811 1.091,1.653 
	1.182,1.496 1.273,1.338 1.364,1.181 1.455,1.023 1.546,0.866 1.637,0.708 1.546,0.551 1.455,0.394 1.364,0.236 1.273,0.079 
	1.182,-0.079 1.091,-0.236 1,-0.394 0.909,-0.551 "/>
<polygon fill="none" stroke="#000000" stroke-linecap="round" stroke-linejoin="round" points="0,-2.126 -0.129,-1.902 
	-0.258,-1.679 -0.388,-1.455 -0.517,-1.231 -0.646,-1.007 -0.775,-0.783 -0.904,-0.56 -1.034,-0.336 -1.163,-0.112 -1.292,0.112 
	-1.421,0.335 -1.55,0.559 -1.68,0.783 -1.809,1.007 -1.938,1.23 -2.067,1.455 -2.197,1.678 -2.326,1.902 -2.455,2.126 -2.197,2.126 
	-1.938,2.126 -1.68,2.126 -1.421,2.126 -1.163,2.126 -0.904,2.126 -0.646,2.126 -0.388,2.126 -0.129,2.126 0.129,2.126 0.388,2.126 
	0.646,2.126 0.904,2.126 1.163,2.126 1.421,2.126 1.68,2.126 1.938,2.126 2.197,2.126 2.455,2.126 2.326,1.902 2.197,1.678 
	2.067,1.455 1.938,1.23 1.809,1.007 1.68,0.783 1.55,0.559 1.421,0.335 1.292,0.112 1.163,-0.112 1.034,-0.336 0.904,-0.56 
	0.775,-0.783 0.646,-1.007 0.517,-1.231 0.388,-1.455 0.258,-1.679 0.129,-1.902 "/>
</svg>
