<?xml version="1.0"?>
<!DOCTYPE svg PUBLIC "-//W3C//DTD SVG 1.1//EN"
 "http://www.w3.org/Graphics/SVG/1.1/DTD/svg11.dtd">
 
<svg xmlns="http://www.w3.org/2000/svg" version = "1.1"
      preserveAspectRatio = "xMinYMin meet" viewBox = "0 0 150 150">
 <path d= "M-0.6936053200,0.5341932000 
L -0.6936053200,0.2588311200
L -0.6096151800,0.2462326000
L -0.5619962900,0.2874555000
L -0.5260260100,0.3639686700
L -0.4606405200,0.4166171200
L -0.3780247300,0.4335060400
L -0.2944810300,0.4208748100
L -0.2245985100,0.3742984200
L -0.1760978300,0.3056955600
L -0.1635721100,0.2222144200
L -0.1824663200,0.1400461800
L -0.2361555100,0.0755332600
L -0.3129064100,0.0407236200
L -0.3973636300,0.0388939600
L -0.4478891700,0.0194740000
L -0.4306617900,-0.0604459900
L -0.3464445500,-0.0691035200
L -0.2692967700,-0.1032099600
L -0.2238421900,-0.1732853600
L -0.2202267600,-0.2575599300
L -0.2588769200,-0.3313483200
L -0.3320249100,-0.3730632000
L -0.4161253400,-0.3763632800
L -0.4935390800,-0.3430989000
L -0.5413322500,-0.2741338500
L -0.5738832700,-0.2069455100
L -0.6578734100,-0.2195440300
L -0.6679530000,-0.2824621900
L -0.6305335300,-0.3583713500
L -0.5733265200,-0.4208009600
L -0.4998969900,-0.4627039900
L -0.4171984300,-0.4808489000
L -0.3325302100,-0.4778901000
L -0.2514567600,-0.4534008300
L -0.1806302200,-0.4071259400
L -0.1284673800,-0.3407211400
L -0.1004522900,-0.2609286200
L -0.1021810100,-0.1765340600
L -0.1357411600,-0.0991169100
L -0.1965132200,-0.0405791900
L -0.1975089200,-0.0076500600
L -0.1248106700,0.0352314700
L -0.0724603300,0.1017062700
L -0.0459084500,0.1818928600
L -0.0455641700,0.2665818200
L -0.0675895900,0.3482822400
L -0.1134843800,0.4193461500
L -0.1758722200,0.4767605100
L -0.2509340100,0.5158513900
L -0.3337618800,0.5337008700
L -0.4185647400,0.5341932000
L -0.5012517000,0.5158759500
L -0.5755866400,0.4754244500
L -0.6359054500,0.4160125700
L -0.6763764800,0.3417193400
L -0.6936053200,0.258831120
 " stroke = "black" stroke-width = ".1" fill = "none" />
</svg>