<?xml version="1.0"?>
<!DOCTYPE svg PUBLIC "-//W3C//DTD SVG 1.1//EN"
 "http://www.w3.org/Graphics/SVG/1.1/DTD/svg11.dtd">
 
<svg xmlns="http://www.w3.org/2000/svg" version = "1.1"
      preserveAspectRatio = "xMinYMin meet" viewBox = "0 0 150 150">
 <path d= "M-0.5533196800,0.5266721500 
L -0.1858498000,0.5266721500
L -0.2361951100,0.5266721500
L -0.2865404100,0.5266721500
L -0.3063317300,0.4961181600
L -0.3063317300,0.4457728600
L -0.3063317300,0.3954275500
L -0.3063317300,0.3450822400
L -0.3063317300,0.2947369400
L -0.3063317300,0.2443916300
L -0.3063317300,0.1940463300
L -0.3063317300,0.1437010200
L -0.3063317300,0.0933557100
L -0.3063317300,0.0430104100
L -0.3063317300,-0.0073349000
L -0.3063317300,-0.0576802000
L -0.3063317300,-0.1080255100
L -0.3063317300,-0.1583708200
L -0.3063317300,-0.2087161200
L -0.3130594200,-0.2450389600
L -0.3525236500,-0.2137803200
L -0.3932230400,-0.1841562200
L -0.4363454800,-0.1583285000
L -0.4815578900,-0.1361830900
L -0.5274865400,-0.1155773400
L -0.5533196800,-0.1285969500
L -0.5533196800,-0.1789422600
L -0.5454502600,-0.2246245200
L -0.5016423900,-0.2494308100
L -0.4587737400,-0.2758219700
L -0.4173930500,-0.3044832100
L -0.3781121800,-0.3359542700
L -0.3400081100,-0.3688311600
L -0.3058596600,-0.4057764600
L -0.2773034200,-0.4471767400
L -0.2431012300,-0.4733278500
L -0.1927559200,-0.4733278500
L -0.1858498000,-0.4298886600
L -0.1858498000,-0.3795433600
L -0.1858498000,-0.3291980500
L -0.1858498000,-0.2788527400
L -0.1858498000,-0.2285074400
L -0.1858498000,-0.1781621300
L -0.1858498000,-0.1278168300
L -0.1858498000,-0.0774715200
L -0.1858498000,-0.0271262100
L -0.1858498000,0.0232190900
L -0.1858498000,0.0735644000
L -0.1858498000,0.1239097000
L -0.1858498000,0.1742550100
L -0.1858498000,0.2246003200
L -0.1858498000,0.2749456200
L -0.1858498000,0.3252909300
L -0.1858498000,0.3756362300
L -0.1858498000,0.4259815400
L -0.1858498000,0.4763268500
L -0.1858498000,0.526672150
 " stroke = "black" stroke-width = ".1" fill = "none" />
</svg>