<?xml version="1.0"?>
<!DOCTYPE svg PUBLIC "-//W3C//DTD SVG 1.1//EN"
 "http://www.w3.org/Graphics/SVG/1.1/DTD/svg11.dtd">
 
<svg xmlns="http://www.w3.org/2000/svg" version = "1.1"
      preserveAspectRatio = "xMinYMin meet" viewBox = "0 0 150 150">
 <path d= "M-0.1859690600,0.5266721500 
L 0.1815008200,0.5266721500
L 0.1311555200,0.5266721500
L 0.0808102100,0.5266721500
L 0.0610189000,0.4961181600
L 0.0610189000,0.4457728600
L 0.0610189000,0.3954275500
L 0.0610189000,0.3450822400
L 0.0610189000,0.2947369400
L 0.0610189000,0.2443916300
L 0.0610189000,0.1940463300
L 0.0610189000,0.1437010200
L 0.0610189000,0.0933557100
L 0.0610189000,0.0430104100
L 0.0610189000,-0.0073349000
L 0.0610189000,-0.0576802000
L 0.0610189000,-0.1080255100
L 0.0610189000,-0.1583708200
L 0.0610189000,-0.2087161200
L 0.0542912100,-0.2450389600
L 0.0148269700,-0.2137803200
L -0.0258724200,-0.1841562200
L -0.0689948600,-0.1583285000
L -0.1142072600,-0.1361830900
L -0.1601359200,-0.1155773400
L -0.1859690600,-0.1285969500
L -0.1859690600,-0.1789422600
L -0.1780996400,-0.2246245200
L -0.1342917700,-0.2494308100
L -0.0914231100,-0.2758219700
L -0.0500424200,-0.3044832100
L -0.0107615600,-0.3359542700
L 0.0273425100,-0.3688311600
L 0.0614909600,-0.4057764600
L 0.0900472100,-0.4471767400
L 0.1242494000,-0.4733278500
L 0.1745947000,-0.4733278500
L 0.1815008200,-0.4298886600
L 0.1815008200,-0.3795433600
L 0.1815008200,-0.3291980500
L 0.1815008200,-0.2788527400
L 0.1815008200,-0.2285074400
L 0.1815008200,-0.1781621300
L 0.1815008200,-0.1278168300
L 0.1815008200,-0.0774715200
L 0.1815008200,-0.0271262100
L 0.1815008200,0.0232190900
L 0.1815008200,0.0735644000
L 0.1815008200,0.1239097000
L 0.1815008200,0.1742550100
L 0.1815008200,0.2246003200
L 0.1815008200,0.2749456200
L 0.1815008200,0.3252909300
L 0.1815008200,0.3756362300
L 0.1815008200,0.4259815400
L 0.1815008200,0.4763268500
L 0.1815008200,0.526672150
 " stroke = "black" stroke-width = ".1" fill = "none" />
</svg>