<?xml version="1.0"?>
<!DOCTYPE svg PUBLIC "-//W3C//DTD SVG 1.1//EN"
 "http://www.w3.org/Graphics/SVG/1.1/DTD/svg11.dtd">
 
<svg xmlns="http://www.w3.org/2000/svg" version = "1.1"
      preserveAspectRatio = "xMinYMin meet" viewBox = "0 0 150 150">
 <path d= "M-0.3239285500,0.5261293900 
L 0.3194603200,0.4056474600
L 0.3194603200,0.4905219900
L 0.2701931800,0.5261293900
L 0.1853186500,0.5261293900
L 0.1004441100,0.5261293900
L 0.0155695800,0.5261293900
L -0.0693049500,0.5261293900
L -0.1541794900,0.5261293900
L -0.2390540200,0.5261293900
L -0.3239285500,0.5261293900
L -0.3209238800,0.4493175200
L -0.2860824100,0.3721936000
L -0.2363869300,0.3035168800
L -0.1789401600,0.2411385700
L -0.1155607200,0.1847085300
L -0.0505007500,0.1302053400
L 0.0129619800,0.0738544900
L 0.0739561000,0.0148477300
L 0.1307587100,-0.0481777400
L 0.1789824200,-0.1177202800
L 0.1989505500,-0.1995144000
L 0.1785219400,-0.2807487600
L 0.1201755700,-0.3411641800
L 0.0407944100,-0.3692726600
L -0.0436873300,-0.3667973900
L -0.1206353500,-0.3327947500
L -0.1732661100,-0.2672773100
L -0.1920988600,-0.1850376800
L -0.2583222500,-0.1765018600
L -0.3101924500,-0.2140814900
L -0.2886698400,-0.2959409900
L -0.2458289300,-0.3688926000
L -0.1838006500,-0.4260769500
L -0.1060301100,-0.4593228900
L -0.0223772200,-0.4727850800
L 0.0623392500,-0.4706925900
L 0.1444639400,-0.4500872300
L 0.2185165900,-0.4091816500
L 0.2752366000,-0.3466178200
L 0.3100413900,-0.2696016100
L 0.3192667200,-0.1855502300
L 0.3040144100,-0.1024123200
L 0.2659683400,-0.0266915500
L 0.2146996500,0.0408495800
L 0.1554150400,0.1015503700
L 0.0926908700,0.1587217800
L 0.0286368400,0.2144039700
L -0.0342642200,0.2713868600
L -0.0984567600,0.3269024800
L -0.1575496500,0.3874011700
L -0.1049123500,0.4056474600
L -0.0200378100,0.4056474600
L 0.0648367200,0.4056474600
L 0.1497112500,0.4056474600
L 0.2345857900,0.4056474600
L 0.3194603200,0.405647460
 " stroke = "black" stroke-width = ".1" fill = "none" />
</svg>