<?xml version="1.0"?>
<!DOCTYPE svg PUBLIC "-//W3C//DTD SVG 1.1//EN"
 "http://www.w3.org/Graphics/SVG/1.1/DTD/svg11.dtd">
 
<svg xmlns="http://www.w3.org/2000/svg" version = "1.1"
      preserveAspectRatio = "xMinYMin meet" viewBox = "0 0 150 150">
 <path d= "M-0.3262546900,0.5341932000 
L -0.3262546900,0.2588311200
L -0.2422645500,0.2462326000
L -0.1946456600,0.2874555000
L -0.1586753800,0.3639686700
L -0.0932898900,0.4166171200
L -0.0106741100,0.4335060400
L 0.0728696000,0.4208748100
L 0.1427521100,0.3742984200
L 0.1912527900,0.3056955600
L 0.2037785200,0.2222144200
L 0.1848843100,0.1400461800
L 0.1311951100,0.0755332600
L 0.0544442200,0.0407236200
L -0.0300130000,0.0388939600
L -0.0805385400,0.0194740000
L -0.0633111600,-0.0604459900
L 0.0209060800,-0.0691035200
L 0.0980538600,-0.1032099600
L 0.1435084300,-0.1732853600
L 0.1471238700,-0.2575599300
L 0.1084737100,-0.3313483200
L 0.0353257200,-0.3730632000
L -0.0487747200,-0.3763632800
L -0.1261884600,-0.3430989000
L -0.1739816200,-0.2741338500
L -0.2065326400,-0.2069455100
L -0.2905227800,-0.2195440300
L -0.3006023800,-0.2824621900
L -0.2631829100,-0.3583713500
L -0.2059758900,-0.4208009600
L -0.1325463600,-0.4627039900
L -0.0498478000,-0.4808489000
L 0.0348204100,-0.4778901000
L 0.1158938600,-0.4534008300
L 0.1867204100,-0.4071259400
L 0.2388832500,-0.3407211400
L 0.2668983400,-0.2609286200
L 0.2651696200,-0.1765340600
L 0.2316094600,-0.0991169100
L 0.1708374100,-0.0405791900
L 0.1698417000,-0.0076500600
L 0.2425399500,0.0352314700
L 0.2948902900,0.1017062700
L 0.3214421700,0.1818928600
L 0.3217864600,0.2665818200
L 0.2997610300,0.3482822400
L 0.2538662400,0.4193461500
L 0.1914784100,0.4767605100
L 0.1164166200,0.5158513900
L 0.0335887500,0.5337008700
L -0.0512141100,0.5341932000
L -0.1339010700,0.5158759500
L -0.2082360200,0.4754244500
L -0.2685548200,0.4160125700
L -0.3090258500,0.3417193400
L -0.3262546900,0.258831120
 " stroke = "black" stroke-width = ".1" fill = "none" />
</svg>