<?xml version="1.0"?>
<!DOCTYPE svg PUBLIC "-//W3C//DTD SVG 1.1//EN"
 "http://www.w3.org/Graphics/SVG/1.1/DTD/svg11.dtd">
 
<svg xmlns="http://www.w3.org/2000/svg" version = "1.1"
      preserveAspectRatio = "xMinYMin meet" viewBox = "0 0 150 150">
 <path d= "M0.0540612500,0.5341932000 
L 0.0540612500,0.2588311200
L 0.1380513900,0.2462326000
L 0.1856702800,0.2874555000
L 0.2216405600,0.3639686700
L 0.2870260500,0.4166171200
L 0.3696418400,0.4335060400
L 0.4531855400,0.4208748100
L 0.5230680600,0.3742984200
L 0.5715687400,0.3056955600
L 0.5840944600,0.2222144200
L 0.5652002500,0.1400461800
L 0.5115110500,0.0755332600
L 0.4347601600,0.0407236200
L 0.3503029400,0.0388939600
L 0.2997774000,0.0194740000
L 0.3170047800,-0.0604459900
L 0.4012220200,-0.0691035200
L 0.4783698000,-0.1032099600
L 0.5238243700,-0.1732853600
L 0.5274398100,-0.2575599300
L 0.4887896500,-0.3313483200
L 0.4156416600,-0.3730632000
L 0.3315412300,-0.3763632800
L 0.2541274800,-0.3430989000
L 0.2063343200,-0.2741338500
L 0.1737833000,-0.2069455100
L 0.0897931600,-0.2195440300
L 0.0797135600,-0.2824621900
L 0.1171330300,-0.3583713500
L 0.1743400500,-0.4208009600
L 0.2477695800,-0.4627039900
L 0.3304681400,-0.4808489000
L 0.4151363500,-0.4778901000
L 0.4962098100,-0.4534008300
L 0.5670363500,-0.4071259400
L 0.6191991900,-0.3407211400
L 0.6472142800,-0.2609286200
L 0.6454855600,-0.1765340600
L 0.6119254100,-0.0991169100
L 0.5511533500,-0.0405791900
L 0.5501576400,-0.0076500600
L 0.6228558900,0.0352314700
L 0.6752062400,0.1017062700
L 0.7017581200,0.1818928600
L 0.7021024000,0.2665818200
L 0.6800769700,0.3482822400
L 0.6341821900,0.4193461500
L 0.5717943500,0.4767605100
L 0.4967325600,0.5158513900
L 0.4139046900,0.5337008700
L 0.3291018300,0.5341932000
L 0.2464148700,0.5158759500
L 0.1720799300,0.4754244500
L 0.1117611200,0.4160125700
L 0.0712900900,0.3417193400
L 0.0540612500,0.258831120
 " stroke = "black" stroke-width = ".1" fill = "none" />
</svg>