<?xml version="1.0"?>
<!DOCTYPE svg PUBLIC "-//W3C//DTD SVG 1.1//EN"
 "http://www.w3.org/Graphics/SVG/1.1/DTD/svg11.dtd">
 
<svg xmlns="http://www.w3.org/2000/svg" version = "1.1"
      preserveAspectRatio = "xMinYMin meet" viewBox = "0 0 150 150">
 <path d= "M-0.7256290900,0.5446977600 
L -0.7256290900,0.5446977600
L -0.6631570300,0.5446977600
L -0.6006849700,0.5446977600
L -0.5382129100,0.5446977600
L -0.4757408500,0.5446977600
L -0.4132687900,0.5446977600
L -0.3507967400,0.5446977600
L -0.2883246800,0.5446977600
L -0.2258526200,0.5446977600
L -0.1633805600,0.5446977600
L -0.1009085000,0.5446977600
L -0.0384364400,0.5446977600
L -0.0251151900,0.4955469500
L -0.0251151900,0.4330748900
L -0.0251151900,0.3706028400
L -0.0251151900,0.3081307800
L -0.0251151900,0.2456587200
L -0.0251151900,0.1831866600
L -0.0251151900,0.1207146000
L -0.0251151900,0.0582425400
L -0.0251151900,-0.0042295200
L -0.0251151900,-0.0667015800
L -0.0251151900,-0.1291736400
L -0.0251151900,-0.1916456900
L -0.0251151900,-0.2541177500
L -0.0251151900,-0.3165898100
L -0.0251151900,-0.3790618700
L -0.0251151900,-0.4415339300
L -0.0563512200,-0.4727699600
L -0.1188232800,-0.4727699600
L -0.1812953400,-0.4727699600
L -0.2437674000,-0.4727699600
L -0.3062394600,-0.4727699600
L -0.3687115200,-0.4727699600
L -0.4311835800,-0.4727699600
L -0.4936556400,-0.4727699600
L -0.5561276900,-0.4727699600
L -0.6185997500,-0.4727699600
L -0.6810718100,-0.4727699600
L -0.7256290900,-0.4548551800
L -0.7256290900,-0.3923831200
L -0.7256290900,-0.3299110600
L -0.7256290900,-0.2674390000
L -0.7256290900,-0.2049669400
L -0.7256290900,-0.1424948800
L -0.7256290900,-0.0800228200
L -0.7256290900,-0.0175507700
L -0.7256290900,0.0449212900
L -0.7256290900,0.1073933500
L -0.7256290900,0.1698654100
L -0.7256290900,0.2323374700
L -0.7256290900,0.2948095300
L -0.7256290900,0.3572815900
L -0.7256290900,0.4197536500
L -0.7256290900,0.4822257100
L -0.7256290900,0.544697760
 " stroke = "black" stroke-width = ".1" fill = "none" />
</svg>