<?xml version="1.0" encoding="utf-8"?>
<!-- Generator: Adobe Illustrator 16.0.0, SVG Export Plug-In . SVG Version: 6.00 Build 0)  -->
<!DOCTYPE svg PUBLIC "-//W3C//DTD SVG 1.1//EN" "http://www.w3.org/Graphics/SVG/1.1/DTD/svg11.dtd">
<svg version="1.1" id="Layer_01" xmlns="http://www.w3.org/2000/svg" xmlns:xlink="http://www.w3.org/1999/xlink" x="0px" y="0px"
	 width="124.318px" height="110.152px" viewBox="0 0 124.318 110.152" enable-background="new 0 0 124.318 110.152"
	 xml:space="preserve">
<path fill="none" stroke="#FF0000" stroke-linecap="round" stroke-linejoin="round" d="M75.031,109.666c0,0.131,0,0.263,0,0.395
	c0,0.19-0.189,0.027-0.286,0.027c-0.13,0-0.261,0-0.392,0c-0.261,0-0.522,0-0.784,0c-1.044,0-2.089,0-3.133,0
	c-2.089,0-4.178,0-6.267,0c-4.178,0-8.356,0-12.534,0c-2.089,0-4.178,0-6.267,0c-1.044,0-2.089,0-3.134,0
	c-0.255,0-0.05-0.251-0.05-0.382c0-0.131,0-0.263,0-0.395c0-1.053,0-2.105,0-3.158c0-4.211,0-8.422,0-12.633
	c0-2.105,0-4.211,0-6.316c0-1.053,0-2.105,0-3.158c0-0.526,0-1.053,0-1.579c0-0.152-0.219-0.708,0.079-0.708c0.255,0,0.51,0,0.765,0
	c4.08,0,8.16,0,12.239,0c3.073,0,6.145,0,9.218,0c1.537,0,3.073,0,4.609,0c1.6,0,2.971-0.056,4.292-1.226
	c1.347-1.193,1.645-2.471,1.645-4.165c0-1.586,0-3.172,0-4.757c0-3.171,0-6.343,0-9.514s0-6.343,0-9.515c0-1.585,0-3.171,0-4.757
	c0-0.198,0-0.396,0-0.595c0-0.173,0.211-0.481-0.11-0.481c-0.384,0-0.768,0-1.152,0c-0.769,0-1.537,0-2.305,0
	c-6.145,0-12.29,0-18.436,0c-3.042,0-6.085,0-9.127,0c-0.38,0-0.761,0-1.141,0c-0.19,0-0.381,0-0.571,0
	c-0.192,0-0.006,0.192-0.006,0.289c0,0.098,0,0.196,0,0.294c0,0.785,0,1.57,0,2.355c0,1.57,0,3.14,0,4.71c0,3.14,0,6.281,0,9.421
	c0,0.393,0,0.785,0,1.178c0,0.531,0.211,0.693-0.469,0.693c-0.761,0-1.521,0-2.282,0c-1.521,0-3.042,0-4.564,0
	c-6.085,0-12.17,0-18.255,0c-1.521,0-3.042,0-4.564,0c-0.76,0-1.521,0-2.282,0c-0.171,0-0.414,0.105-0.414-0.171
	c0-0.209,0-0.417,0-0.626c0-0.417,0-0.834,0-1.252c0-3.339,0-6.678,0-10.017c0-1.609,0-3.218,0-4.827c0-0.402,0-0.805,0-1.207
	c0-0.342,0.227-0.84-0.334-0.84c-0.733,0-1.466,0-2.199,0c-1.466,0-2.932,0-4.398,0c-0.733,0-1.466,0-2.199,0
	c-0.394,0-0.15-0.744-0.15-0.949c0-0.367,0-0.733,0-1.1c0-5.864,0-11.729,0-17.592c0-1.466,0-2.932,0-4.398c0-0.733,0-1.466,0-2.199
	c0-0.168-0.03-0.346,0.203-0.346c0.183,0,0.366,0,0.55,0c0.366,0,0.733,0,1.099,0c1.466,0,2.932,0,4.398,0c0.733,0,1.466,0,2.199,0
	c0.327,0,0.831,0.261,0.831-0.294c0-0.402,0-0.805,0-1.207c0-3.218,0-6.436,0-9.654c0-1.609,0-3.218,0-4.827
	c0-0.805,0-1.609,0-2.414c0-0.402,0-0.805,0-1.207c0-0.243-0.076-0.529,0.279-0.529c0.751,0,1.501,0,2.252,0
	c8.731,0,17.461,0,26.192,0c1.091,0,2.183,0,3.274,0c0.273,0,0.546,0,0.818,0c0.135,0,0.014,0.135,0.014,0.203
	c0,0.138,0,0.275,0,0.413c0,0.55,0,1.1,0,1.65c0,1.1,0,2.2,0,3.3c0,4.4,0,8.8,0,13.199c0,0.302-0.294,1.366,0.275,1.366
	c0.533,0,1.066,0,1.598,0c1.066,0,2.132,0,3.197,0c2.131,0,4.263,0,6.394,0c4.263,0,8.525,0,12.788,0c1.882,0,3.765,0,5.647,0
	c0.941,0,1.882,0,2.823,0c0.401,0,0.124-0.388,0.124-0.601c0-0.243,0-0.486,0-0.729c0-0.486,0-0.972,0-1.457
	c0-3.886,0-7.772,0-11.657c0-0.972,0-1.943,0-2.915c0-0.486,0-0.972,0-1.457c0-0.243,0-0.486,0-0.729c0-0.122,0-0.243,0-0.365
	c0-0.378,0.336-0.222,0.565-0.222c7.711,0,15.422,0,23.132,0c3.855,0,7.711,0,11.566,0c0.242,0,0.551-0.104,0.551,0.266
	c0,0.143,0,0.286,0,0.43c0,0.286,0,0.572,0,0.858c0,0.573,0,1.146,0,1.718c0,2.29,0,4.58,0,6.871c0,1.796,0,3.593,0,5.39
	c0,0.898,0,1.797,0,2.695c0,0.449,0,0.898,0,1.348c0,0.193-0.273,0.555,0.097,0.555c0.185,0,0.369,0,0.554,0
	c2.954,0,5.907,0,8.861,0c0.739,0,1.477,0,2.215,0c0.37,0,0.739,0,1.108,0c0.185,0,0.369,0,0.554,0c0.176,0,0.013,0.176,0.013,0.264
	c0,0.092,0,0.185,0,0.277c0,1.477,0,2.954,0,4.431c0,2.954,0,5.907,0,8.861c0,2.954,0,5.908,0,8.861c0,0.739,0,1.477,0,2.215
	c0,0.369,0,0.739,0,1.108c0,0.185,0,0.369,0,0.554c0,0.175-0.175,0.014-0.263,0.014c-0.092,0-0.185,0-0.277,0
	c-1.477,0-2.954,0-4.431,0c-1.477,0-2.954,0-4.431,0c-0.739,0-1.477,0-2.215,0c-0.369,0-0.738,0-1.108,0
	c-0.579,0-0.678-0.164-0.678,0.523c0,3.593,0,7.187,0,10.781c0,7.193,0.065,14.386-0.001,21.58
	c-0.058,6.226-1.614,11.353-5.025,16.561C99.12,106.418,87.09,111.683,75.031,109.666z"/>
</svg>
