<?xml version="1.0" encoding="utf-8"?>
<!-- Generator: Adobe Illustrator 16.0.0, SVG Export Plug-In . SVG Version: 6.00 Build 0)  -->
<!DOCTYPE svg PUBLIC "-//W3C//DTD SVG 1.1//EN" "http://www.w3.org/Graphics/SVG/1.1/DTD/svg11.dtd">
<svg version="1.1" id="Layer_01" xmlns="http://www.w3.org/2000/svg" xmlns:xlink="http://www.w3.org/1999/xlink" x="0px" y="0px"
	 width="120.636px" height="110.097px" viewBox="0 0 120.636 110.097" enable-background="new 0 0 120.636 110.097"
	 xml:space="preserve">
<path fill="none" stroke="#FF0000" stroke-linecap="round" stroke-linejoin="round" d="M107.849,78.776c0-7.915,0-15.831,0-23.746
	c0-1.979,0-3.958,0-5.937c0-0.495,0-0.99,0-1.484c0-0.247,0-0.495,0-0.742c0-0.393,0.374-0.152,0.59-0.152c0.989,0,1.979,0,2.968,0
	c1.979,0,3.958,0,5.937,0c0.989,0,1.979,0,2.968,0c0.111,0,0.324,0.168,0.324-0.047c0-0.124,0-0.248,0-0.371
	c0-0.248,0-0.495,0-0.742c0-0.495,0-0.989,0-1.484c0-7.916,0-15.831,0-23.747c0-0.366-0.333-0.193-0.549-0.193
	c-0.248,0-0.495,0-0.742,0c-0.495,0-0.989,0-1.484,0c-0.989,0-1.979,0-2.968,0c-1.979,0-3.958,0-5.937,0
	c-0.43,0-1.106,0.361-1.106-0.377c0-0.495,0-0.99,0-1.484c0-0.989,0-1.979,0-2.968c0-1.979,0-3.958,0-5.937c0-1.702,0-3.404,0-5.105
	c0-0.851,0-1.702,0-2.552c0-0.426,0-0.851,0-1.276c0-0.106,0-0.213,0-0.319c0-0.207-0.749-0.11-0.854-0.11c-0.872,0-1.743,0-2.614,0
	C97.41,0,90.438,0,83.468,0c-3.485,0-6.971,0-10.457,0c-0.154,0-0.977-0.224-0.977,0.081c0,0.106,0,0.213,0,0.319
	c0,0.212,0,0.425,0,0.638c0,0.426,0,0.851,0,1.276c0,15.831,0,31.662,0,47.493c0,7.916,0,15.831,0,23.747
	c0,1.973,0.334,3.823-0.906,5.705c-1.326,2.011-2.892,2.467-5.151,2.467c-3.958,0-7.916,0-11.873,0c-3.958,0-7.916,0-11.873,0
	c-1.979,0-3.958,0-5.937,0c-0.99,0-1.979,0-2.968,0c-0.221,0-0.497-0.087-0.497,0.246c0,0.247,0,0.495,0,0.742
	c0,0.495,0,0.989,0,1.484c0,7.916,0,15.831,0,23.747c0,0.607,0,1.215,0,1.823c0,0.456,0.397,0.289,0.682,0.289
	c0.622,0,1.244,0,1.867,0c1.244,0,2.489,0,3.733,0c4.978,0,9.956,0,14.933,0s9.956,0,14.933,0c3.074,0,6.146,0.118,9.222-0.042
	C94.82,109.145,107.849,95.418,107.849,78.776z"/>
<rect fill="none" stroke="#FF0000" stroke-linecap="round" stroke-linejoin="round" width="32.83" height="65.655"/>
</svg>
