<?xml version="1.0"?>
<!DOCTYPE svg PUBLIC "-//W3C//DTD SVG 1.1//EN"
 "http://www.w3.org/Graphics/SVG/1.1/DTD/svg11.dtd">
 
<svg xmlns="http://www.w3.org/2000/svg" version = "1.1"
      preserveAspectRatio = "xMinYMin meet" viewBox = "0 0 150 150">
 <path d= "M-15.0208,15.7382 
L 6.6793,-12.5002
L 6.5017,-13.2009
L 6.0043,-13.7255
L 5.314,-13.9402
L 4.6068,-13.7901
L 4.0631,-13.3135
L 3.8217,-12.6321
L 3.715,-12.0085
L 3.0984,-11.6176
L 2.5493,-11.1363
L 2.0808,-10.5763
L 1.7042,-9.9508
L 1.1408,-9.7577
L 0.4124,-9.8155
L -0.3183,-9.819
L -1.0472,-9.7681
L -1.7703,-9.6633
L -2.3776,-9.746
L -2.7883,-10.3496
L -2.7448,-10.9488
L -2.6555,-11.6662
L -2.9281,-12.3357
L -3.4932,-12.7867
L -4.2065,-12.904
L -4.8862,-12.6577
L -5.3589,-12.1107
L -6.0095,-12.1007
L -6.7394,-12.1171
L -7.2223,-12.4684
L -7.7524,-12.96
L -8.4551,-13.1299
L -9.1512,-12.9348
L -9.6631,-12.4243
L -9.8603,-11.7288
L -9.6925,-11.0256
L -10.0739,-10.5868
L -10.7732,-10.7703
L -11.4729,-10.5887
L -11.9947,-10.0882
L -12.2053,-9.3967
L -12.0512,-8.6903
L -11.5715,-8.1495
L -11.1998,-7.6749
L -11.1864,-6.9449
L -11.7632,-6.5637
L -12.1559,-5.9568
L -12.202,-5.2353
L -11.8896,-4.5833
L -11.2984,-4.1672
L -10.5793,-4.093
L -9.9393,-4.1736
L -9.4018,-3.6794
L -9.3258,-3.0892
L -9.5296,-2.3875
L -9.6807,-1.6726
L -9.7782,-0.9484
L -10.0342,-0.3951
L -10.6607,-0.3744
L -11.2256,-0.8254
L -11.939,-0.9429
L -12.6187,-0.6968
L -13.0915,-0.1498
L -13.2367,0.5584
L -13.0173,1.2472
L -12.9903,1.8388
L -13.3038,2.4983
L -13.8381,2.7779
L -14.4977,3.0739
L -14.9286,3.6544
L -15.0208,4.3714
L -14.7509,5.042
L -14.1877,5.4953
L -13.4748,5.6155
L -13.1616,6.2177
L -12.9807,6.8321
L -13.319,7.4709
L -13.302,8.1937
L -12.934,8.8159
L -12.3088,9.179
L -11.586,9.1902
L -10.9498,8.8468
L -10.3801,8.6788
L -9.6715,8.8548
L -8.9443,8.9195
L -8.5269,9.365
L -8.017,9.8775
L -7.3217,10.0755
L -6.6183,9.9085
L -6.0863,9.419
L -5.8613,8.732
L -6.0007,8.0226
L -5.5009,8.1396
L -4.8808,8.5259
L -4.2336,8.8651
L -3.563,9.1553
L -2.8726,9.3947
L -2.8231,10.101
L -3.1633,10.5961
L -3.6236,11.1536
L -3.7527,11.8649
L -3.5178,12.5486
L -2.9787,13.0303
L -2.273,13.1872
L -1.5806,12.9791
L -1.0288,13.3606
L -0.4204,13.7643
L -0.24,14.342
L -0.0403,15.0369
L 0.4734,15.5455
L 1.1702,15.7382
L 1.8723,15.5658
L 2.4006,15.0724
L 2.6204,14.3836
L 3.2567,14.1582
L 3.9368,13.8925
L 4.5202,13.9794
L 5.1897,14.2522
L 5.9071,14.1631
L 6.4895,13.7348
L 6.7882,13.0764
L 6.7272,12.3561
L 6.3219,11.7574
L 6.3623,11.1432
L 7.0156,11.0097
L 7.639,10.6437
L 8.004,10.0196
L 8.0175,9.2968
L 7.6761,8.6596
L 7.0668,8.2705
L 6.378,8.1739
L 6.2954,7.542
L 6.8385,7.0532
L 7.3438,6.5254
L 7.8158,5.9895
L 8.2624,6.3973
L 8.4588,7.0931
L 8.9703,7.604
L 9.6662,7.7999
L 10.369,7.6308
L 10.8996,7.1397
L 11.1225,6.452
L 11.5089,6.0018
L 12.0804,6.1627
L 12.7407,6.4571
L 13.4606,6.3912
L 14.0566,5.982
L 14.3765,5.3337
L 14.3389,4.6117
L 13.9532,4.0003
L 14.0741,3.3801
L 14.5726,3.0644
L 15.2489,2.8089
L 15.7141,2.2555
L 15.8495,1.5454
L 15.6206,0.8596
L 15.0858,0.3732
L 14.3815,0.2101
L 13.9989,-0.2728
L 13.6523,-0.9155
L 14.024,-1.5114
L 14.1016,-2.2302
L 13.818,-2.8952
L 13.2456,-3.3368
L 12.5304,-3.4424
L 11.8548,-3.185
L 11.3335,-2.7846
L 10.6319,-2.9869
L 9.9076,-3.0787
L 9.2821,-3.218
L 9.0173,-3.899
L 9.2384,-4.4542
L 9.7191,-5.0037
L 10.1516,-5.5122
L 10.8737,-5.4784
L 11.5203,-5.8018
L 11.9264,-6.3999
L 11.9884,-7.1202
L 11.6905,-7.7789
L 11.1087,-8.2081
L 10.6035,-8.5506
L 10.4371,-9.2615
L 10.1633,-9.9383
L 10.0588,-10.5393
L 10.3744,-11.1897
L 10.332,-11.9114
L 9.9423,-12.5203
L 9.3047,-12.8611
L 8.5819,-12.8469
L 7.9583,-12.4813
L 7.3892,-12.3292
L 6.6793,-12.500
 " stroke = "black" stroke-width = ".1" fill = "none" />
</svg>