<?xml version="1.0"?>
<!DOCTYPE svg PUBLIC "-//W3C//DTD SVG 1.1//EN"
 "http://www.w3.org/Graphics/SVG/1.1/DTD/svg11.dtd">
 
<svg xmlns="http://www.w3.org/2000/svg" version = "1.1"
      preserveAspectRatio = "xMinYMin meet" viewBox = "0 0 150 150">
 <path d= "M-9.8241,9.8228 
L 9.8241,-0.0
L 9.8187,-0.3248
L 9.8026,-0.6493
L 9.7758,-0.973
L 9.7383,-1.2957
L 9.6901,-1.617
L 9.6314,-1.9365
L 9.5621,-2.2539
L 9.4823,-2.5688
L 9.3922,-2.8809
L 9.2918,-3.1899
L 9.1813,-3.4954
L 9.0607,-3.797
L 8.9302,-4.0945
L 8.7899,-4.3875
L 8.6401,-4.6758
L 8.4807,-4.9589
L 8.3121,-5.2366
L 8.1345,-5.5085
L 7.9479,-5.7745
L 7.7526,-6.0341
L 7.5489,-6.2871
L 7.3369,-6.5333
L 7.1168,-6.7723
L 6.889,-7.0039
L 6.6537,-7.2278
L 6.4111,-7.4439
L 6.1615,-7.6518
L 5.9051,-7.8513
L 5.6423,-8.0423
L 5.3733,-8.2244
L 5.0984,-8.3976
L 4.818,-8.5616
L 4.5323,-8.7162
L 4.2416,-8.8613
L 3.9463,-8.9967
L 3.6467,-9.1222
L 3.3431,-9.2378
L 3.0358,-9.3433
L 2.7252,-9.4386
L 2.4117,-9.5235
L 2.0955,-9.598
L 1.777,-9.6621
L 1.4566,-9.7155
L 1.1345,-9.7584
L 0.8113,-9.7906
L 0.4871,-9.812
L 0.1624,-9.8228
L -0.1624,-9.8228
L -0.4871,-9.812
L -0.8113,-9.7906
L -1.1345,-9.7584
L -1.4566,-9.7155
L -1.777,-9.6621
L -2.0955,-9.598
L -2.4117,-9.5235
L -2.7252,-9.4386
L -3.0358,-9.3433
L -3.3431,-9.2378
L -3.6467,-9.1222
L -3.9463,-8.9967
L -4.2416,-8.8613
L -4.5323,-8.7162
L -4.818,-8.5616
L -5.0984,-8.3976
L -5.3733,-8.2244
L -5.6423,-8.0423
L -5.9051,-7.8513
L -6.1615,-7.6518
L -6.4111,-7.4439
L -6.6537,-7.2278
L -6.889,-7.0039
L -7.1168,-6.7723
L -7.3369,-6.5333
L -7.5489,-6.2871
L -7.7526,-6.0341
L -7.9479,-5.7745
L -8.1345,-5.5085
L -8.3121,-5.2366
L -8.4807,-4.9589
L -8.6401,-4.6758
L -8.7899,-4.3875
L -8.9302,-4.0945
L -9.0607,-3.797
L -9.1813,-3.4954
L -9.2918,-3.1899
L -9.3922,-2.8809
L -9.4823,-2.5688
L -9.5621,-2.2539
L -9.6314,-1.9365
L -9.6901,-1.617
L -9.7383,-1.2957
L -9.7758,-0.973
L -9.8026,-0.6493
L -9.8187,-0.3248
L -9.8241,-1.2e-15
L -9.8187,0.3248
L -9.8026,0.6493
L -9.7758,0.973
L -9.7383,1.2957
L -9.6901,1.617
L -9.6314,1.9365
L -9.5621,2.2539
L -9.4823,2.5688
L -9.3922,2.8809
L -9.2918,3.1899
L -9.1813,3.4954
L -9.0607,3.797
L -8.9302,4.0945
L -8.7899,4.3875
L -8.6401,4.6758
L -8.4807,4.9589
L -8.3121,5.2366
L -8.1345,5.5085
L -7.9479,5.7745
L -7.7526,6.0341
L -7.5489,6.2871
L -7.3369,6.5333
L -7.1168,6.7723
L -6.889,7.0039
L -6.6537,7.2278
L -6.4111,7.4439
L -6.1615,7.6518
L -5.9051,7.8513
L -5.6423,8.0423
L -5.3733,8.2244
L -5.0984,8.3976
L -4.818,8.5616
L -4.5323,8.7162
L -4.2416,8.8613
L -3.9463,8.9967
L -3.6467,9.1222
L -3.3431,9.2378
L -3.0358,9.3433
L -2.7252,9.4386
L -2.4117,9.5235
L -2.0955,9.598
L -1.777,9.6621
L -1.4566,9.7155
L -1.1345,9.7584
L -0.8113,9.7906
L -0.4871,9.812
L -0.1624,9.8228
L 0.1624,9.8228
L 0.4871,9.812
L 0.8113,9.7906
L 1.1345,9.7584
L 1.4566,9.7155
L 1.777,9.6621
L 2.0955,9.598
L 2.4117,9.5235
L 2.7252,9.4386
L 3.0358,9.3433
L 3.3431,9.2378
L 3.6467,9.1222
L 3.9463,8.9967
L 4.2416,8.8613
L 4.5323,8.7162
L 4.818,8.5616
L 5.0984,8.3976
L 5.3733,8.2244
L 5.6423,8.0423
L 5.9051,7.8513
L 6.1615,7.6518
L 6.4111,7.4439
L 6.6537,7.2278
L 6.889,7.0039
L 7.1168,6.7723
L 7.3369,6.5333
L 7.5489,6.2871
L 7.7526,6.0341
L 7.9479,5.7745
L 8.1345,5.5085
L 8.3121,5.2366
L 8.4807,4.9589
L 8.6401,4.6758
L 8.7899,4.3875
L 8.9302,4.0945
L 9.0607,3.797
L 9.1813,3.4954
L 9.2918,3.1899
L 9.3922,2.8809
L 9.4823,2.5688
L 9.5621,2.2539
L 9.6314,1.9365
L 9.6901,1.617
L 9.7383,1.2957
L 9.7758,0.973
L 9.8026,0.6493
L 9.8187,0.3248
L 9.8241,-0.
 " stroke = "black" stroke-width = ".1" fill = "none" />
</svg>