<?xml version="1.0"?>
<!DOCTYPE svg PUBLIC "-//W3C//DTD SVG 1.1//EN"
 "http://www.w3.org/Graphics/SVG/1.1/DTD/svg11.dtd">
 
<svg xmlns="http://www.w3.org/2000/svg" version = "1.1"
      preserveAspectRatio = "xMinYMin meet" viewBox = "0 0 150 150">
 <path d= "M-0.6787669900,0.6786866600 
L 0.6271764100,0.2597849800
L 0.6394367100,0.2279447000
L 0.6500822300,0.1955288000
L 0.6590851900,0.1626188700
L 0.6664234800,0.1292981900
L 0.6720782900,0.0956509100
L 0.6760352100,0.0617619600
L 0.6782847600,0.0277170400
L 0.6788204100,-0.0063979300
L 0.6776418600,-0.0404967300
L 0.6747509700,-0.0744932000
L 0.6701560600,-0.1083015600
L 0.6638679800,-0.1418362600
L 0.6559030200,-0.1750127300
L 0.6462813000,-0.2077471000
L 0.6350267200,-0.2399566100
L 0.6221684500,-0.2715601200
L 0.6077380100,-0.3024774300
L 0.5917728700,-0.3326309100
L 0.5743124300,-0.3619438800
L 0.5554015300,-0.3903427500
L 0.5350875100,-0.4177554600
L 0.5134217700,-0.4441128900
L 0.4904592800,-0.4693486000
L 0.4662575400,-0.4933984200
L 0.4408783500,-0.5162022600
L 0.4143851100,-0.5377016600
L 0.3868454000,-0.5578432200
L 0.3583282600,-0.5765752600
L 0.3289060600,-0.5938510500
L 0.2986530300,-0.6096266800
L 0.2676454800,-0.6238622000
L 0.2359619900,-0.6365221100
L 0.2036822500,-0.6475736400
L 0.1708881700,-0.6569898900
L 0.1376622700,-0.6647459700
L 0.1040887100,-0.6708233100
L 0.0702521800,-0.6752057900
L 0.0362381800,-0.6778827500
L 0.0021326700,-0.6788474200
L -0.0319782500,-0.6780969700
L -0.0660084000,-0.6756340500
L -0.0998717600,-0.6714638600
L -0.1334829200,-0.6655980500
L -0.1667567800,-0.6580503900
L -0.1996095000,-0.6488407900
L -0.2319579200,-0.6379920000
L -0.2637204100,-0.6255315500
L -0.2948167900,-0.6114911900
L -0.3251682800,-0.5959057700
L -0.3546986000,-0.5788155100
L -0.3833326300,-0.5602626100
L -0.4109986200,-0.5402948700
L -0.4376261400,-0.5189619800
L -0.4631483500,-0.4963183300
L -0.4875005600,-0.4724209200
L -0.5106212100,-0.4473299900
L -0.5324522300,-0.4211093400
L -0.5529378500,-0.3938246000
L -0.5720271600,-0.3655453500
L -0.5896710100,-0.3363424000
L -0.6058257000,-0.3062900500
L -0.6204497400,-0.2754638600
L -0.6335065900,-0.2439418500
L -0.6449632300,-0.2118036800
L -0.6547903700,-0.1791303700
L -0.6629638800,-0.1460046900
L -0.6694621500,-0.1125100600
L -0.6742698500,-0.0787313100
L -0.6773737900,-0.0447536300
L -0.6787669900,-0.0106629100
L -0.6784453900,0.0234547200
L -0.6764099500,0.0575131400
L -0.6726660800,0.0914262600
L -0.6672225900,0.1251084000
L -0.6600941600,0.1584745800
L -0.6512977000,0.1914403200
L -0.6408565200,0.2239226200
L -0.6287960900,0.2558391200
L -0.6151474900,0.2871094600
L -0.5999449500,0.3176544900
L -0.5832267400,0.3473970500
L -0.5650355700,0.3762622200
L -0.5454166400,0.4041766600
L -0.5244204000,0.4310704300
L -0.5020990000,0.4568749400
L -0.4785095900,0.4815256500
L -0.4537112100,0.5049597600
L -0.4277667800,0.5271183900
L -0.4007418700,0.5479455500
L -0.3727044500,0.5673883200
L -0.3437258200,0.5853981900
L -0.3138786000,0.6019288200
L -0.2832387700,0.6169394200
L -0.2518832500,0.6303911300
L -0.2198915700,0.6422507500
L -0.1873443900,0.6524878200
L -0.1543239300,0.6610766300
L -0.1209137100,0.6679957300
L -0.0871979600,0.6732270100
L -0.0532620300,0.6767581900
L -0.0191914900,0.6785792400
L 0.0149275100,0.6786866600
L 0.0490087900,0.6770792500
L 0.0829663000,0.6737617300
L 0.1167141900,0.6687421900
L 0.1501672600,0.6620331900
L 0.1832410500,0.6536521800
L 0.2158518300,0.6436195000
L 0.2479175300,0.6319615300
L 0.2793567600,0.6187066400
L 0.3100905100,0.6038892700
L 0.3400407900,0.5875461500
L 0.3691321700,0.5697189300
L 0.3972911300,0.5504526600
L 0.4244463500,0.5297956300
L 0.4505296500,0.5078006700
L 0.4754745000,0.4845225300
L 0.4992186700,0.4600208500
L 0.5217013800,0.4343567700
L 0.5428665300,0.4075957000
L 0.5626601900,0.3798049300
L 0.5810325200,0.3510546900
L 0.5979373000,0.3214178100
L 0.6133312800,0.2909687800
L 0.6271764100,0.259784980
 " stroke = "black" stroke-width = ".1" fill = "none" />
</svg>