<?xml version="1.0"?>
<!DOCTYPE svg PUBLIC "-//W3C//DTD SVG 1.1//EN"
 "http://www.w3.org/Graphics/SVG/1.1/DTD/svg11.dtd">
 
<svg xmlns="http://www.w3.org/2000/svg" version = "1.1"
      preserveAspectRatio = "xMinYMin meet" viewBox = "0 0 150 150">
 <path d= "M-2.7150679500,2.7147466500 
L 2.5087056600,1.0391399100
L 2.5577468300,0.9117788200
L 2.6003289100,0.7821152100
L 2.6363407400,0.6504754900
L 2.6656939000,0.5171927600
L 2.6883131500,0.3826036400
L 2.7041408300,0.2470478300
L 2.7131390500,0.1108681700
L 2.7152816300,-0.0255917100
L 2.7105674500,-0.1619869100
L 2.6990038900,-0.2979728100
L 2.6806242400,-0.4332062300
L 2.6554719300,-0.5673450600
L 2.6236120700,-0.7000509100
L 2.5851251900,-0.8309883900
L 2.5401068900,-0.9598264400
L 2.4886738000,-1.0862404800
L 2.4309520200,-1.2099097200
L 2.3670915000,-1.3305236200
L 2.2972497400,-1.4477755000
L 2.2216061200,-1.5613709900
L 2.1403500400,-1.6710218600
L 2.0536870900,-1.7764515800
L 1.9618371400,-1.8773943900
L 1.8650301500,-1.9735936700
L 1.7635133900,-2.0648090400
L 1.6575404300,-2.1508066400
L 1.5473816000,-2.2313728600
L 1.4333130400,-2.3063010600
L 1.3156242500,-2.3754042100
L 1.1946121300,-2.4385067200
L 1.0705819200,-2.4954487800
L 0.9438479700,-2.5460884300
L 0.8147290100,-2.5902945600
L 0.6835527000,-2.6279595500
L 0.5506490900,-2.6589839000
L 0.4163548400,-2.6832932400
L 0.2810087400,-2.7008231400
L 0.1449527300,-2.7115309800
L 0.0085307000,-2.7153896900
L -0.1279129900,-2.7123878900
L -0.2640335900,-2.7025362100
L -0.3994870400,-2.6858554300
L -0.5339316700,-2.6623922000
L -0.6670271200,-2.6322015700
L -0.7984380100,-2.5953631500
L -0.9278316900,-2.5519680100
L -1.0548816300,-2.5021262200
L -1.1792671500,-2.4459647700
L -1.3006731100,-2.3836230600
L -1.4187944100,-2.3152620300
L -1.5333305100,-2.2410504300
L -1.6439944900,-2.1611794900
L -1.7505045600,-2.0758479300
L -1.8525933900,-1.9852733000
L -1.9500022500,-1.8896836700
L -2.0424848300,-1.7893199700
L -2.1298089300,-1.6844373500
L -2.2117514200,-1.5752983800
L -2.2881086500,-1.4621814100
L -2.3586840300,-1.3453696200
L -2.4233027900,-1.2251602000
L -2.4817989800,-1.1018554400
L -2.5340263600,-0.9757674000
L -2.5798529300,-0.8472147300
L -2.6191614600,-0.7165214600
L -2.6518555400,-0.5840187500
L -2.6778485900,-0.4500402200
L -2.6970794100,-0.3149252500
L -2.7094951700,-0.1790145300
L -2.7150679500,-0.0426516600
L -2.7137815600,0.0938188900
L -2.7056397900,0.2300525400
L -2.6906643200,0.3657050300
L -2.6688903500,0.5004336000
L -2.6403766300,0.6338983400
L -2.6051908000,0.7657613000
L -2.5634260700,0.8956904800
L -2.5151843600,1.0233564800
L -2.4605899500,1.1484378300
L -2.3997798000,1.2706179800
L -2.3329069500,1.3895882200
L -2.2601422700,1.5050488900
L -2.1816665600,1.6167066300
L -2.0976816200,1.7242817400
L -2.0083960000,1.8274997400
L -1.9140383400,1.9261025900
L -1.8148448600,2.0198390300
L -1.7110671400,2.1084735700
L -1.6029674900,2.1917821900
L -1.4908178100,2.2695532700
L -1.3749032700,2.3415927700
L -1.2555144100,2.4077152700
L -1.1329550800,2.4677577000
L -1.0075329900,2.5215645000
L -0.8795662700,2.5690029800
L -0.7493775600,2.6099512700
L -0.6172957100,2.6443065000
L -0.4836548500,2.6719829100
L -0.3487918400,2.6929080400
L -0.2130481200,2.7070327500
L -0.0767659600,2.7143169400
L 0.0597100500,2.7147466500
L 0.1960351400,2.7083170200
L 0.3318651800,2.6950469100
L 0.4668567700,2.6749687700
L 0.6006690200,2.6481327400
L 0.7329641800,2.6146087200
L 0.8634073300,2.5744780200
L 0.9916701200,2.5278461300
L 1.1174270500,2.4748265800
L 1.2403620500,2.4155570700
L 1.3601631700,2.3501846200
L 1.4765287000,2.2788757300
L 1.5891645400,2.2018106200
L 1.6977853900,2.1191825200
L 1.8021185900,2.0312026700
L 1.9018980100,1.9380901000
L 1.9968746600,1.8400833800
L 2.0868055300,1.7374271000
L 2.1714661100,1.6303828100
L 2.2506407600,1.5192197000
L 2.3241300600,1.4042187600
L 2.3917491900,1.2856712200
L 2.4533251300,1.1638751100
L 2.5087056600,1.039139910
 " stroke = "black" stroke-width = ".1" fill = "none" />
</svg>