<?xml version="1.0" encoding="utf-8"?>
<!-- Generator: Adobe Illustrator 16.0.0, SVG Export Plug-In . SVG Version: 6.00 Build 0)  -->
<!DOCTYPE svg PUBLIC "-//W3C//DTD SVG 1.1//EN" "http://www.w3.org/Graphics/SVG/1.1/DTD/svg11.dtd">
<svg version="1.1" id="Default" xmlns="http://www.w3.org/2000/svg" xmlns:xlink="http://www.w3.org/1999/xlink" x="0px" y="0px"
	 width="325.5px" height="323.7px" viewBox="0 0 325.5 323.7" enable-background="new 0 0 325.5 323.7" xml:space="preserve">
<polygon fill="none" stroke="#010101" stroke-linecap="round" stroke-linejoin="round" points="0.001,-161.85 -66.571,-147.689 
	-121.617,-107.704 -155.623,-48.773 -162.75,18.893 -141.707,83.632 -96.18,134.213 -34.029,161.85 34.029,161.85 96.182,134.213 
	141.705,83.632 162.75,18.893 155.621,-48.773 121.618,-107.704 66.568,-147.689 "/>
<polygon fill="none" stroke="#010101" stroke-linecap="round" stroke-linejoin="round" points="0.001,-161.85 -28.343,-112.733 
	-56.683,-63.667 -85.025,-14.551 -113.367,34.518 -141.707,83.632 -85.025,83.632 -28.343,83.632 28.341,83.632 85.025,83.632 
	141.705,83.632 113.366,34.518 85.025,-14.551 56.682,-63.667 28.341,-112.733 "/>
</svg>
