# Rhino

mtllib uShape9.mtl
o object_1
usemtl Default
v 0 0 1
v 0 0 0
v 1 0 0
v 1 0 1
v 1 0 1
v 1 0 0
v 1 1 0
v 1 1 1
v 1 1 1
v 1 1 0
v 0 1 0
v 0 1 1
v 0 1 1
v 0 1 0
v 0 0 0
v 0 0 1
v 0.1084775179624558 0.1084775179624558 0
v 0 0 0
v 0 1 0
v 0.1084775179624558 0.8915224671363831 0
v 0.8915224671363831 0.1084775179624558 0
v 1 0 0
v 0 0 0
v 0.1084775179624558 0.1084775179624558 0
v 0.1084775179624558 0.8915224671363831 0
v 0 1 0
v 1 1 0
v 0.8915224671363831 0.8915224671363831 0
v 0.8915224671363831 0.8915224671363831 0
v 1 1 0
v 1 0 0
v 0.8915224671363831 0.1084775179624558 0
v 0.1084775179624558 0.1084775179624558 1
v 0.1084775179624558 0.8915224671363831 1
v 0 1 1
v 0 0 1
v 0.8915224671363831 0.1084775179624558 1
v 0.1084775179624558 0.1084775179624558 1
v 0 0 1
v 1 0 1
v 0.1084775179624558 0.8915224671363831 1
v 0.8915224671363831 0.8915224671363831 1
v 1 1 1
v 0 1 1
v 0.8915224671363831 0.8915224671363831 1
v 0.8915224671363831 0.1084775179624558 1
v 1 0 1
v 1 1 1
v 0.8915224671363831 0.1084775179624558 0
v 0.1084775179624558 0.1084775179624558 0
v 0.1084775179624558 0.1084775179624558 1
v 0.8915224671363831 0.1084775179624558 1
v 0.8915224671363831 0.8915224671363831 0
v 0.8915224671363831 0.1084775179624558 0
v 0.8915224671363831 0.1084775179624558 1
v 0.8915224671363831 0.8915224671363831 1
v 0.1084775179624558 0.8915224671363831 0
v 0.8915224671363831 0.8915224671363831 0
v 0.8915224671363831 0.8915224671363831 1
v 0.1084775179624558 0.8915224671363831 1
v 0.1084775179624558 0.1084775179624558 0
v 0.1084775179624558 0.8915224671363831 0
v 0.1084775179624558 0.8915224671363831 1
v 0.1084775179624558 0.1084775179624558 1
vt 0.2804191708564758 0.7181159853935242
vt 0.2804191708564758 0.4391616582870483
vt 0.5593734979629517 0.4391616582870483
vt 0.5593734979629517 0.7181159853935242
vt 0 0.7181159853935242
vt 0 0.4391616582870483
vt 0.2789543271064758 0.4391616582870483
vt 0.2789543271064758 0.7181159853935242
vt 0.2804191708564758 0.99853515625
vt 0.2804191708564758 0.7195808291435242
vt 0.5593734979629517 0.7195808291435242
vt 0.5593734979629517 0.99853515625
vt 0 0.99853515625
vt 0 0.7195808291435242
vt 0.2789543271064758 0.7195808291435242
vt 0.2789543271064758 0.99853515625
vt 0.8095324039459229 0.5304191708564758
vt 0.8397926688194275 0.5
vt 0.5608383417129517 0.5
vt 0.5910986065864563 0.5304191708564758
vt 0.8095324039459229 0.75
vt 0.8397926688194275 0.7804191708564758
vt 0.8397926688194275 0.5
vt 0.8095324039459229 0.5304191708564758
vt 0.5910986065864563 0.5304191708564758
vt 0.5608383417129517 0.5
vt 0.5608383417129517 0.7804191708564758
vt 0.5910986065864563 0.75
vt 0.5910986065864563 0.75
vt 0.5608383417129517 0.7804191708564758
vt 0.8397926688194275 0.7804191708564758
vt 0.8095324039459229 0.75
vt 0.8095324039459229 0.03041917644441128
vt 0.5910986065864563 0.03041917644441128
vt 0.5608383417129517 0
vt 0.8397926688194275 0
vt 0.8095324039459229 0.25
vt 0.8095324039459229 0.03041917644441128
vt 0.8397926688194275 0
vt 0.8397926688194275 0.2804191708564758
vt 0.5910986065864563 0.03041917644441128
vt 0.5910986065864563 0.25
vt 0.5608383417129517 0.2804191708564758
vt 0.5608383417129517 0
vt 0.5910986065864563 0.25
vt 0.8095324039459229 0.25
vt 0.8397926688194275 0.2804191708564758
vt 0.5608383417129517 0.2804191708564758
vt 0 0.2195808291435242
vt 0 0.4376968145370483
vt 0.2789543271064758 0.4376968145370483
vt 0.2789543271064758 0.2195808291435242
vt 0 0
vt 0 0.2181159853935242
vt 0.2789543271064758 0.2181159853935242
vt 0.2789543271064758 0
vt 0.2804191708564758 0.2195808291435242
vt 0.2804191708564758 0.4376968145370483
vt 0.5593734979629517 0.4376968145370483
vt 0.5593734979629517 0.2195808291435242
vt 0.2804191708564758 0
vt 0.2804191708564758 0.2181159853935242
vt 0.5593734979629517 0.2181159853935242
vt 0.5593734979629517 0
vn 0 -1 0
vn 0 -1 0
vn 0 -1 0
vn 0 -1 0
vn 1 0 0
vn 1 0 0
vn 1 0 0
vn 1 0 0
vn 0 1 0
vn 0 1 0
vn 0 1 0
vn 0 1 0
vn -1 0 0
vn -1 0 0
vn -1 0 0
vn -1 0 0
vn 0 0 -1
vn 0 0 -1
vn 0 0 -1
vn 0 0 -1
vn 0 0 -1
vn 0 0 -1
vn 0 0 -1
vn 0 0 -1
vn 0 0 -1
vn 0 0 -1
vn 0 0 -1
vn 0 0 -1
vn 0 0 -1
vn 0 0 -1
vn 0 0 -1
vn 0 0 -1
vn 0 0 1
vn 0 0 1
vn 0 0 1
vn 0 0 1
vn 0 0 1
vn 0 0 1
vn 0 0 1
vn 0 0 1
vn 0 0 1
vn 0 0 1
vn 0 0 1
vn 0 0 1
vn 0 0 1
vn 0 0 1
vn 0 0 1
vn 0 0 1
vn 0 1 0
vn 0 1 0
vn 0 1 0
vn 0 1 0
vn -1 0 0
vn -1 0 0
vn -1 0 0
vn -1 0 0
vn 0 -1 0
vn 0 -1 0
vn 0 -1 0
vn 0 -1 0
vn 1 0 0
vn 1 0 0
vn 1 0 0
vn 1 0 0
f 1/1/1 2/2/2 3/3/3 4/4/4
f 5/5/5 6/6/6 7/7/7 8/8/8
f 9/9/9 10/10/10 11/11/11 12/12/12
f 13/13/13 14/14/14 15/15/15 16/16/16
f 17/17/17 18/18/18 19/19/19 20/20/20
f 21/21/21 22/22/22 23/23/23 24/24/24
f 25/25/25 26/26/26 27/27/27 28/28/28
f 29/29/29 30/30/30 31/31/31 32/32/32
f 33/33/33 34/34/34 35/35/35 36/36/36
f 37/37/37 38/38/38 39/39/39 40/40/40
f 41/41/41 42/42/42 43/43/43 44/44/44
f 45/45/45 46/46/46 47/47/47 48/48/48
f 49/49/49 50/50/50 51/51/51 52/52/52
f 53/53/53 54/54/54 55/55/55 56/56/56
f 57/57/57 58/58/58 59/59/59 60/60/60
f 61/61/61 62/62/62 63/63/63 64/64/64
