# Rhino

mtllib initial13.mtl
o 13
usemtl Default
v -2 3 3
v 2 3 3
v 2 3 2.5
v -2 3 2.5
v 2 2.5 3
v 2 2.5 2.5
v 2 3 2.5
v 2 3 3
v -2 2.5 2.5
v -2 3 2.5
v 2 3 2.5
v 2 2.5 2.5
v -2 2.5 3
v -2 2.5 2.5
v 2 2.5 2.5
v 2 2.5 3
v -2 2.5 3
v -2 3 3
v -2 3 2.5
v -2 2.5 2.5
v -2 2.5 3
v 2 2.5 3
v 2 3 3
v -2 3 3
vn -0.5773502588272095 0.5773502588272095 0.5773502588272095
vn 0.5773502588272095 0.5773502588272095 0.5773502588272095
vn 0.5773502588272095 0.5773502588272095 -0.5773502588272095
vn -0.5773502588272095 0.5773502588272095 -0.5773502588272095
vn 0.5773502588272095 -0.5773502588272095 0.5773502588272095
vn 0.5773502588272095 -0.5773502588272095 -0.5773502588272095
vn 0.5773502588272095 0.5773502588272095 -0.5773502588272095
vn 0.5773502588272095 0.5773502588272095 0.5773502588272095
vn -0.5773502588272095 -0.5773502588272095 -0.5773502588272095
vn -0.5773502588272095 0.5773502588272095 -0.5773502588272095
vn 0.5773502588272095 0.5773502588272095 -0.5773502588272095
vn 0.5773502588272095 -0.5773502588272095 -0.5773502588272095
vn -0.5773502588272095 -0.5773502588272095 0.5773502588272095
vn -0.5773502588272095 -0.5773502588272095 -0.5773502588272095
vn 0.5773502588272095 -0.5773502588272095 -0.5773502588272095
vn 0.5773502588272095 -0.5773502588272095 0.5773502588272095
vn -0.5773502588272095 -0.5773502588272095 0.5773502588272095
vn -0.5773502588272095 0.5773502588272095 0.5773502588272095
vn -0.5773502588272095 0.5773502588272095 -0.5773502588272095
vn -0.5773502588272095 -0.5773502588272095 -0.5773502588272095
vn -0.5773502588272095 -0.5773502588272095 0.5773502588272095
vn 0.5773502588272095 -0.5773502588272095 0.5773502588272095
vn 0.5773502588272095 0.5773502588272095 0.5773502588272095
vn -0.5773502588272095 0.5773502588272095 0.5773502588272095
f 1//1 2//2 3//3 4//4
f 5//5 6//6 7//7 8//8
f 9//9 10//10 11//11 12//12
f 13//13 14//14 15//15 16//16
f 17//17 18//18 19//19 20//20
f 21//21 22//22 23//23 24//24
