<?xml version="1.0"?>
<!DOCTYPE svg PUBLIC "-//W3C//DTD SVG 1.1//EN"
 "http://www.w3.org/Graphics/SVG/1.1/DTD/svg11.dtd">
 
<svg xmlns="http://www.w3.org/2000/svg" version = "1.1"
      preserveAspectRatio = "xMinYMin meet" viewBox = "0 0 150 150">
 <path d= "M-1.3575339800,1.3573733300 
L 1.2543528300,0.5195699500
L 1.2788734100,0.4558894100
L 1.3001644600,0.3910576100
L 1.3181703700,0.3252377400
L 1.3328469500,0.2585963800
L 1.3441565800,0.1913018200
L 1.3520704200,0.1235239200
L 1.3565695300,0.0554340800
L 1.3576408200,-0.0127958500
L 1.3552837300,-0.0809934600
L 1.3495019400,-0.1489864000
L 1.3403121200,-0.2166031100
L 1.3277359600,-0.2836725300
L 1.3118060400,-0.3500254600
L 1.2925625900,-0.4154941900
L 1.2700534400,-0.4799132200
L 1.2443369000,-0.5431202400
L 1.2154760100,-0.6049548600
L 1.1835457500,-0.6652618100
L 1.1486248700,-0.7238877500
L 1.1108030600,-0.7806855000
L 1.0701750200,-0.8355109300
L 1.0268435400,-0.8882257900
L 0.9809185700,-0.9386972000
L 0.9325150800,-0.9867968400
L 0.8817566900,-1.0324045200
L 0.8287702200,-1.0754033200
L 0.7736908000,-1.1156864300
L 0.7166565200,-1.1531505300
L 0.6578121300,-1.1877021000
L 0.5973060700,-1.2192533600
L 0.5352909600,-1.2477243900
L 0.4719239800,-1.2730442100
L 0.4073645100,-1.2951472800
L 0.3417763500,-1.3139797700
L 0.2753245400,-1.3294919500
L 0.2081774200,-1.3416466200
L 0.1405043700,-1.3504115700
L 0.0724763700,-1.3557654900
L 0.0042653500,-1.3576948500
L -0.0639565000,-1.3561939400
L -0.1320167900,-1.3512681000
L -0.1997435200,-1.3429277100
L -0.2669658300,-1.3311961000
L -0.3335135600,-1.3161007800
L -0.3992190000,-1.2976815800
L -0.4639158400,-1.2759840000
L -0.5274408200,-1.2510631100
L -0.5896335800,-1.2229823800
L -0.6503365500,-1.1918115300
L -0.7093972000,-1.1576310100
L -0.7666652500,-1.1205252200
L -0.8219972400,-1.0805897400
L -0.8752522800,-1.0379239700
L -0.9262966900,-0.9926366500
L -0.9750011200,-0.9448418300
L -1.0212424200,-0.8946599800
L -1.0649044600,-0.8422186800
L -1.1058757100,-0.7876491900
L -1.1440543300,-0.7310907100
L -1.1793420100,-0.6726848100
L -1.2116514000,-0.6125801000
L -1.2408994900,-0.5509277200
L -1.2670131800,-0.4878837000
L -1.2899264600,-0.4236073700
L -1.3095807300,-0.3582607300
L -1.3259277700,-0.2920093800
L -1.3389243000,-0.2250201100
L -1.3485397100,-0.1574626200
L -1.3547475800,-0.0895072700
L -1.3575339800,-0.0213258300
L -1.3568907800,0.0469094400
L -1.3528199000,0.1150262700
L -1.3453321600,0.1828525200
L -1.3344451700,0.2502168000
L -1.3201883100,0.3169491700
L -1.3025954000,0.3828806500
L -1.2817130400,0.4478452400
L -1.2575921800,0.5116782400
L -1.2302949700,0.5742189200
L -1.1998899000,0.6353089900
L -1.1664534800,0.6947941100
L -1.1300711400,0.7525244500
L -1.0908332800,0.8083533100
L -1.0488408100,0.8621408700
L -1.0041980000,0.9137498700
L -0.9570191700,0.9630512900
L -0.9074224300,1.0099195100
L -0.8555335700,1.0542367900
L -0.8014837500,1.0958911000
L -0.7454089000,1.1347766400
L -0.6874516300,1.1707963800
L -0.6277572100,1.2038576400
L -0.5664775400,1.2338788500
L -0.5037665000,1.2607822500
L -0.4397831300,1.2845014900
L -0.3746887800,1.3049756300
L -0.3086478600,1.3221532500
L -0.2418274200,1.3359914500
L -0.1743959200,1.3464540200
L -0.1065240600,1.3535163800
L -0.0383829800,1.3571584700
L 0.0298550200,1.3573733300
L 0.0980175700,1.3541585100
L 0.1659325900,1.3475234500
L 0.2334283800,1.3374843900
L 0.3003345100,1.3240663700
L 0.3664820900,1.3073043600
L 0.4317036600,1.2872390100
L 0.4958350600,1.2639230700
L 0.5587135200,1.2374132900
L 0.6201810200,1.2077785300
L 0.6800815800,1.1750923100
L 0.7382643500,1.1394378600
L 0.7945822700,1.1009053100
L 0.8488927000,1.0595912600
L 0.9010592900,1.0156013300
L 0.9509490100,0.9690450500
L 0.9984373300,0.9200416900
L 1.0434027700,0.8687135500
L 1.0857330500,0.8151914000
L 1.1253203800,0.7596098500
L 1.1620650300,0.7021093800
L 1.1958745900,0.6428356100
L 1.2266625600,0.5819375500
L 1.2543528300,0.519569950
 " stroke = "black" stroke-width = ".1" fill = "none" />
</svg>