<?xml version="1.0"?>
<!DOCTYPE svg PUBLIC "-//W3C//DTD SVG 1.1//EN"
 "http://www.w3.org/Graphics/SVG/1.1/DTD/svg11.dtd">
 
<svg xmlns="http://www.w3.org/2000/svg" version = "1.1"
      preserveAspectRatio = "xMinYMin meet" viewBox = "0 0 150 150">
 <path d= "M-2.0105866200,2.1087429500 
L 1.8289430400,0.7730869600
L 1.7369149600,0.6818508500
L 1.6371073200,0.5990117500
L 1.5355428500,0.5183190600
L 1.4361789900,0.4349650500
L 1.3525690300,0.3365430600
L 1.3412781000,0.2105395500
L 1.3552457500,0.0816256300
L 1.3568514500,-0.0480328300
L 1.3460808800,-0.1772530900
L 1.3230324600,-0.3048565600
L 1.2898419200,-0.4302122000
L 1.3216949500,-0.5526913900
L 1.4025991100,-0.6538627700
L 1.4921902300,-0.7476647700
L 1.5822654700,-0.8410067300
L 1.6684339400,-0.9379320400
L 1.7389013900,-1.0463458100
L 1.7458699400,-1.1725741200
L 1.6767013500,-1.2817309300
L 1.5948050000,-1.3823012400
L 1.5058636100,-1.4766124500
L 1.3876314300,-1.5210920000
L 1.2641567700,-1.4844104700
L 1.1513176300,-1.4205409100
L 1.0424739100,-1.3499821800
L 0.9342033500,-1.2785408600
L 0.8224750100,-1.2127641700
L 0.6985293000,-1.1798395600
L 0.5790590500,-1.2280241400
L 0.4594717800,-1.2781890200
L 0.3744647600,-1.3712445900
L 0.3411236100,-1.4963522300
L 0.3210837100,-1.6245049500
L 0.3023658900,-1.7528641800
L 0.2791537800,-1.8804663000
L 0.2396972900,-2.0037166000
L 0.1505737400,-2.0938570700
L 0.0227308800,-2.1103662000
L -0.1069405900,-2.1077767700
L -0.2362081700,-2.0972284300
L -0.3645837100,-2.0787589100
L -0.4911128700,-2.0506494200
L -0.5881204700,-1.9698400300
L -0.6187547800,-1.8446510500
L -0.6218740500,-1.7150228300
L -0.6175301300,-1.5853819800
L -0.6123268600,-1.4557701200
L -0.6142128800,-1.3261397400
L -0.6522752200,-1.2038424900
L -0.7563098800,-1.1275406600
L -0.8609740200,-1.0509655600
L -0.9853084000,-1.0294731000
L -1.1094225100,-1.0664252700
L -1.2294534200,-1.1155937100
L -1.3490616100,-1.1657963200
L -1.4704213100,-1.2115394500
L -1.5965597800,-1.2403179900
L -1.7188721400,-1.2074955800
L -1.7978178400,-1.1054469800
L -1.8623242400,-0.9929288800
L -1.9197983600,-0.8766615200
L -1.9700216800,-0.7570830200
L -2.0105866200,-0.6340076300
L -1.9881941100,-0.5097992000
L -1.8955588000,-0.4200921500
L -1.7859251700,-0.3508479200
L -1.6726049500,-0.2877268700
L -1.5589602300,-0.2251879600
L -1.4492242100,-0.1561725000
L -1.3661593200,-0.0589046900
L -1.3559020700,0.0698717500
L -1.3430529400,0.1989019100
L -1.3179533400,0.3261178700
L -1.2808319100,0.4503591500
L -1.2659188300,0.5762268800
L -1.3285923000,0.6890700800
L -1.4106357200,0.7895151900
L -1.4955596100,0.8875691700
L -1.5785108700,0.9872847600
L -1.6526826200,1.0935620500
L -1.6887114900,1.2164085500
L -1.6364768500,1.3326054400
L -1.5515780500,1.4306517000
L -1.4607715700,1.5232560700
L -1.3644471000,1.6101064500
L -1.2629437000,1.6908410400
L -1.1450106000,1.7392390700
L -1.0235114800,1.6990787500
L -0.9203234300,1.6206751200
L -0.8241926500,1.5335953300
L -0.7298668100,1.4445486300
L -0.6331186700,1.3581744600
L -0.5234088000,1.2901090100
L -0.3970700300,1.2984330900
L -0.3010036500,1.3797180800
L -0.2580011700,1.5017601800
L -0.2301934300,1.6284512900
L -0.2042978700,1.7555576000
L -0.1745404800,1.8817981500
L -0.1306180900,2.0036060400
L -0.0419427300,2.0946865100
L 0.0858234700,2.1087429500
L 0.2151902000,2.0994885200
L 0.3437092700,2.0820985900
L 0.4571059700,2.0248265000
L 0.5074696300,1.9068596600
L 0.5215010200,1.7779991100
L 0.5255735100,1.6483535400
L 0.5274828600,1.5186501000
L 0.5338044300,1.3891182300
L 0.5655189700,1.2641596800
L 0.6644454200,1.1840041200
L 0.7743654700,1.1152184000
L 0.8950650800,1.0789833600
L 1.0189637000,1.1158836000
L 1.1365608400,1.1705965700
L 1.2529923500,1.2277835500
L 1.3708291300,1.2819839100
L 1.4933123400,1.3241835900
L 1.6207343000,1.3184353100
L 1.7142770800,1.2310220600
L 1.7866546800,1.1233983100
L 1.8522602800,1.0115186800
L 1.8847668700,0.8881595000
L 1.8289430400,0.773086960
 " stroke = "black" stroke-width = ".1" fill = "none" />
</svg>