<?xml version="1.0"?>
<!DOCTYPE svg PUBLIC "-//W3C//DTD SVG 1.1//EN"
 "http://www.w3.org/Graphics/SVG/1.1/DTD/svg11.dtd">
 
<svg xmlns="http://www.w3.org/2000/svg" version = "1.1"
      preserveAspectRatio = "xMinYMin meet" viewBox = "0 0 150 150">
 <path d= "M-2.6769445700,2.5746037700 
L 2.0408407400,0.8336657600
L 2.1788297500,0.7926962300
L 2.3187884800,0.7586225400
L 2.4557436900,0.7144168400
L 2.5710930200,0.6306974600
L 2.6291463800,0.5002056300
L 2.6530779600,0.3582021100
L 2.6685027200,0.2149990600
L 2.6762038100,0.0711738300
L 2.6761580900,-0.0728575400
L 2.6683673500,-0.2166779400
L 2.6528517300,-0.3598711700
L 2.6296592200,-0.5020228900
L 2.5988533000,-0.6427212400
L 2.5605246400,-0.7815589400
L 2.5036570700,-0.9133265400
L 2.3949463200,-1.0048743700
L 2.2561822600,-1.0419548400
L 2.1132339800,-1.0595801600
L 1.9703168600,-1.0774154000
L 1.8333933500,-1.1199929900
L 1.7265864900,-1.2148836300
L 1.6391878100,-1.3293691300
L 1.5447078200,-1.4380682800
L 1.4568755500,-1.5515346800
L 1.4231205000,-1.6904611500
L 1.4277224200,-1.8343483500
L 1.4384572100,-1.9779935700
L 1.4376051000,-2.1218825700
L 1.3903160100,-2.2562491500
L 1.2820427500,-2.3495411700
L 1.1540833300,-2.4156205600
L 1.0224991700,-2.4741922400
L 0.8875954200,-2.5245517800
L 0.7454436400,-2.5374902600
L 0.6161244400,-2.4773847600
L 0.5094956600,-2.3807117000
L 0.4095582800,-2.2769710300
L 0.3040399800,-2.1790930000
L 0.1754377500,-2.1168699500
L 0.0319256600,-2.1102471900
L -0.1120691000,-2.1075103500
L -0.2555419300,-2.0949603100
L -0.3978249000,-2.0726545600
L -0.5396541700,-2.0483478000
L -0.6797618000,-2.0755350700
L -0.8035302300,-2.1487989000
L -0.9209044100,-2.2323029400
L -1.0419894900,-2.3101935600
L -1.1775156500,-2.3555795000
L -1.3171862800,-2.3276258500
L -1.4418627300,-2.2556961600
L -1.5610887700,-2.1748865900
L -1.6757238400,-2.0876919100
L -1.7721255300,-1.9817503100
L -1.8057205000,-1.8435444200
L -1.7843332100,-1.7013493900
L -1.7478742800,-1.5619995800
L -1.7143679600,-1.4219498100
L -1.7126106400,-1.2787858100
L -1.7709980800,-1.1480786800
L -1.8450994900,-1.0245811400
L -1.9106813400,-0.8963587300
L -1.9673643700,-0.7639615200
L -2.0170339300,-0.6287654500
L -2.0995532500,-0.5123386000
L -2.2217589400,-0.4369493700
L -2.3535212200,-0.3787611500
L -2.4842477800,-0.3183372100
L -2.6018333600,-0.2362578700
L -2.6675556900,-0.1102172900
L -2.6769445700,0.0332089400
L -2.6712832500,0.1771289800
L -2.6578923300,0.3205364300
L -2.6368058800,0.4630158600
L -2.6080895300,0.6041554800
L -2.5718220900,0.7435458900
L -2.5281124000,0.8807847000
L -2.4735800500,1.0139406800
L -2.3772045000,1.1186597300
L -2.2411581200,1.1629830000
L -2.0977629300,1.1760627200
L -1.9539264900,1.1838245500
L -1.8118503900,1.2057794900
L -1.6878103800,1.2762946100
L -1.5928754000,1.3845248100
L -1.4947409100,1.4899364400
L -1.3896455200,1.5884093700
L -1.2780797100,1.6794864900
L -1.1718832400,1.7760141400
L -1.1143523900,1.9068826500
L -1.0941622700,2.0494169300
L -1.0802715000,2.1927916200
L -1.0551407000,2.3344764400
L -0.9862915000,2.4591975600
L -0.8640490300,2.5332058400
L -0.7261979500,2.5746037700
L -0.5836988700,2.5717631600
L -0.4614961200,2.4978388500
L -0.3620755000,2.3937204600
L -0.2682513500,2.2844193200
L -0.1666523200,2.1825671100
L -0.0385784100,2.1195052700
L 0.1047896000,2.1078854400
L 0.2483049800,2.0958303100
L 0.3910766200,2.0768755400
L 0.5321622900,2.0981804900
L 0.6551064000,2.1724466300
L 0.7679267000,2.2619975800
L 0.8826449700,2.3490537900
L 1.0109407800,2.4129577700
L 1.1530616300,2.4090662000
L 1.2838056900,2.3492504800
L 1.4082916700,2.2768055400
L 1.5287025400,2.1977724100
L 1.6378189700,2.1044388800
L 1.6948888100,1.9742853000
L 1.6892371500,1.8308271000
L 1.6622249000,1.6893560500
L 1.6346161100,1.5479963900
L 1.6305503900,1.4046004200
L 1.6849681100,1.2725695500
L 1.7669507300,1.1541422300
L 1.8415506600,1.0309479700
L 1.9207974300,0.9112101000
L 2.0408407400,0.833665760
 " stroke = "black" stroke-width = ".1" fill = "none" />
</svg>