<?xml version="1.0" encoding="utf-8"?>
<!-- Generator: Adobe Illustrator 16.0.0, SVG Export Plug-In . SVG Version: 6.00 Build 0)  -->
<!DOCTYPE svg PUBLIC "-//W3C//DTD SVG 1.1//EN" "http://www.w3.org/Graphics/SVG/1.1/DTD/svg11.dtd">
<svg version="1.1" id="Layer_01" xmlns="http://www.w3.org/2000/svg" xmlns:xlink="http://www.w3.org/1999/xlink" x="0px" y="0px"
	 width="127.774px" height="110.123px" viewBox="0 0 127.774 110.123" enable-background="new 0 0 127.774 110.123"
	 xml:space="preserve">
<path fill="none" stroke="#FF0000" stroke-linecap="round" stroke-linejoin="round" d="M30.237,65.655c-7.598,0-15.197,0-22.795,0
	c-1.899,0-3.799,0-5.699,0c-0.475,0-0.95,0-1.425,0c-0.497,0-0.258-0.909-0.258-1.175c0-0.957,0-1.914,0-2.87
	c0-3.827,0-7.653,0-11.48c0-1.913,0-3.826,0-5.74c0-0.957,0-1.913,0-2.87c0-0.478,0-0.957,0-1.435c0-0.107-0.162-0.312,0.046-0.312
	c0.119,0,0.237,0,0.356,0c0.237,0,0.475,0,0.712,0c3.799,0,7.598,0,11.397,0c3.799,0,7.598,0,11.397,0c1.9,0,3.799,0,5.699,0
	c0.207,0,0.568,0.235,0.568-0.145c0-0.237,0-0.475,0-0.712c0-0.475,0-0.95,0-1.424c0-0.95,0-1.9,0-2.85c0-1.899,0-3.799,0-5.699
	c0-0.95,0-1.899,0-2.849c0-0.504-0.948-0.214-1.211-0.214c-0.475,0-0.95,0-1.425,0c-3.799,0-7.598,0-11.397,0s-7.598,0-11.397,0
	c-0.95,0-1.9,0-2.85,0c-0.475,0-0.95,0-1.425,0c-0.214,0-0.472,0.075-0.472-0.242c0-0.239,0-0.478,0-0.717c0-1.914,0-3.827,0-5.74
	c0-3.827,0-7.653,0-11.48c0-1.914,0-3.827,0-5.74c0-0.478,0-0.957,0-1.435C0.06,0.319-0.103,0,0.249,0c0.238,0,0.475,0,0.712,0
	c0.95,0,1.9,0,2.849,0c7.598,0,15.197,0,22.795,0c30.455,0,60.911,0,91.366,0c0.952,0,1.904,0,2.855,0c0.238,0,0.476,0,0.714,0
	c0.105,0,0.299-0.143,0.299,0.057c0,0.119,0,0.238,0,0.357c0,0.476,0,0.952,0,1.428c0,1.903,0,3.807,0,5.71c0,3.807,0,7.614,0,11.42
	c0,1.904,0,3.807,0,5.71c0,0.264,0.271,1.198-0.229,1.198c-0.476,0-0.952,0-1.428,0c-0.952,0-1.903,0-2.855,0
	c-3.807,0-7.614,0-11.42,0c-7.614,0-15.228,0-22.842,0c-3.807,0-7.614,0-11.42,0c-0.952,0-1.903,0-2.855,0c-0.476,0-0.952,0-1.427,0
	c-0.415,0-1.061-0.341-1.061,0.367c0,1.904,0,3.807,0,5.71c0,1.904,0,3.807,0,5.71c0,0.476,0,0.952,0,1.428c0,0.119,0,0.238,0,0.357
	c0,0.108-0.176,0.32,0.037,0.32c0.238,0,0.476,0,0.714,0c0.952,0,1.903,0,2.855,0c3.807,0,7.614,0,11.421,0
	c7.614,0,15.228,0,22.841,0c3.807,0,7.614,0,11.421,0c1.903,0,3.807,0,5.71,0c0.207,0,0.539-0.185,0.539,0.175
	c0,0.238,0,0.476,0,0.714c0,0.476,0,0.952,0,1.427c0,0.952,0,1.904,0,2.855c0,3.807,0,7.614,0,11.421c0,1.903,0,3.807,0,5.71
	c0,0.952,0,1.904,0,2.855c0,0.238,0,0.476,0,0.714c0,0.231-0.231,0.01-0.347,0.01c-0.119,0-0.238,0-0.357,0
	c-0.476,0-0.952,0-1.427,0c-15.228,0-30.456,0-45.683,0c-1.903,0-3.807,0-5.71,0c-0.476,0-0.952,0-1.427,0
	c-0.837,0-0.586,0.179-0.586,0.842c0,0.952,0,1.903,0,2.855c0,1.903,0,3.807,0,5.71c0,2.018,0.057,3.695,1.725,5.236
	c1.646,1.522,3.374,1.426,5.338,1.426c1.903,0,3.807,0,5.71,0c3.807,0,7.614,0,11.421,0c5.617,0,11.235,0,16.853,0
	c2.809,0,5.618,0,8.426,0c1.404,0,2.809,0,4.213,0c0.351,0,0.702,0,1.053,0c0.305,0,0.799-0.279,0.799,0.254
	c0,0.702,0,1.404,0,2.106c0,5.618,0,11.235,0,16.853c0,2.809,0,5.617,0,8.426c0,0.175,0,0.351,0,0.526
	c0,0.397-1.286,0.164-1.488,0.164c-1.438,0-2.876,0-4.315,0c-2.876,0-5.753,0-8.629,0c-5.753,0-11.506,0-17.259,0
	c-6.259,0-12.518,0-18.777,0c-1.565,0-3.129,0-4.694,0c-0.171,0-0.376,0.058-0.376-0.195c0-0.079,0.046-0.206-0.083-0.186
	c-0.184,0.029-0.367,0.056-0.551,0.082c-0.743,0.104-1.486,0.18-2.234,0.23c-3.119,0.208-6.103-0.036-9.146-0.747
	c-6.341-1.481-11.156-4.258-15.613-9.004c-4.512-4.806-6.988-9.839-8.039-16.347C30.096,80.554,30.237,68.971,30.237,65.655z"/>
</svg>
