# Rhino

mtllib init21.mtl
o 21
usemtl Default
v -0.2777777910232544 -0.5 0.1666666716337204
v -0.2777777910232544 -0.4600000083446503 0.1666666716337204
v -0.1666666716337204 -0.4600000083446503 0.1666666716337204
v -0.1666666716337204 -0.5 0.1666666716337204
v -0.2777777910232544 -0.5 0.5
v -0.2777777910232544 -0.5 0.1666666716337204
v -0.1666666716337204 -0.5 0.1666666716337204
v -0.1666666716337204 -0.5 0.5
v -0.2777777910232544 -0.5 0.5
v -0.2777777910232544 -0.4600000083446503 0.5
v -0.2777777910232544 -0.4600000083446503 0.1666666716337204
v -0.2777777910232544 -0.5 0.1666666716337204
v -0.2777777910232544 -0.5 0.5
v -0.1666666716337204 -0.5 0.5
v -0.1666666716337204 -0.4600000083446503 0.5
v -0.2777777910232544 -0.4600000083446503 0.5
v -0.2777777910232544 -0.4600000083446503 0.5
v -0.1666666716337204 -0.4600000083446503 0.5
v -0.1666666716337204 -0.4600000083446503 0.1666666716337204
v -0.2777777910232544 -0.4600000083446503 0.1666666716337204
v -0.1666666716337204 -0.5 0.5
v -0.1666666716337204 -0.5 0.1666666716337204
v -0.1666666716337204 -0.4600000083446503 0.1666666716337204
v -0.1666666716337204 -0.4600000083446503 0.5
vn -0.5773502588272095 -0.5773502588272095 -0.5773502588272095
vn -0.5773502588272095 0.5773502588272095 -0.5773502588272095
vn 0.5773502588272095 0.5773502588272095 -0.5773502588272095
vn 0.5773502588272095 -0.5773502588272095 -0.5773502588272095
vn -0.5773502588272095 -0.5773502588272095 0.5773502588272095
vn -0.5773502588272095 -0.5773502588272095 -0.5773502588272095
vn 0.5773502588272095 -0.5773502588272095 -0.5773502588272095
vn 0.5773502588272095 -0.5773502588272095 0.5773502588272095
vn -0.5773502588272095 -0.5773502588272095 0.5773502588272095
vn -0.5773502588272095 0.5773502588272095 0.5773502588272095
vn -0.5773502588272095 0.5773502588272095 -0.5773502588272095
vn -0.5773502588272095 -0.5773502588272095 -0.5773502588272095
vn -0.5773502588272095 -0.5773502588272095 0.5773502588272095
vn 0.5773502588272095 -0.5773502588272095 0.5773502588272095
vn 0.5773502588272095 0.5773502588272095 0.5773502588272095
vn -0.5773502588272095 0.5773502588272095 0.5773502588272095
vn -0.5773502588272095 0.5773502588272095 0.5773502588272095
vn 0.5773502588272095 0.5773502588272095 0.5773502588272095
vn 0.5773502588272095 0.5773502588272095 -0.5773502588272095
vn -0.5773502588272095 0.5773502588272095 -0.5773502588272095
vn 0.5773502588272095 -0.5773502588272095 0.5773502588272095
vn 0.5773502588272095 -0.5773502588272095 -0.5773502588272095
vn 0.5773502588272095 0.5773502588272095 -0.5773502588272095
vn 0.5773502588272095 0.5773502588272095 0.5773502588272095
f 1//1 2//2 3//3 4//4
f 5//5 6//6 7//7 8//8
f 9//9 10//10 11//11 12//12
f 13//13 14//14 15//15 16//16
f 17//17 18//18 19//19 20//20
f 21//21 22//22 23//23 24//24
