<?xml version="1.0"?>
<!DOCTYPE svg PUBLIC "-//W3C//DTD SVG 1.1//EN"
 "http://www.w3.org/Graphics/SVG/1.1/DTD/svg11.dtd">
 
<svg xmlns="http://www.w3.org/2000/svg" version = "1.1"
      preserveAspectRatio = "xMinYMin meet" viewBox = "0 0 150 150">
 <path d= "M-18.3458819000,18.3514992900 
L 13.1648512100,-12.7855387800
L 12.0488141700,-13.8423042200
L 10.8482634300,-14.8019758700
L 9.5716190000,-15.6578229300
L 8.2278371400,-16.4038411700
L 6.8263434000,-17.0347980600
L 5.3769675500,-17.5462682400
L 3.8898751300,-17.9346642200
L 2.3754987700,-18.1972611900
L 0.8444599800,-18.3322174500
L -0.6925021900,-18.3385863700
L -2.2246068500,-18.2163232700
L -3.7411081000,-17.9662856300
L -5.2313676500,-17.5902274500
L -6.6849320900,-17.0907867600
L -8.0916077100,-16.4714660500
L -9.4415260700,-15.7366100100
L -10.7252184900,-14.8913732600
L -11.9336822400,-13.9416834500
L -13.0584379900,-12.8942043700
L -14.0915999000,-11.7562800800
L -15.0259187600,-10.5358945800
L -15.8548412800,-9.2416079300
L -16.5725542800,-7.8824966700
L -17.1740222200,-6.4680963100
L -17.6550269600,-5.0083262900
L -18.0121942300,-3.5134268300
L -18.2430188200,-1.9938840600
L -18.3458819000,-0.4603547000
L -18.3200617100,1.0764052000
L -18.1657394100,2.6056133600
L -17.8839976100,4.1165444900
L -17.4768123200,5.5986016300
L -16.9470398000,7.0413884400
L -16.2983957600,8.4347854000
L -15.5354305700,9.7690176700
L -14.6634952900,11.0347276800
L -13.6887058800,12.2230372800
L -12.6179009400,13.3256101200
L -11.4585895300,14.3347143400
L -10.2189046600,15.2432705400
L -8.9075419300,16.0449059200
L -7.5336990600,16.7339979600
L -6.1070125400,17.3057131300
L -4.6374889300,17.7560413800
L -3.1354373600,18.0818235200
L -1.6113937500,18.2807745800
L -0.0760465600,18.3514992900
L 1.4598350300,18.2935013300
L 2.9854759300,18.1071876000
L 4.4901758700,17.7938649500
L 5.9633805000,17.3557311000
L 7.3947562600,16.7958592800
L 8.7742633700,16.1181764300
L 10.0922248400,15.3274364100
L 11.3393968200,14.4291853200
L 12.5070310500,13.4297238800
L 13.5869372200,12.3360628300
L 14.5715411000,11.1558728500
L 15.4539355600,9.8974332500
L 16.2279322300,8.5695696900
L 16.8881018000,7.1815963800
L 17.4298133500,5.7432495900
L 17.8492674400,4.2646173400
L 18.1435213700,2.7560735600
L 18.3105118200,1.2281962000
L 18.3490670900,-0.3082954100
L 18.2589167800,-1.8426250500
L 18.0406933000,-3.3640294900
L 17.6959273000,-4.8618377400
L 17.2270370800,-6.3255436500
L 16.6373114900,-7.7448805900
L 15.9308871000,-9.1098927100
L 15.1127189400,-10.4110055000
L 14.1885452900,-11.6390932500
L 13.1648512100,-12.785538780
 " stroke = "black" stroke-width = ".1" fill = "none" />
</svg>