<?xml version="1.0"?>
<!DOCTYPE svg PUBLIC "-//W3C//DTD SVG 1.1//EN"
 "http://www.w3.org/Graphics/SVG/1.1/DTD/svg11.dtd">
 
<svg xmlns="http://www.w3.org/2000/svg" version = "1.1"
      preserveAspectRatio = "xMinYMin meet" viewBox = "0 0 150 150">
 <path d= "M-12.8481586300,11.9719755800 
L 2.2795539700,-10.7564411800
L 1.6744454700,-10.0080175100
L 1.0693369700,-9.2595938300
L 0.4642284600,-8.5111701600
L -0.1408800400,-7.7627464800
L -0.7459885500,-7.0143228000
L -1.3510970500,-6.2658991300
L -1.9562055500,-5.5174754500
L -2.5613140600,-4.7690517700
L -3.1664225600,-4.0206281000
L -3.7715310700,-3.2722044200
L -4.3766395700,-2.5237807500
L -4.9817480800,-1.7753570700
L -5.5868565800,-1.0269333900
L -6.1919650800,-0.2785097200
L -6.7970735900,0.4699139600
L -7.4021820900,1.2183376400
L -8.0072906000,1.9667613100
L -8.6123991000,2.7151849900
L -9.2175076000,3.4636086600
L -9.8226161100,4.2120323400
L -10.4277246100,4.9604560200
L -11.0328331200,5.7088796900
L -11.6379416200,6.4573033700
L -12.2430501300,7.2057270500
L -12.8481586300,7.9541507200
L -12.8451054200,8.4671917700
L -11.8938069500,8.6132244300
L -10.9425084900,8.7592570900
L -9.9912100300,8.9052897500
L -9.0399115700,9.0513224100
L -8.0886131100,9.1973550700
L -7.1373146400,9.3433877200
L -6.1860161800,9.4894203800
L -5.2347177200,9.6354530400
L -4.2834192600,9.7814857000
L -3.3321208000,9.9275183600
L -2.3808223400,10.0735510200
L -1.4295238700,10.2195836800
L -0.4782254100,10.3656163400
L 0.4730730500,10.5116489900
L 1.4243715100,10.6576816500
L 2.3756699700,10.8037143100
L 3.3269684400,10.9497469700
L 4.2782669000,11.0957796300
L 5.2295653600,11.2418122900
L 6.1808638200,11.3878449500
L 7.1321622800,11.5338776000
L 8.0834607500,11.6799102600
L 9.0347592100,11.8259429200
L 9.9860576700,11.9719755800
L 9.7308750300,11.1073035000
L 9.4204033200,10.1963141400
L 9.1099316100,9.2853247800
L 8.7994599000,8.3743354200
L 8.4889881900,7.4633460600
L 8.1785164800,6.5523566900
L 7.8680447700,5.6413673300
L 7.5575730600,4.7303779700
L 7.2471013500,3.8193886100
L 6.9366296400,2.9083992500
L 6.6261579300,1.9974098800
L 6.3156862200,1.0864205200
L 6.0052145000,0.1754311600
L 5.6947427900,-0.7355582000
L 5.3842710800,-1.6465475600
L 5.0737993700,-2.5575369300
L 4.7633276600,-3.4685262900
L 4.4528559500,-4.3795156500
L 4.1423842400,-5.2905050100
L 3.8319125300,-6.2014943700
L 3.5214408200,-7.1124837400
L 3.2109691100,-8.0234731000
L 2.9004974000,-8.9344624600
L 2.5900256900,-9.8454518200
L 2.2795539700,-10.756441180
 " stroke = "black" stroke-width = ".1" fill = "none" />
</svg>