<?xml version="1.0"?>
<!DOCTYPE svg PUBLIC "-//W3C//DTD SVG 1.1//EN"
 "http://www.w3.org/Graphics/SVG/1.1/DTD/svg11.dtd">
 
<svg xmlns="http://www.w3.org/2000/svg" version = "1.1"
      preserveAspectRatio = "xMinYMin meet" viewBox = "0 0 150 150">
 <path d= "M-18.2045764000,17.2382845600 
L -10.1583272700,-7.5959959500
L -12.2641463500,-7.5693400100
L -14.3699654200,-7.5426840700
L -16.4757844900,-7.5160281400
L -18.2045764000,-7.1248602300
L -18.1601561600,-5.0193409700
L -18.1157359200,-2.9138217100
L -18.0713156800,-0.8083024500
L -18.0268954400,1.2972168100
L -17.9824752100,3.4027360700
L -17.9380549700,5.5082553300
L -17.8936347300,7.6137745900
L -17.8492144900,9.7192938500
L -17.8047942600,11.8248131100
L -17.7603740200,13.9303323700
L -17.7159537800,16.0358516300
L -16.2354683900,16.5299829900
L -14.1387466600,16.3326444800
L -12.0420249300,16.1353059600
L -9.9453032000,15.9379674400
L -9.1074795500,14.6610096600
L -9.2320525400,12.5587094700
L -9.3566255400,10.4564092800
L -9.4811985400,8.3541090900
L -8.1108765100,7.5836483300
L -6.0081962700,7.4656638400
L -3.9055160400,7.3476793500
L -1.8028358000,7.2296948600
L 0.2998444300,7.1117103800
L 2.4025246700,6.9937258900
L 4.5052049000,6.8757414000
L 6.6078851400,6.7577569100
L 8.7105653800,6.6397724200
L 10.8132456100,6.5217879300
L 12.2034028800,7.0707999400
L 11.9470421200,9.1611261500
L 11.6906813600,11.2514523600
L 11.4343206000,13.3417785800
L 11.1779598400,15.4321047900
L 11.2337536300,17.2382845600
L 13.3389063600,17.1789844900
L 15.4440590900,17.1196844100
L 17.5492118200,17.0603843300
L 18.1595575700,15.5816087800
L 18.1100186300,13.4762037400
L 18.0604796900,11.3707986900
L 18.0109407500,9.2653936500
L 17.9614018100,7.1599886000
L 17.9118628600,5.0545835600
L 17.8623239200,2.9491785100
L 17.8127849800,0.8437734600
L 17.7632460400,-1.2616315800
L 17.7137070900,-3.3670366300
L 17.6641681500,-5.4724416700
L 17.6146292100,-7.5778467200
L 16.8679062800,-8.8121234800
L 14.8028153700,-8.3991052900
L 12.7377244500,-7.9860871100
L 10.9724244900,-7.3416832200
L 11.0960923500,-5.2393296000
L 11.2197602100,-3.1369759700
L 11.3434280700,-1.0346223400
L 9.5967524300,-0.6292943300
L 7.4923120200,-0.5485783300
L 5.3878716100,-0.4678623300
L 3.2834312000,-0.3871463300
L 1.1789907900,-0.3064303300
L -0.9254496200,-0.2257143300
L -3.0298900300,-0.1449983300
L -5.1343304400,-0.0642823300
L -7.2387708500,0.0164336700
L -9.3432112600,0.0971496700
L -10.0661929400,-1.2787044500
L -10.0969043900,-3.3844682800
L -10.1276158300,-5.4902321200
L -10.1583272700,-7.595995950
 " stroke = "black" stroke-width = ".1" fill = "none" />
</svg>