# Rhino

mtllib uShape3.mtl
o object_1
usemtl Default
v 1 0.8505849838256836 0
v 1 0 0
v 0.7994057536125183 0 0
v 0.7994057536125183 0.8505849838256836 0
vt 1 1
vt 0 1
vt 0 0
vt 1 0
vn 0 0 -1
vn 0 0 -1
vn 0 0 -1
vn 0 0 -1
f 1/1/1 2/2/2 3/3/3 4/4/4
o object_2
usemtl Default
v 1 0.8505849838256836 1
v 0.7994057536125183 0.8505849838256836 1
v 0.7994057536125183 0 1
v 1 0 1
vt 1 1
vt 1 0
vt 0 0
vt 0 1
vn 0 0 1
vn 0 0 1
vn 0 0 1
vn 0 0 1
f 5/5/5 6/6/6 7/7/7 8/8/8
o object_3
usemtl Default
v 0.7994057536125183 0 0
v 1 0 0
v 1 0 1
v 0.7994057536125183 0 1
vt 1 1
vt 0 1
vt 0 0
vt 1 0
vn 0 -1 0
vn 0 -1 0
vn 0 -1 0
vn 0 -1 0
f 9/9/9 10/10/10 11/11/11 12/12/12
o object_4
usemtl Default
v 1 0 0
v 1 0.8505849838256836 0
v 1 0.8505849838256836 1
v 1 0 1
vt 1 1
vt 0 1
vt 0 0
vt 1 0
vn 1 0 0
vn 1 0 0
vn 1 0 0
vn 1 0 0
f 13/13/13 14/14/14 15/15/15 16/16/16
o object_5
usemtl Default
v 1 0.8505849838256836 0
v 0.7994057536125183 0.8505849838256836 0
v 0.7994057536125183 0.8505849838256836 1
v 1 0.8505849838256836 1
vt 1 1
vt 0 1
vt 0 0
vt 1 0
vn 0 1 0
vn 0 1 0
vn 0 1 0
vn 0 1 0
f 17/17/17 18/18/18 19/19/19 20/20/20
o object_6
usemtl Default
v 0.7994057536125183 0.8505849838256836 0
v 0.7994057536125183 0 0
v 0.7994057536125183 0 1
v 0.7994057536125183 0.8505849838256836 1
vt 1 1
vt 0 1
vt 0 0
vt 1 0
vn -1 0 0
vn -1 0 0
vn -1 0 0
vn -1 0 0
f 21/21/21 22/22/22 23/23/23 24/24/24
o object_7
usemtl Default
v 1 1 0
v 1 0.8505849838256836 0
v 0 0.8505849838256836 0
v 0 1 0
vt 1 1
vt 0 1
vt 0 0
vt 1 0
vn 0 0 -1
vn 0 0 -1
vn 0 0 -1
vn 0 0 -1
f 25/25/25 26/26/26 27/27/27 28/28/28
o object_8
usemtl Default
v 1 1 1
v 0 1 1
v 0 0.8505849838256836 1
v 1 0.8505849838256836 1
vt 1 1
vt 1 0
vt 0 0
vt 0 1
vn 0 0 1
vn 0 0 1
vn 0 0 1
vn 0 0 1
f 29/29/29 30/30/30 31/31/31 32/32/32
o object_9
usemtl Default
v 0 0.8505849838256836 0
v 1 0.8505849838256836 0
v 1 0.8505849838256836 1
v 0 0.8505849838256836 1
vt 1 1
vt 0 1
vt 0 0
vt 1 0
vn 0 -1 0
vn 0 -1 0
vn 0 -1 0
vn 0 -1 0
f 33/33/33 34/34/34 35/35/35 36/36/36
o object_10
usemtl Default
v 1 0.8505849838256836 0
v 1 1 0
v 1 1 1
v 1 0.8505849838256836 1
vt 1 1
vt 0 1
vt 0 0
vt 1 0
vn 1 0 0
vn 1 0 0
vn 1 0 0
vn 1 0 0
f 37/37/37 38/38/38 39/39/39 40/40/40
o object_11
usemtl Default
v 1 1 0
v 0 1 0
v 0 1 1
v 1 1 1
vt 1 1
vt 0 1
vt 0 0
vt 1 0
vn 0 1 0
vn 0 1 0
vn 0 1 0
vn 0 1 0
f 41/41/41 42/42/42 43/43/43 44/44/44
o object_12
usemtl Default
v 0 1 0
v 0 0.8505849838256836 0
v 0 0.8505849838256836 1
v 0 1 1
vt 1 1
vt 0 1
vt 0 0
vt 1 0
vn -1 0 0
vn -1 0 0
vn -1 0 0
vn -1 0 0
f 45/45/45 46/46/46 47/47/47 48/48/48
o object_13
usemtl Default
v 0.7994057536125183 0.8505849838256836 0
v 0.7994057536125183 0 0
v 0 0 0
v 0 0.8505849838256836 0
vt 1 1
vt 0 1
vt 0 0
vt 1 0
vn 0 0 -1
vn 0 0 -1
vn 0 0 -1
vn 0 0 -1
f 49/49/49 50/50/50 51/51/51 52/52/52
o object_14
usemtl Default
v 0.7994057536125183 0.8505849838256836 0.2005942463874817
v 0 0.8505849838256836 0.2005942463874817
v 0 0 0.2005942463874817
v 0.7994057536125183 0 0.2005942463874817
vt 1 1
vt 1 0
vt 0 0
vt 0 1
vn 0 0 1
vn 0 0 1
vn 0 0 1
vn 0 0 1
f 53/53/53 54/54/54 55/55/55 56/56/56
o object_15
usemtl Default
v 0 0 0
v 0.7994057536125183 0 0
v 0.7994057536125183 0 0.2005942463874817
v 0 0 0.2005942463874817
vt 1 1
vt 0 1
vt 0 0
vt 1 0
vn 0 -1 0
vn 0 -1 0
vn 0 -1 0
vn 0 -1 0
f 57/57/57 58/58/58 59/59/59 60/60/60
o object_16
usemtl Default
v 0.7994057536125183 0 0
v 0.7994057536125183 0.8505849838256836 0
v 0.7994057536125183 0.8505849838256836 0.2005942463874817
v 0.7994057536125183 0 0.2005942463874817
vt 1 1
vt 0 1
vt 0 0
vt 1 0
vn 1 0 0
vn 1 0 0
vn 1 0 0
vn 1 0 0
f 61/61/61 62/62/62 63/63/63 64/64/64
o object_17
usemtl Default
v 0.7994057536125183 0.8505849838256836 0
v 0 0.8505849838256836 0
v 0 0.8505849838256836 0.2005942463874817
v 0.7994057536125183 0.8505849838256836 0.2005942463874817
vt 1 1
vt 0 1
vt 0 0
vt 1 0
vn 0 1 0
vn 0 1 0
vn 0 1 0
vn 0 1 0
f 65/65/65 66/66/66 67/67/67 68/68/68
o object_18
usemtl Default
v 0 0.8505849838256836 0
v 0 0 0
v 0 0 0.2005942463874817
v 0 0.8505849838256836 0.2005942463874817
vt 1 1
vt 0 1
vt 0 0
vt 1 0
vn -1 0 0
vn -1 0 0
vn -1 0 0
vn -1 0 0
f 69/69/69 70/70/70 71/71/71 72/72/72
