# Rhino

mtllib uShape12.mtl
o object_1
usemtl Default
v 1 0.6402673721313477 1.221360802650452
v 1 0.6402673721313477 1
v 1 1 1
v 1 1 1.221360802650452
vt 0 1
vt 0 0
vt 1 0
vt 1 1
vn 1 0 0
vn 1 0 0
vn 1 0 0
vn 1 0 0
f 1/1/1 2/2/2 3/3/3 4/4/4
o object_2
usemtl Default
v 0 1 1.221360802650452
v 1 1 1.221360802650452
v 1 1 1
v 0 1 1
vt 1 1
vt 0 1
vt 0 0
vt 1 0
vn 0 1 0
vn 0 1 0
vn 0 1 0
vn 0 1 0
f 5/5/5 6/6/6 7/7/7 8/8/8
o object_3
usemtl Default
v 0 1 1
v 1 1 1
v 1 0.6402673721313477 1
v 3.657379078403212e-17 0.6402673721313477 1
vt 0 1
vt 1 1
vt 1 0
vt 0 0
vn 0 0 -1
vn 0 0 -1
vn 0 0 -1
vn 0 0 -1
f 9/9/9 10/10/10 11/11/11 12/12/12
o object_4
usemtl Default
v 1 0.6402673721313477 1
v 1 0.6402673721313477 1.221360802650452
v 7.314758156806424e-17 0.6402673721313477 1.221360802650452
v 7.314758156806424e-17 0.6402673721313477 1
vt 1 1
vt 1 0
vt 0 0
vt 0 1
vn 0 -1 0
vn 0 -1 0
vn 0 -1 0
vn 0 -1 0
f 13/13/13 14/14/14 15/15/15 16/16/16
o object_5
usemtl Default
v 0 1 1.221360802650452
v 0 1 1
v 3.657379078403212e-17 0.6402673721313477 1
v 3.657379078403212e-17 0.6402673721313477 1.221360802650452
vt 0 1
vt 0 0
vt 1 0
vt 1 1
vn -1 0 0
vn -1 0 0
vn -1 0 0
vn -1 0 0
f 17/17/17 18/18/18 19/19/19 20/20/20
o object_6
usemtl Default
v 0 1 1.221360802650452
v 3.657379078403212e-17 0.6402673721313477 1.221360802650452
v 1 0.6402673721313477 1.221360802650452
v 1 1 1.221360802650452
vt 0 1
vt 0 0
vt 1 0
vt 1 1
vn 0 0 1
vn 0 0 1
vn 0 0 1
vn 0 0 1
f 21/21/21 22/22/22 23/23/23 24/24/24
o object_7
usemtl Default
v 1 0 1.221360802650452
v 0 0 1.221360802650452
v 0 0 1
v 1 0 1
vt 1 1
vt 0 1
vt 0 0
vt 1 0
vn 0 -1 0
vn 0 -1 0
vn 0 -1 0
vn 0 -1 0
f 25/25/25 26/26/26 27/27/27 28/28/28
o object_8
usemtl Default
v 0 0.3597326278686523 1.221360802650452
v 0 0.3597326278686523 1
v 0 0 1
v 0 0 1.221360802650452
vt 0 1
vt 0 0
vt 1 0
vt 1 1
vn -1 0 0
vn -1 0 0
vn -1 0 0
vn -1 0 0
f 29/29/29 30/30/30 31/31/31 32/32/32
o object_9
usemtl Default
v 0 0.3597326278686523 1.221360802650452
v 0 0 1.221360802650452
v 1 0 1.221360802650452
v 1 0.3597326278686523 1.221360802650452
vt 0 1
vt 0 0
vt 1 0
vt 1 1
vn 0 0 1
vn 0 0 1
vn 0 0 1
vn 0 0 1
f 33/33/33 34/34/34 35/35/35 36/36/36
o object_10
usemtl Default
v 0 0.3597326278686523 1
v 0 0.3597326278686523 1.221360802650452
v 1 0.3597326278686523 1.221360802650452
v 1 0.3597326278686523 1
vt 1 1
vt 1 0
vt 0 0
vt 0 1
vn 0 1 0
vn 0 1 0
vn 0 1 0
vn 0 1 0
f 37/37/37 38/38/38 39/39/39 40/40/40
o object_11
usemtl Default
v 1 0 1.221360802650452
v 1 0 1
v 1 0.3597326278686523 1
v 1 0.3597326278686523 1.221360802650452
vt 0 1
vt 0 0
vt 1 0
vt 1 1
vn 1 0 0
vn 1 0 0
vn 1 0 0
vn 1 0 0
f 41/41/41 42/42/42 43/43/43 44/44/44
o object_12
usemtl Default
v 0 0.3597326278686523 1
v 1 0.3597326278686523 1
v 1 0 1
v 0 0 1
vt 0 1
vt 1 1
vt 1 0
vt 0 0
vn 0 0 -1
vn 0 0 -1
vn 0 0 -1
vn 0 0 -1
f 45/45/45 46/46/46 47/47/47 48/48/48
o object_13
usemtl Default
v 0.1052029952406883 0 1
v 0 0 1
v 0 0 0.1906880736351013
v 0.1052029952406883 0 0.1906880736351013
vt 1 1
vt 0 1
vt 0 0
vt 1 0
vn 0 -1 0
vn 0 -1 0
vn 0 -1 0
vn 0 -1 0
f 49/49/49 50/50/50 51/51/51 52/52/52
o object_14
usemtl Default
v 0.1052029952406883 0.1052029952406883 1
v 0.1052029952406883 0 1
v 0.1052029952406883 0 0.1906880736351013
v 0.1052029952406883 0.1052029952406883 0.1906880736351013
vt 1 1
vt 0 1
vt 0 0
vt 1 0
vn 1 0 0
vn 1 0 0
vn 1 0 0
vn 1 0 0
f 53/53/53 54/54/54 55/55/55 56/56/56
o object_15
usemtl Default
v 0 0.1052029952406883 1
v 0.1052029952406883 0.1052029952406883 1
v 0.1052029952406883 0.1052029952406883 0.1906880736351013
v 0 0.1052029952406883 0.1906880736351013
vt 1 1
vt 0 1
vt 0 0
vt 1 0
vn 0 1 0
vn 0 1 0
vn 0 1 0
vn 0 1 0
f 57/57/57 58/58/58 59/59/59 60/60/60
o object_16
usemtl Default
v 0 0 1
v 0 0.1052029952406883 1
v 0 0.1052029952406883 0.1906880736351013
v 0 0 0.1906880736351013
vt 1 1
vt 0 1
vt 0 0
vt 1 0
vn -1 0 0
vn -1 0 0
vn -1 0 0
vn -1 0 0
f 61/61/61 62/62/62 63/63/63 64/64/64
o object_17
usemtl Default
v 0.1052029952406883 0.1052029952406883 0.1906880736351013
v 0.1052029952406883 0 0.1906880736351013
v 0 0 0.1906880736351013
v 0 0.1052029952406883 0.1906880736351013
vt 1 1
vt 1 0
vt 0 0
vt 0 1
vn 0 0 -1
vn 0 0 -1
vn 0 0 -1
vn 0 0 -1
f 65/65/65 66/66/66 67/67/67 68/68/68
o object_18
usemtl Default
v 0.1052029952406883 0.1052029952406883 1
v 0 0.1052029952406883 1
v 0 0 1
v 0.1052029952406883 0 1
vt 1 1
vt 0 1
vt 0 0
vt 1 0
vn 0 0 1
vn 0 0 1
vn 0 0 1
vn 0 0 1
f 69/69/69 70/70/70 71/71/71 72/72/72
o object_19
usemtl Default
v 1 0 1
v 0.8947970271110535 0 1
v 0.8947970271110535 0 0.1906880736351013
v 1 0 0.1906880736351013
vt 1 1
vt 0 1
vt 0 0
vt 1 0
vn 0 -1 0
vn 0 -1 0
vn 0 -1 0
vn 0 -1 0
f 73/73/73 74/74/74 75/75/75 76/76/76
o object_20
usemtl Default
v 1 0.1052029952406883 1
v 1 0 1
v 1 0 0.1906880736351013
v 1 0.1052029952406883 0.1906880736351013
vt 1 1
vt 0 1
vt 0 0
vt 1 0
vn 1 0 0
vn 1 0 0
vn 1 0 0
vn 1 0 0
f 77/77/77 78/78/78 79/79/79 80/80/80
o object_21
usemtl Default
v 0.8947970271110535 0.1052029952406883 1
v 1 0.1052029952406883 1
v 1 0.1052029952406883 0.1906880736351013
v 0.8947970271110535 0.1052029952406883 0.1906880736351013
vt 1 1
vt 0 1
vt 0 0
vt 1 0
vn 0 1 0
vn 0 1 0
vn 0 1 0
vn 0 1 0
f 81/81/81 82/82/82 83/83/83 84/84/84
o object_22
usemtl Default
v 0.8947970271110535 0 1
v 0.8947970271110535 0.1052029952406883 1
v 0.8947970271110535 0.1052029952406883 0.1906880736351013
v 0.8947970271110535 0 0.1906880736351013
vt 1 1
vt 0 1
vt 0 0
vt 1 0
vn -1 0 0
vn -1 0 0
vn -1 0 0
vn -1 0 0
f 85/85/85 86/86/86 87/87/87 88/88/88
o object_23
usemtl Default
v 1 0.1052029952406883 0.1906880736351013
v 1 0 0.1906880736351013
v 0.8947970271110535 0 0.1906880736351013
v 0.8947970271110535 0.1052029952406883 0.1906880736351013
vt 1 1
vt 1 0
vt 0 0
vt 0 1
vn 0 0 -1
vn 0 0 -1
vn 0 0 -1
vn 0 0 -1
f 89/89/89 90/90/90 91/91/91 92/92/92
o object_24
usemtl Default
v 1 0.1052029952406883 1
v 0.8947970271110535 0.1052029952406883 1
v 0.8947970271110535 0 1
v 1 0 1
vt 1 1
vt 0 1
vt 0 0
vt 1 0
vn 0 0 1
vn 0 0 1
vn 0 0 1
vn 0 0 1
f 93/93/93 94/94/94 95/95/95 96/96/96
o object_25
usemtl Default
v 1 0.8947970271110535 1
v 0.8947970271110535 0.8947970271110535 1
v 0.8947970271110535 0.8947970271110535 0.1906880736351013
v 1 0.8947970271110535 0.1906880736351013
vt 1 1
vt 0 1
vt 0 0
vt 1 0
vn 0 -1 0
vn 0 -1 0
vn 0 -1 0
vn 0 -1 0
f 97/97/97 98/98/98 99/99/99 100/100/100
o object_26
usemtl Default
v 1 1 1
v 1 0.8947970271110535 1
v 1 0.8947970271110535 0.1906880736351013
v 1 1 0.1906880736351013
vt 1 1
vt 0 1
vt 0 0
vt 1 0
vn 1 0 0
vn 1 0 0
vn 1 0 0
vn 1 0 0
f 101/101/101 102/102/102 103/103/103 104/104/104
o object_27
usemtl Default
v 0.8947970271110535 1 1
v 1 1 1
v 1 1 0.1906880736351013
v 0.8947970271110535 1 0.1906880736351013
vt 1 1
vt 0 1
vt 0 0
vt 1 0
vn 0 1 0
vn 0 1 0
vn 0 1 0
vn 0 1 0
f 105/105/105 106/106/106 107/107/107 108/108/108
o object_28
usemtl Default
v 0.8947970271110535 0.8947970271110535 1
v 0.8947970271110535 1 1
v 0.8947970271110535 1 0.1906880736351013
v 0.8947970271110535 0.8947970271110535 0.1906880736351013
vt 1 1
vt 0 1
vt 0 0
vt 1 0
vn -1 0 0
vn -1 0 0
vn -1 0 0
vn -1 0 0
f 109/109/109 110/110/110 111/111/111 112/112/112
o object_29
usemtl Default
v 1 1 0.1906880736351013
v 1 0.8947970271110535 0.1906880736351013
v 0.8947970271110535 0.8947970271110535 0.1906880736351013
v 0.8947970271110535 1 0.1906880736351013
vt 1 1
vt 1 0
vt 0 0
vt 0 1
vn 0 0 -1
vn 0 0 -1
vn 0 0 -1
vn 0 0 -1
f 113/113/113 114/114/114 115/115/115 116/116/116
o object_30
usemtl Default
v 1 1 1
v 0.8947970271110535 1 1
v 0.8947970271110535 0.8947970271110535 1
v 1 0.8947970271110535 1
vt 1 1
vt 0 1
vt 0 0
vt 1 0
vn 0 0 1
vn 0 0 1
vn 0 0 1
vn 0 0 1
f 117/117/117 118/118/118 119/119/119 120/120/120
o object_31
usemtl Default
v 0.1052029952406883 0.8947970271110535 1
v 0 0.8947970271110535 1
v 0 0.8947970271110535 0.1906880736351013
v 0.1052029952406883 0.8947970271110535 0.1906880736351013
vt 1 1
vt 0 1
vt 0 0
vt 1 0
vn 0 -1 0
vn 0 -1 0
vn 0 -1 0
vn 0 -1 0
f 121/121/121 122/122/122 123/123/123 124/124/124
o object_32
usemtl Default
v 0.1052029952406883 1 1
v 0.1052029952406883 0.8947970271110535 1
v 0.1052029952406883 0.8947970271110535 0.1906880736351013
v 0.1052029952406883 1 0.1906880736351013
vt 1 1
vt 0 1
vt 0 0
vt 1 0
vn 1 0 0
vn 1 0 0
vn 1 0 0
vn 1 0 0
f 125/125/125 126/126/126 127/127/127 128/128/128
o object_33
usemtl Default
v 0 1 1
v 0.1052029952406883 1 1
v 0.1052029952406883 1 0.1906880736351013
v 0 1 0.1906880736351013
vt 1 1
vt 0 1
vt 0 0
vt 1 0
vn 0 1 0
vn 0 1 0
vn 0 1 0
vn 0 1 0
f 129/129/129 130/130/130 131/131/131 132/132/132
o object_34
usemtl Default
v 0 0.8947970271110535 1
v 0 1 1
v 0 1 0.1906880736351013
v 0 0.8947970271110535 0.1906880736351013
vt 1 1
vt 0 1
vt 0 0
vt 1 0
vn -1 0 0
vn -1 0 0
vn -1 0 0
vn -1 0 0
f 133/133/133 134/134/134 135/135/135 136/136/136
o object_35
usemtl Default
v 0.1052029952406883 1 0.1906880736351013
v 0.1052029952406883 0.8947970271110535 0.1906880736351013
v 0 0.8947970271110535 0.1906880736351013
v 0 1 0.1906880736351013
vt 1 1
vt 1 0
vt 0 0
vt 0 1
vn 0 0 -1
vn 0 0 -1
vn 0 0 -1
vn 0 0 -1
f 137/137/137 138/138/138 139/139/139 140/140/140
o object_36
usemtl Default
v 0.1052029952406883 1 1
v 0 1 1
v 0 0.8947970271110535 1
v 0.1052029952406883 0.8947970271110535 1
vt 1 1
vt 0 1
vt 0 0
vt 1 0
vn 0 0 1
vn 0 0 1
vn 0 0 1
vn 0 0 1
f 141/141/141 142/142/142 143/143/143 144/144/144
o object_37
usemtl Default
v 1 0 0.1906880736351013
v 0 0 0.1906880736351013
v 0 0 0
v 1 0 0
vt 1 1
vt 0 1
vt 0 0
vt 1 0
vn 0 -1 0
vn 0 -1 0
vn 0 -1 0
vn 0 -1 0
f 145/145/145 146/146/146 147/147/147 148/148/148
o object_38
usemtl Default
v 1 1 0.1906880736351013
v 1 0 0.1906880736351013
v 1 0 0
v 1 1 0
vt 1 1
vt 0 1
vt 0 0
vt 1 0
vn 1 0 0
vn 1 0 0
vn 1 0 0
vn 1 0 0
f 149/149/149 150/150/150 151/151/151 152/152/152
o object_39
usemtl Default
v 0 1 0.1906880736351013
v 1 1 0.1906880736351013
v 1 1 0
v 0 1 0
vt 1 1
vt 0 1
vt 0 0
vt 1 0
vn 0 1 0
vn 0 1 0
vn 0 1 0
vn 0 1 0
f 153/153/153 154/154/154 155/155/155 156/156/156
o object_40
usemtl Default
v 0 0 0.1906880736351013
v 0 1 0.1906880736351013
v 0 1 0
v 0 0 0
vt 1 1
vt 0 1
vt 0 0
vt 1 0
vn -1 0 0
vn -1 0 0
vn -1 0 0
vn -1 0 0
f 157/157/157 158/158/158 159/159/159 160/160/160
o object_41
usemtl Default
v 1 1 0
v 1 0 0
v 0 0 0
v 0 1 0
vt 1 1
vt 1 0
vt 0 0
vt 0 1
vn 0 0 -1
vn 0 0 -1
vn 0 0 -1
vn 0 0 -1
f 161/161/161 162/162/162 163/163/163 164/164/164
o object_42
usemtl Default
v 1 1 0.1906880736351013
v 0 1 0.1906880736351013
v 0 0 0.1906880736351013
v 1 0 0.1906880736351013
vt 1 1
vt 0 1
vt 0 0
vt 1 0
vn 0 0 1
vn 0 0 1
vn 0 0 1
vn 0 0 1
f 165/165/165 166/166/166 167/167/167 168/168/168
