<?xml version="1.0" encoding="utf-8"?>
<!-- Generator: Adobe Illustrator 16.0.0, SVG Export Plug-In . SVG Version: 6.00 Build 0)  -->
<!DOCTYPE svg PUBLIC "-//W3C//DTD SVG 1.1//EN" "http://www.w3.org/Graphics/SVG/1.1/DTD/svg11.dtd">
<svg version="1.1" id="Layer_01" xmlns="http://www.w3.org/2000/svg" xmlns:xlink="http://www.w3.org/1999/xlink" x="0px" y="0px"
	 width="124.26px" height="110.133px" viewBox="0 0 124.26 110.133" enable-background="new 0 0 124.26 110.133"
	 xml:space="preserve">
<path fill="none" stroke="#FF0000" stroke-linecap="round" stroke-linejoin="round" d="M8.785,20.13c-1.546,0-3.093,0-4.639,0
	c-0.773,0-1.546,0-2.32,0c-0.386,0-0.773,0-1.16,0c-0.193,0-0.386,0-0.58,0c-0.193,0-0.001,0.192-0.001,0.289s0,0.193,0,0.29
	c0,3.093,0,6.186,0,9.279s0,6.186,0,9.279c0,1.546,0,3.093,0,4.64c0,0.773,0,1.546,0,2.32c0,0.171-0.234,0.488,0.091,0.488
	c0.193,0,0.387,0,0.58,0c0.387,0,0.773,0,1.16,0c1.546,0,3.093,0,4.639,0c0.387,0,0.773,0,1.16,0c0.193,0,0.386,0,0.58,0
	c0.173,0,0.49-0.227,0.49,0.099c0,0.849,0,1.697,0,2.546c0,3.395,0,6.789,0,10.184c0,1.697,0,3.395,0,5.092
	c0,0.228-0.215,1.038,0.214,1.038c0.387,0,0.773,0,1.16,0c0.773,0,1.546,0,2.32,0c3.093,0,6.186,0,9.279,0
	c6.033,0,12.066,0,18.099,0c0.377,0,0.754,0,1.131,0c0.338,0,0.838,0.237,0.838-0.322c0-0.828,0-1.655,0-2.483
	c0-1.655,0-3.311,0-4.966c0-3.311,0-6.621,0-9.932c0-6.621,0-13.242,0-19.864c0-0.414,0-0.828,0-1.241c0-0.207,0-0.414,0-0.621
	c0-0.268,0.229-0.182,0.4-0.182c0.754,0,1.508,0,2.262,0c1.508,0,3.016,0,4.525,0c3.017,0,6.033,0,9.05,0c5.986,0,11.971,0,17.957,0
	c2.993,0,5.985,0,8.978,0c0.748,0,1.497,0,2.245,0c0.187,0,0.374,0,0.561,0c0.316,0,0.13,0.298,0.13,0.474c0,0.41,0,0.821,0,1.231
	c0,1.642,0,3.285,0,4.927c0,13.138,0,26.276,0,39.414c0,2.803,0.74,6.375-2.21,8.572c-1.311,0.976-2.635,1.085-4.159,1.085
	c-1.478,0-2.956,0-4.434,0c-5.912,0-11.823,0-17.735,0c-2.956,0-5.912,0-8.867,0c-0.433,0-0.15,0.83-0.15,1.052
	c0,0.406,0,0.811,0,1.217c0,0.811,0,1.622,0,2.433c0,1.622,0,3.244,0,4.866c0,3.244,0,6.488,0,9.731c0,1.622,0,3.244,0,4.866
	c0,0.811,0,1.622,0,2.433c0,0.405,0,0.811,0,1.216c0,0.102,0,0.203,0,0.304c0,0.333,0.305,0.17,0.499,0.17c0.757,0,1.513,0,2.27,0
	c8.452,0,16.904,0,25.356,0c2.113,0,4.226,0,6.339,0c0.528,0,1.057,0,1.585,0c0.264,0,0.528,0,0.792,0c0.132,0,0.264,0,0.396,0
	c0.106,0,0.316,0.189,0.316-0.021c0-0.121-0.172-0.382,0.059-0.346c0.121,0.019,0.243,0.036,0.364,0.054
	c0.956,0.136,1.913,0.228,2.876,0.275c4.012,0.199,7.734-0.313,11.543-1.587c8.25-2.761,14.988-8.812,18.616-16.718
	c3.08-6.71,2.868-11.085,2.868-18.134c0-6.372,0-12.745,0-19.117c0-12.745,0-25.489,0-38.234c0-5.15,0-10.301,0-15.451
	c0-0.161,0-0.322,0-0.483c0-0.519-0.466-0.292-0.777-0.292c-1.309,0-2.619,0-3.928,0c-2.618,0-5.237,0-7.855,0
	c-5.237,0-10.473,0-15.71,0C85.517,0,75.043,0,64.57,0c-10.91,0-21.82,0-32.73,0c-5.455,0-10.91,0-16.365,0
	c-1.364,0-2.728,0-4.091,0c-0.682,0-1.364,0-2.046,0C9.139,0,8.785-0.242,8.785,0.126c0,0.092,0,0.183,0,0.274
	c0,0.73,0,1.461,0,2.192C8.785,8.438,8.785,14.284,8.785,20.13z"/>
</svg>
