<?xml version="1.0" encoding="utf-8"?>
<!-- Generator: Adobe Illustrator 16.0.0, SVG Export Plug-In . SVG Version: 6.00 Build 0)  -->
<!DOCTYPE svg PUBLIC "-//W3C//DTD SVG 1.1//EN" "http://www.w3.org/Graphics/SVG/1.1/DTD/svg11.dtd">
<svg version="1.1" id="Layer_1" xmlns="http://www.w3.org/2000/svg" xmlns:xlink="http://www.w3.org/1999/xlink" x="0px" y="0px"
	 width="8.721px" height="12.309px" viewBox="0 0 8.721 12.309" enable-background="new 0 0 8.721 12.309" xml:space="preserve">
<g>
	<path d="M3.845,0.415c-0.449,0.3-0.991,0.688-1.626,1.166C1.584,2.059,0.941,2.567,0.291,3.105
		c-0.649,0.538-1.259,1.076-1.826,1.614c-0.568,0.538-1.017,1.017-1.346,1.435l-0.27-0.044c0-0.09,0.019-0.239,0.056-0.448
		s0.082-0.444,0.134-0.707c0.054-0.261,0.112-0.519,0.181-0.772c0.066-0.254,0.131-0.463,0.189-0.628
		c0.076-0.194,0.15-0.366,0.226-0.517c0.074-0.149,0.156-0.291,0.247-0.426c0.09-0.134,0.193-0.269,0.313-0.403
		s0.27-0.292,0.448-0.471c-0.389-0.075-0.762-0.198-1.121-0.37s-0.68-0.389-0.964-0.649c-0.284-0.263-0.508-0.554-0.672-0.875
		c-0.165-0.321-0.247-0.668-0.247-1.042c0-0.554,0.131-1.121,0.392-1.704C-3.707-3.486-3.37-4.017-2.96-4.494
		c0.411-0.479,0.867-0.875,1.368-1.188s0.99-0.471,1.468-0.471c0.358,0,0.665,0.045,0.919,0.135C1.05-5.93,1.27-5.821,1.457-5.694
		c0.188,0.127,0.341,0.266,0.459,0.415C2.035-5.13,2.134-4.988,2.208-4.854L2.14-4.585C1.692-4.57,1.199-4.521,0.661-4.439
		S-0.382-4.24-0.853-4.091c-0.47,0.149-0.866,0.34-1.188,0.571C-2.362-3.287-2.523-3.015-2.523-2.7c0,0.179,0.089,0.37,0.269,0.571
		c0.18,0.202,0.407,0.39,0.685,0.562c0.276,0.172,0.594,0.313,0.953,0.426C-0.258-1.031,0.1-0.975,0.459-0.975
		c0.403,0,0.736-0.019,0.998-0.056c0.262-0.038,0.476-0.071,0.64-0.102c0.09-0.06,0.238-0.165,0.448-0.313
		c0.21-0.149,0.431-0.307,0.661-0.472C3.438-2.081,3.662-2.241,3.88-2.399c0.216-0.157,0.377-0.273,0.481-0.348L3.845,0.415z"/>
</g>
</svg>
