<?xml version="1.0" encoding="utf-8"?>
<!-- Generator: Adobe Illustrator 16.0.0, SVG Export Plug-In . SVG Version: 6.00 Build 0)  -->
<!DOCTYPE svg PUBLIC "-//W3C//DTD SVG 1.1//EN" "http://www.w3.org/Graphics/SVG/1.1/DTD/svg11.dtd">
<svg version="1.1" id="Layer_1" xmlns="http://www.w3.org/2000/svg" xmlns:xlink="http://www.w3.org/1999/xlink" x="0px" y="0px"
	 width="16.972px" height="20.133px" viewBox="0 0 16.972 20.133" enable-background="new 0 0 16.972 20.133" xml:space="preserve">
<g>
	<path d="M16.972,10.47c0,0.568-0.06,1.162-0.18,1.783c-0.119,0.62-0.266,1.222-0.437,1.805c-0.172,0.583-0.355,1.125-0.55,1.625
		c-0.194,0.5-0.373,0.908-0.538,1.222c-0.313,0.344-0.725,0.707-1.232,1.087c-0.509,0.381-1.118,0.729-1.827,1.042
		c-0.71,0.314-1.518,0.576-2.422,0.785c-0.905,0.209-1.909,0.314-3.016,0.314c-1.285,0-2.357-0.183-3.217-0.549
		c-0.86-0.366-1.556-0.859-2.085-1.479c-0.53-0.621-0.908-1.331-1.133-2.13C0.112,15.174,0,14.333,0,13.452s0.07-1.682,0.213-2.399
		s0.311-1.345,0.505-1.883s0.384-0.982,0.571-1.334c0.187-0.351,0.325-0.602,0.415-0.751l0.291,0.09
		C1.831,7.802,1.707,8.426,1.626,9.046c-0.083,0.62-0.124,1.349-0.124,2.186c0,0.792,0.104,1.524,0.314,2.197
		c0.209,0.673,0.545,1.256,1.009,1.749c0.463,0.493,1.064,0.878,1.805,1.154c0.739,0.277,1.641,0.415,2.701,0.415
		c0.822,0,1.626-0.063,2.41-0.191c0.785-0.127,1.524-0.317,2.22-0.571c0.695-0.254,1.33-0.568,1.905-0.942s1.065-0.807,1.469-1.3
		c0-0.688-0.082-1.323-0.246-1.906c-0.165-0.583-0.366-1.11-0.605-1.581S13.99,9.364,13.721,8.99
		c-0.269-0.374-0.508-0.703-0.717-0.986l1.636-3.027c0.225,0.284,0.472,0.62,0.74,1.009c0.27,0.389,0.519,0.822,0.751,1.3
		c0.231,0.479,0.43,0.987,0.595,1.525C16.89,9.349,16.972,9.902,16.972,10.47z M9.909,2.085L8.362,4.349L6.054,2.264L7.601,0
		L9.909,2.085z"/>
</g>
</svg>
