<?xml version="1.0" encoding="utf-8"?>
<!-- Generator: Adobe Illustrator 16.0.0, SVG Export Plug-In . SVG Version: 6.00 Build 0)  -->
<!DOCTYPE svg PUBLIC "-//W3C//DTD SVG 1.1//EN" "http://www.w3.org/Graphics/SVG/1.1/DTD/svg11.dtd">
<svg version="1.1" id="Layer_1" xmlns="http://www.w3.org/2000/svg" xmlns:xlink="http://www.w3.org/1999/xlink" x="0px" y="0px"
	 width="8.722px" height="12.308px" viewBox="0 0 8.722 12.308" enable-background="new 0 0 8.722 12.308" xml:space="preserve">
<g>
	<path d="M9.37,6.695C8.787,7.083,8.081,7.59,7.252,8.213C6.426,8.836,5.587,9.499,4.74,10.199
		c-0.847,0.702-1.641,1.403-2.381,2.104c-0.74,0.702-1.323,1.325-1.751,1.869l-0.352-0.057c0-0.117,0.024-0.313,0.074-0.585
		c0.048-0.272,0.107-0.578,0.175-0.92c0.069-0.341,0.146-0.676,0.234-1.007c0.086-0.332,0.169-0.604,0.248-0.818
		c0.097-0.253,0.195-0.478,0.292-0.673C1.376,9.918,1.483,9.732,1.6,9.557c0.117-0.176,0.254-0.35,0.409-0.526
		c0.157-0.175,0.35-0.38,0.584-0.613C2.087,8.32,1.6,8.16,1.133,7.936C0.667,7.711,0.246,7.43-0.124,7.088
		C-0.493,6.749-0.786,6.369-1,5.95C-1.214,5.53-1.321,5.078-1.321,4.592c0-0.721,0.171-1.461,0.512-2.221
		c0.34-0.759,0.778-1.451,1.313-2.074c0.536-0.623,1.13-1.139,1.782-1.548C2.939-1.66,3.577-1.863,4.2-1.863
		c0.468,0,0.866,0.057,1.198,0.174C5.729-1.572,6.016-1.43,6.259-1.266c0.244,0.166,0.443,0.346,0.6,0.54
		c0.155,0.196,0.282,0.381,0.38,0.555L7.151,0.181C6.566,0.2,5.923,0.263,5.222,0.37C4.521,0.478,3.864,0.628,3.251,0.823
		c-0.614,0.195-1.13,0.442-1.548,0.746c-0.42,0.3-0.629,0.657-0.629,1.066c0,0.233,0.117,0.481,0.35,0.744
		C1.659,3.643,1.956,3.885,2.316,4.11c0.36,0.225,0.774,0.408,1.241,0.554c0.467,0.146,0.935,0.219,1.402,0.219
		c0.526,0,0.959-0.024,1.299-0.073C6.601,4.762,6.878,4.718,7.092,4.68c0.117-0.079,0.312-0.215,0.583-0.409
		c0.273-0.195,0.56-0.4,0.862-0.614C8.84,3.442,9.132,3.233,9.415,3.028c0.281-0.205,0.492-0.355,0.628-0.452L9.37,6.695z"/>
</g>
</svg>
