<?xml version="1.0" encoding="utf-8"?>
<!-- Generator: Adobe Illustrator 16.0.0, SVG Export Plug-In . SVG Version: 6.00 Build 0)  -->
<!DOCTYPE svg PUBLIC "-//W3C//DTD SVG 1.1//EN" "http://www.w3.org/Graphics/SVG/1.1/DTD/svg11.dtd">
<svg version="1.1" id="Layer_1" xmlns="http://www.w3.org/2000/svg" xmlns:xlink="http://www.w3.org/1999/xlink" x="0px" y="0px"
	 width="17.645px" height="6.782px" viewBox="0 0 17.645 6.782" enable-background="new 0 0 17.645 6.782" xml:space="preserve">
<g>
	<path d="M3.744,6.782H1.39c-0.359,0-0.68-0.143-0.964-0.426C0.143,6.072,0,5.713,0,5.28s0.143-0.808,0.426-1.121
		C0.71,3.844,1.031,3.688,1.39,3.688h2.354V6.782z"/>
	<path d="M17.645,2.365c0,0.358-0.079,0.732-0.235,1.121c-0.157,0.39-0.348,0.763-0.572,1.121c-0.224,0.358-0.463,0.691-0.717,0.997
		c-0.255,0.307-0.479,0.558-0.673,0.752c-0.224,0.045-0.415,0.082-0.571,0.111c-0.157,0.031-0.3,0.049-0.426,0.057
		c-0.127,0.008-0.251,0.015-0.371,0.021c-0.119,0.009-0.261,0.012-0.426,0.012c-0.389,0-0.911-0.104-1.568-0.313
		c-0.658-0.21-1.346-0.485-2.063-0.829C9.484,5.668,8.982,5.885,8.52,6.064c-0.463,0.18-0.934,0.321-1.412,0.427
		C6.628,6.594,6.121,6.669,5.583,6.714S4.431,6.782,3.744,6.782c-0.358,0-0.68-0.143-0.964-0.426
		C2.497,6.072,2.354,5.713,2.354,5.28S2.497,4.472,2.78,4.159c0.284-0.314,0.605-0.471,0.964-0.471H4.26
		c0.18,0,0.385-0.008,0.617-0.023C5.108,3.651,5.388,3.635,5.717,3.62c0.328-0.014,0.725-0.044,1.188-0.089
		C6.502,3.217,6.177,2.903,5.93,2.588C5.684,2.276,5.56,1.984,5.56,1.715c0-0.374,0.075-0.773,0.224-1.2
		c0.149-0.426,0.348-0.848,0.594-1.267c0.247-0.418,0.527-0.826,0.841-1.222s0.635-0.759,0.964-1.087L7.332-3.621
		c0.014-0.284,0.052-0.605,0.112-0.964c0.06-0.358,0.146-0.702,0.258-1.031c0.112-0.328,0.254-0.605,0.426-0.83
		C8.299-6.67,8.512-6.782,8.766-6.782C9.17-6.573,9.67-6.255,10.269-5.83c0.598,0.426,1.225,0.908,1.883,1.446
		s1.313,1.118,1.962,1.737c0.65,0.62,1.236,1.233,1.76,1.838s0.949,1.185,1.278,1.738C17.479,1.483,17.645,1.961,17.645,2.365z
		 M12.151,1.557c-0.03-0.224-0.119-0.541-0.269-0.952S11.538-0.217,11.3-0.628c-0.239-0.411-0.516-0.766-0.83-1.064
		c-0.313-0.299-0.635-0.449-0.964-0.449c-0.134,0-0.295,0.06-0.482,0.179c-0.187,0.12-0.366,0.28-0.538,0.482
		C8.314-1.278,8.168-1.046,8.049-0.785C7.929-0.523,7.87-0.258,7.87,0.011c0,0.479,0.258,0.945,0.773,1.402
		C9.159,1.868,9.79,2.29,10.538,2.678c0.373-0.179,0.697-0.361,0.975-0.549C11.789,1.942,12.002,1.752,12.151,1.557z M15.806,3.957
		c-0.209-0.553-0.52-1.11-0.93-1.67c-0.412-0.561-0.834-1.043-1.268-1.446c-0.119,0.434-0.295,0.878-0.526,1.334
		s-0.497,0.878-0.796,1.267C12.81,3.62,13.313,3.762,13.8,3.868c0.484,0.104,0.9,0.156,1.244,0.156L15.806,3.957z"/>
</g>
</svg>
