<?xml version="1.0" encoding="utf-8"?>
<!-- Generator: Adobe Illustrator 16.0.0, SVG Export Plug-In . SVG Version: 6.00 Build 0)  -->
<!DOCTYPE svg PUBLIC "-//W3C//DTD SVG 1.1//EN" "http://www.w3.org/Graphics/SVG/1.1/DTD/svg11.dtd">
<svg version="1.1" id="Layer_1" xmlns="http://www.w3.org/2000/svg" xmlns:xlink="http://www.w3.org/1999/xlink" x="0px" y="0px"
	 width="17.656px" height="10.57px" viewBox="0 0 17.656 10.57" enable-background="new 0 0 17.656 10.57" xml:space="preserve">
<g>
	<path d="M17.656-0.664c-0.072,0.251-0.173,0.526-0.305,0.824c-0.131,0.299-0.278,0.598-0.439,0.896
		c-0.162,0.299-0.329,0.585-0.502,0.86c-0.173,0.275-0.332,0.514-0.475,0.717c-1.326,0.454-2.813,0.842-4.461,1.165
		C9.826,4.12,7.998,4.281,5.992,4.281c-1.242,0-2.252-0.116-3.028-0.349S1.578,3.392,1.136,3.009
		C0.694,2.627,0.393,2.191,0.231,1.701C0.07,1.211-0.011,0.71-0.011,0.196c0-0.358,0.038-0.717,0.117-1.075
		C0.183-1.237,0.282-1.578,0.401-1.9c0.12-0.323,0.248-0.622,0.385-0.896c0.137-0.275,0.26-0.514,0.367-0.717l0.215,0.107
		c-0.06,0.191-0.107,0.412-0.143,0.663s-0.054,0.538-0.054,0.86c0,0.418,0.086,0.842,0.26,1.272c0.172,0.43,0.49,0.821,0.95,1.173
		c0.459,0.353,1.09,0.642,1.89,0.869c0.8,0.227,1.833,0.34,3.1,0.34c1.063,0,2.051-0.045,2.965-0.134
		c0.914-0.09,1.744-0.206,2.49-0.35c0.746-0.143,1.413-0.295,1.998-0.457c0.585-0.161,1.081-0.313,1.487-0.457
		c-0.072-0.478-0.249-0.971-0.529-1.478c-0.281-0.508-0.57-0.983-0.869-1.425c0.167-0.358,0.368-0.758,0.601-1.2
		s0.457-0.848,0.672-1.218c0.191,0.311,0.373,0.648,0.546,1.012c0.172,0.364,0.322,0.734,0.448,1.111
		c0.125,0.376,0.23,0.75,0.313,1.12C17.578-1.333,17.632-0.986,17.656-0.664z M10.22,8.761l-1.236,1.81L7.138,8.904l1.236-1.81
		L10.22,8.761z"/>
</g>
</svg>
