<?xml version="1.0" encoding="utf-8"?>
<!-- Generator: Adobe Illustrator 16.0.0, SVG Export Plug-In . SVG Version: 6.00 Build 0)  -->
<!DOCTYPE svg PUBLIC "-//W3C//DTD SVG 1.1//EN" "http://www.w3.org/Graphics/SVG/1.1/DTD/svg11.dtd">
<svg version="1.1" id="Default" xmlns="http://www.w3.org/2000/svg" xmlns:xlink="http://www.w3.org/1999/xlink" x="0px" y="0px"
	 width="325.5px" height="323.7px" viewBox="0 0 325.5 323.7" enable-background="new 0 0 325.5 323.7" xml:space="preserve">
<polygon fill="none" stroke="#000000" stroke-linecap="round" stroke-linejoin="round" points="22.267,243.384 29.476,243.384 
	36.685,243.384 43.892,243.384 51.102,243.384 58.31,243.384 65.518,243.384 72.727,243.384 79.935,243.384 87.143,243.384 
	94.352,243.384 101.561,243.384 108.768,243.384 115.977,243.384 123.187,243.384 130.393,243.384 137.604,243.384 144.812,243.384 
	152.021,243.384 159.229,243.384 166.437,243.384 173.646,243.384 180.854,243.384 188.063,243.384 195.273,243.384 
	202.479,243.384 209.69,243.384 216.898,243.384 224.104,243.384 231.313,243.384 238.523,243.384 245.73,243.384 252.94,243.384 
	260.148,243.384 267.355,243.384 274.563,243.384 281.774,243.384 288.98,243.384 296.191,243.384 303.399,243.384 299.795,237.137 
	296.191,230.89 292.585,224.643 288.98,218.396 285.377,212.149 281.774,205.904 278.169,199.659 274.563,193.412 270.96,187.165 
	267.355,180.917 263.752,174.672 260.148,168.425 256.544,162.179 252.94,155.93 249.335,149.684 245.73,143.438 242.127,137.191 
	238.523,130.944 234.919,124.697 231.313,118.45 227.709,112.204 224.104,105.957 220.502,99.71 216.898,93.464 213.291,87.218 
	209.69,80.971 206.084,74.724 202.479,68.477 198.876,62.23 195.273,55.985 191.668,49.738 188.063,43.49 184.459,37.244 
	180.854,30.997 177.251,24.751 173.646,18.504 170.04,12.257 166.437,6.01 162.832,-0.235 159.229,6.01 155.626,12.257 
	152.021,18.504 148.415,24.751 144.812,30.997 141.207,37.244 137.604,43.49 133.999,49.738 130.393,55.985 126.79,62.23 
	123.187,68.477 119.582,74.724 115.977,80.971 112.374,87.218 108.768,93.464 105.165,99.71 101.561,105.957 97.957,112.204 
	94.352,118.45 90.749,124.697 87.143,130.944 83.539,137.191 79.935,143.438 76.332,149.684 72.727,155.93 69.121,162.179 
	65.518,168.425 61.914,174.672 58.31,180.917 54.706,187.165 51.102,193.412 47.496,199.659 43.892,205.904 40.289,212.149 
	36.685,218.396 33.079,224.643 29.476,230.89 25.871,237.137 "/>
<polygon fill="none" stroke="#000000" stroke-linecap="round" stroke-linejoin="round" points="22.267,243.384 26.827,250.819 
	31.777,257.996 37.105,264.894 42.797,271.5 48.834,277.788 55.2,283.744 61.876,289.351 68.845,294.59 76.083,299.447 
	83.57,303.91 91.289,307.961 99.212,311.592 107.319,314.795 115.586,317.56 123.99,319.873 132.505,321.731 141.107,323.126 
	149.772,324.064 158.476,324.532 167.19,324.532 175.895,324.064 184.559,323.126 193.16,321.731 201.678,319.873 210.078,317.56 
	218.347,314.795 226.453,311.592 234.378,307.961 242.096,303.91 249.582,299.447 256.82,294.59 263.789,289.351 270.466,283.744 
	276.832,277.788 282.87,271.5 288.563,264.894 293.889,257.996 298.839,250.819 303.399,243.384 307.554,235.718 311.289,227.838 
	314.596,219.772 317.466,211.535 319.891,203.161 321.866,194.665 323.377,186.076 324.428,177.419 325.013,168.716 325.13,159.997 
	324.778,151.284 323.96,142.601 322.68,133.974 320.936,125.429 318.735,116.992 316.088,108.683 312.998,100.528 309.474,92.551 
	305.528,84.777 301.168,77.224 296.414,69.916 291.273,62.874 285.759,56.119 279.893,49.669 273.689,43.545 267.165,37.762 
	260.339,32.337 253.235,27.288 245.867,22.627 238.263,18.367 230.439,14.524 222.422,11.105 214.232,8.123 205.896,5.583 
	197.433,3.496 188.87,1.868 180.232,0.7 171.544,-0.001 162.832,-0.235 154.122,-0.001 145.434,0.7 136.796,1.868 128.233,3.496 
	119.772,5.583 111.433,8.123 103.244,11.105 95.227,14.524 87.403,18.367 79.798,22.627 72.431,27.288 65.326,32.337 58.501,37.762 
	51.977,43.545 45.772,49.669 39.906,56.119 34.396,62.874 29.254,69.916 24.497,77.224 20.138,84.777 16.192,92.551 12.668,100.528 
	9.579,108.683 6.931,116.992 4.73,125.429 2.987,133.974 1.704,142.601 0.887,151.284 0.536,159.997 0.653,168.716 1.238,177.419 
	2.288,186.076 3.801,194.665 5.773,203.161 8.199,211.535 11.069,219.772 14.378,227.838 18.113,235.718 "/>
</svg>
