# Rhino

mtllib target9.mtl
o 9
usemtl Default
v 63.89419937133789 -6.113415241241455 -48.5667839050293
v 63.89419937133789 -2.037805080413818 -48.5667839050293
v 60.15152740478516 -2.037805080413818 -48.5667839050293
v 60.15152740478516 -6.113415241241455 -48.5667839050293
v 63.89419937133789 -2.037805080413818 -48.5667839050293
v 63.89419937133789 -2.037805080413818 -52.30945587158203
v 60.15152740478516 -2.037805080413818 -52.30945587158203
v 60.15152740478516 -2.037805080413818 -48.5667839050293
v 63.89419937133789 -6.113415241241455 -52.30945587158203
v 63.89419937133789 -2.037805080413818 -52.30945587158203
v 63.89419937133789 -2.037805080413818 -48.5667839050293
v 63.89419937133789 -6.113415241241455 -48.5667839050293
v 60.15152740478516 -6.113415241241455 -52.30945587158203
v 60.15152740478516 -2.037805080413818 -52.30945587158203
v 63.89419937133789 -2.037805080413818 -52.30945587158203
v 63.89419937133789 -6.113415241241455 -52.30945587158203
v 60.15152740478516 -6.113415241241455 -48.5667839050293
v 60.15152740478516 -2.037805080413818 -48.5667839050293
v 60.15152740478516 -2.037805080413818 -52.30945587158203
v 60.15152740478516 -6.113415241241455 -52.30945587158203
v 60.15152740478516 -6.113415241241455 -48.5667839050293
v 60.15152740478516 -6.113415241241455 -52.30945587158203
v 63.89419937133789 -6.113415241241455 -52.30945587158203
v 63.89419937133789 -6.113415241241455 -48.5667839050293
vn 0.5773502588272095 -0.5773502588272095 0.5773502588272095
vn 0.5773502588272095 0.5773502588272095 0.5773502588272095
vn -0.5773502588272095 0.5773502588272095 0.5773502588272095
vn -0.5773502588272095 -0.5773502588272095 0.5773502588272095
vn 0.5773502588272095 0.5773502588272095 0.5773502588272095
vn 0.5773502588272095 0.5773502588272095 -0.5773502588272095
vn -0.5773502588272095 0.5773502588272095 -0.5773502588272095
vn -0.5773502588272095 0.5773502588272095 0.5773502588272095
vn 0.5773502588272095 -0.5773502588272095 -0.5773502588272095
vn 0.5773502588272095 0.5773502588272095 -0.5773502588272095
vn 0.5773502588272095 0.5773502588272095 0.5773502588272095
vn 0.5773502588272095 -0.5773502588272095 0.5773502588272095
vn -0.5773502588272095 -0.5773502588272095 -0.5773502588272095
vn -0.5773502588272095 0.5773502588272095 -0.5773502588272095
vn 0.5773502588272095 0.5773502588272095 -0.5773502588272095
vn 0.5773502588272095 -0.5773502588272095 -0.5773502588272095
vn -0.5773502588272095 -0.5773502588272095 0.5773502588272095
vn -0.5773502588272095 0.5773502588272095 0.5773502588272095
vn -0.5773502588272095 0.5773502588272095 -0.5773502588272095
vn -0.5773502588272095 -0.5773502588272095 -0.5773502588272095
vn -0.5773502588272095 -0.5773502588272095 0.5773502588272095
vn -0.5773502588272095 -0.5773502588272095 -0.5773502588272095
vn 0.5773502588272095 -0.5773502588272095 -0.5773502588272095
vn 0.5773502588272095 -0.5773502588272095 0.5773502588272095
f 1//1 2//2 3//3 4//4
f 5//5 6//6 7//7 8//8
f 9//9 10//10 11//11 12//12
f 13//13 14//14 15//15 16//16
f 17//17 18//18 19//19 20//20
f 21//21 22//22 23//23 24//24
