<?xml version="1.0" encoding="utf-8"?>
<!-- Generator: Adobe Illustrator 16.0.0, SVG Export Plug-In . SVG Version: 6.00 Build 0)  -->
<!DOCTYPE svg PUBLIC "-//W3C//DTD SVG 1.1//EN" "http://www.w3.org/Graphics/SVG/1.1/DTD/svg11.dtd">
<svg version="1.1" id="Default" xmlns="http://www.w3.org/2000/svg" xmlns:xlink="http://www.w3.org/1999/xlink" x="0px" y="0px"
	 width="325.5px" height="323.7px" viewBox="0 0 325.5 323.7" enable-background="new 0 0 325.5 323.7" xml:space="preserve">
<polygon fill="none" stroke="#000000" stroke-linecap="round" stroke-linejoin="round" points="-140.566,81.235 -133.357,81.235 
	-126.148,81.235 -118.941,81.235 -111.731,81.235 -104.523,81.235 -97.315,81.235 -90.106,81.235 -82.898,81.235 -75.69,81.235 
	-68.481,81.235 -61.272,81.235 -54.065,81.235 -46.856,81.235 -39.646,81.235 -32.44,81.235 -25.229,81.235 -18.021,81.235 
	-10.812,81.235 -3.604,81.235 3.604,81.235 10.813,81.235 18.021,81.235 25.229,81.235 32.44,81.235 39.646,81.235 46.856,81.235 
	54.065,81.235 61.271,81.235 68.479,81.235 75.69,81.235 82.897,81.235 90.106,81.235 97.315,81.235 104.522,81.235 111.729,81.235 
	118.94,81.235 126.147,81.235 133.358,81.235 140.566,81.235 136.962,74.989 133.358,68.742 129.752,62.495 126.147,56.248 
	122.544,50 118.94,43.755 115.336,37.51 111.729,31.264 108.127,25.016 104.522,18.768 100.919,12.524 97.315,6.276 93.711,0.031 
	90.106,-6.218 86.502,-12.464 82.897,-18.71 79.294,-24.958 75.69,-31.205 72.086,-37.451 68.479,-43.698 64.876,-49.944 
	61.271,-56.191 57.669,-62.438 54.065,-68.685 50.458,-74.931 46.856,-81.177 43.251,-87.424 39.646,-93.671 36.043,-99.918 
	32.44,-106.164 28.835,-112.411 25.229,-118.658 21.626,-124.904 18.021,-131.151 14.418,-137.397 10.813,-143.645 7.207,-149.892 
	3.604,-156.139 -0.001,-162.383 -3.604,-156.139 -7.207,-149.892 -10.812,-143.645 -14.418,-137.397 -18.021,-131.151 
	-21.626,-124.904 -25.229,-118.658 -28.834,-112.411 -32.44,-106.164 -36.043,-99.918 -39.646,-93.671 -43.251,-87.424 
	-46.856,-81.177 -50.459,-74.931 -54.065,-68.685 -57.668,-62.438 -61.272,-56.191 -64.876,-49.944 -68.481,-43.698 
	-72.084,-37.451 -75.69,-31.205 -79.294,-24.958 -82.898,-18.71 -86.501,-12.464 -90.106,-6.218 -93.712,0.031 -97.315,6.276 
	-100.919,12.524 -104.523,18.768 -108.127,25.016 -111.731,31.264 -115.337,37.51 -118.941,43.755 -122.544,50 -126.148,56.248 
	-129.754,62.495 -133.357,68.742 -136.962,74.989 "/>
<polygon fill="none" stroke="#000000" stroke-linecap="round" stroke-linejoin="round" points="-140.566,81.235 -136.006,88.67 
	-131.056,95.848 -125.728,102.746 -120.036,109.352 -113.999,115.639 -107.633,121.596 -100.957,127.203 -93.988,132.442 
	-86.75,137.299 -79.263,141.762 -71.544,145.813 -63.621,149.444 -55.514,152.647 -47.247,155.412 -38.843,157.725 -30.328,159.583 
	-21.726,160.977 -13.061,161.916 -4.357,162.383 4.356,162.383 13.062,161.916 21.726,160.977 30.327,159.583 38.845,157.725 
	47.245,155.412 55.515,152.647 63.62,149.444 71.545,145.813 79.263,141.762 86.749,137.299 93.987,132.442 100.956,127.203 
	107.633,121.596 113.999,115.639 120.037,109.352 125.729,102.746 131.056,95.848 136.006,88.67 140.566,81.235 144.721,73.569 
	148.456,65.69 151.763,57.624 154.633,49.387 157.058,41.012 159.033,32.516 160.544,23.928 161.595,15.27 162.18,6.567 
	162.297,-2.151 161.945,-10.864 161.127,-19.547 159.847,-28.174 158.103,-36.719 155.902,-45.156 153.255,-53.465 150.165,-61.621 
	146.641,-69.598 142.695,-77.372 138.335,-84.924 133.581,-92.232 128.44,-99.274 122.926,-106.029 117.06,-112.479 
	110.856,-118.604 104.332,-124.386 97.506,-129.812 90.401,-134.86 83.034,-139.521 75.431,-143.781 67.606,-147.625 
	59.589,-151.043 51.399,-154.025 43.063,-156.565 34.601,-158.652 26.037,-160.28 17.399,-161.448 8.711,-162.149 -0.001,-162.383 
	-8.711,-162.149 -17.399,-161.448 -26.037,-160.28 -34.6,-158.652 -43.061,-156.565 -51.4,-154.025 -59.589,-151.043 
	-67.606,-147.625 -75.43,-143.781 -83.035,-139.521 -90.402,-134.86 -97.507,-129.812 -104.332,-124.386 -110.856,-118.604 
	-117.061,-112.479 -122.927,-106.029 -128.437,-99.274 -133.579,-92.232 -138.336,-84.924 -142.695,-77.372 -146.641,-69.598 
	-150.165,-61.621 -153.254,-53.465 -155.902,-45.156 -158.103,-36.719 -159.846,-28.174 -161.129,-19.547 -161.946,-10.864 
	-162.297,-2.151 -162.18,6.567 -161.595,15.27 -160.545,23.928 -159.032,32.516 -157.06,41.012 -154.634,49.387 -151.764,57.624 
	-148.455,65.69 -144.72,73.569 "/>
</svg>
