<?xml version="1.0" encoding="utf-8"?>
<!-- Generator: Adobe Illustrator 16.0.0, SVG Export Plug-In . SVG Version: 6.00 Build 0)  -->
<!DOCTYPE svg PUBLIC "-//W3C//DTD SVG 1.1//EN" "http://www.w3.org/Graphics/SVG/1.1/DTD/svg11.dtd">
<svg version="1.1" id="Default" xmlns="http://www.w3.org/2000/svg" xmlns:xlink="http://www.w3.org/1999/xlink" x="0px" y="0px"
	 width="14.173px" height="14.173px" viewBox="0 0 14.173 14.173" enable-background="new 0 0 14.173 14.173" xml:space="preserve">
<polygon fill="none" stroke="#000000" stroke-linecap="round" stroke-linejoin="round" points="-2.762,3.166 -2.762,2.903 
	-2.762,2.64 -2.762,2.377 -2.762,2.114 -2.762,1.851 -2.762,1.588 -2.762,1.326 -2.762,1.063 -2.762,0.8 -2.762,0.537 -2.762,0.274 
	-2.762,0.011 -2.762,-0.251 -2.762,-0.515 -2.762,-0.777 -2.762,-1.041 -2.762,-1.303 -2.762,-1.566 -2.762,-1.829 -2.762,-2.092 
	-2.762,-2.354 -2.762,-2.618 -2.762,-2.88 -2.762,-3.143 -2.762,-3.406 -2.762,-3.669 -2.762,-3.932 -2.762,-4.195 -2.762,-4.458 
	-2.762,-4.721 -2.762,-4.983 -2.762,-5.246 -2.762,-5.509 -2.762,-5.772 -2.762,-6.035 -2.762,-6.298 -2.762,-6.561 -2.762,-6.823 
	-2.762,-7.086 -2.873,-7.086 -2.984,-7.086 -3.095,-7.086 -3.206,-7.086 -3.317,-7.086 -3.428,-7.086 -3.538,-7.086 -3.649,-7.086 
	-3.76,-7.086 -3.871,-7.086 -3.982,-7.086 -4.093,-7.086 -4.204,-7.086 -4.315,-7.086 -4.426,-7.086 -4.536,-7.086 -4.647,-7.086 
	-4.758,-7.086 -4.869,-7.086 -4.98,-7.086 -5.091,-7.086 -5.202,-7.086 -5.313,-7.086 -5.423,-7.086 -5.534,-7.086 -5.645,-7.086 
	-5.756,-7.086 -5.867,-7.086 -5.978,-7.086 -6.089,-7.086 -6.199,-7.086 -6.31,-7.086 -6.421,-7.086 -6.532,-7.086 -6.643,-7.086 
	-6.754,-7.086 -6.865,-7.086 -6.976,-7.086 -7.086,-7.086 -7.086,-6.723 -7.086,-6.359 -7.086,-5.996 -7.086,-5.633 -7.086,-5.269 
	-7.086,-4.906 -7.086,-4.542 -7.086,-4.179 -7.086,-3.815 -7.086,-3.452 -7.086,-3.089 -7.086,-2.725 -7.086,-2.362 -7.086,-1.999 
	-7.086,-1.635 -7.086,-1.271 -7.086,-0.908 -7.086,-0.545 -7.086,-0.181 -7.086,0.182 -7.086,0.545 -7.086,0.909 -7.086,1.272 
	-7.086,1.636 -7.086,1.999 -7.086,2.362 -7.086,2.726 -7.086,3.089 -7.086,3.453 -7.086,3.816 -7.086,4.18 -7.086,4.543 
	-7.086,4.906 -7.086,5.27 -7.086,5.633 -7.086,5.997 -7.086,6.36 -7.086,6.724 -7.086,7.087 -6.723,7.087 -6.36,7.087 -5.996,7.087 
	-5.633,7.087 -5.269,7.087 -4.906,7.087 -4.542,7.087 -4.179,7.087 -3.816,7.087 -3.452,7.087 -3.089,7.087 -2.725,7.087 
	-2.362,7.087 -1.999,7.087 -1.635,7.087 -1.272,7.087 -0.908,7.087 -0.545,7.087 -0.182,7.087 0.182,7.087 0.545,7.087 0.909,7.087 
	1.272,7.087 1.635,7.087 1.999,7.087 2.362,7.087 2.726,7.087 3.089,7.087 3.453,7.087 3.816,7.087 4.179,7.087 4.543,7.087 
	4.906,7.087 5.27,7.087 5.633,7.087 5.997,7.087 6.36,7.087 6.723,7.087 7.087,7.087 7.087,6.724 7.087,6.36 7.087,5.997 
	7.087,5.633 7.087,5.27 7.087,4.906 7.087,4.543 7.087,4.18 7.087,3.816 7.087,3.453 7.087,3.089 7.087,2.726 7.087,2.362 
	7.087,1.999 7.087,1.636 7.087,1.272 7.087,0.909 7.087,0.545 7.087,0.182 7.087,-0.181 7.087,-0.545 7.087,-0.908 7.087,-1.271 
	7.087,-1.635 7.087,-1.999 7.087,-2.362 7.087,-2.725 7.087,-3.089 7.087,-3.452 7.087,-3.815 7.087,-4.179 7.087,-4.542 
	7.087,-4.906 7.087,-5.269 7.087,-5.633 7.087,-5.996 7.087,-6.359 7.087,-6.723 7.087,-7.086 6.976,-7.086 6.865,-7.086 
	6.754,-7.086 6.643,-7.086 6.532,-7.086 6.422,-7.086 6.311,-7.086 6.2,-7.086 6.089,-7.086 5.978,-7.086 5.867,-7.086 
	5.756,-7.086 5.646,-7.086 5.535,-7.086 5.424,-7.086 5.313,-7.086 5.202,-7.086 5.091,-7.086 4.98,-7.086 4.869,-7.086 
	4.759,-7.086 4.647,-7.086 4.537,-7.086 4.426,-7.086 4.315,-7.086 4.204,-7.086 4.093,-7.086 3.982,-7.086 3.872,-7.086 
	3.76,-7.086 3.65,-7.086 3.539,-7.086 3.428,-7.086 3.317,-7.086 3.206,-7.086 3.095,-7.086 2.984,-7.086 2.874,-7.086 
	2.763,-7.086 2.763,-6.823 2.763,-6.561 2.763,-6.298 2.763,-6.035 2.763,-5.772 2.763,-5.509 2.763,-5.246 2.763,-4.983 
	2.763,-4.721 2.763,-4.458 2.763,-4.195 2.763,-3.932 2.763,-3.669 2.763,-3.406 2.763,-3.143 2.763,-2.88 2.763,-2.618 
	2.763,-2.354 2.763,-2.092 2.763,-1.829 2.763,-1.566 2.763,-1.303 2.763,-1.041 2.763,-0.777 2.763,-0.515 2.763,-0.251 
	2.763,0.011 2.763,0.274 2.763,0.537 2.763,0.8 2.763,1.063 2.763,1.326 2.763,1.588 2.763,1.851 2.763,2.114 2.763,2.377 
	2.763,2.64 2.763,2.903 2.763,3.166 2.621,3.166 2.479,3.166 2.338,3.166 2.196,3.166 2.054,3.166 1.913,3.166 1.771,3.166 
	1.629,3.166 1.488,3.166 1.346,3.166 1.204,3.166 1.063,3.166 0.921,3.166 0.779,3.166 0.638,3.166 0.496,3.166 0.354,3.166 
	0.213,3.166 0.071,3.166 -0.071,3.166 -0.212,3.166 -0.354,3.166 -0.496,3.166 -0.637,3.166 -0.779,3.166 -0.921,3.166 
	-1.062,3.166 -1.204,3.166 -1.346,3.166 -1.487,3.166 -1.629,3.166 -1.771,3.166 -1.912,3.166 -2.054,3.166 -2.196,3.166 
	-2.337,3.166 -2.479,3.166 -2.621,3.166 "/>
<polygon fill="none" stroke="#000000" stroke-linecap="round" stroke-linejoin="round" points="-2.762,-7.086 -2.762,-7.086 
	-2.762,-7.086 -2.762,-7.086 -2.762,-7.086 -2.762,-7.086 -2.762,-7.086 -2.762,-7.086 -2.762,-7.086 -2.762,-7.086 -2.762,-7.086 
	-2.762,-7.086 -2.762,-7.086 -2.762,-7.086 -2.762,-7.086 -2.762,-7.086 -2.762,-7.086 -2.762,-7.086 -2.762,-7.086 -2.762,-7.086 
	-2.762,-7.086 -2.762,-7.086 -2.762,-7.086 -2.762,-7.086 -2.762,-7.086 -2.762,-7.086 -2.762,-7.086 -2.762,-7.086 -2.762,-7.086 
	-2.762,-7.086 -2.762,-7.086 -2.762,-7.086 -2.762,-7.086 -2.762,-7.086 -2.762,-7.086 -2.762,-7.086 -2.762,-7.086 -2.762,-7.086 
	-2.762,-7.086 -2.762,-7.086 -2.873,-7.086 -2.984,-7.086 -3.095,-7.086 -3.206,-7.086 -3.317,-7.086 -3.428,-7.086 -3.538,-7.086 
	-3.649,-7.086 -3.76,-7.086 -3.871,-7.086 -3.982,-7.086 -4.093,-7.086 -4.204,-7.086 -4.315,-7.086 -4.426,-7.086 -4.536,-7.086 
	-4.647,-7.086 -4.758,-7.086 -4.869,-7.086 -4.98,-7.086 -5.091,-7.086 -5.202,-7.086 -5.313,-7.086 -5.423,-7.086 -5.534,-7.086 
	-5.645,-7.086 -5.756,-7.086 -5.867,-7.086 -5.978,-7.086 -6.089,-7.086 -6.199,-7.086 -6.31,-7.086 -6.421,-7.086 -6.532,-7.086 
	-6.643,-7.086 -6.754,-7.086 -6.865,-7.086 -6.976,-7.086 -7.086,-7.086 -7.086,-6.723 -7.086,-6.359 -7.086,-5.996 -7.086,-5.633 
	-7.086,-5.269 -7.086,-4.906 -7.086,-4.542 -7.086,-4.179 -7.086,-3.815 -7.086,-3.452 -7.086,-3.089 -7.086,-2.725 -7.086,-2.362 
	-7.086,-1.999 -7.086,-1.635 -7.086,-1.271 -7.086,-0.908 -7.086,-0.545 -7.086,-0.181 -7.086,0.182 -7.086,0.545 -7.086,0.909 
	-7.086,1.272 -7.086,1.636 -7.086,1.999 -7.086,2.362 -7.086,2.726 -7.086,3.089 -7.086,3.453 -7.086,3.816 -7.086,4.18 
	-7.086,4.543 -7.086,4.906 -7.086,5.27 -7.086,5.633 -7.086,5.997 -7.086,6.36 -7.086,6.724 -7.086,7.087 -6.723,7.087 -6.36,7.087 
	-5.996,7.087 -5.633,7.087 -5.269,7.087 -4.906,7.087 -4.542,7.087 -4.179,7.087 -3.816,7.087 -3.452,7.087 -3.089,7.087 
	-2.725,7.087 -2.362,7.087 -1.999,7.087 -1.635,7.087 -1.272,7.087 -0.908,7.087 -0.545,7.087 -0.182,7.087 0.182,7.087 
	0.545,7.087 0.909,7.087 1.272,7.087 1.635,7.087 1.999,7.087 2.362,7.087 2.726,7.087 3.089,7.087 3.453,7.087 3.816,7.087 
	4.179,7.087 4.543,7.087 4.906,7.087 5.27,7.087 5.633,7.087 5.997,7.087 6.36,7.087 6.723,7.087 7.087,7.087 7.087,6.724 
	7.087,6.36 7.087,5.997 7.087,5.633 7.087,5.27 7.087,4.906 7.087,4.543 7.087,4.18 7.087,3.816 7.087,3.453 7.087,3.089 
	7.087,2.726 7.087,2.362 7.087,1.999 7.087,1.636 7.087,1.272 7.087,0.909 7.087,0.545 7.087,0.182 7.087,-0.181 7.087,-0.545 
	7.087,-0.908 7.087,-1.271 7.087,-1.635 7.087,-1.999 7.087,-2.362 7.087,-2.725 7.087,-3.089 7.087,-3.452 7.087,-3.815 
	7.087,-4.179 7.087,-4.542 7.087,-4.906 7.087,-5.269 7.087,-5.633 7.087,-5.996 7.087,-6.359 7.087,-6.723 7.087,-7.086 
	6.976,-7.086 6.865,-7.086 6.754,-7.086 6.643,-7.086 6.532,-7.086 6.422,-7.086 6.311,-7.086 6.2,-7.086 6.089,-7.086 
	5.978,-7.086 5.867,-7.086 5.756,-7.086 5.646,-7.086 5.535,-7.086 5.424,-7.086 5.313,-7.086 5.202,-7.086 5.091,-7.086 
	4.98,-7.086 4.869,-7.086 4.759,-7.086 4.647,-7.086 4.537,-7.086 4.426,-7.086 4.315,-7.086 4.204,-7.086 4.093,-7.086 
	3.982,-7.086 3.872,-7.086 3.76,-7.086 3.65,-7.086 3.539,-7.086 3.428,-7.086 3.317,-7.086 3.206,-7.086 3.095,-7.086 
	2.984,-7.086 2.874,-7.086 2.763,-7.086 2.763,-7.086 2.763,-7.086 2.763,-7.086 2.763,-7.086 2.763,-7.086 2.763,-7.086 
	2.763,-7.086 2.763,-7.086 2.763,-7.086 2.763,-7.086 2.763,-7.086 2.763,-7.086 2.763,-7.086 2.763,-7.086 2.763,-7.086 
	2.763,-7.086 2.763,-7.086 2.763,-7.086 2.763,-7.086 2.763,-7.086 2.763,-7.086 2.763,-7.086 2.763,-7.086 2.763,-7.086 
	2.763,-7.086 2.763,-7.086 2.763,-7.086 2.763,-7.086 2.763,-7.086 2.763,-7.086 2.763,-7.086 2.763,-7.086 2.763,-7.086 
	2.763,-7.086 2.763,-7.086 2.763,-7.086 2.763,-7.086 2.763,-7.086 2.763,-7.086 2.621,-7.086 2.479,-7.086 2.338,-7.086 
	2.196,-7.086 2.054,-7.086 1.913,-7.086 1.771,-7.086 1.629,-7.086 1.488,-7.086 1.346,-7.086 1.204,-7.086 1.063,-7.086 
	0.921,-7.086 0.779,-7.086 0.638,-7.086 0.496,-7.086 0.354,-7.086 0.213,-7.086 0.071,-7.086 -0.071,-7.086 -0.212,-7.086 
	-0.354,-7.086 -0.496,-7.086 -0.637,-7.086 -0.779,-7.086 -0.921,-7.086 -1.062,-7.086 -1.204,-7.086 -1.346,-7.086 -1.487,-7.086 
	-1.629,-7.086 -1.771,-7.086 -1.912,-7.086 -2.054,-7.086 -2.196,-7.086 -2.337,-7.086 -2.479,-7.086 -2.621,-7.086 "/>
</svg>
