# Rhino

g object_1
v -1.164961695671082 -0.672590970993042 21.10921287536621
v -1.164961695671082 -0.672590970993042 23.22013473510742
v 1.332267629550188e-15 1.345181941986084 21.10921287536621
v 1.332267629550188e-15 1.345181941986084 23.22013473510742
v 1.164961695671082 -0.672590970993042 21.10921287536621
v 1.164961695671082 -0.672590970993042 23.22013473510742
vt 0 0
vt 0 0.6717178225517273
vt 0.3333333432674408 0
vt 0.3333333432674408 0.6717178225517273
vt 0.3333333432674408 0
vt 0.3333333432674408 0.6717178225517273
vt 0.6666666865348816 0
vt 0.6666666865348816 0.6717178225517273
vt 0.6666666865348816 0
vt 0.6666666865348816 0.6717178225517273
vt 1 0
vt 1 0.6717178225517273
vt 0.3333333432674408 1
vt 0.1666666716337204 0.6717184782028198
vt 0 1
vt 0.3333333432674408 0.6717184782028198
vt 0.1666666716337204 1
vt 0 0.6717184782028198
vn 0.8660253882408142 0.5 0
vn 0.8660253882408142 0.5 0
vn 0.8660253882408142 0.5 0
vn 0.8660253882408142 0.5 0
vn -0.8660253882408142 0.5 0
vn -0.8660253882408142 0.5 0
vn -0.8660253882408142 0.5 0
vn -0.8660253882408142 0.5 0
vn -2.382531097663344e-16 -1 0
vn -2.382531097663344e-16 -1 0
vn -2.382531097663344e-16 -1 0
vn -2.382531097663344e-16 -1 0
vn 0 0 -1
vn 0 0 -1
vn 0 0 -1
vn 0 0 1
vn 0 0 1
vn 0 0 1
f 5/1/1 3/3/3 4/4/4 6/2/2
f 3/5/5 1/7/7 2/8/8 4/6/6
f 1/9/9 5/11/11 6/12/12 2/10/10
f 3/14/14 5/13/13 1/15/15
f 4/17/17 2/18/18 6/16/16
