# Rhino

g object_1
v -8.739955902099609 -5.046016216278076 6.332764148712158
v -8.739955902099609 -5.046016216278076 8.443685531616211
v 1.776356839400251e-15 10.09203243255615 6.332764148712158
v 1.776356839400251e-15 10.09203243255615 8.443685531616211
v 8.739955902099609 -5.046016216278076 6.332764148712158
v 8.739955902099609 -5.046016216278076 8.443685531616211
vt 0 0
vt 0 0.5325887203216553
vt 0.3333333432674408 0
vt 0.3333333432674408 0.5325887203216553
vt 0.3333333432674408 0
vt 0.3333333432674408 0.5325887203216553
vt 0.6666666865348816 0
vt 0.6666666865348816 0.5325887203216553
vt 0.6666666865348816 0
vt 0.6666666865348816 0.5325887203216553
vt 1 0
vt 1 0.5325887203216553
vt 0.3333333432674408 1
vt 0.1666666716337204 0.5325892567634583
vt 0 1
vt 0.3333333432674408 0.5325892567634583
vt 0.1666666716337204 1
vt 0 0.5325892567634583
vn 0.8660253882408142 0.5 0
vn 0.8660253882408142 0.5 0
vn 0.8660253882408142 0.5 0
vn 0.8660253882408142 0.5 0
vn -0.8660253882408142 0.5 0
vn -0.8660253882408142 0.5 0
vn -0.8660253882408142 0.5 0
vn -0.8660253882408142 0.5 0
vn -3.556796430545826e-16 -1 0
vn -3.556796430545826e-16 -1 0
vn -3.556796430545826e-16 -1 0
vn -3.556796430545826e-16 -1 0
vn 0 0 -1
vn 0 0 -1
vn 0 0 -1
vn 0 0 1
vn 0 0 1
vn 0 0 1
f 5/1/1 3/3/3 4/4/4 6/2/2
f 3/5/5 1/7/7 2/8/8 4/6/6
f 1/9/9 5/11/11 6/12/12 2/10/10
f 3/14/14 5/13/13 1/15/15
f 4/17/17 2/18/18 6/16/16
