# Rhino

mtllib 5.mtl
o object_1
usemtl Default
v 1 0.1749999970197678 0
v 1 0.2000000029802322 0.02500000037252903
v 0 0.2000000029802322 0.02500000037252903
v 0 0.1749999970197678 0
v 1 0.2000000029802322 0.02500000037252903
v 1 0.2249999940395355 0
v 0 0.2249999940395355 0
v 0 0.2000000029802322 0.02500000037252903
v 1 0.2249999940395355 0
v 1 0.2000000029802322 -0.02500000037252903
v 0 0.2000000029802322 -0.02500000037252903
v 0 0.2249999940395355 0
v 1 0.2000000029802322 -0.02500000037252903
v 1 0.1749999970197678 0
v 0 0.1749999970197678 0
v 0 0.2000000029802322 -0.02500000037252903
v 1 0.1749999970197678 0
v 1 0.2000000029802322 -0.02500000037252903
v 1 0.2249999940395355 0
v 1 0.2249999940395355 0
v 1 0.2000000029802322 0.02500000037252903
v 1 0.1749999970197678 0
v 0 0.1749999970197678 0
v 0 0.2249999940395355 0
v 0 0.2000000029802322 -0.02500000037252903
v 0 0.2249999940395355 0
v 0 0.1749999970197678 0
v 0 0.2000000029802322 0.02500000037252903
vt 0 0
vt 0.1982231438159943 0
vt 0.1982231438159943 1
vt 0 1
vt 0.1982231438159943 0
vt 0.3964462876319885 0
vt 0.3964462876319885 1
vt 0.1982231438159943 1
vt 0.3964462876319885 0
vt 0.5946694612503052 0
vt 0.5946694612503052 1
vt 0.3964462876319885 1
vt 0.5946694612503052 0
vt 0.7928925752639771 0
vt 0.7928925752639771 1
vt 0.5946694612503052 1
vt 1 0.02500000037252903
vt 0.896446704864502 0.05000000074505806
vt 0.7928934097290039 0.02500000037252903
vt 0.7928934097290039 0.02500000037252903
vt 0.896446704864502 0
vt 1 0.02500000037252903
vt 1 0.9750000238418579
vt 0.7928934097290039 0.9750000238418579
vt 0.896446704864502 0.949999988079071
vt 0.7928934097290039 0.9750000238418579
vt 1 0.9750000238418579
vt 0.896446704864502 1
vn 0 -1 0
vn 0 0 1
vn 0 0 1
vn 0 -1 0
vn 0 0 1
vn 0 1 0
vn 0 1 0
vn 0 0 1
vn 0 1 0
vn 0 0 -1
vn 0 0 -1
vn 0 1 0
vn 0 0 -1
vn 0 -1 0
vn 0 -1 0
vn 0 0 -1
vn 1 0 0
vn 1 0 0
vn 1 0 0
vn 1 0 0
vn 1 0 0
vn 1 0 0
vn -1 0 0
vn -1 0 0
vn -1 0 0
vn -1 0 0
vn -1 0 0
vn -1 0 0
f 1/1/1 2/2/2 3/3/3 4/4/4
f 5/5/5 6/6/6 7/7/7 8/8/8
f 9/9/9 10/10/10 11/11/11 12/12/12
f 13/13/13 14/14/14 15/15/15 16/16/16
f 17/17/17 18/18/18 19/19/19
f 20/20/20 21/21/21 22/22/22
f 23/23/23 24/24/24 25/25/25
f 26/26/26 27/27/27 28/28/28
o object_2
usemtl Default
v 1 0.375 0
v 1 0.4000000059604645 0.02500000037252903
v 0 0.4000000059604645 0.02500000037252903
v 0 0.375 0
v 1 0.4000000059604645 0.02500000037252903
v 1 0.425000011920929 0
v 0 0.425000011920929 0
v 0 0.4000000059604645 0.02500000037252903
v 1 0.425000011920929 0
v 1 0.4000000059604645 -0.02500000037252903
v 0 0.4000000059604645 -0.02500000037252903
v 0 0.425000011920929 0
v 1 0.4000000059604645 -0.02500000037252903
v 1 0.375 0
v 0 0.375 0
v 0 0.4000000059604645 -0.02500000037252903
v 1 0.375 0
v 1 0.4000000059604645 -0.02500000037252903
v 1 0.425000011920929 0
v 1 0.425000011920929 0
v 1 0.4000000059604645 0.02500000037252903
v 1 0.375 0
v 0 0.375 0
v 0 0.425000011920929 0
v 0 0.4000000059604645 -0.02500000037252903
v 0 0.425000011920929 0
v 0 0.375 0
v 0 0.4000000059604645 0.02500000037252903
vt 0 0
vt 0.1982231438159943 0
vt 0.1982231438159943 1
vt 0 1
vt 0.1982231438159943 0
vt 0.3964462876319885 0
vt 0.3964462876319885 1
vt 0.1982231438159943 1
vt 0.3964462876319885 0
vt 0.5946694612503052 0
vt 0.5946694612503052 1
vt 0.3964462876319885 1
vt 0.5946694612503052 0
vt 0.7928925752639771 0
vt 0.7928925752639771 1
vt 0.5946694612503052 1
vt 1 0.02500000037252903
vt 0.896446704864502 0.05000000074505806
vt 0.7928934097290039 0.02500000037252903
vt 0.7928934097290039 0.02500000037252903
vt 0.896446704864502 0
vt 1 0.02500000037252903
vt 1 0.9750000238418579
vt 0.7928934097290039 0.9750000238418579
vt 0.896446704864502 0.949999988079071
vt 0.7928934097290039 0.9750000238418579
vt 1 0.9750000238418579
vt 0.896446704864502 1
vn 0 -1 0
vn 0 0 1
vn 0 0 1
vn 0 -1 0
vn 0 0 1
vn 0 1 0
vn 0 1 0
vn 0 0 1
vn 0 1 0
vn 0 0 -1
vn 0 0 -1
vn 0 1 0
vn 0 0 -1
vn 0 -1 0
vn 0 -1 0
vn 0 0 -1
vn 1 0 0
vn 1 0 0
vn 1 0 0
vn 1 0 0
vn 1 0 0
vn 1 0 0
vn -1 0 0
vn -1 0 0
vn -1 0 0
vn -1 0 0
vn -1 0 0
vn -1 0 0
f 29/29/29 30/30/30 31/31/31 32/32/32
f 33/33/33 34/34/34 35/35/35 36/36/36
f 37/37/37 38/38/38 39/39/39 40/40/40
f 41/41/41 42/42/42 43/43/43 44/44/44
f 45/45/45 46/46/46 47/47/47
f 48/48/48 49/49/49 50/50/50
f 51/51/51 52/52/52 53/53/53
f 54/54/54 55/55/55 56/56/56
o object_3
usemtl Default
v 1 0.574999988079071 0
v 1 0.6000000238418579 0.02500000037252903
v 0 0.6000000238418579 0.02500000037252903
v 0 0.574999988079071 0
v 1 0.6000000238418579 0.02500000037252903
v 1 0.625 0
v 0 0.625 0
v 0 0.6000000238418579 0.02500000037252903
v 1 0.625 0
v 1 0.6000000238418579 -0.02500000037252903
v 0 0.6000000238418579 -0.02500000037252903
v 0 0.625 0
v 1 0.6000000238418579 -0.02500000037252903
v 1 0.574999988079071 0
v 0 0.574999988079071 0
v 0 0.6000000238418579 -0.02500000037252903
v 1 0.574999988079071 0
v 1 0.6000000238418579 -0.02500000037252903
v 1 0.625 0
v 1 0.625 0
v 1 0.6000000238418579 0.02500000037252903
v 1 0.574999988079071 0
v 0 0.574999988079071 0
v 0 0.625 0
v 0 0.6000000238418579 -0.02500000037252903
v 0 0.625 0
v 0 0.574999988079071 0
v 0 0.6000000238418579 0.02500000037252903
vt 0 0
vt 0.1982231438159943 0
vt 0.1982231438159943 1
vt 0 1
vt 0.1982231438159943 0
vt 0.3964462876319885 0
vt 0.3964462876319885 1
vt 0.1982231438159943 1
vt 0.3964462876319885 0
vt 0.5946694612503052 0
vt 0.5946694612503052 1
vt 0.3964462876319885 1
vt 0.5946694612503052 0
vt 0.7928925752639771 0
vt 0.7928925752639771 1
vt 0.5946694612503052 1
vt 1 0.02500000037252903
vt 0.896446704864502 0.05000000074505806
vt 0.7928934097290039 0.02500000037252903
vt 0.7928934097290039 0.02500000037252903
vt 0.896446704864502 0
vt 1 0.02500000037252903
vt 1 0.9750000238418579
vt 0.7928934097290039 0.9750000238418579
vt 0.896446704864502 0.949999988079071
vt 0.7928934097290039 0.9750000238418579
vt 1 0.9750000238418579
vt 0.896446704864502 1
vn 0 -1 0
vn 0 0 1
vn 0 0 1
vn 0 -1 0
vn 0 0 1
vn 0 1 0
vn 0 1 0
vn 0 0 1
vn 0 1 0
vn 0 0 -1
vn 0 0 -1
vn 0 1 0
vn 0 0 -1
vn 0 -1 0
vn 0 -1 0
vn 0 0 -1
vn 1 0 0
vn 1 0 0
vn 1 0 0
vn 1 0 0
vn 1 0 0
vn 1 0 0
vn -1 0 0
vn -1 0 0
vn -1 0 0
vn -1 0 0
vn -1 0 0
vn -1 0 0
f 57/57/57 58/58/58 59/59/59 60/60/60
f 61/61/61 62/62/62 63/63/63 64/64/64
f 65/65/65 66/66/66 67/67/67 68/68/68
f 69/69/69 70/70/70 71/71/71 72/72/72
f 73/73/73 74/74/74 75/75/75
f 76/76/76 77/77/77 78/78/78
f 79/79/79 80/80/80 81/81/81
f 82/82/82 83/83/83 84/84/84
o object_4
usemtl Default
v 1 0.7749999761581421 0
v 1 0.800000011920929 0.02500000037252903
v 0 0.800000011920929 0.02500000037252903
v 0 0.7749999761581421 0
v 1 0.800000011920929 0.02500000037252903
v 1 0.824999988079071 0
v 0 0.824999988079071 0
v 0 0.800000011920929 0.02500000037252903
v 1 0.824999988079071 0
v 1 0.800000011920929 -0.02500000037252903
v 0 0.800000011920929 -0.02500000037252903
v 0 0.824999988079071 0
v 1 0.800000011920929 -0.02500000037252903
v 1 0.7749999761581421 0
v 0 0.7749999761581421 0
v 0 0.800000011920929 -0.02500000037252903
v 1 0.7749999761581421 0
v 1 0.800000011920929 -0.02500000037252903
v 1 0.824999988079071 0
v 1 0.824999988079071 0
v 1 0.800000011920929 0.02500000037252903
v 1 0.7749999761581421 0
v 0 0.7749999761581421 0
v 0 0.824999988079071 0
v 0 0.800000011920929 -0.02500000037252903
v 0 0.824999988079071 0
v 0 0.7749999761581421 0
v 0 0.800000011920929 0.02500000037252903
vt 0 0
vt 0.1982231438159943 0
vt 0.1982231438159943 1
vt 0 1
vt 0.1982231438159943 0
vt 0.3964462876319885 0
vt 0.3964462876319885 1
vt 0.1982231438159943 1
vt 0.3964462876319885 0
vt 0.5946694612503052 0
vt 0.5946694612503052 1
vt 0.3964462876319885 1
vt 0.5946694612503052 0
vt 0.7928925752639771 0
vt 0.7928925752639771 1
vt 0.5946694612503052 1
vt 1 0.02500000037252903
vt 0.896446704864502 0.05000000074505806
vt 0.7928934097290039 0.02500000037252903
vt 0.7928934097290039 0.02500000037252903
vt 0.896446704864502 0
vt 1 0.02500000037252903
vt 1 0.9750000238418579
vt 0.7928934097290039 0.9750000238418579
vt 0.896446704864502 0.949999988079071
vt 0.7928934097290039 0.9750000238418579
vt 1 0.9750000238418579
vt 0.896446704864502 1
vn 0 -1 0
vn 0 0 1
vn 0 0 1
vn 0 -1 0
vn 0 0 1
vn 0 1 0
vn 0 1 0
vn 0 0 1
vn 0 1 0
vn 0 0 -1
vn 0 0 -1
vn 0 1 0
vn 0 0 -1
vn 0 -1 0
vn 0 -1 0
vn 0 0 -1
vn 1 0 0
vn 1 0 0
vn 1 0 0
vn 1 0 0
vn 1 0 0
vn 1 0 0
vn -1 0 0
vn -1 0 0
vn -1 0 0
vn -1 0 0
vn -1 0 0
vn -1 0 0
f 85/85/85 86/86/86 87/87/87 88/88/88
f 89/89/89 90/90/90 91/91/91 92/92/92
f 93/93/93 94/94/94 95/95/95 96/96/96
f 97/97/97 98/98/98 99/99/99 100/100/100
f 101/101/101 102/102/102 103/103/103
f 104/104/104 105/105/105 106/106/106
f 107/107/107 108/108/108 109/109/109
f 110/110/110 111/111/111 112/112/112
o object_5
usemtl Default
v 0.800000011920929 1 -0.02500000037252903
v 0.824999988079071 1 0
v 0.824999988079071 0 0
v 0.800000011920929 0 -0.02500000037252903
v 0.824999988079071 1 0
v 0.800000011920929 1 0.02500000037252903
v 0.800000011920929 0 0.02500000037252903
v 0.824999988079071 0 0
v 0.800000011920929 1 0.02500000037252903
v 0.7749999761581421 1 0
v 0.7749999761581421 0 0
v 0.800000011920929 0 0.02500000037252903
v 0.7749999761581421 1 0
v 0.800000011920929 1 -0.02500000037252903
v 0.800000011920929 0 -0.02500000037252903
v 0.7749999761581421 0 0
v 0.800000011920929 1 -0.02500000037252903
v 0.7749999761581421 1 0
v 0.800000011920929 1 0.02500000037252903
v 0.800000011920929 1 0.02500000037252903
v 0.824999988079071 1 0
v 0.800000011920929 1 -0.02500000037252903
v 0.800000011920929 0 -0.02500000037252903
v 0.800000011920929 0 0.02500000037252903
v 0.7749999761581421 0 0
v 0.800000011920929 0 0.02500000037252903
v 0.800000011920929 0 -0.02500000037252903
v 0.824999988079071 0 0
vt 0 0
vt 0.1982231438159943 0
vt 0.1982231438159943 1
vt 0 1
vt 0.1982231438159943 0
vt 0.3964462876319885 0
vt 0.3964462876319885 1
vt 0.1982231438159943 1
vt 0.3964462876319885 0
vt 0.5946694612503052 0
vt 0.5946694612503052 1
vt 0.3964462876319885 1
vt 0.5946694612503052 0
vt 0.7928925752639771 0
vt 0.7928925752639771 1
vt 0.5946694612503052 1
vt 1 0.02500000037252903
vt 0.896446704864502 0.05000000074505806
vt 0.7928934097290039 0.02500000037252903
vt 0.7928934097290039 0.02500000037252903
vt 0.896446704864502 0
vt 1 0.02500000037252903
vt 1 0.9750000238418579
vt 0.7928934097290039 0.9750000238418579
vt 0.896446704864502 0.949999988079071
vt 0.7928934097290039 0.9750000238418579
vt 1 0.9750000238418579
vt 0.896446704864502 1
vn 0 0 -1
vn 1 0 0
vn 1 0 0
vn 0 0 -1
vn 1 0 0
vn 0 0 1
vn 0 0 1
vn 1 0 0
vn 0 0 1
vn -1 0 0
vn -1 0 0
vn 0 0 1
vn -1 0 0
vn 0 0 -1
vn 0 0 -1
vn -1 0 0
vn 0 1 0
vn 0 1 0
vn 0 1 0
vn 0 1 0
vn 0 1 0
vn 0 1 0
vn 0 -1 0
vn 0 -1 0
vn 0 -1 0
vn 0 -1 0
vn 0 -1 0
vn 0 -1 0
f 113/113/113 114/114/114 115/115/115 116/116/116
f 117/117/117 118/118/118 119/119/119 120/120/120
f 121/121/121 122/122/122 123/123/123 124/124/124
f 125/125/125 126/126/126 127/127/127 128/128/128
f 129/129/129 130/130/130 131/131/131
f 132/132/132 133/133/133 134/134/134
f 135/135/135 136/136/136 137/137/137
f 138/138/138 139/139/139 140/140/140
o object_6
usemtl Default
v 0.6000000238418579 1 -0.02500000037252903
v 0.625 1 0
v 0.625 0 0
v 0.6000000238418579 0 -0.02500000037252903
v 0.625 1 0
v 0.6000000238418579 1 0.02500000037252903
v 0.6000000238418579 0 0.02500000037252903
v 0.625 0 0
v 0.6000000238418579 1 0.02500000037252903
v 0.574999988079071 1 0
v 0.574999988079071 0 0
v 0.6000000238418579 0 0.02500000037252903
v 0.574999988079071 1 0
v 0.6000000238418579 1 -0.02500000037252903
v 0.6000000238418579 0 -0.02500000037252903
v 0.574999988079071 0 0
v 0.6000000238418579 1 -0.02500000037252903
v 0.574999988079071 1 0
v 0.6000000238418579 1 0.02500000037252903
v 0.6000000238418579 1 0.02500000037252903
v 0.625 1 0
v 0.6000000238418579 1 -0.02500000037252903
v 0.6000000238418579 0 -0.02500000037252903
v 0.6000000238418579 0 0.02500000037252903
v 0.574999988079071 0 0
v 0.6000000238418579 0 0.02500000037252903
v 0.6000000238418579 0 -0.02500000037252903
v 0.625 0 0
vt 0 0
vt 0.1982231438159943 0
vt 0.1982231438159943 1
vt 0 1
vt 0.1982231438159943 0
vt 0.3964462876319885 0
vt 0.3964462876319885 1
vt 0.1982231438159943 1
vt 0.3964462876319885 0
vt 0.5946694612503052 0
vt 0.5946694612503052 1
vt 0.3964462876319885 1
vt 0.5946694612503052 0
vt 0.7928925752639771 0
vt 0.7928925752639771 1
vt 0.5946694612503052 1
vt 1 0.02500000037252903
vt 0.896446704864502 0.05000000074505806
vt 0.7928934097290039 0.02500000037252903
vt 0.7928934097290039 0.02500000037252903
vt 0.896446704864502 0
vt 1 0.02500000037252903
vt 1 0.9750000238418579
vt 0.7928934097290039 0.9750000238418579
vt 0.896446704864502 0.949999988079071
vt 0.7928934097290039 0.9750000238418579
vt 1 0.9750000238418579
vt 0.896446704864502 1
vn 0 0 -1
vn 1 0 0
vn 1 0 0
vn 0 0 -1
vn 1 0 0
vn 0 0 1
vn 0 0 1
vn 1 0 0
vn 0 0 1
vn -1 0 0
vn -1 0 0
vn 0 0 1
vn -1 0 0
vn 0 0 -1
vn 0 0 -1
vn -1 0 0
vn 0 1 0
vn 0 1 0
vn 0 1 0
vn 0 1 0
vn 0 1 0
vn 0 1 0
vn 0 -1 0
vn 0 -1 0
vn 0 -1 0
vn 0 -1 0
vn 0 -1 0
vn 0 -1 0
f 141/141/141 142/142/142 143/143/143 144/144/144
f 145/145/145 146/146/146 147/147/147 148/148/148
f 149/149/149 150/150/150 151/151/151 152/152/152
f 153/153/153 154/154/154 155/155/155 156/156/156
f 157/157/157 158/158/158 159/159/159
f 160/160/160 161/161/161 162/162/162
f 163/163/163 164/164/164 165/165/165
f 166/166/166 167/167/167 168/168/168
o object_7
usemtl Default
v 0.4000000059604645 1 -0.02500000037252903
v 0.425000011920929 1 0
v 0.425000011920929 0 0
v 0.4000000059604645 0 -0.02500000037252903
v 0.425000011920929 1 0
v 0.4000000059604645 1 0.02500000037252903
v 0.4000000059604645 0 0.02500000037252903
v 0.425000011920929 0 0
v 0.4000000059604645 1 0.02500000037252903
v 0.375 1 0
v 0.375 0 0
v 0.4000000059604645 0 0.02500000037252903
v 0.375 1 0
v 0.4000000059604645 1 -0.02500000037252903
v 0.4000000059604645 0 -0.02500000037252903
v 0.375 0 0
v 0.4000000059604645 1 -0.02500000037252903
v 0.375 1 0
v 0.4000000059604645 1 0.02500000037252903
v 0.4000000059604645 1 0.02500000037252903
v 0.425000011920929 1 0
v 0.4000000059604645 1 -0.02500000037252903
v 0.4000000059604645 0 -0.02500000037252903
v 0.4000000059604645 0 0.02500000037252903
v 0.375 0 0
v 0.4000000059604645 0 0.02500000037252903
v 0.4000000059604645 0 -0.02500000037252903
v 0.425000011920929 0 0
vt 0 0
vt 0.1982231438159943 0
vt 0.1982231438159943 1
vt 0 1
vt 0.1982231438159943 0
vt 0.3964462876319885 0
vt 0.3964462876319885 1
vt 0.1982231438159943 1
vt 0.3964462876319885 0
vt 0.5946694612503052 0
vt 0.5946694612503052 1
vt 0.3964462876319885 1
vt 0.5946694612503052 0
vt 0.7928925752639771 0
vt 0.7928925752639771 1
vt 0.5946694612503052 1
vt 1 0.02500000037252903
vt 0.896446704864502 0.05000000074505806
vt 0.7928934097290039 0.02500000037252903
vt 0.7928934097290039 0.02500000037252903
vt 0.896446704864502 0
vt 1 0.02500000037252903
vt 1 0.9750000238418579
vt 0.7928934097290039 0.9750000238418579
vt 0.896446704864502 0.949999988079071
vt 0.7928934097290039 0.9750000238418579
vt 1 0.9750000238418579
vt 0.896446704864502 1
vn 0 0 -1
vn 1 0 0
vn 1 0 0
vn 0 0 -1
vn 1 0 0
vn 0 0 1
vn 0 0 1
vn 1 0 0
vn 0 0 1
vn -1 0 0
vn -1 0 0
vn 0 0 1
vn -1 0 0
vn 0 0 -1
vn 0 0 -1
vn -1 0 0
vn 0 1 0
vn 0 1 0
vn 0 1 0
vn 0 1 0
vn 0 1 0
vn 0 1 0
vn 0 -1 0
vn 0 -1 0
vn 0 -1 0
vn 0 -1 0
vn 0 -1 0
vn 0 -1 0
f 169/169/169 170/170/170 171/171/171 172/172/172
f 173/173/173 174/174/174 175/175/175 176/176/176
f 177/177/177 178/178/178 179/179/179 180/180/180
f 181/181/181 182/182/182 183/183/183 184/184/184
f 185/185/185 186/186/186 187/187/187
f 188/188/188 189/189/189 190/190/190
f 191/191/191 192/192/192 193/193/193
f 194/194/194 195/195/195 196/196/196
o object_8
usemtl Default
v 0.2000000029802322 1 -0.02500000037252903
v 0.2249999940395355 1 0
v 0.2249999940395355 0 0
v 0.2000000029802322 0 -0.02500000037252903
v 0.2249999940395355 1 0
v 0.2000000029802322 1 0.02500000037252903
v 0.2000000029802322 0 0.02500000037252903
v 0.2249999940395355 0 0
v 0.2000000029802322 1 0.02500000037252903
v 0.1749999970197678 1 0
v 0.1749999970197678 0 0
v 0.2000000029802322 0 0.02500000037252903
v 0.1749999970197678 1 0
v 0.2000000029802322 1 -0.02500000037252903
v 0.2000000029802322 0 -0.02500000037252903
v 0.1749999970197678 0 0
v 0.2000000029802322 1 -0.02500000037252903
v 0.1749999970197678 1 0
v 0.2000000029802322 1 0.02500000037252903
v 0.2000000029802322 1 0.02500000037252903
v 0.2249999940395355 1 0
v 0.2000000029802322 1 -0.02500000037252903
v 0.2000000029802322 0 -0.02500000037252903
v 0.2000000029802322 0 0.02500000037252903
v 0.1749999970197678 0 0
v 0.2000000029802322 0 0.02500000037252903
v 0.2000000029802322 0 -0.02500000037252903
v 0.2249999940395355 0 0
vt 0 0
vt 0.1982231438159943 0
vt 0.1982231438159943 1
vt 0 1
vt 0.1982231438159943 0
vt 0.3964462876319885 0
vt 0.3964462876319885 1
vt 0.1982231438159943 1
vt 0.3964462876319885 0
vt 0.5946694612503052 0
vt 0.5946694612503052 1
vt 0.3964462876319885 1
vt 0.5946694612503052 0
vt 0.7928925752639771 0
vt 0.7928925752639771 1
vt 0.5946694612503052 1
vt 1 0.02500000037252903
vt 0.896446704864502 0.05000000074505806
vt 0.7928934097290039 0.02500000037252903
vt 0.7928934097290039 0.02500000037252903
vt 0.896446704864502 0
vt 1 0.02500000037252903
vt 1 0.9750000238418579
vt 0.7928934097290039 0.9750000238418579
vt 0.896446704864502 0.949999988079071
vt 0.7928934097290039 0.9750000238418579
vt 1 0.9750000238418579
vt 0.896446704864502 1
vn 0 0 -1
vn 1 0 0
vn 1 0 0
vn 0 0 -1
vn 1 0 0
vn 0 0 1
vn 0 0 1
vn 1 0 0
vn 0 0 1
vn -1 0 0
vn -1 0 0
vn 0 0 1
vn -1 0 0
vn 0 0 -1
vn 0 0 -1
vn -1 0 0
vn 0 1 0
vn 0 1 0
vn 0 1 0
vn 0 1 0
vn 0 1 0
vn 0 1 0
vn 0 -1 0
vn 0 -1 0
vn 0 -1 0
vn 0 -1 0
vn 0 -1 0
vn 0 -1 0
f 197/197/197 198/198/198 199/199/199 200/200/200
f 201/201/201 202/202/202 203/203/203 204/204/204
f 205/205/205 206/206/206 207/207/207 208/208/208
f 209/209/209 210/210/210 211/211/211 212/212/212
f 213/213/213 214/214/214 215/215/215
f 216/216/216 217/217/217 218/218/218
f 219/219/219 220/220/220 221/221/221
f 222/222/222 223/223/223 224/224/224
