<?xml version="1.0" encoding="utf-8"?>
<!-- Generator: Adobe Illustrator 16.0.0, SVG Export Plug-In . SVG Version: 6.00 Build 0)  -->
<!DOCTYPE svg PUBLIC "-//W3C//DTD SVG 1.1//EN" "http://www.w3.org/Graphics/SVG/1.1/DTD/svg11.dtd">
<svg version="1.1" id="Layer_1" xmlns="http://www.w3.org/2000/svg" xmlns:xlink="http://www.w3.org/1999/xlink" x="0px" y="0px"
	 width="800px" height="800px" viewBox="0 0 800 800" enable-background="new 0 0 800 800" xml:space="preserve">
<polygon fill="none" stroke="#010101" stroke-linecap="round" stroke-linejoin="round" points="388.381,256.215 362.523,301.001 
	336.666,345.789 310.809,390.575 284.951,435.361 259.093,480.148 310.809,480.148 362.523,480.148 414.239,480.148 
	465.954,480.148 517.669,480.148 491.812,435.361 465.954,390.575 440.097,345.789 414.239,301.001 "/>
<polygon fill="none" stroke="#010101" stroke-linecap="round" stroke-linejoin="round" points="388.381,256.215 327.66,269.121 
	277.438,305.61 246.399,359.371 239.91,421.109 259.093,480.148 300.632,526.281 357.342,551.53 419.42,551.53 476.131,526.281 
	517.669,480.148 536.853,421.109 530.363,359.371 499.325,305.61 449.103,269.121 "/>
</svg>
