<?xml version="1.0" encoding="utf-8"?>
<!-- Generator: Adobe Illustrator 16.0.0, SVG Export Plug-In . SVG Version: 6.00 Build 0)  -->
<!DOCTYPE svg PUBLIC "-//W3C//DTD SVG 1.1//EN" "http://www.w3.org/Graphics/SVG/1.1/DTD/svg11.dtd">
<svg version="1.1" id="Default" xmlns="http://www.w3.org/2000/svg" xmlns:xlink="http://www.w3.org/1999/xlink" x="0px" y="0px"
	 width="99.645px" height="37.014px" viewBox="0 0 99.645 37.014" enable-background="new 0 0 99.645 37.014" xml:space="preserve">
<polygon fill="none" stroke="#000000" stroke-linecap="round" stroke-linejoin="round" points="46.242,-1.994 46.242,-1.896 
	46.242,-1.797 46.242,-1.698 46.242,-1.599 46.242,-1.5 46.242,-1.401 46.242,-1.302 46.242,-1.202 46.242,-1.104 46.242,-1.006 
	46.242,-0.906 46.242,-0.807 46.242,-0.709 46.242,-0.61 46.21,-0.543 46.111,-0.543 46.012,-0.543 45.913,-0.543 45.814,-0.543 
	45.716,-0.543 45.616,-0.543 45.517,-0.543 45.418,-0.543 45.319,-0.543 45.221,-0.543 45.121,-0.543 45.023,-0.543 44.925,-0.543 
	44.825,-0.543 44.726,-0.543 44.627,-0.543 44.528,-0.543 44.429,-0.543 44.33,-0.543 44.231,-0.543 44.133,-0.543 44.033,-0.543 
	43.934,-0.543 43.835,-0.543 43.736,-0.543 43.638,-0.543 43.538,-0.543 43.439,-0.543 43.342,-0.543 43.242,-0.543 43.142,-0.543 
	43.044,-0.543 42.945,-0.543 42.846,-0.543 42.747,-0.543 42.648,-0.543 42.55,-0.543 42.45,-0.543 42.351,-0.543 42.252,-0.543 
	42.153,-0.543 42.055,-0.543 41.955,-0.543 41.856,-0.543 41.759,-0.543 41.659,-0.543 41.559,-0.543 41.461,-0.543 41.362,-0.543 
	41.263,-0.543 41.164,-0.543 41.065,-0.543 40.967,-0.543 40.867,-0.543 40.768,-0.543 40.669,-0.543 40.57,-0.543 40.471,-0.543 
	40.372,-0.543 40.273,-0.543 40.175,-0.543 40.076,-0.543 39.976,-0.543 39.878,-0.543 39.779,-0.543 39.68,-0.543 39.581,-0.543 
	39.482,-0.543 39.384,-0.543 39.284,-0.543 39.185,-0.543 39.086,-0.543 38.987,-0.543 38.888,-0.543 38.789,-0.543 38.69,-0.543 
	38.592,-0.543 38.493,-0.543 38.393,-0.543 38.294,-0.543 38.196,-0.543 38.097,-0.543 37.997,-0.543 37.899,-0.543 37.801,-0.543 
	37.784,-0.624 37.786,-0.723 37.789,-0.821 37.791,-0.921 37.794,-1.019 37.797,-1.117 37.8,-1.217 37.802,-1.316 37.804,-1.415 
	37.806,-1.514 37.808,-1.613 37.811,-1.712 37.813,-1.811 37.816,-1.909 37.832,-1.994 37.93,-1.994 38.03,-1.994 38.128,-1.994 
	38.227,-1.994 38.326,-1.994 38.426,-1.994 38.524,-1.994 38.623,-1.994 38.722,-1.994 38.821,-1.994 38.92,-1.994 39.019,-1.994 
	39.118,-1.994 39.218,-1.994 39.316,-1.994 39.415,-1.994 39.514,-1.994 39.613,-1.994 39.713,-1.994 39.81,-1.994 39.909,-1.994 
	40.01,-1.994 40.107,-1.994 40.206,-1.994 40.305,-1.994 40.404,-1.994 40.503,-1.994 40.602,-1.994 40.701,-1.994 40.801,-1.994 
	40.899,-1.994 40.998,-1.994 41.097,-1.994 41.196,-1.994 41.295,-1.994 41.393,-1.994 41.493,-1.994 41.593,-1.994 41.69,-1.994 
	41.789,-1.994 41.889,-1.994 41.987,-1.994 42.086,-1.994 42.185,-1.994 42.284,-1.994 42.384,-1.994 42.482,-1.994 42.581,-1.994 
	42.68,-1.994 42.779,-1.994 42.878,-1.994 42.977,-1.994 43.076,-1.994 43.176,-1.994 43.273,-1.994 43.372,-1.994 43.472,-1.994 
	43.57,-1.994 43.669,-1.994 43.768,-1.994 43.867,-1.994 43.967,-1.994 44.065,-1.994 44.164,-1.994 44.263,-1.994 44.362,-1.994 
	44.461,-1.994 44.56,-1.994 44.659,-1.994 44.759,-1.994 44.857,-1.994 44.955,-1.994 45.055,-1.994 45.154,-1.994 45.252,-1.994 
	45.351,-1.994 45.451,-1.994 45.55,-1.994 45.648,-1.994 45.747,-1.994 45.846,-1.994 45.945,-1.994 46.044,-1.994 46.143,-1.994 
	"/>
<polygon fill="none" stroke="#000000" stroke-linecap="round" stroke-linejoin="round" points="37.782,-0.543 37.782,-0.134 
	37.789,0.274 37.809,0.682 37.844,1.09 37.892,1.494 37.956,1.898 38.036,2.299 38.133,2.695 38.245,3.088 38.376,3.474 
	38.525,3.855 38.693,4.227 38.881,4.591 39.089,4.941 39.317,5.28 39.566,5.603 39.836,5.91 40.127,6.196 40.438,6.46 40.768,6.7 
	41.117,6.913 41.481,7.098 41.859,7.252 42.248,7.375 42.646,7.467 43.051,7.524 43.458,7.552 43.866,7.552 44.273,7.527 
	44.679,7.473 45.077,7.388 45.469,7.272 45.851,7.128 46.224,6.962 46.59,6.779 46.948,6.583 47.302,6.377 47.649,6.165 
	47.995,5.947 48.226,6.143 48.413,6.508 48.6,6.87 48.779,7.231 48.425,7.432 48.067,7.632 47.707,7.826 47.346,8.015 46.98,8.198 
	46.611,8.372 46.237,8.535 45.857,8.686 45.472,8.822 45.081,8.939 44.684,9.035 44.283,9.111 43.878,9.165 43.471,9.201 
	43.063,9.22 42.655,9.224 42.246,9.215 41.84,9.184 41.434,9.135 41.032,9.064 40.635,8.973 40.241,8.862 39.854,8.73 39.476,8.577 
	39.106,8.403 38.747,8.209 38.399,7.995 38.064,7.762 37.742,7.511 37.435,7.241 37.143,6.955 36.868,6.654 36.609,6.34 
	36.367,6.01 36.142,5.668 35.936,5.316 35.747,4.954 35.576,4.583 35.424,4.204 35.287,3.819 35.169,3.429 35.068,3.033 
	34.985,2.634 34.917,2.23 34.866,1.825 34.83,1.418 34.81,1.011 34.805,0.602 34.814,0.194 34.838,-0.214 34.876,-0.619 
	34.93,-1.025 35,-1.427 35.085,-1.826 35.187,-2.222 35.306,-2.613 35.441,-2.998 35.594,-3.378 35.763,-3.749 35.949,-4.112 
	36.152,-4.467 36.372,-4.811 36.61,-5.143 36.863,-5.463 37.134,-5.769 37.419,-6.061 37.721,-6.337 38.036,-6.595 38.366,-6.837 
	38.708,-7.059 39.063,-7.261 39.428,-7.444 39.804,-7.605 40.187,-7.744 40.578,-7.863 40.974,-7.96 41.376,-8.034 41.781,-8.088 
	42.188,-8.119 42.596,-8.131 43.005,-8.122 43.412,-8.092 43.817,-8.042 44.219,-7.969 44.616,-7.874 45.008,-7.756 45.389,-7.613 
	45.763,-7.447 46.124,-7.257 46.472,-7.044 46.805,-6.806 47.12,-6.547 47.416,-6.267 47.693,-5.966 47.947,-5.647 48.179,-5.311 
	48.388,-4.96 48.573,-4.596 48.734,-4.22 48.871,-3.836 48.985,-3.444 49.075,-3.046 49.143,-2.643 49.189,-2.237 49.215,-1.829 
	49.22,-1.421 49.22,-1.013 49.22,-0.604 48.872,-0.543 48.465,-0.543 48.056,-0.543 47.647,-0.543 47.239,-0.543 46.83,-0.543 
	46.423,-0.543 46.242,-0.771 46.242,-1.179 46.242,-1.588 46.242,-1.996 46.242,-2.404 46.242,-2.813 46.228,-3.221 46.179,-3.626 
	46.09,-4.025 45.96,-4.41 45.789,-4.781 45.578,-5.132 45.326,-5.452 45.038,-5.741 44.718,-5.992 44.367,-6.202 43.993,-6.368 
	43.604,-6.49 43.203,-6.569 42.798,-6.604 42.388,-6.6 41.981,-6.567 41.578,-6.503 41.181,-6.405 40.795,-6.274 40.423,-6.109 
	40.065,-5.908 39.729,-5.677 39.417,-5.415 39.131,-5.124 38.871,-4.809 38.64,-4.472 38.439,-4.116 38.265,-3.747 38.12,-3.365 
	38.002,-2.975 37.909,-2.576 37.842,-2.174 37.812,-1.767 37.802,-1.359 37.792,-0.95 "/>
<polygon fill="none" stroke="#000000" stroke-linecap="round" stroke-linejoin="round" points="20.61,7.082 20.894,7.193 
	21.18,7.302 21.469,7.403 21.76,7.495 22.053,7.575 22.352,7.636 22.655,7.676 22.96,7.695 23.265,7.7 23.57,7.69 23.874,7.664 
	24.177,7.623 24.476,7.565 24.772,7.491 25.064,7.4 25.35,7.293 25.63,7.17 25.901,7.032 26.164,6.878 26.419,6.709 26.664,6.527 
	26.899,6.332 27.123,6.124 27.336,5.906 27.537,5.677 27.727,5.437 27.906,5.19 28.073,4.934 28.228,4.671 28.372,4.402 
	28.505,4.127 28.626,3.847 28.736,3.562 28.835,3.274 28.926,2.982 29.003,2.687 29.072,2.389 29.131,2.091 29.179,1.788 
	29.219,1.486 29.249,1.182 29.27,0.877 29.284,0.572 29.288,0.267 29.284,-0.038 29.274,-0.343 29.256,-0.648 29.228,-0.951 
	29.193,-1.256 29.148,-1.557 29.095,-1.858 29.03,-2.156 28.955,-2.451 28.868,-2.744 28.77,-3.033 28.659,-3.318 28.534,-3.597 
	28.395,-3.868 28.242,-4.133 28.074,-4.387 27.889,-4.631 27.69,-4.862 27.475,-5.079 27.245,-5.279 27,-5.462 26.742,-5.625 
	26.472,-5.767 26.192,-5.888 25.903,-5.986 25.608,-6.064 25.308,-6.118 25.006,-6.154 24.7,-6.17 24.394,-6.171 24.09,-6.171 
	23.784,-6.171 23.478,-6.171 23.174,-6.171 22.868,-6.171 22.562,-6.171 22.258,-6.171 21.953,-6.172 21.953,-6.477 21.953,-6.781 
	21.953,-7.088 21.976,-7.376 22.266,-7.471 22.556,-7.564 22.848,-7.653 23.142,-7.739 23.436,-7.819 23.732,-7.894 24.03,-7.961 
	24.33,-8.018 24.633,-8.065 24.935,-8.1 25.24,-8.121 25.545,-8.131 25.85,-8.129 26.155,-8.113 26.458,-8.084 26.761,-8.04 
	27.06,-7.982 27.357,-7.908 27.649,-7.822 27.937,-7.72 28.22,-7.604 28.495,-7.473 28.764,-7.329 29.026,-7.172 29.279,-7.001 
	29.524,-6.819 29.76,-6.625 29.985,-6.419 30.201,-6.202 30.407,-5.978 30.602,-5.742 30.788,-5.501 30.963,-5.25 31.126,-4.992 
	31.28,-4.729 31.424,-4.459 31.555,-4.184 31.678,-3.904 31.79,-3.621 31.892,-3.333 31.985,-3.042 32.067,-2.748 32.14,-2.451 
	32.205,-2.153 32.26,-1.853 32.305,-1.551 32.344,-1.248 32.372,-0.944 32.393,-0.64 32.405,-0.335 32.41,-0.029 32.407,0.276 
	32.396,0.581 32.378,0.886 32.351,1.19 32.316,1.493 32.272,1.795 32.22,2.096 32.158,2.395 32.088,2.692 32.009,2.987 
	31.918,3.279 31.819,3.567 31.711,3.853 31.594,4.135 31.465,4.411 31.326,4.683 31.179,4.951 31.022,5.213 30.855,5.469 
	30.679,5.719 30.493,5.96 30.3,6.195 30.095,6.424 29.884,6.642 29.663,6.854 29.434,7.056 29.199,7.25 28.956,7.436 28.707,7.612 
	28.451,7.778 28.189,7.936 27.923,8.083 27.65,8.222 27.373,8.351 27.094,8.471 26.808,8.58 26.52,8.681 26.228,8.773 25.934,8.856 
	25.639,8.93 25.341,8.995 25.04,9.052 24.739,9.099 24.436,9.14 24.134,9.173 23.828,9.196 23.523,9.213 23.219,9.222 22.913,9.224 
	22.608,9.221 22.303,9.211 21.997,9.196 21.693,9.174 21.389,9.145 21.086,9.111 20.783,9.07 20.61,8.914 20.61,8.609 20.61,8.304 
	20.61,7.998 20.61,7.693 20.61,7.388 "/>
<polygon fill="none" stroke="#000000" stroke-linecap="round" stroke-linejoin="round" points="17.887,8.462 17.887,8.141 
	17.887,7.821 17.887,7.5 17.887,7.18 17.887,6.859 17.887,6.539 17.887,6.219 17.887,5.897 17.887,5.577 17.887,5.257 17.887,4.936 
	17.887,4.615 17.887,4.294 17.887,3.974 17.887,3.653 17.887,3.333 17.887,3.012 17.887,2.691 17.887,2.371 17.887,2.051 
	17.887,1.73 17.887,1.409 17.887,1.09 17.887,0.768 17.887,0.447 17.887,0.127 17.887,-0.194 17.887,-0.514 17.887,-0.835 
	17.887,-1.155 17.887,-1.476 17.887,-1.797 17.887,-2.116 17.887,-2.438 17.887,-2.758 17.887,-3.079 17.887,-3.4 17.887,-3.72 
	17.887,-4.041 17.887,-4.361 17.887,-4.682 17.887,-5.003 17.887,-5.323 17.887,-5.644 17.887,-5.965 17.887,-6.284 17.887,-6.606 
	17.887,-6.926 17.887,-7.247 17.887,-7.568 17.887,-7.888 17.887,-8.209 17.887,-8.529 17.887,-8.85 17.887,-9.171 17.887,-9.49 
	17.887,-9.812 17.887,-10.132 17.887,-10.452 17.887,-10.774 17.887,-11.094 17.887,-11.415 17.887,-11.736 17.887,-12.056 
	17.887,-12.377 17.887,-12.697 17.887,-13.018 17.887,-13.339 17.887,-13.658 17.887,-13.98 17.887,-14.3 17.887,-14.621 
	17.887,-14.942 17.887,-15.262 17.887,-15.583 17.594,-15.611 17.274,-15.611 16.953,-15.611 16.634,-15.611 16.312,-15.611 
	15.991,-15.611 15.672,-15.611 15.35,-15.611 15.03,-15.611 14.728,-15.63 14.728,-15.949 14.728,-16.271 14.728,-16.591 
	15.037,-16.675 15.347,-16.758 15.656,-16.842 15.967,-16.926 16.275,-17.01 16.584,-17.094 16.894,-17.177 17.203,-17.261 
	17.513,-17.345 17.822,-17.429 18.133,-17.513 18.441,-17.597 18.75,-17.68 19.06,-17.764 19.369,-17.848 19.679,-17.932 
	19.99,-18.007 20.31,-18.007 20.61,-17.986 20.61,-17.665 20.61,-17.344 20.61,-17.024 20.61,-16.702 20.61,-16.383 20.61,-16.062 
	20.61,-15.741 20.61,-15.421 20.61,-15.1 20.61,-14.78 20.61,-14.459 20.61,-14.139 20.61,-13.818 20.61,-13.497 20.61,-13.177 
	20.61,-12.856 20.61,-12.535 20.61,-12.215 20.61,-11.894 20.61,-11.573 20.61,-11.253 20.61,-10.933 20.61,-10.612 20.61,-10.292 
	20.61,-9.971 20.61,-9.651 20.61,-9.33 20.61,-9.009 20.61,-8.689 20.61,-8.367 20.61,-8.048 20.61,-7.727 20.61,-7.406 
	20.61,-7.086 20.61,-6.765 20.61,-6.444 20.61,-6.124 20.61,-5.803 20.61,-5.483 20.61,-5.162 20.61,-4.841 20.61,-4.521 
	20.61,-4.199 20.61,-3.88 20.61,-3.559 20.61,-3.238 20.61,-2.918 20.61,-2.597 20.61,-2.277 20.61,-1.956 20.61,-1.635 
	20.61,-1.315 20.61,-0.993 20.61,-0.674 20.61,-0.353 20.61,-0.031 20.61,0.288 20.61,0.609 20.61,0.93 20.61,1.25 20.61,1.571 
	20.61,1.891 20.61,2.212 20.61,2.533 20.61,2.853 20.61,3.175 20.61,3.494 20.61,3.815 20.61,4.136 20.61,4.456 20.61,4.777 
	20.61,5.097 20.61,5.418 20.61,5.739 20.61,6.059 20.61,6.379 20.61,6.7 20.61,7.021 20.61,7.342 20.61,7.662 20.61,7.982 
	20.61,8.303 20.61,8.624 20.61,8.944 20.391,9.01 20.076,8.954 19.761,8.894 19.447,8.829 19.135,8.762 18.821,8.69 18.51,8.617 
	18.198,8.54 "/>
<polygon fill="none" stroke="#000000" stroke-linecap="round" stroke-linejoin="round" points="7.286,4.36 7.406,4.042 7.527,3.724 
	7.647,3.407 7.768,3.09 7.889,2.772 8.01,2.454 8.13,2.137 8.25,1.819 8.371,1.502 8.491,1.184 8.612,0.867 8.732,0.55 8.853,0.231 
	8.973,-0.086 9.094,-0.404 9.216,-0.721 9.335,-1.039 9.456,-1.357 9.576,-1.674 9.697,-1.99 9.817,-2.309 9.938,-2.627 
	10.058,-2.944 10.179,-3.261 10.301,-3.579 10.42,-3.897 10.541,-4.215 10.661,-4.531 10.782,-4.849 10.902,-5.167 11.023,-5.485 
	11.144,-5.802 11.264,-6.118 11.261,-6.352 10.922,-6.352 10.582,-6.352 10.242,-6.352 9.902,-6.352 9.563,-6.352 9.223,-6.352 
	8.92,-6.388 8.92,-6.728 8.92,-7.068 8.92,-7.406 8.972,-7.695 9.311,-7.695 9.651,-7.695 9.991,-7.695 10.33,-7.695 10.67,-7.695 
	11.01,-7.695 11.349,-7.695 11.689,-7.695 12.028,-7.695 12.368,-7.695 12.708,-7.695 13.048,-7.695 13.387,-7.695 13.727,-7.695 
	14.066,-7.695 14.406,-7.695 14.512,-7.461 14.512,-7.121 14.512,-6.781 14.512,-6.442 14.262,-6.352 13.923,-6.352 13.583,-6.352 
	13.243,-6.352 12.957,-6.274 12.835,-5.957 12.714,-5.64 12.592,-5.323 12.469,-5.006 12.347,-4.689 12.224,-4.372 12.102,-4.055 
	11.98,-3.738 11.858,-3.421 11.736,-3.104 11.614,-2.787 11.492,-2.47 11.37,-2.153 11.248,-1.836 11.126,-1.519 11.005,-1.201 
	10.883,-0.885 10.76,-0.568 10.638,-0.251 10.516,0.066 10.394,0.384 10.272,0.7 10.15,1.016 10.028,1.334 9.906,1.651 9.784,1.969 
	9.662,2.285 9.54,2.602 9.418,2.919 9.297,3.236 9.175,3.553 9.052,3.869 8.93,4.186 8.808,4.504 8.686,4.821 8.564,5.138 
	8.442,5.454 8.32,5.771 8.198,6.09 8.076,6.406 7.953,6.722 7.832,7.039 7.71,7.356 7.588,7.674 7.466,7.991 7.344,8.307 
	7.222,8.624 7.099,8.941 6.977,9.259 6.855,9.576 6.732,9.891 6.604,10.206 6.473,10.52 6.339,10.831 6.2,11.142 6.059,11.451 
	5.915,11.76 5.768,12.065 5.619,12.37 5.467,12.674 5.311,12.975 5.153,13.276 4.993,13.576 4.829,13.873 4.663,14.169 
	4.494,14.465 4.321,14.758 4.146,15.049 3.968,15.336 3.784,15.622 3.597,15.906 3.401,16.183 3.199,16.456 2.998,16.73 
	2.797,17.004 2.595,17.277 2.393,17.551 2.19,17.822 1.981,18.007 1.744,17.763 1.508,17.519 1.271,17.275 1.034,17.031 
	0.799,16.787 0.561,16.544 0.325,16.301 0.089,16.056 -0.148,15.812 -0.281,15.583 0.013,15.415 0.306,15.244 0.598,15.07 
	0.887,14.891 1.172,14.706 1.451,14.514 1.724,14.311 1.989,14.098 2.243,13.874 2.488,13.638 2.723,13.393 2.949,13.139 
	3.167,12.879 3.38,12.614 3.585,12.344 3.786,12.07 3.982,11.792 4.172,11.51 4.353,11.223 4.527,10.931 4.692,10.635 4.849,10.333 
	4.998,10.028 5.142,9.721 5.28,9.41 5.414,9.098 5.544,8.785 5.673,8.47 5.799,8.154 5.923,7.838 6.047,7.522 6.17,7.205 
	6.294,6.889 6.418,6.573 6.542,6.258 6.666,5.941 6.79,5.624 6.914,5.308 7.038,4.992 7.162,4.677 "/>
<polygon fill="none" stroke="#000000" stroke-linecap="round" stroke-linejoin="round" points="7.286,4.36 7.203,4.569 7.121,4.778 
	7.039,4.987 6.957,5.197 6.875,5.406 6.793,5.615 6.711,5.825 6.63,6.034 6.548,6.243 6.466,6.452 6.384,6.661 6.302,6.871 
	6.219,7.08 6.137,7.289 6.055,7.498 5.973,7.708 5.891,7.917 5.808,7.999 5.723,7.791 5.638,7.583 5.553,7.375 5.469,7.167 
	5.384,6.959 5.299,6.75 5.214,6.542 5.128,6.334 5.044,6.126 4.959,5.918 4.874,5.71 4.789,5.502 4.704,5.294 4.619,5.086 
	4.534,4.877 4.449,4.669 4.364,4.461 4.279,4.253 4.194,4.045 4.109,3.837 4.024,3.629 3.94,3.421 3.855,3.213 3.77,3.004 
	3.685,2.796 3.6,2.588 3.515,2.381 3.43,2.173 3.345,1.965 3.26,1.757 3.176,1.549 3.091,1.341 3.006,1.132 2.92,0.924 2.835,0.716 
	2.75,0.508 2.665,0.3 2.58,0.092 2.495,-0.116 2.411,-0.324 2.326,-0.533 2.241,-0.741 2.156,-0.949 2.071,-1.157 1.986,-1.365 
	1.901,-1.573 1.816,-1.781 1.731,-1.99 1.646,-2.198 1.561,-2.406 1.476,-2.615 1.391,-2.823 1.306,-3.031 1.222,-3.239 
	1.137,-3.447 1.052,-3.655 0.968,-3.863 0.883,-4.071 0.798,-4.28 0.713,-4.488 0.627,-4.696 0.542,-4.904 0.457,-5.112 
	0.372,-5.32 0.287,-5.528 0.202,-5.736 0.118,-5.944 0.033,-6.153 -0.059,-6.352 -0.282,-6.352 -0.508,-6.352 -0.733,-6.352 
	-0.958,-6.352 -1.183,-6.352 -1.406,-6.352 -1.573,-6.409 -1.573,-6.635 -1.573,-6.86 -1.573,-7.085 -1.573,-7.309 -1.573,-7.533 
	-1.51,-7.695 -1.284,-7.695 -1.06,-7.695 -0.835,-7.695 -0.611,-7.695 -0.386,-7.695 -0.16,-7.695 0.064,-7.695 0.288,-7.695 
	0.513,-7.695 0.738,-7.695 0.964,-7.695 1.188,-7.695 1.412,-7.695 1.637,-7.695 1.862,-7.695 2.088,-7.695 2.312,-7.695 
	2.536,-7.695 2.761,-7.695 2.986,-7.695 3.211,-7.695 3.435,-7.695 3.66,-7.695 3.885,-7.695 4.11,-7.695 4.335,-7.695 
	4.559,-7.695 4.784,-7.695 5.01,-7.695 5.234,-7.695 5.459,-7.695 5.47,-7.482 5.47,-7.257 5.47,-7.031 5.47,-6.808 5.47,-6.583 
	5.47,-6.358 5.252,-6.352 5.027,-6.352 4.802,-6.352 4.578,-6.352 4.353,-6.352 4.128,-6.352 3.903,-6.352 3.678,-6.352 
	3.454,-6.352 3.229,-6.352 3.005,-6.352 2.936,-6.247 3.021,-6.039 3.106,-5.831 3.191,-5.623 3.277,-5.415 3.362,-5.207 
	3.447,-4.999 3.533,-4.791 3.618,-4.583 3.703,-4.375 3.788,-4.167 3.874,-3.96 3.959,-3.752 4.044,-3.544 4.131,-3.336 
	4.216,-3.128 4.301,-2.92 4.386,-2.712 4.471,-2.504 4.556,-2.296 4.641,-2.088 4.727,-1.88 4.812,-1.672 4.897,-1.464 
	4.982,-1.256 5.068,-1.048 5.153,-0.84 5.239,-0.632 5.324,-0.424 5.409,-0.216 5.494,-0.008 5.58,0.2 5.665,0.408 5.75,0.616 
	5.836,0.824 5.922,1.032 6.007,1.24 6.092,1.448 6.177,1.656 6.262,1.864 6.347,2.072 6.433,2.28 6.518,2.488 6.603,2.696 
	6.689,2.904 6.774,3.112 6.859,3.32 6.944,3.528 7.03,3.736 7.115,3.944 7.2,4.152 "/>
<polygon fill="none" stroke="#000000" stroke-linecap="round" stroke-linejoin="round" points="-7.817,-0.143 -7.817,-0.446 
	-7.817,-0.75 -7.817,-1.053 -7.817,-1.357 -7.817,-1.659 -7.817,-1.964 -7.817,-2.267 -7.817,-2.57 -7.817,-2.874 -7.817,-3.177 
	-7.817,-3.481 -7.817,-3.783 -7.817,-4.088 -7.82,-4.391 -7.852,-4.693 -7.919,-4.989 -8.02,-5.275 -8.156,-5.546 -8.324,-5.798 
	-8.525,-6.026 -8.753,-6.226 -9.004,-6.396 -9.274,-6.532 -9.559,-6.637 -9.854,-6.707 -10.155,-6.743 -10.459,-6.75 
	-10.762,-6.736 -11.063,-6.698 -11.359,-6.634 -11.649,-6.545 -11.933,-6.438 -12.212,-6.319 -12.488,-6.192 -12.61,-5.965 
	-12.61,-5.662 -12.61,-5.358 -12.61,-5.055 -12.61,-4.751 -12.61,-4.448 -12.846,-4.322 -13.138,-4.237 -13.429,-4.152 
	-13.72,-4.067 -14.012,-3.982 -14.303,-3.897 -14.594,-3.811 -14.885,-3.726 -15.177,-3.641 -15.468,-3.556 -15.759,-3.471 
	-15.947,-3.638 -16.066,-3.917 -16.123,-4.214 -16.131,-4.517 -16.108,-4.82 -16.05,-5.117 -15.959,-5.406 -15.837,-5.684 
	-15.686,-5.947 -15.509,-6.194 -15.311,-6.424 -15.095,-6.636 -14.863,-6.832 -14.617,-7.011 -14.362,-7.174 -14.097,-7.321 
	-13.823,-7.455 -13.545,-7.573 -13.261,-7.68 -12.972,-7.774 -12.68,-7.856 -12.385,-7.926 -12.087,-7.985 -11.787,-8.033 
	-11.486,-8.072 -11.184,-8.101 -10.882,-8.119 -10.577,-8.13 -10.275,-8.131 -9.971,-8.122 -9.669,-8.103 -9.366,-8.072 
	-9.066,-8.031 -8.768,-7.978 -8.471,-7.912 -8.178,-7.832 -7.89,-7.739 -7.606,-7.631 -7.328,-7.507 -7.06,-7.366 -6.8,-7.211 
	-6.551,-7.037 -6.316,-6.845 -6.095,-6.637 -5.893,-6.41 -5.709,-6.169 -5.548,-5.912 -5.409,-5.642 -5.297,-5.361 -5.208,-5.07 
	-5.146,-4.774 -5.108,-4.473 -5.094,-4.17 -5.094,-3.865 -5.094,-3.563 -5.094,-3.259 -5.094,-2.956 -5.094,-2.653 -5.094,-2.349 
	-5.094,-2.046 -5.094,-1.741 -5.094,-1.439 -5.094,-1.135 -5.094,-0.832 -5.094,-0.528 -5.094,-0.225 -5.094,0.079 -5.094,0.383 
	-5.094,0.686 -5.094,0.989 -5.094,1.293 -5.094,1.596 -5.094,1.9 -5.094,2.203 -5.094,2.508 -5.094,2.81 -5.094,3.114 -5.094,3.417 
	-5.094,3.721 -5.094,4.024 -5.094,4.327 -5.094,4.632 -5.094,4.934 -5.094,5.238 -5.094,5.541 -5.094,5.845 -5.094,6.148 
	-5.094,6.451 -5.094,6.756 -5.081,7.046 -4.778,7.046 -4.474,7.046 -4.171,7.046 -3.867,7.046 -3.564,7.046 -3.26,7.046 
	-2.957,7.046 -2.653,7.046 -2.35,7.046 -2.298,7.298 -2.298,7.6 -2.298,7.904 -2.436,8.106 -2.725,8.197 -3.015,8.287 -3.304,8.378 
	-3.594,8.469 -3.883,8.56 -4.173,8.651 -4.463,8.741 -4.752,8.832 -5.044,8.915 -5.339,8.987 -5.637,9.044 -5.938,9.078 
	-6.24,9.067 -6.539,9.01 -6.822,8.902 -7.078,8.741 -7.297,8.531 -7.472,8.283 -7.602,8.01 -7.693,7.72 -7.749,7.423 -7.776,7.119 
	-7.78,6.816 -7.789,6.533 -7.795,6.23 -7.801,5.927 -7.807,5.623 -7.813,5.32 -7.817,5.016 -7.817,4.713 -7.817,4.409 -7.817,4.106 
	-7.817,3.802 -7.817,3.499 -7.817,3.195 -7.817,2.892 -7.817,2.588 -7.817,2.285 -7.817,1.981 -7.817,1.678 -7.817,1.374 
	-7.817,1.071 -7.817,0.767 -7.817,0.465 -7.817,0.16 "/>
<polygon fill="none" stroke="#000000" stroke-linecap="round" stroke-linejoin="round" points="-7.787,6.583 -7.925,6.751 
	-8.065,6.916 -8.209,7.079 -8.355,7.239 -8.504,7.396 -8.656,7.55 -8.814,7.699 -8.975,7.845 -9.14,7.986 -9.309,8.121 
	-9.483,8.251 -9.66,8.374 -9.844,8.491 -10.031,8.599 -10.223,8.701 -10.419,8.793 -10.618,8.876 -10.823,8.951 -11.029,9.016 
	-11.239,9.072 -11.45,9.118 -11.664,9.156 -11.879,9.184 -12.095,9.205 -12.311,9.219 -12.528,9.224 -12.744,9.223 -12.961,9.213 
	-13.177,9.194 -13.392,9.166 -13.606,9.128 -13.817,9.08 -14.026,9.023 -14.233,8.956 -14.435,8.881 -14.634,8.793 -14.827,8.696 
	-15.017,8.591 -15.198,8.473 -15.376,8.347 -15.546,8.212 -15.708,8.068 -15.861,7.915 -16.007,7.754 -16.143,7.586 -16.269,7.41 
	-16.386,7.227 -16.491,7.038 -16.588,6.844 -16.673,6.644 -16.747,6.44 -16.81,6.233 -16.862,6.023 -16.904,5.81 -16.935,5.595 
	-16.954,5.379 -16.965,5.163 -16.966,4.946 -16.954,4.73 -16.933,4.514 -16.899,4.301 -16.854,4.088 -16.798,3.878 -16.731,3.673 
	-16.652,3.471 -16.561,3.273 -16.46,3.082 -16.348,2.896 -16.226,2.718 -16.093,2.546 -15.95,2.383 -15.799,2.227 -15.639,2.081 
	-15.47,1.945 -15.294,1.819 -15.111,1.703 -14.921,1.599 -14.725,1.507 -14.525,1.424 -14.32,1.353 -14.111,1.294 -13.9,1.244 
	-13.688,1.196 -13.477,1.148 -13.266,1.1 -13.054,1.052 -12.843,1.003 -12.632,0.955 -12.42,0.907 -12.209,0.859 -11.997,0.81 
	-11.785,0.763 -11.574,0.715 -11.363,0.666 -11.152,0.618 -10.941,0.57 -10.729,0.521 -10.518,0.473 -10.307,0.426 -10.095,0.377 
	-9.884,0.328 -9.672,0.281 -9.461,0.232 -9.25,0.184 -9.037,0.136 -8.826,0.088 -8.615,0.039 -8.404,-0.009 -8.193,-0.057 
	-7.981,-0.105 -7.817,-0.095 -7.817,0.122 -7.817,0.34 -7.817,0.556 -7.817,0.772 -7.817,0.989 -7.817,1.206 -7.927,1.335 
	-8.138,1.385 -8.349,1.434 -8.56,1.483 -8.771,1.533 -8.982,1.582 -9.193,1.632 -9.404,1.681 -9.615,1.73 -9.826,1.78 
	-10.037,1.829 -10.249,1.878 -10.46,1.928 -10.671,1.977 -10.882,2.027 -11.093,2.076 -11.304,2.125 -11.516,2.176 -11.726,2.224 
	-11.938,2.273 -12.149,2.323 -12.36,2.372 -12.571,2.421 -12.781,2.471 -12.992,2.52 -13.203,2.57 -13.415,2.619 -13.626,2.668 
	-13.838,2.719 -14.025,2.785 -14.025,3.002 -14.025,3.219 -14.025,3.436 -14.025,3.653 -14.025,3.869 -14.025,4.086 -14.025,4.303 
	-14.025,4.52 -14.022,4.737 -14.005,4.953 -13.972,5.167 -13.924,5.378 -13.858,5.585 -13.775,5.785 -13.674,5.977 -13.554,6.158 
	-13.417,6.326 -13.264,6.478 -13.096,6.615 -12.914,6.734 -12.723,6.835 -12.522,6.918 -12.316,6.983 -12.104,7.031 -11.89,7.062 
	-11.674,7.079 -11.457,7.082 -11.24,7.072 -11.025,7.05 -10.811,7.012 -10.601,6.961 -10.394,6.897 -10.191,6.82 -9.992,6.732 
	-9.799,6.635 -9.61,6.528 -9.425,6.415 -9.243,6.298 -9.066,6.174 -8.891,6.045 -8.718,5.913 -8.548,5.779 -8.38,5.642 
	-8.214,5.503 -8.049,5.362 -7.886,5.22 -7.814,5.283 -7.809,5.499 -7.805,5.717 -7.801,5.933 -7.796,6.15 -7.792,6.367 "/>
<polygon fill="none" stroke="#000000" stroke-linecap="round" stroke-linejoin="round" points="-18.924,8.753 -19.259,8.753 
	-19.594,8.753 -19.929,8.753 -20.264,8.753 -20.599,8.753 -20.934,8.753 -21.268,8.753 -21.603,8.753 -21.938,8.753 -22.273,8.753 
	-22.608,8.753 -22.943,8.753 -23.278,8.753 -23.613,8.753 -23.948,8.753 -24.282,8.753 -24.616,8.753 -24.951,8.753 -25.286,8.753 
	-25.622,8.753 -25.957,8.753 -26.292,8.753 -26.627,8.753 -26.962,8.753 -27.13,8.586 -27.13,8.251 -27.13,7.916 -27.13,7.582 
	-26.967,7.41 -26.632,7.41 -26.298,7.41 -25.963,7.41 -25.628,7.41 -25.293,7.41 -24.958,7.41 -24.623,7.41 -24.37,7.327 
	-24.37,6.992 -24.37,6.657 -24.37,6.322 -24.37,5.988 -24.37,5.653 -24.37,5.318 -24.37,4.983 -24.37,4.648 -24.37,4.313 
	-24.37,3.978 -24.37,3.643 -24.37,3.308 -24.37,2.973 -24.37,2.639 -24.37,2.304 -24.37,1.969 -24.37,1.635 -24.37,1.3 
	-24.37,0.965 -24.37,0.629 -24.37,0.294 -24.37,-0.041 -24.37,-0.376 -24.37,-0.71 -24.37,-1.045 -24.37,-1.38 -24.37,-1.715 
	-24.37,-2.05 -24.37,-2.385 -24.37,-2.719 -24.37,-3.054 -24.373,-3.389 -24.393,-3.723 -24.436,-4.056 -24.505,-4.383 
	-24.604,-4.702 -24.736,-5.01 -24.904,-5.3 -25.11,-5.564 -25.352,-5.795 -25.627,-5.986 -25.927,-6.132 -26.245,-6.234 
	-26.574,-6.294 -26.909,-6.316 -27.243,-6.304 -27.575,-6.259 -27.901,-6.179 -28.215,-6.064 -28.517,-5.918 -28.804,-5.748 
	-29.079,-5.558 -29.345,-5.353 -29.601,-5.136 -29.848,-4.91 -30.09,-4.679 -30.325,-4.442 -30.558,-4.199 -30.786,-3.956 
	-31.015,-3.711 -31.242,-3.465 -31.471,-3.22 -31.698,-2.975 -31.927,-2.73 -32.155,-2.484 -32.383,-2.239 -32.576,-2.082 
	-32.576,-2.417 -32.576,-2.752 -32.576,-3.087 -32.576,-3.422 -32.576,-3.757 -32.511,-4.067 -32.291,-4.319 -32.069,-4.57 
	-31.844,-4.819 -31.616,-5.065 -31.387,-5.308 -31.154,-5.548 -30.916,-5.783 -30.675,-6.016 -30.428,-6.242 -30.177,-6.464 
	-29.919,-6.677 -29.654,-6.883 -29.382,-7.077 -29.102,-7.262 -28.814,-7.432 -28.517,-7.586 -28.211,-7.723 -27.898,-7.841 
	-27.576,-7.939 -27.251,-8.015 -26.921,-8.071 -26.589,-8.108 -26.254,-8.127 -25.919,-8.131 -25.585,-8.115 -25.252,-8.082 
	-24.922,-8.028 -24.596,-7.948 -24.277,-7.848 -23.967,-7.721 -23.668,-7.57 -23.384,-7.393 -23.116,-7.191 -22.868,-6.966 
	-22.643,-6.719 -22.44,-6.452 -22.261,-6.17 -22.106,-5.873 -21.976,-5.565 -21.868,-5.248 -21.783,-4.924 -21.721,-4.595 
	-21.678,-4.263 -21.654,-3.929 -21.647,-3.594 -21.647,-3.259 -21.647,-2.924 -21.647,-2.59 -21.647,-2.255 -21.647,-1.92 
	-21.647,-1.585 -21.647,-1.25 -21.647,-0.915 -21.647,-0.58 -21.647,-0.244 -21.647,0.091 -21.647,0.426 -21.647,0.76 
	-21.647,1.094 -21.647,1.429 -21.647,1.764 -21.647,2.099 -21.647,2.434 -21.647,2.769 -21.647,3.103 -21.647,3.438 -21.647,3.773 
	-21.647,4.108 -21.647,4.443 -21.647,4.778 -21.647,5.113 -21.647,5.448 -21.647,5.783 -21.647,6.118 -21.647,6.452 -21.647,6.787 
	-21.647,7.122 -21.6,7.41 -21.265,7.41 -20.93,7.41 -20.595,7.41 -20.26,7.41 -19.925,7.41 -19.591,7.41 -19.256,7.41 
	-18.924,7.413 -18.924,7.748 -18.924,8.083 -18.924,8.418 "/>
<polygon fill="none" stroke="#000000" stroke-linecap="round" stroke-linejoin="round" points="-43.542,-3.991 -43.322,-4.244 
	-43.1,-4.496 -42.876,-4.744 -42.65,-4.991 -42.42,-5.236 -42.188,-5.478 -41.95,-5.715 -41.711,-5.948 -41.466,-6.177 
	-41.215,-6.4 -40.958,-6.615 -40.695,-6.823 -40.425,-7.022 -40.147,-7.209 -39.861,-7.382 -39.566,-7.541 -39.262,-7.683 
	-38.949,-7.806 -38.631,-7.908 -38.307,-7.991 -37.977,-8.054 -37.645,-8.097 -37.31,-8.122 -36.976,-8.131 -36.641,-8.125 
	-36.306,-8.102 -35.974,-8.061 -35.644,-7.998 -35.321,-7.91 -35.005,-7.799 -34.699,-7.658 -34.409,-7.491 -34.138,-7.296 
	-33.887,-7.073 -33.659,-6.827 -33.457,-6.562 -33.278,-6.278 -33.122,-5.982 -32.989,-5.674 -32.875,-5.359 -32.779,-5.038 
	-32.699,-4.712 -32.636,-4.383 -32.584,-4.052 -32.576,-3.717 -32.576,-3.382 -32.576,-3.047 -32.576,-2.712 -32.576,-2.377 
	-32.576,-2.042 -32.576,-1.707 -32.576,-1.371 -32.576,-1.035 -32.576,-0.7 -32.576,-0.365 -32.576,-0.03 -32.576,0.305 
	-32.576,0.639 -32.576,0.975 -32.576,1.31 -32.576,1.645 -32.576,1.98 -32.576,2.316 -32.576,2.651 -32.576,2.986 -32.576,3.321 
	-32.576,3.656 -32.576,3.992 -32.576,4.326 -32.576,4.662 -32.576,4.997 -32.576,5.332 -32.576,5.667 -32.576,6.002 -32.576,6.338 
	-32.576,6.674 -32.576,7.009 -32.576,7.344 -32.308,7.41 -31.973,7.41 -31.637,7.41 -31.302,7.41 -30.967,7.41 -30.632,7.41 
	-30.297,7.41 -29.961,7.41 -29.853,7.637 -29.853,7.972 -29.853,8.307 -29.853,8.642 -30.077,8.753 -30.412,8.753 -30.748,8.753 
	-31.084,8.753 -31.419,8.753 -31.754,8.753 -32.089,8.753 -32.424,8.753 -32.759,8.753 -33.095,8.753 -33.43,8.753 -33.765,8.753 
	-34.1,8.753 -34.435,8.753 -34.77,8.753 -35.106,8.753 -35.441,8.753 -35.776,8.753 -36.111,8.753 -36.446,8.753 -36.781,8.753 
	-37.116,8.753 -37.451,8.753 -37.786,8.753 -38.059,8.69 -38.059,8.354 -38.059,8.019 -38.059,7.684 -37.999,7.41 -37.664,7.41 
	-37.327,7.41 -36.992,7.41 -36.657,7.41 -36.323,7.41 -35.988,7.41 -35.653,7.41 -35.336,7.39 -35.336,7.056 -35.336,6.72 
	-35.336,6.385 -35.336,6.051 -35.336,5.716 -35.336,5.381 -35.336,5.044 -35.336,4.709 -35.336,4.374 -35.336,4.039 -35.336,3.704 
	-35.336,3.368 -35.336,3.034 -35.336,2.698 -35.336,2.363 -35.336,2.028 -35.336,1.693 -35.336,1.358 -35.336,1.022 -35.336,0.687 
	-35.336,0.352 -35.336,0.017 -35.336,-0.319 -35.336,-0.653 -35.336,-0.988 -35.336,-1.323 -35.336,-1.658 -35.336,-1.993 
	-35.336,-2.329 -35.336,-2.665 -35.336,-3 -35.337,-3.335 -35.354,-3.67 -35.394,-4.002 -35.46,-4.331 -35.554,-4.652 
	-35.681,-4.963 -35.841,-5.257 -36.039,-5.528 -36.271,-5.768 -36.536,-5.971 -36.831,-6.132 -37.145,-6.248 -37.473,-6.319 
	-37.806,-6.35 -38.141,-6.347 -38.475,-6.315 -38.803,-6.249 -39.122,-6.146 -39.427,-6.007 -39.718,-5.841 -39.994,-5.653 
	-40.261,-5.448 -40.518,-5.234 -40.767,-5.01 -41.011,-4.779 -41.25,-4.544 -41.485,-4.305 -41.716,-4.063 -41.945,-3.819 
	-42.173,-3.572 -42.398,-3.323 -42.622,-3.074 -42.845,-2.824 -43.067,-2.573 -43.287,-2.322 -43.509,-2.069 -43.542,-2.316 
	-43.542,-2.651 -43.542,-2.986 -43.542,-3.321 -43.542,-3.656 "/>
<polygon fill="none" stroke="#000000" stroke-linecap="round" stroke-linejoin="round" points="-43.542,-3.991 -43.542,-3.715 
	-43.542,-3.44 -43.542,-3.164 -43.542,-2.888 -43.542,-2.611 -43.542,-2.336 -43.542,-2.06 -43.542,-1.783 -43.542,-1.508 
	-43.542,-1.232 -43.542,-0.956 -43.542,-0.68 -43.542,-0.404 -43.542,-0.128 -43.542,0.148 -43.542,0.425 -43.542,0.7 
	-43.542,0.976 -43.542,1.252 -43.542,1.528 -43.542,1.804 -43.542,2.08 -43.542,2.356 -43.542,2.633 -43.542,2.908 -43.542,3.184 
	-43.542,3.46 -43.542,3.736 -43.542,4.012 -43.542,4.288 -43.542,4.564 -43.542,4.841 -43.542,5.116 -43.542,5.391 -43.542,5.668 
	-43.542,5.944 -43.542,6.22 -43.542,6.495 -43.542,6.772 -43.542,7.049 -43.542,7.324 -43.352,7.41 -43.075,7.41 -42.8,7.41 
	-42.524,7.41 -42.248,7.41 -41.972,7.41 -41.696,7.41 -41.42,7.41 -41.144,7.41 -40.867,7.41 -40.782,7.6 -40.782,7.876 
	-40.782,8.152 -40.782,8.428 -40.782,8.704 -41.01,8.753 -41.285,8.753 -41.562,8.753 -41.838,8.753 -42.114,8.753 -42.39,8.753 
	-42.666,8.753 -42.942,8.753 -43.218,8.753 -43.493,8.753 -43.77,8.753 -44.046,8.753 -44.322,8.753 -44.598,8.753 -44.873,8.753 
	-45.15,8.753 -45.425,8.753 -45.701,8.753 -45.977,8.753 -46.253,8.753 -46.529,8.753 -46.805,8.753 -47.081,8.753 -47.357,8.753 
	-47.633,8.753 -47.908,8.753 -48.185,8.753 -48.461,8.753 -48.737,8.753 -49.013,8.753 -49.025,8.488 -49.025,8.212 -49.025,7.936 
	-49.025,7.66 -48.999,7.41 -48.723,7.41 -48.447,7.41 -48.172,7.41 -47.895,7.41 -47.619,7.41 -47.343,7.41 -47.068,7.41 
	-46.792,7.41 -46.516,7.41 -46.265,7.385 -46.265,7.108 -46.265,6.832 -46.265,6.556 -46.265,6.28 -46.265,6.004 -46.265,5.728 
	-46.265,5.452 -46.265,5.177 -46.265,4.9 -46.265,4.624 -46.265,4.348 -46.265,4.072 -46.265,3.796 -46.265,3.52 -46.265,3.244 
	-46.265,2.969 -46.265,2.692 -46.265,2.416 -46.265,2.14 -46.265,1.864 -46.265,1.588 -46.265,1.312 -46.265,1.036 -46.265,0.76 
	-46.265,0.484 -46.265,0.208 -46.265,-0.068 -46.265,-0.344 -46.265,-0.619 -46.265,-0.896 -46.265,-1.172 -46.265,-1.447 
	-46.265,-1.724 -46.265,-2 -46.265,-2.276 -46.265,-2.551 -46.265,-2.826 -46.265,-3.104 -46.265,-3.38 -46.265,-3.655 
	-46.265,-3.931 -46.265,-4.207 -46.265,-4.484 -46.265,-4.759 -46.265,-5.034 -46.265,-5.311 -46.265,-5.588 -46.467,-5.662 
	-46.742,-5.662 -47.019,-5.662 -47.295,-5.662 -47.571,-5.662 -47.847,-5.662 -48.123,-5.662 -48.399,-5.662 -48.675,-5.662 
	-48.95,-5.662 -49.227,-5.662 -49.424,-5.74 -49.424,-6.016 -49.424,-6.293 -49.424,-6.569 -49.229,-6.695 -48.963,-6.767 
	-48.696,-6.84 -48.43,-6.912 -48.164,-6.984 -47.897,-7.056 -47.631,-7.128 -47.364,-7.199 -47.098,-7.272 -46.831,-7.344 
	-46.565,-7.417 -46.299,-7.489 -46.031,-7.561 -45.766,-7.633 -45.5,-7.705 -45.233,-7.778 -44.967,-7.85 -44.699,-7.922 
	-44.434,-7.993 -44.167,-8.058 -43.891,-8.058 -43.615,-8.058 -43.542,-7.855 -43.542,-7.579 -43.542,-7.303 -43.542,-7.028 
	-43.542,-6.752 -43.542,-6.475 -43.542,-6.198 -43.542,-5.924 -43.542,-5.648 -43.542,-5.372 -43.542,-5.095 -43.542,-4.819 
	-43.542,-4.544 -43.542,-4.268 "/>
</svg>
