<?xml version="1.0" encoding="utf-8"?>
<!-- Generator: Adobe Illustrator 16.0.0, SVG Export Plug-In . SVG Version: 6.00 Build 0)  -->
<!DOCTYPE svg PUBLIC "-//W3C//DTD SVG 1.1//EN" "http://www.w3.org/Graphics/SVG/1.1/DTD/svg11.dtd">
<svg version="1.1" id="Default" xmlns="http://www.w3.org/2000/svg" xmlns:xlink="http://www.w3.org/1999/xlink" x="0px" y="0px"
	 width="99.645px" height="37.014px" viewBox="0 0 99.645 37.014" enable-background="new 0 0 99.645 37.014" xml:space="preserve">
<polygon fill="none" stroke="#000000" stroke-linecap="round" stroke-linejoin="round" points="-12.816,-1.423 -12.816,-1.148 
	-12.816,-0.872 -12.816,-0.597 -12.816,-0.32 -12.816,-0.043 -12.816,0.231 -12.816,0.508 -12.816,0.784 -12.816,1.06 
	-12.816,1.336 -12.816,1.611 -12.816,1.887 -12.816,2.165 -12.816,2.439 -12.816,2.716 -12.816,2.991 -12.816,3.267 -12.816,3.544 
	-12.816,3.819 -12.816,4.095 -12.816,4.372 -12.816,4.647 -12.816,4.924 -12.816,5.199 -12.816,5.475 -12.816,5.752 -12.816,6.027 
	-12.816,6.303 -12.816,6.58 -12.816,6.855 -12.816,7.132 -12.816,7.407 -12.816,7.683 -12.816,7.96 -12.597,8.016 -12.321,8.016 
	-12.045,8.016 -11.769,8.016 -11.493,8.016 -11.217,8.016 -10.941,8.016 -10.665,8.016 -10.389,8.016 -10.113,8.016 -10.057,8.236 
	-10.057,8.512 -10.057,8.789 -10.057,9.064 -10.057,9.341 -10.313,9.359 -10.589,9.359 -10.865,9.359 -11.141,9.359 -11.417,9.359 
	-11.693,9.359 -11.969,9.359 -12.245,9.359 -12.521,9.359 -12.797,9.359 -13.073,9.359 -13.349,9.359 -13.625,9.359 -13.901,9.359 
	-14.177,9.359 -14.453,9.359 -14.729,9.359 -15.005,9.359 -15.281,9.359 -15.557,9.359 -15.833,9.359 -16.109,9.359 -16.385,9.359 
	-16.661,9.359 -16.937,9.359 -17.213,9.359 -17.489,9.359 -17.765,9.359 -18.041,9.359 -18.299,9.343 -18.299,9.066 -18.299,8.791 
	-18.299,8.514 -18.299,8.238 -18.245,8.016 -17.969,8.016 -17.693,8.016 -17.417,8.016 -17.141,8.016 -16.865,8.016 -16.589,8.016 
	-16.313,8.016 -16.037,8.016 -15.761,8.016 -15.539,7.963 -15.539,7.686 -15.539,7.411 -15.539,7.135 -15.539,6.858 -15.539,6.583 
	-15.539,6.306 -15.539,6.03 -15.539,5.755 -15.539,5.478 -15.539,5.203 -15.539,4.927 -15.539,4.65 -15.539,4.375 -15.539,4.098 
	-15.539,3.822 -15.539,3.547 -15.539,3.27 -15.539,2.995 -15.539,2.719 -15.539,2.442 -15.539,2.167 -15.539,1.89 -15.539,1.614 
	-15.539,1.339 -15.539,1.062 -15.539,0.787 -15.539,0.51 -15.539,0.234 -15.539,-0.041 -15.539,-0.318 -15.539,-0.594 
	-15.539,-0.869 -15.539,-1.146 -15.539,-1.421 -15.539,-1.698 -15.539,-1.974 -15.539,-2.249 -15.539,-2.526 -15.539,-2.802 
	-15.539,-3.077 -15.539,-3.354 -15.539,-3.629 -15.539,-3.906 -15.539,-4.182 -15.539,-4.457 -15.539,-4.734 -15.539,-5.01 
	-15.77,-5.055 -16.046,-5.055 -16.322,-5.055 -16.598,-5.055 -16.874,-5.055 -17.15,-5.055 -17.426,-5.055 -17.702,-5.055 
	-17.978,-5.055 -18.254,-5.055 -18.53,-5.055 -18.698,-5.162 -18.698,-5.438 -18.698,-5.713 -18.698,-5.99 -18.476,-6.096 
	-18.209,-6.167 -17.943,-6.24 -17.677,-6.312 -17.41,-6.385 -17.144,-6.456 -16.877,-6.529 -16.611,-6.601 -16.345,-6.672 
	-16.078,-6.745 -15.812,-6.817 -15.546,-6.89 -15.279,-6.961 -15.013,-7.033 -14.746,-7.106 -14.48,-7.178 -14.214,-7.249 
	-13.947,-7.322 -13.681,-7.395 -13.412,-7.451 -13.136,-7.451 -12.86,-7.451 -12.816,-7.22 -12.816,-6.944 -12.816,-6.667 
	-12.816,-6.392 -12.816,-6.115 -12.816,-5.839 -12.816,-5.564 -12.816,-5.287 -12.816,-5.012 -12.816,-4.736 -12.816,-4.459 
	-12.816,-4.185 -12.816,-3.907 -12.816,-3.631 -12.816,-3.356 -12.816,-3.08 -12.816,-2.804 -12.816,-2.528 -12.816,-2.251 
	-12.816,-1.977 -12.816,-1.7 "/>
<polygon fill="none" stroke="#000000" stroke-linecap="round" stroke-linejoin="round" points="0.873,9.359 0.537,9.359 
	0.202,9.359 -0.133,9.359 -0.468,9.359 -0.803,9.359 -1.139,9.359 -1.474,9.359 -1.809,9.359 -2.144,9.359 -2.479,9.359 
	-2.814,9.359 -3.149,9.359 -3.484,9.359 -3.819,9.359 -4.155,9.359 -4.49,9.359 -4.825,9.359 -5.16,9.359 -5.495,9.359 -5.83,9.359 
	-6.166,9.359 -6.501,9.359 -6.836,9.359 -7.171,9.359 -7.333,9.187 -7.333,8.852 -7.333,8.516 -7.333,8.181 -7.163,8.016 
	-6.828,8.016 -6.493,8.016 -6.158,8.016 -5.823,8.016 -5.488,8.016 -5.152,8.016 -4.817,8.016 -4.61,7.888 -4.61,7.553 -4.61,7.218 
	-4.61,6.883 -4.61,6.548 -4.61,6.213 -4.61,5.878 -4.61,5.543 -4.61,5.208 -4.61,4.873 -4.61,4.537 -4.61,4.202 -4.61,3.866 
	-4.61,3.531 -4.61,3.196 -4.61,2.861 -4.61,2.525 -4.61,2.19 -4.61,1.855 -4.61,1.52 -4.61,1.185 -4.61,0.85 -4.61,0.515 
	-4.61,0.18 -4.61,-0.156 -4.61,-0.49 -4.61,-0.825 -4.61,-1.16 -4.61,-1.495 -4.61,-1.83 -4.61,-2.165 -4.61,-2.5 -4.614,-2.835 
	-4.639,-3.17 -4.687,-3.501 -4.761,-3.828 -4.866,-4.147 -5.003,-4.452 -5.175,-4.74 -5.384,-5.001 -5.628,-5.231 -5.904,-5.42 
	-6.205,-5.568 -6.524,-5.668 -6.854,-5.727 -7.188,-5.745 -7.523,-5.733 -7.855,-5.691 -8.181,-5.613 -8.496,-5.497 -8.796,-5.35 
	-9.082,-5.176 -9.356,-4.982 -9.619,-4.774 -9.873,-4.556 -10.12,-4.329 -10.362,-4.098 -10.599,-3.861 -10.833,-3.62 
	-11.064,-3.377 -11.293,-3.132 -11.519,-2.886 -11.744,-2.638 -11.968,-2.388 -12.191,-2.138 -12.412,-1.886 -12.633,-1.634 
	-12.816,-1.481 -12.816,-1.816 -12.816,-2.151 -12.816,-2.487 -12.816,-2.822 -12.816,-3.156 -12.746,-3.465 -12.526,-3.719 
	-12.303,-3.969 -12.078,-4.218 -11.851,-4.463 -11.621,-4.707 -11.387,-4.948 -11.149,-5.184 -10.907,-5.415 -10.66,-5.643 
	-10.408,-5.863 -10.15,-6.075 -9.884,-6.281 -9.612,-6.476 -9.331,-6.658 -9.042,-6.827 -8.744,-6.982 -8.438,-7.117 -8.124,-7.235 
	-7.803,-7.331 -7.476,-7.406 -7.146,-7.462 -6.813,-7.499 -6.478,-7.52 -6.143,-7.524 -5.808,-7.511 -5.475,-7.479 -5.145,-7.423 
	-4.818,-7.348 -4.499,-7.247 -4.187,-7.121 -3.889,-6.971 -3.604,-6.794 -3.335,-6.594 -3.087,-6.369 -2.86,-6.123 -2.656,-5.857 
	-2.476,-5.574 -2.32,-5.278 -2.189,-4.97 -2.081,-4.653 -1.995,-4.328 -1.93,-3.999 -1.886,-3.667 -1.859,-3.333 -1.851,-2.998 
	-1.851,-2.663 -1.851,-2.328 -1.851,-1.993 -1.851,-1.657 -1.851,-1.323 -1.851,-0.988 -1.851,-0.653 -1.851,-0.318 -1.851,0.017 
	-1.851,0.353 -1.851,0.688 -1.851,1.022 -1.851,1.358 -1.851,1.693 -1.851,2.028 -1.851,2.363 -1.851,2.698 -1.851,3.035 
	-1.851,3.37 -1.851,3.705 -1.851,4.04 -1.851,4.375 -1.851,4.71 -1.851,5.045 -1.851,5.38 -1.851,5.716 -1.851,6.051 -1.851,6.385 
	-1.851,6.72 -1.851,7.055 -1.851,7.39 -1.851,7.726 -1.806,8.016 -1.471,8.016 -1.136,8.016 -0.801,8.016 -0.465,8.016 -0.13,8.016 
	0.205,8.016 0.54,8.016 0.873,8.019 0.873,8.354 0.873,8.689 0.873,9.024 "/>
<polygon fill="none" stroke="#000000" stroke-linecap="round" stroke-linejoin="round" points="10.747,-5.999 10.506,-5.99 
	10.266,-5.965 10.028,-5.924 9.794,-5.867 9.564,-5.794 9.34,-5.706 9.121,-5.604 8.91,-5.488 8.705,-5.36 8.509,-5.221 
	8.32,-5.071 8.139,-4.91 7.966,-4.742 7.802,-4.567 7.645,-4.384 7.496,-4.194 7.354,-3.998 7.221,-3.796 7.095,-3.591 
	6.976,-3.381 6.864,-3.167 6.759,-2.95 6.661,-2.731 6.57,-2.506 6.485,-2.281 6.407,-2.054 6.335,-1.823 6.269,-1.59 6.209,-1.358 
	6.155,-1.122 6.106,-0.886 6.064,-0.649 6.027,-0.41 5.996,-0.17 5.97,0.068 5.949,0.309 5.934,0.55 5.923,0.791 5.918,1.031 
	5.918,1.272 5.923,1.514 5.934,1.756 5.949,1.997 5.97,2.236 5.996,2.476 6.028,2.715 6.065,2.954 6.108,3.19 6.157,3.427 
	6.212,3.662 6.272,3.895 6.339,4.128 6.411,4.357 6.49,4.586 6.575,4.811 6.667,5.035 6.765,5.255 6.87,5.471 6.981,5.685 
	7.101,5.895 7.227,6.1 7.36,6.302 7.502,6.497 7.65,6.686 7.807,6.87 7.972,7.047 8.145,7.215 8.325,7.375 8.514,7.524 8.71,7.666 
	8.914,7.794 9.125,7.91 9.343,8.012 9.567,8.101 9.797,8.175 10.031,8.232 10.269,8.273 10.509,8.299 10.747,8.31 10.747,8.552 
	10.747,8.793 10.747,9.034 10.747,9.274 10.747,9.516 10.747,9.758 10.58,9.83 10.339,9.82 10.098,9.803 9.858,9.777 9.619,9.746 
	9.382,9.705 9.146,9.655 8.911,9.599 8.679,9.536 8.448,9.464 8.22,9.385 7.995,9.299 7.772,9.205 7.554,9.104 7.338,8.997 
	7.125,8.883 6.917,8.761 6.712,8.634 6.511,8.501 6.314,8.36 6.122,8.215 5.935,8.063 5.751,7.906 5.573,7.745 5.399,7.578 
	5.23,7.404 5.066,7.227 4.908,7.046 4.755,6.859 4.606,6.67 4.464,6.475 4.327,6.276 4.195,6.074 4.069,5.869 3.949,5.66 
	3.834,5.447 3.726,5.232 3.622,5.014 3.525,4.794 3.434,4.569 3.349,4.344 3.27,4.116 3.197,3.886 3.13,3.654 3.069,3.422 
	3.014,3.186 2.965,2.951 2.923,2.714 2.886,2.474 2.855,2.235 2.832,1.996 2.813,1.755 2.801,1.514 2.795,1.272 2.795,1.031 
	2.802,0.791 2.813,0.55 2.832,0.309 2.856,0.069 2.887,-0.169 2.923,-0.408 2.966,-0.646 3.015,-0.881 3.069,-1.116 3.131,-1.351 
	3.198,-1.582 3.271,-1.812 3.35,-2.039 3.436,-2.266 3.526,-2.489 3.624,-2.708 3.727,-2.928 3.836,-3.143 3.95,-3.355 
	4.071,-3.564 4.197,-3.77 4.329,-3.972 4.466,-4.169 4.608,-4.365 4.757,-4.555 4.91,-4.74 5.068,-4.922 5.232,-5.1 5.401,-5.272 
	5.575,-5.439 5.753,-5.602 5.937,-5.757 6.125,-5.909 6.317,-6.055 6.514,-6.195 6.715,-6.327 6.919,-6.455 7.128,-6.575 
	7.341,-6.69 7.557,-6.797 7.775,-6.898 7.998,-6.991 8.223,-7.078 8.451,-7.156 8.682,-7.229 8.914,-7.292 9.148,-7.349 
	9.385,-7.397 9.623,-7.438 9.861,-7.471 10.102,-7.495 10.342,-7.513 10.583,-7.522 10.747,-7.446 10.747,-7.205 10.747,-6.963 
	10.747,-6.723 10.747,-6.482 10.747,-6.24 "/>
<polygon fill="none" stroke="#000000" stroke-linecap="round" stroke-linejoin="round" points="10.747,8.306 10.988,8.299 
	11.228,8.273 11.466,8.232 11.7,8.176 11.931,8.102 12.155,8.014 12.374,7.913 12.586,7.798 12.791,7.67 12.988,7.53 13.178,7.382 
	13.36,7.222 13.534,7.055 13.7,6.88 13.858,6.697 14.008,6.509 14.151,6.313 14.286,6.113 14.414,5.909 14.534,5.699 14.647,5.485 
	14.753,5.269 14.853,5.05 14.945,4.827 15.031,4.601 15.111,4.374 15.185,4.143 15.252,3.912 15.313,3.677 15.368,3.442 
	15.417,3.207 15.461,2.969 15.499,2.73 15.531,2.491 15.558,2.251 15.579,2.01 15.595,1.769 15.606,1.528 15.611,1.288 
	15.612,1.046 15.607,0.804 15.597,0.563 15.581,0.322 15.561,0.082 15.534,-0.158 15.502,-0.398 15.465,-0.637 15.422,-0.873 
	15.374,-1.111 15.319,-1.346 15.258,-1.579 15.192,-1.812 15.119,-2.04 15.04,-2.27 14.955,-2.495 14.862,-2.719 14.764,-2.939 
	14.658,-3.156 14.546,-3.369 14.426,-3.579 14.299,-3.784 14.165,-3.986 14.023,-4.181 13.874,-4.37 13.717,-4.554 13.552,-4.73 
	13.378,-4.898 13.197,-5.058 13.009,-5.207 12.812,-5.349 12.607,-5.477 12.396,-5.594 12.178,-5.697 11.954,-5.786 11.725,-5.861 
	11.49,-5.919 11.253,-5.962 11.013,-5.989 10.771,-5.998 10.747,-6.215 10.747,-6.456 10.747,-6.698 10.747,-6.94 10.747,-7.181 
	10.747,-7.422 10.887,-7.523 11.128,-7.515 11.369,-7.497 11.609,-7.474 11.848,-7.441 12.086,-7.402 12.323,-7.354 12.558,-7.297 
	12.791,-7.235 13.021,-7.163 13.25,-7.085 13.476,-6.999 13.698,-6.906 13.918,-6.807 14.135,-6.699 14.348,-6.585 14.557,-6.465 
	14.762,-6.338 14.963,-6.205 15.161,-6.066 15.354,-5.92 15.542,-5.77 15.726,-5.613 15.905,-5.451 16.079,-5.284 16.249,-5.112 
	16.413,-4.936 16.572,-4.753 16.726,-4.568 16.875,-4.377 17.018,-4.184 17.155,-3.985 17.288,-3.782 17.414,-3.577 17.535,-3.368 
	17.65,-3.156 17.76,-2.941 17.863,-2.723 17.96,-2.501 18.052,-2.279 18.138,-2.053 18.218,-1.824 18.291,-1.595 18.358,-1.363 
	18.42,-1.129 18.476,-0.895 18.524,-0.658 18.568,-0.42 18.604,-0.183 18.635,0.057 18.66,0.298 18.678,0.539 18.691,0.779 
	18.697,1.02 18.698,1.262 18.692,1.504 18.68,1.745 18.662,1.985 18.638,2.225 18.608,2.466 18.572,2.704 18.529,2.941 
	18.481,3.177 18.426,3.414 18.365,3.646 18.298,3.879 18.226,4.108 18.146,4.337 18.062,4.563 17.97,4.787 17.874,5.008 
	17.771,5.226 17.662,5.441 17.547,5.654 17.427,5.863 17.301,6.069 17.169,6.271 17.032,6.47 16.89,6.666 16.742,6.855 
	16.588,7.043 16.43,7.224 16.266,7.401 16.097,7.574 15.923,7.743 15.745,7.904 15.561,8.061 15.374,8.213 15.181,8.358 
	14.984,8.499 14.783,8.633 14.578,8.76 14.37,8.882 14.157,8.996 13.941,9.103 13.722,9.205 13.499,9.298 13.273,9.385 
	13.046,9.464 12.815,9.536 12.582,9.599 12.348,9.655 12.111,9.705 11.873,9.746 11.634,9.778 11.394,9.803 11.153,9.82 
	10.912,9.83 10.747,9.756 10.747,9.513 10.747,9.272 10.747,9.031 10.747,8.79 10.747,8.549 "/>
<polygon fill="none" stroke="#000000" stroke-linecap="round" stroke-linejoin="round" points="10.747,8.306 10.988,8.299 
	11.228,8.273 11.466,8.232 11.7,8.176 11.931,8.102 12.155,8.014 12.374,7.913 12.586,7.798 12.791,7.67 12.988,7.53 13.178,7.382 
	13.36,7.222 13.534,7.055 13.7,6.88 13.858,6.697 14.008,6.509 14.151,6.313 14.286,6.113 14.414,5.909 14.534,5.699 14.647,5.485 
	14.753,5.269 14.853,5.05 14.945,4.827 15.031,4.601 15.111,4.374 15.185,4.143 15.252,3.912 15.313,3.677 15.368,3.442 
	15.417,3.207 15.461,2.969 15.499,2.73 15.531,2.491 15.558,2.251 15.579,2.01 15.595,1.769 15.606,1.528 15.611,1.288 
	15.612,1.046 15.607,0.804 15.597,0.563 15.581,0.322 15.561,0.082 15.534,-0.158 15.502,-0.398 15.465,-0.637 15.422,-0.873 
	15.374,-1.111 15.319,-1.346 15.258,-1.579 15.192,-1.812 15.119,-2.04 15.04,-2.27 14.955,-2.495 14.862,-2.719 14.764,-2.939 
	14.658,-3.156 14.546,-3.369 14.426,-3.579 14.299,-3.784 14.165,-3.986 14.023,-4.181 13.874,-4.37 13.717,-4.554 13.552,-4.73 
	13.378,-4.898 13.197,-5.058 13.009,-5.207 12.812,-5.349 12.607,-5.477 12.396,-5.594 12.178,-5.697 11.954,-5.786 11.725,-5.861 
	11.49,-5.919 11.253,-5.962 11.013,-5.989 10.771,-5.998 10.747,-6.215 10.747,-6.456 10.747,-6.698 10.747,-6.94 10.747,-7.181 
	10.747,-7.422 10.887,-7.523 11.128,-7.515 11.369,-7.497 11.609,-7.474 11.848,-7.441 12.086,-7.402 12.323,-7.354 12.558,-7.297 
	12.791,-7.235 13.021,-7.163 13.25,-7.085 13.476,-6.999 13.698,-6.906 13.918,-6.807 14.135,-6.699 14.348,-6.585 14.557,-6.465 
	14.762,-6.338 14.963,-6.205 15.161,-6.066 15.354,-5.92 15.542,-5.77 15.726,-5.613 15.905,-5.451 16.079,-5.284 16.249,-5.112 
	16.413,-4.936 16.572,-4.753 16.726,-4.568 16.875,-4.377 17.018,-4.184 17.155,-3.985 17.288,-3.782 17.414,-3.577 17.535,-3.368 
	17.65,-3.156 17.76,-2.941 17.863,-2.723 17.96,-2.501 18.052,-2.279 18.138,-2.053 18.218,-1.824 18.291,-1.595 18.358,-1.363 
	18.42,-1.129 18.476,-0.895 18.524,-0.658 18.568,-0.42 18.604,-0.183 18.635,0.057 18.66,0.298 18.678,0.539 18.691,0.779 
	18.697,1.02 18.698,1.262 18.692,1.504 18.68,1.745 18.662,1.985 18.638,2.225 18.608,2.466 18.572,2.704 18.529,2.941 
	18.481,3.177 18.426,3.414 18.365,3.646 18.298,3.879 18.226,4.108 18.146,4.337 18.062,4.563 17.97,4.787 17.874,5.008 
	17.771,5.226 17.662,5.441 17.547,5.654 17.427,5.863 17.301,6.069 17.169,6.271 17.032,6.47 16.89,6.666 16.742,6.855 
	16.588,7.043 16.43,7.224 16.266,7.401 16.097,7.574 15.923,7.743 15.745,7.904 15.561,8.061 15.374,8.213 15.181,8.358 
	14.984,8.499 14.783,8.633 14.578,8.76 14.37,8.882 14.157,8.996 13.941,9.103 13.722,9.205 13.499,9.298 13.273,9.385 
	13.046,9.464 12.815,9.536 12.582,9.599 12.348,9.655 12.111,9.705 11.873,9.746 11.634,9.778 11.394,9.803 11.153,9.82 
	10.912,9.83 10.747,9.756 10.747,9.513 10.747,9.272 10.747,9.031 10.747,8.79 10.747,8.549 "/>
<polygon fill="none" stroke="#000000" stroke-linecap="round" stroke-linejoin="round" points="0.873,9.359 0.537,9.359 
	0.202,9.359 -0.133,9.359 -0.468,9.359 -0.803,9.359 -1.139,9.359 -1.474,9.359 -1.809,9.359 -2.144,9.359 -2.479,9.359 
	-2.814,9.359 -3.149,9.359 -3.484,9.359 -3.819,9.359 -4.155,9.359 -4.49,9.359 -4.825,9.359 -5.16,9.359 -5.495,9.359 -5.83,9.359 
	-6.166,9.359 -6.501,9.359 -6.836,9.359 -7.171,9.359 -7.333,9.187 -7.333,8.852 -7.333,8.516 -7.333,8.181 -7.163,8.016 
	-6.828,8.016 -6.493,8.016 -6.158,8.016 -5.823,8.016 -5.488,8.016 -5.152,8.016 -4.817,8.016 -4.61,7.888 -4.61,7.553 -4.61,7.218 
	-4.61,6.883 -4.61,6.548 -4.61,6.213 -4.61,5.878 -4.61,5.543 -4.61,5.208 -4.61,4.873 -4.61,4.537 -4.61,4.202 -4.61,3.866 
	-4.61,3.531 -4.61,3.196 -4.61,2.861 -4.61,2.525 -4.61,2.19 -4.61,1.855 -4.61,1.52 -4.61,1.185 -4.61,0.85 -4.61,0.515 
	-4.61,0.18 -4.61,-0.156 -4.61,-0.49 -4.61,-0.825 -4.61,-1.16 -4.61,-1.495 -4.61,-1.83 -4.61,-2.165 -4.61,-2.5 -4.614,-2.835 
	-4.639,-3.17 -4.687,-3.501 -4.761,-3.828 -4.866,-4.147 -5.003,-4.452 -5.175,-4.74 -5.384,-5.001 -5.628,-5.231 -5.904,-5.42 
	-6.205,-5.568 -6.524,-5.668 -6.854,-5.727 -7.188,-5.745 -7.523,-5.733 -7.855,-5.691 -8.181,-5.613 -8.496,-5.497 -8.796,-5.35 
	-9.082,-5.176 -9.356,-4.982 -9.619,-4.774 -9.873,-4.556 -10.12,-4.329 -10.362,-4.098 -10.599,-3.861 -10.833,-3.62 
	-11.064,-3.377 -11.293,-3.132 -11.519,-2.886 -11.744,-2.638 -11.968,-2.388 -12.191,-2.138 -12.412,-1.886 -12.633,-1.634 
	-12.816,-1.481 -12.816,-1.816 -12.816,-2.151 -12.816,-2.487 -12.816,-2.822 -12.816,-3.156 -12.746,-3.465 -12.526,-3.719 
	-12.303,-3.969 -12.078,-4.218 -11.851,-4.463 -11.621,-4.707 -11.387,-4.948 -11.149,-5.184 -10.907,-5.415 -10.66,-5.643 
	-10.408,-5.863 -10.15,-6.075 -9.884,-6.281 -9.612,-6.476 -9.331,-6.658 -9.042,-6.827 -8.744,-6.982 -8.438,-7.117 -8.124,-7.235 
	-7.803,-7.331 -7.476,-7.406 -7.146,-7.462 -6.813,-7.499 -6.478,-7.52 -6.143,-7.524 -5.808,-7.511 -5.475,-7.479 -5.145,-7.423 
	-4.818,-7.348 -4.499,-7.247 -4.187,-7.121 -3.889,-6.971 -3.604,-6.794 -3.335,-6.594 -3.087,-6.369 -2.86,-6.123 -2.656,-5.857 
	-2.476,-5.574 -2.32,-5.278 -2.189,-4.97 -2.081,-4.653 -1.995,-4.328 -1.93,-3.999 -1.886,-3.667 -1.859,-3.333 -1.851,-2.998 
	-1.851,-2.663 -1.851,-2.328 -1.851,-1.993 -1.851,-1.657 -1.851,-1.323 -1.851,-0.988 -1.851,-0.653 -1.851,-0.318 -1.851,0.017 
	-1.851,0.353 -1.851,0.688 -1.851,1.022 -1.851,1.358 -1.851,1.693 -1.851,2.028 -1.851,2.363 -1.851,2.698 -1.851,3.035 
	-1.851,3.37 -1.851,3.705 -1.851,4.04 -1.851,4.375 -1.851,4.71 -1.851,5.045 -1.851,5.38 -1.851,5.716 -1.851,6.051 -1.851,6.385 
	-1.851,6.72 -1.851,7.055 -1.851,7.39 -1.851,7.726 -1.806,8.016 -1.471,8.016 -1.136,8.016 -0.801,8.016 -0.465,8.016 -0.13,8.016 
	0.205,8.016 0.54,8.016 0.873,8.019 0.873,8.354 0.873,8.689 0.873,9.024 "/>
<polygon fill="none" stroke="#000000" stroke-linecap="round" stroke-linejoin="round" points="-12.816,-1.423 -12.816,-1.148 
	-12.816,-0.872 -12.816,-0.597 -12.816,-0.32 -12.816,-0.043 -12.816,0.231 -12.816,0.508 -12.816,0.784 -12.816,1.06 
	-12.816,1.336 -12.816,1.611 -12.816,1.887 -12.816,2.165 -12.816,2.439 -12.816,2.716 -12.816,2.991 -12.816,3.267 -12.816,3.544 
	-12.816,3.819 -12.816,4.095 -12.816,4.372 -12.816,4.647 -12.816,4.924 -12.816,5.199 -12.816,5.475 -12.816,5.752 -12.816,6.027 
	-12.816,6.303 -12.816,6.58 -12.816,6.855 -12.816,7.132 -12.816,7.407 -12.816,7.683 -12.816,7.96 -12.597,8.016 -12.321,8.016 
	-12.045,8.016 -11.769,8.016 -11.493,8.016 -11.217,8.016 -10.941,8.016 -10.665,8.016 -10.389,8.016 -10.113,8.016 -10.057,8.236 
	-10.057,8.512 -10.057,8.789 -10.057,9.064 -10.057,9.341 -10.313,9.359 -10.589,9.359 -10.865,9.359 -11.141,9.359 -11.417,9.359 
	-11.693,9.359 -11.969,9.359 -12.245,9.359 -12.521,9.359 -12.797,9.359 -13.073,9.359 -13.349,9.359 -13.625,9.359 -13.901,9.359 
	-14.177,9.359 -14.453,9.359 -14.729,9.359 -15.005,9.359 -15.281,9.359 -15.557,9.359 -15.833,9.359 -16.109,9.359 -16.385,9.359 
	-16.661,9.359 -16.937,9.359 -17.213,9.359 -17.489,9.359 -17.765,9.359 -18.041,9.359 -18.299,9.343 -18.299,9.066 -18.299,8.791 
	-18.299,8.514 -18.299,8.238 -18.245,8.016 -17.969,8.016 -17.693,8.016 -17.417,8.016 -17.141,8.016 -16.865,8.016 -16.589,8.016 
	-16.313,8.016 -16.037,8.016 -15.761,8.016 -15.539,7.963 -15.539,7.686 -15.539,7.411 -15.539,7.135 -15.539,6.858 -15.539,6.583 
	-15.539,6.306 -15.539,6.03 -15.539,5.755 -15.539,5.478 -15.539,5.203 -15.539,4.927 -15.539,4.65 -15.539,4.375 -15.539,4.098 
	-15.539,3.822 -15.539,3.547 -15.539,3.27 -15.539,2.995 -15.539,2.719 -15.539,2.442 -15.539,2.167 -15.539,1.89 -15.539,1.614 
	-15.539,1.339 -15.539,1.062 -15.539,0.787 -15.539,0.51 -15.539,0.234 -15.539,-0.041 -15.539,-0.318 -15.539,-0.594 
	-15.539,-0.869 -15.539,-1.146 -15.539,-1.421 -15.539,-1.698 -15.539,-1.974 -15.539,-2.249 -15.539,-2.526 -15.539,-2.802 
	-15.539,-3.077 -15.539,-3.354 -15.539,-3.629 -15.539,-3.906 -15.539,-4.182 -15.539,-4.457 -15.539,-4.734 -15.539,-5.01 
	-15.77,-5.055 -16.046,-5.055 -16.322,-5.055 -16.598,-5.055 -16.874,-5.055 -17.15,-5.055 -17.426,-5.055 -17.702,-5.055 
	-17.978,-5.055 -18.254,-5.055 -18.53,-5.055 -18.698,-5.162 -18.698,-5.438 -18.698,-5.713 -18.698,-5.99 -18.476,-6.096 
	-18.209,-6.167 -17.943,-6.24 -17.677,-6.312 -17.41,-6.385 -17.144,-6.456 -16.877,-6.529 -16.611,-6.601 -16.345,-6.672 
	-16.078,-6.745 -15.812,-6.817 -15.546,-6.89 -15.279,-6.961 -15.013,-7.033 -14.746,-7.106 -14.48,-7.178 -14.214,-7.249 
	-13.947,-7.322 -13.681,-7.395 -13.412,-7.451 -13.136,-7.451 -12.86,-7.451 -12.816,-7.22 -12.816,-6.944 -12.816,-6.667 
	-12.816,-6.392 -12.816,-6.115 -12.816,-5.839 -12.816,-5.564 -12.816,-5.287 -12.816,-5.012 -12.816,-4.736 -12.816,-4.459 
	-12.816,-4.185 -12.816,-3.907 -12.816,-3.631 -12.816,-3.356 -12.816,-3.08 -12.816,-2.804 -12.816,-2.528 -12.816,-2.251 
	-12.816,-1.977 -12.816,-1.7 "/>
<polygon fill="none" stroke="#000000" stroke-linecap="round" stroke-linejoin="round" points="-12.816,-1.423 -12.816,-1.148 
	-12.816,-0.872 -12.816,-0.597 -12.816,-0.32 -12.816,-0.043 -12.816,0.231 -12.816,0.508 -12.816,0.784 -12.816,1.06 
	-12.816,1.336 -12.816,1.611 -12.816,1.887 -12.816,2.165 -12.816,2.439 -12.816,2.716 -12.816,2.991 -12.816,3.267 -12.816,3.544 
	-12.816,3.819 -12.816,4.095 -12.816,4.372 -12.816,4.647 -12.816,4.924 -12.816,5.199 -12.816,5.475 -12.816,5.752 -12.816,6.027 
	-12.816,6.303 -12.816,6.58 -12.816,6.855 -12.816,7.132 -12.816,7.407 -12.816,7.683 -12.816,7.96 -12.597,8.016 -12.321,8.016 
	-12.045,8.016 -11.769,8.016 -11.493,8.016 -11.217,8.016 -10.941,8.016 -10.665,8.016 -10.389,8.016 -10.113,8.016 -10.057,8.236 
	-10.057,8.512 -10.057,8.789 -10.057,9.064 -10.057,9.341 -10.313,9.359 -10.589,9.359 -10.865,9.359 -11.141,9.359 -11.417,9.359 
	-11.693,9.359 -11.969,9.359 -12.245,9.359 -12.521,9.359 -12.797,9.359 -13.073,9.359 -13.349,9.359 -13.625,9.359 -13.901,9.359 
	-14.177,9.359 -14.453,9.359 -14.729,9.359 -15.005,9.359 -15.281,9.359 -15.557,9.359 -15.833,9.359 -16.109,9.359 -16.385,9.359 
	-16.661,9.359 -16.937,9.359 -17.213,9.359 -17.489,9.359 -17.765,9.359 -18.041,9.359 -18.299,9.343 -18.299,9.066 -18.299,8.791 
	-18.299,8.514 -18.299,8.238 -18.245,8.016 -17.969,8.016 -17.693,8.016 -17.417,8.016 -17.141,8.016 -16.865,8.016 -16.589,8.016 
	-16.313,8.016 -16.037,8.016 -15.761,8.016 -15.539,7.963 -15.539,7.686 -15.539,7.411 -15.539,7.135 -15.539,6.858 -15.539,6.583 
	-15.539,6.306 -15.539,6.03 -15.539,5.755 -15.539,5.478 -15.539,5.203 -15.539,4.927 -15.539,4.65 -15.539,4.375 -15.539,4.098 
	-15.539,3.822 -15.539,3.547 -15.539,3.27 -15.539,2.995 -15.539,2.719 -15.539,2.442 -15.539,2.167 -15.539,1.89 -15.539,1.614 
	-15.539,1.339 -15.539,1.062 -15.539,0.787 -15.539,0.51 -15.539,0.234 -15.539,-0.041 -15.539,-0.318 -15.539,-0.594 
	-15.539,-0.869 -15.539,-1.146 -15.539,-1.421 -15.539,-1.698 -15.539,-1.974 -15.539,-2.249 -15.539,-2.526 -15.539,-2.802 
	-15.539,-3.077 -15.539,-3.354 -15.539,-3.629 -15.539,-3.906 -15.539,-4.182 -15.539,-4.457 -15.539,-4.734 -15.539,-5.01 
	-15.77,-5.055 -16.046,-5.055 -16.322,-5.055 -16.598,-5.055 -16.874,-5.055 -17.15,-5.055 -17.426,-5.055 -17.702,-5.055 
	-17.978,-5.055 -18.254,-5.055 -18.53,-5.055 -18.698,-5.162 -18.698,-5.438 -18.698,-5.713 -18.698,-5.99 -18.476,-6.096 
	-18.209,-6.167 -17.943,-6.24 -17.677,-6.312 -17.41,-6.385 -17.144,-6.456 -16.877,-6.529 -16.611,-6.601 -16.345,-6.672 
	-16.078,-6.745 -15.812,-6.817 -15.546,-6.89 -15.279,-6.961 -15.013,-7.033 -14.746,-7.106 -14.48,-7.178 -14.214,-7.249 
	-13.947,-7.322 -13.681,-7.395 -13.412,-7.451 -13.136,-7.451 -12.86,-7.451 -12.816,-7.22 -12.816,-6.944 -12.816,-6.667 
	-12.816,-6.392 -12.816,-6.115 -12.816,-5.839 -12.816,-5.564 -12.816,-5.287 -12.816,-5.012 -12.816,-4.736 -12.816,-4.459 
	-12.816,-4.185 -12.816,-3.907 -12.816,-3.631 -12.816,-3.356 -12.816,-3.08 -12.816,-2.804 -12.816,-2.528 -12.816,-2.251 
	-12.816,-1.977 -12.816,-1.7 "/>
<polygon fill="none" stroke="#000000" stroke-linecap="round" stroke-linejoin="round" points="0.873,9.359 0.537,9.359 
	0.202,9.359 -0.133,9.359 -0.468,9.359 -0.803,9.359 -1.139,9.359 -1.474,9.359 -1.809,9.359 -2.144,9.359 -2.479,9.359 
	-2.814,9.359 -3.149,9.359 -3.484,9.359 -3.819,9.359 -4.155,9.359 -4.49,9.359 -4.825,9.359 -5.16,9.359 -5.495,9.359 -5.83,9.359 
	-6.166,9.359 -6.501,9.359 -6.836,9.359 -7.171,9.359 -7.333,9.187 -7.333,8.852 -7.333,8.516 -7.333,8.181 -7.163,8.016 
	-6.828,8.016 -6.493,8.016 -6.158,8.016 -5.823,8.016 -5.488,8.016 -5.152,8.016 -4.817,8.016 -4.61,7.888 -4.61,7.553 -4.61,7.218 
	-4.61,6.883 -4.61,6.548 -4.61,6.213 -4.61,5.878 -4.61,5.543 -4.61,5.208 -4.61,4.873 -4.61,4.537 -4.61,4.202 -4.61,3.866 
	-4.61,3.531 -4.61,3.196 -4.61,2.861 -4.61,2.525 -4.61,2.19 -4.61,1.855 -4.61,1.52 -4.61,1.185 -4.61,0.85 -4.61,0.515 
	-4.61,0.18 -4.61,-0.156 -4.61,-0.49 -4.61,-0.825 -4.61,-1.16 -4.61,-1.495 -4.61,-1.83 -4.61,-2.165 -4.61,-2.5 -4.614,-2.835 
	-4.639,-3.17 -4.687,-3.501 -4.761,-3.828 -4.866,-4.147 -5.003,-4.452 -5.175,-4.74 -5.384,-5.001 -5.628,-5.231 -5.904,-5.42 
	-6.205,-5.568 -6.524,-5.668 -6.854,-5.727 -7.188,-5.745 -7.523,-5.733 -7.855,-5.691 -8.181,-5.613 -8.496,-5.497 -8.796,-5.35 
	-9.082,-5.176 -9.356,-4.982 -9.619,-4.774 -9.873,-4.556 -10.12,-4.329 -10.362,-4.098 -10.599,-3.861 -10.833,-3.62 
	-11.064,-3.377 -11.293,-3.132 -11.519,-2.886 -11.744,-2.638 -11.968,-2.388 -12.191,-2.138 -12.412,-1.886 -12.633,-1.634 
	-12.816,-1.481 -12.816,-1.816 -12.816,-2.151 -12.816,-2.487 -12.816,-2.822 -12.816,-3.156 -12.746,-3.465 -12.526,-3.719 
	-12.303,-3.969 -12.078,-4.218 -11.851,-4.463 -11.621,-4.707 -11.387,-4.948 -11.149,-5.184 -10.907,-5.415 -10.66,-5.643 
	-10.408,-5.863 -10.15,-6.075 -9.884,-6.281 -9.612,-6.476 -9.331,-6.658 -9.042,-6.827 -8.744,-6.982 -8.438,-7.117 -8.124,-7.235 
	-7.803,-7.331 -7.476,-7.406 -7.146,-7.462 -6.813,-7.499 -6.478,-7.52 -6.143,-7.524 -5.808,-7.511 -5.475,-7.479 -5.145,-7.423 
	-4.818,-7.348 -4.499,-7.247 -4.187,-7.121 -3.889,-6.971 -3.604,-6.794 -3.335,-6.594 -3.087,-6.369 -2.86,-6.123 -2.656,-5.857 
	-2.476,-5.574 -2.32,-5.278 -2.189,-4.97 -2.081,-4.653 -1.995,-4.328 -1.93,-3.999 -1.886,-3.667 -1.859,-3.333 -1.851,-2.998 
	-1.851,-2.663 -1.851,-2.328 -1.851,-1.993 -1.851,-1.657 -1.851,-1.323 -1.851,-0.988 -1.851,-0.653 -1.851,-0.318 -1.851,0.017 
	-1.851,0.353 -1.851,0.688 -1.851,1.022 -1.851,1.358 -1.851,1.693 -1.851,2.028 -1.851,2.363 -1.851,2.698 -1.851,3.035 
	-1.851,3.37 -1.851,3.705 -1.851,4.04 -1.851,4.375 -1.851,4.71 -1.851,5.045 -1.851,5.38 -1.851,5.716 -1.851,6.051 -1.851,6.385 
	-1.851,6.72 -1.851,7.055 -1.851,7.39 -1.851,7.726 -1.806,8.016 -1.471,8.016 -1.136,8.016 -0.801,8.016 -0.465,8.016 -0.13,8.016 
	0.205,8.016 0.54,8.016 0.873,8.019 0.873,8.354 0.873,8.689 0.873,9.024 "/>
<polygon fill="none" stroke="#000000" stroke-linecap="round" stroke-linejoin="round" points="10.747,-5.999 10.506,-5.99 
	10.266,-5.965 10.028,-5.924 9.794,-5.867 9.564,-5.794 9.34,-5.706 9.121,-5.604 8.91,-5.488 8.705,-5.36 8.509,-5.221 
	8.32,-5.071 8.139,-4.91 7.966,-4.742 7.802,-4.567 7.645,-4.384 7.496,-4.194 7.354,-3.998 7.221,-3.796 7.095,-3.591 
	6.976,-3.381 6.864,-3.167 6.759,-2.95 6.661,-2.731 6.57,-2.506 6.485,-2.281 6.407,-2.054 6.335,-1.823 6.269,-1.59 6.209,-1.358 
	6.155,-1.122 6.106,-0.886 6.064,-0.649 6.027,-0.41 5.996,-0.17 5.97,0.068 5.949,0.309 5.934,0.55 5.923,0.791 5.918,1.031 
	5.918,1.272 5.923,1.514 5.934,1.756 5.949,1.997 5.97,2.236 5.996,2.476 6.028,2.715 6.065,2.954 6.108,3.19 6.157,3.427 
	6.212,3.662 6.272,3.895 6.339,4.128 6.411,4.357 6.49,4.586 6.575,4.811 6.667,5.035 6.765,5.255 6.87,5.471 6.981,5.685 
	7.101,5.895 7.227,6.1 7.36,6.302 7.502,6.497 7.65,6.686 7.807,6.87 7.972,7.047 8.145,7.215 8.325,7.375 8.514,7.524 8.71,7.666 
	8.914,7.794 9.125,7.91 9.343,8.012 9.567,8.101 9.797,8.175 10.031,8.232 10.269,8.273 10.509,8.299 10.747,8.31 10.747,8.552 
	10.747,8.793 10.747,9.034 10.747,9.274 10.747,9.516 10.747,9.758 10.58,9.83 10.339,9.82 10.098,9.803 9.858,9.777 9.619,9.746 
	9.382,9.705 9.146,9.655 8.911,9.599 8.679,9.536 8.448,9.464 8.22,9.385 7.995,9.299 7.772,9.205 7.554,9.104 7.338,8.997 
	7.125,8.883 6.917,8.761 6.712,8.634 6.511,8.501 6.314,8.36 6.122,8.215 5.935,8.063 5.751,7.906 5.573,7.745 5.399,7.578 
	5.23,7.404 5.066,7.227 4.908,7.046 4.755,6.859 4.606,6.67 4.464,6.475 4.327,6.276 4.195,6.074 4.069,5.869 3.949,5.66 
	3.834,5.447 3.726,5.232 3.622,5.014 3.525,4.794 3.434,4.569 3.349,4.344 3.27,4.116 3.197,3.886 3.13,3.654 3.069,3.422 
	3.014,3.186 2.965,2.951 2.923,2.714 2.886,2.474 2.855,2.235 2.832,1.996 2.813,1.755 2.801,1.514 2.795,1.272 2.795,1.031 
	2.802,0.791 2.813,0.55 2.832,0.309 2.856,0.069 2.887,-0.169 2.923,-0.408 2.966,-0.646 3.015,-0.881 3.069,-1.116 3.131,-1.351 
	3.198,-1.582 3.271,-1.812 3.35,-2.039 3.436,-2.266 3.526,-2.489 3.624,-2.708 3.727,-2.928 3.836,-3.143 3.95,-3.355 
	4.071,-3.564 4.197,-3.77 4.329,-3.972 4.466,-4.169 4.608,-4.365 4.757,-4.555 4.91,-4.74 5.068,-4.922 5.232,-5.1 5.401,-5.272 
	5.575,-5.439 5.753,-5.602 5.937,-5.757 6.125,-5.909 6.317,-6.055 6.514,-6.195 6.715,-6.327 6.919,-6.455 7.128,-6.575 
	7.341,-6.69 7.557,-6.797 7.775,-6.898 7.998,-6.991 8.223,-7.078 8.451,-7.156 8.682,-7.229 8.914,-7.292 9.148,-7.349 
	9.385,-7.397 9.623,-7.438 9.861,-7.471 10.102,-7.495 10.342,-7.513 10.583,-7.522 10.747,-7.446 10.747,-7.205 10.747,-6.963 
	10.747,-6.723 10.747,-6.482 10.747,-6.24 "/>
<polygon fill="none" stroke="#000000" stroke-linecap="round" stroke-linejoin="round" points="10.747,8.306 10.988,8.299 
	11.228,8.273 11.466,8.232 11.7,8.176 11.931,8.102 12.155,8.014 12.374,7.913 12.586,7.798 12.791,7.67 12.988,7.53 13.178,7.382 
	13.36,7.222 13.534,7.055 13.7,6.88 13.858,6.697 14.008,6.509 14.151,6.313 14.286,6.113 14.414,5.909 14.534,5.699 14.647,5.485 
	14.753,5.269 14.853,5.05 14.945,4.827 15.031,4.601 15.111,4.374 15.185,4.143 15.252,3.912 15.313,3.677 15.368,3.442 
	15.417,3.207 15.461,2.969 15.499,2.73 15.531,2.491 15.558,2.251 15.579,2.01 15.595,1.769 15.606,1.528 15.611,1.288 
	15.612,1.046 15.607,0.804 15.597,0.563 15.581,0.322 15.561,0.082 15.534,-0.158 15.502,-0.398 15.465,-0.637 15.422,-0.873 
	15.374,-1.111 15.319,-1.346 15.258,-1.579 15.192,-1.812 15.119,-2.04 15.04,-2.27 14.955,-2.495 14.862,-2.719 14.764,-2.939 
	14.658,-3.156 14.546,-3.369 14.426,-3.579 14.299,-3.784 14.165,-3.986 14.023,-4.181 13.874,-4.37 13.717,-4.554 13.552,-4.73 
	13.378,-4.898 13.197,-5.058 13.009,-5.207 12.812,-5.349 12.607,-5.477 12.396,-5.594 12.178,-5.697 11.954,-5.786 11.725,-5.861 
	11.49,-5.919 11.253,-5.962 11.013,-5.989 10.771,-5.998 10.747,-6.215 10.747,-6.456 10.747,-6.698 10.747,-6.94 10.747,-7.181 
	10.747,-7.422 10.887,-7.523 11.128,-7.515 11.369,-7.497 11.609,-7.474 11.848,-7.441 12.086,-7.402 12.323,-7.354 12.558,-7.297 
	12.791,-7.235 13.021,-7.163 13.25,-7.085 13.476,-6.999 13.698,-6.906 13.918,-6.807 14.135,-6.699 14.348,-6.585 14.557,-6.465 
	14.762,-6.338 14.963,-6.205 15.161,-6.066 15.354,-5.92 15.542,-5.77 15.726,-5.613 15.905,-5.451 16.079,-5.284 16.249,-5.112 
	16.413,-4.936 16.572,-4.753 16.726,-4.568 16.875,-4.377 17.018,-4.184 17.155,-3.985 17.288,-3.782 17.414,-3.577 17.535,-3.368 
	17.65,-3.156 17.76,-2.941 17.863,-2.723 17.96,-2.501 18.052,-2.279 18.138,-2.053 18.218,-1.824 18.291,-1.595 18.358,-1.363 
	18.42,-1.129 18.476,-0.895 18.524,-0.658 18.568,-0.42 18.604,-0.183 18.635,0.057 18.66,0.298 18.678,0.539 18.691,0.779 
	18.697,1.02 18.698,1.262 18.692,1.504 18.68,1.745 18.662,1.985 18.638,2.225 18.608,2.466 18.572,2.704 18.529,2.941 
	18.481,3.177 18.426,3.414 18.365,3.646 18.298,3.879 18.226,4.108 18.146,4.337 18.062,4.563 17.97,4.787 17.874,5.008 
	17.771,5.226 17.662,5.441 17.547,5.654 17.427,5.863 17.301,6.069 17.169,6.271 17.032,6.47 16.89,6.666 16.742,6.855 
	16.588,7.043 16.43,7.224 16.266,7.401 16.097,7.574 15.923,7.743 15.745,7.904 15.561,8.061 15.374,8.213 15.181,8.358 
	14.984,8.499 14.783,8.633 14.578,8.76 14.37,8.882 14.157,8.996 13.941,9.103 13.722,9.205 13.499,9.298 13.273,9.385 
	13.046,9.464 12.815,9.536 12.582,9.599 12.348,9.655 12.111,9.705 11.873,9.746 11.634,9.778 11.394,9.803 11.153,9.82 
	10.912,9.83 10.747,9.756 10.747,9.513 10.747,9.272 10.747,9.031 10.747,8.79 10.747,8.549 "/>
</svg>
