<?xml version="1.0" encoding="utf-8"?>
<!-- Generator: Adobe Illustrator 16.0.0, SVG Export Plug-In . SVG Version: 6.00 Build 0)  -->
<!DOCTYPE svg PUBLIC "-//W3C//DTD SVG 1.1//EN" "http://www.w3.org/Graphics/SVG/1.1/DTD/svg11.dtd">
<svg version="1.1" id="Default" xmlns="http://www.w3.org/2000/svg" xmlns:xlink="http://www.w3.org/1999/xlink" x="0px" y="0px"
	 width="99.644px" height="37.013px" viewBox="0 0 99.644 37.013" enable-background="new 0 0 99.644 37.013" xml:space="preserve">
<polygon fill="none" stroke="#000000" stroke-linecap="round" stroke-linejoin="round" points="-14.81,2.036 -14.892,2.245 
	-14.974,2.455 -15.056,2.664 -15.138,2.873 -15.22,3.082 -15.302,3.292 -15.384,3.501 -15.467,3.71 -15.548,3.919 -15.631,4.129 
	-15.713,4.338 -15.794,4.547 -15.877,4.756 -15.959,4.966 -16.041,5.175 -16.123,5.384 -16.205,5.594 -16.288,5.676 -16.373,5.468 
	-16.458,5.259 -16.542,5.051 -16.627,4.843 -16.712,4.635 -16.797,4.427 -16.882,4.219 -16.967,4.011 -17.052,3.803 -17.137,3.594 
	-17.222,3.386 -17.307,3.178 -17.392,2.97 -17.477,2.762 -17.562,2.554 -17.647,2.346 -17.731,2.138 -17.817,1.93 -17.901,1.722 
	-17.986,1.513 -18.071,1.305 -18.156,1.097 -18.241,0.889 -18.326,0.681 -18.411,0.473 -18.496,0.265 -18.581,0.057 -18.666,-0.152 
	-18.751,-0.36 -18.836,-0.568 -18.921,-0.776 -19.006,-0.984 -19.091,-1.192 -19.176,-1.4 -19.26,-1.608 -19.345,-1.816 
	-19.43,-2.025 -19.515,-2.233 -19.6,-2.441 -19.685,-2.649 -19.77,-2.857 -19.855,-3.065 -19.94,-3.273 -20.025,-3.481 
	-20.11,-3.689 -20.195,-3.898 -20.28,-4.106 -20.365,-4.314 -20.449,-4.522 -20.534,-4.73 -20.619,-4.938 -20.704,-5.146 
	-20.789,-5.354 -20.874,-5.563 -20.959,-5.771 -21.044,-5.979 -21.129,-6.187 -21.214,-6.395 -21.299,-6.604 -21.384,-6.812 
	-21.469,-7.02 -21.553,-7.228 -21.639,-7.436 -21.723,-7.644 -21.808,-7.852 -21.893,-8.06 -21.978,-8.268 -22.063,-8.477 
	-22.154,-8.675 -22.379,-8.675 -22.604,-8.675 -22.829,-8.675 -23.053,-8.675 -23.278,-8.675 -23.503,-8.675 -23.669,-8.734 
	-23.669,-8.958 -23.669,-9.184 -23.669,-9.408 -23.669,-9.633 -23.669,-9.858 -23.605,-10.019 -23.381,-10.019 -23.156,-10.019 
	-22.931,-10.019 -22.706,-10.019 -22.481,-10.019 -22.257,-10.019 -22.032,-10.019 -21.807,-10.019 -21.582,-10.019 
	-21.358,-10.019 -21.133,-10.019 -20.908,-10.019 -20.683,-10.019 -20.458,-10.019 -20.234,-10.019 -20.009,-10.019 
	-19.784,-10.019 -19.559,-10.019 -19.334,-10.019 -19.11,-10.019 -18.885,-10.019 -18.66,-10.019 -18.436,-10.019 -18.211,-10.019 
	-17.986,-10.019 -17.761,-10.019 -17.536,-10.019 -17.312,-10.019 -17.087,-10.019 -16.862,-10.019 -16.637,-10.019 -16.625,-9.806 
	-16.625,-9.581 -16.625,-9.356 -16.625,-9.131 -16.625,-8.907 -16.625,-8.682 -16.844,-8.675 -17.069,-8.675 -17.293,-8.675 
	-17.518,-8.675 -17.743,-8.675 -17.968,-8.675 -18.192,-8.675 -18.417,-8.675 -18.642,-8.675 -18.867,-8.675 -19.092,-8.675 
	-19.16,-8.571 -19.075,-8.363 -18.99,-8.155 -18.904,-7.947 -18.819,-7.739 -18.734,-7.531 -18.648,-7.323 -18.563,-7.115 
	-18.478,-6.907 -18.392,-6.699 -18.307,-6.491 -18.222,-6.283 -18.137,-6.075 -18.051,-5.867 -17.966,-5.659 -17.881,-5.451 
	-17.795,-5.243 -17.71,-5.035 -17.625,-4.827 -17.54,-4.619 -17.454,-4.411 -17.369,-4.203 -17.284,-3.995 -17.198,-3.787 
	-17.113,-3.579 -17.028,-3.371 -16.942,-3.164 -16.857,-2.956 -16.772,-2.748 -16.687,-2.54 -16.601,-2.332 -16.516,-2.124 
	-16.431,-1.916 -16.345,-1.708 -16.26,-1.5 -16.175,-1.292 -16.09,-1.083 -16.004,-0.875 -15.919,-0.668 -15.834,-0.46 
	-15.748,-0.252 -15.663,-0.044 -15.578,0.164 -15.492,0.372 -15.407,0.58 -15.322,0.788 -15.237,0.996 -15.151,1.204 -15.066,1.412 
	-14.981,1.62 -14.895,1.828 "/>
<polygon fill="none" stroke="#000000" stroke-linecap="round" stroke-linejoin="round" points="-14.81,2.036 -14.689,1.718 
	-14.569,1.401 -14.448,1.083 -14.328,0.766 -14.207,0.448 -14.087,0.13 -13.966,-0.187 -13.845,-0.504 -13.725,-0.822 
	-13.604,-1.14 -13.484,-1.457 -13.363,-1.774 -13.243,-2.092 -13.122,-2.41 -13.002,-2.728 -12.881,-3.045 -12.76,-3.362 
	-12.64,-3.68 -12.519,-3.998 -12.399,-4.315 -12.278,-4.633 -12.158,-4.95 -12.037,-5.268 -11.917,-5.585 -11.796,-5.903 
	-11.676,-6.22 -11.555,-6.538 -11.434,-6.855 -11.314,-7.173 -11.193,-7.491 -11.073,-7.808 -10.952,-8.125 -10.832,-8.443 
	-10.834,-8.675 -11.174,-8.675 -11.514,-8.675 -11.854,-8.675 -12.193,-8.675 -12.533,-8.675 -12.873,-8.675 -13.176,-8.712 
	-13.176,-9.051 -13.176,-9.391 -13.176,-9.731 -13.124,-10.019 -12.784,-10.019 -12.445,-10.019 -12.105,-10.019 -11.765,-10.019 
	-11.426,-10.019 -11.086,-10.019 -10.747,-10.019 -10.407,-10.019 -10.067,-10.019 -9.728,-10.019 -9.388,-10.019 -9.048,-10.019 
	-8.708,-10.019 -8.369,-10.019 -8.029,-10.019 -7.689,-10.019 -7.584,-9.785 -7.584,-9.445 -7.584,-9.105 -7.584,-8.766 
	-7.834,-8.675 -8.173,-8.675 -8.513,-8.675 -8.853,-8.675 -9.139,-8.598 -9.261,-8.281 -9.383,-7.963 -9.505,-7.646 -9.627,-7.33 
	-9.749,-7.013 -9.871,-6.696 -9.993,-6.378 -10.115,-6.062 -10.237,-5.745 -10.359,-5.428 -10.481,-5.111 -10.603,-4.794 
	-10.725,-4.477 -10.847,-4.16 -10.969,-3.843 -11.092,-3.526 -11.213,-3.208 -11.335,-2.892 -11.458,-2.575 -11.58,-2.258 
	-11.702,-1.941 -11.824,-1.624 -11.946,-1.307 -12.068,-0.99 -12.19,-0.673 -12.312,-0.356 -12.434,-0.039 -12.556,0.278 
	-12.678,0.595 -12.8,0.912 -12.922,1.229 -13.044,1.546 -13.166,1.863 -13.288,2.18 -13.41,2.497 -13.532,2.814 -13.654,3.131 
	-13.776,3.448 -13.898,3.765 -14.02,4.082 -14.142,4.399 -14.264,4.716 -14.386,5.033 -14.508,5.35 -14.63,5.667 -14.752,5.984 
	-14.874,6.301 -14.996,6.618 -15.118,6.935 -15.24,7.252 -15.364,7.568 -15.491,7.883 -15.623,8.196 -15.758,8.508 -15.896,8.818 
	-16.037,9.127 -16.181,9.435 -16.327,9.741 -16.477,10.046 -16.629,10.35 -16.785,10.652 -16.942,10.953 -17.103,11.252 
	-17.266,11.55 -17.433,11.846 -17.602,12.141 -17.774,12.433 -17.95,12.724 -18.129,13.013 -18.312,13.299 -18.499,13.582 
	-18.694,13.86 -18.896,14.133 -19.098,14.406 -19.299,14.68 -19.501,14.953 -19.703,15.226 -19.906,15.499 -20.115,15.683 
	-20.352,15.439 -20.588,15.195 -20.825,14.952 -21.061,14.708 -21.298,14.464 -21.534,14.22 -21.771,13.976 -22.007,13.732 
	-22.244,13.489 -22.378,13.26 -22.083,13.092 -21.789,12.921 -21.498,12.747 -21.209,12.568 -20.924,12.383 -20.645,12.19 
	-20.372,11.988 -20.107,11.775 -19.852,11.55 -19.608,11.314 -19.373,11.069 -19.147,10.815 -18.929,10.555 -18.717,10.29 
	-18.51,10.02 -18.31,9.746 -18.114,9.469 -17.924,9.187 -17.742,8.9 -17.569,8.608 -17.404,8.311 -17.247,8.01 -17.097,7.705 
	-16.954,7.397 -16.816,7.086 -16.682,6.774 -16.552,6.461 -16.424,6.146 -16.298,5.831 -16.174,5.514 -16.05,5.198 -15.926,4.882 
	-15.802,4.566 -15.678,4.25 -15.554,3.933 -15.43,3.617 -15.306,3.301 -15.182,2.984 -15.058,2.668 -14.934,2.352 "/>
<polygon fill="none" stroke="#000000" stroke-linecap="round" stroke-linejoin="round" points="-3.41,-2.866 -3.41,-2.458 
	-3.403,-2.049 -3.383,-1.642 -3.349,-1.235 -3.3,-0.829 -3.236,-0.426 -3.156,-0.025 -3.06,0.372 -2.947,0.764 -2.817,1.151 
	-2.667,1.531 -2.5,1.903 -2.312,2.266 -2.104,2.618 -1.876,2.956 -1.626,3.279 -1.356,3.585 -1.065,3.872 -0.754,4.137 
	-0.424,4.376 -0.076,4.59 0.289,4.774 0.667,4.929 1.056,5.051 1.454,5.142 1.858,5.201 2.265,5.229 2.674,5.228 3.082,5.203 
	3.486,5.149 3.885,5.064 4.277,4.948 4.659,4.804 5.032,4.638 5.397,4.455 5.755,4.259 6.108,4.054 6.458,3.841 6.803,3.624 
	7.035,3.82 7.221,4.183 7.408,4.546 7.586,4.907 7.231,5.109 6.875,5.308 6.515,5.502 6.153,5.691 5.788,5.874 5.418,6.048 
	5.044,6.212 4.665,6.363 4.28,6.498 3.888,6.615 3.492,6.712 3.09,6.788 2.686,6.842 2.279,6.877 1.871,6.896 1.462,6.901 
	1.054,6.89 0.647,6.86 0.242,6.811 -0.161,6.741 -0.559,6.65 -0.952,6.539 -1.338,6.406 -1.716,6.253 -2.086,6.08 -2.445,5.885 
	-2.793,5.671 -3.128,5.438 -3.45,5.187 -3.757,4.917 -4.049,4.632 -4.324,4.331 -4.583,4.015 -4.825,3.686 -5.05,3.345 
	-5.256,2.993 -5.445,2.63 -5.616,2.26 -5.769,1.881 -5.905,1.496 -6.023,1.105 -6.124,0.709 -6.208,0.31 -6.275,-0.093 
	-6.326,-0.499 -6.362,-0.905 -6.382,-1.313 -6.388,-1.721 -6.379,-2.13 -6.355,-2.538 -6.316,-2.944 -6.262,-3.349 -6.192,-3.751 
	-6.107,-4.15 -6.005,-4.546 -5.886,-4.937 -5.751,-5.322 -5.599,-5.701 -5.43,-6.073 -5.243,-6.436 -5.04,-6.79 -4.82,-7.134 
	-4.583,-7.466 -4.329,-7.787 -4.059,-8.093 -3.773,-8.384 -3.472,-8.66 -3.156,-8.919 -2.826,-9.16 -2.484,-9.382 -2.129,-9.585 
	-1.764,-9.767 -1.389,-9.929 -1.005,-10.069 -0.615,-10.187 -0.218,-10.284 0.184,-10.358 0.588,-10.412 0.996,-10.444 
	1.404,-10.455 1.812,-10.445 2.219,-10.416 2.625,-10.365 3.027,-10.293 3.423,-10.198 3.814,-10.079 4.197,-9.937 4.57,-9.771 
	4.932,-9.581 5.28,-9.367 5.612,-9.13 5.927,-8.871 6.224,-8.59 6.5,-8.29 6.755,-7.97 6.987,-7.634 7.196,-7.283 7.381,-6.919 
	7.542,-6.544 7.679,-6.16 7.792,-5.767 7.883,-5.369 7.951,-4.966 7.997,-4.561 8.022,-4.153 8.027,-3.745 8.027,-3.336 
	8.027,-2.928 7.68,-2.866 7.272,-2.866 6.864,-2.866 6.456,-2.866 6.047,-2.866 5.638,-2.866 5.23,-2.866 5.049,-3.094 
	5.049,-3.502 5.049,-3.911 5.049,-4.319 5.049,-4.728 5.049,-5.136 5.036,-5.544 4.986,-5.949 4.897,-6.348 4.768,-6.735 
	4.597,-7.106 4.386,-7.455 4.134,-7.776 3.846,-8.065 3.524,-8.316 3.174,-8.526 2.801,-8.693 2.412,-8.814 2.011,-8.892 
	1.604,-8.927 1.196,-8.924 0.789,-8.891 0.386,-8.826 -0.01,-8.729 -0.397,-8.598 -0.771,-8.432 -1.126,-8.233 -1.462,-8.001 
	-1.775,-7.738 -2.062,-7.448 -2.321,-7.132 -2.552,-6.795 -2.753,-6.44 -2.927,-6.07 -3.072,-5.689 -3.19,-5.298 -3.283,-4.9 
	-3.351,-4.498 -3.38,-4.091 -3.39,-3.683 -3.4,-3.274 "/>
<polygon fill="none" stroke="#000000" stroke-linecap="round" stroke-linejoin="round" points="-3.374,-4.318 -3.275,-4.318 
	-3.177,-4.318 -3.078,-4.318 -2.979,-4.318 -2.88,-4.318 -2.781,-4.318 -2.682,-4.318 -2.583,-4.318 -2.484,-4.318 -2.385,-4.318 
	-2.286,-4.318 -2.187,-4.318 -2.088,-4.318 -1.989,-4.318 -1.89,-4.318 -1.791,-4.318 -1.692,-4.318 -1.593,-4.318 -1.495,-4.318 
	-1.396,-4.318 -1.296,-4.318 -1.198,-4.318 -1.099,-4.318 -1,-4.318 -0.901,-4.318 -0.802,-4.318 -0.703,-4.318 -0.604,-4.318 
	-0.505,-4.318 -0.406,-4.318 -0.307,-4.318 -0.208,-4.318 -0.109,-4.318 -0.01,-4.318 0.088,-4.318 0.188,-4.318 0.287,-4.318 
	0.385,-4.318 0.484,-4.318 0.583,-4.318 0.682,-4.318 0.781,-4.318 0.88,-4.318 0.979,-4.318 1.078,-4.318 1.177,-4.318 
	1.276,-4.318 1.375,-4.318 1.474,-4.318 1.573,-4.318 1.671,-4.318 1.771,-4.318 1.87,-4.318 1.968,-4.318 2.068,-4.318 
	2.167,-4.318 2.265,-4.318 2.364,-4.318 2.463,-4.318 2.562,-4.318 2.661,-4.318 2.76,-4.318 2.859,-4.318 2.958,-4.318 
	3.057,-4.318 3.156,-4.318 3.255,-4.318 3.354,-4.318 3.453,-4.318 3.552,-4.318 3.651,-4.318 3.75,-4.318 3.849,-4.318 
	3.948,-4.318 4.046,-4.318 4.145,-4.318 4.245,-4.318 4.343,-4.318 4.442,-4.318 4.542,-4.318 4.64,-4.318 4.739,-4.318 
	4.838,-4.318 4.937,-4.318 5.036,-4.318 5.049,-4.233 5.049,-4.134 5.049,-4.035 5.049,-3.937 5.049,-3.837 5.049,-3.739 
	5.049,-3.64 5.049,-3.541 5.049,-3.442 5.049,-3.343 5.049,-3.244 5.049,-3.145 5.049,-3.046 5.049,-2.947 5.032,-2.866 
	4.933,-2.866 4.833,-2.866 4.735,-2.866 4.636,-2.866 4.537,-2.866 4.438,-2.866 4.339,-2.866 4.24,-2.866 4.141,-2.866 
	4.042,-2.866 3.943,-2.866 3.844,-2.866 3.746,-2.866 3.646,-2.866 3.547,-2.866 3.449,-2.866 3.349,-2.866 3.25,-2.866 
	3.152,-2.866 3.053,-2.866 2.954,-2.866 2.855,-2.866 2.756,-2.866 2.657,-2.866 2.558,-2.866 2.459,-2.866 2.36,-2.866 
	2.261,-2.866 2.162,-2.866 2.063,-2.866 1.964,-2.866 1.865,-2.866 1.766,-2.866 1.667,-2.866 1.568,-2.866 1.469,-2.866 
	1.371,-2.866 1.272,-2.866 1.173,-2.866 1.074,-2.866 0.975,-2.866 0.875,-2.866 0.777,-2.866 0.678,-2.866 0.579,-2.866 
	0.48,-2.866 0.381,-2.866 0.282,-2.866 0.183,-2.866 0.084,-2.866 -0.015,-2.866 -0.114,-2.866 -0.212,-2.866 -0.312,-2.866 
	-0.411,-2.866 -0.509,-2.866 -0.608,-2.866 -0.708,-2.866 -0.806,-2.866 -0.905,-2.866 -1.004,-2.866 -1.103,-2.866 -1.202,-2.866 
	-1.301,-2.866 -1.4,-2.866 -1.499,-2.866 -1.598,-2.866 -1.697,-2.866 -1.796,-2.866 -1.895,-2.866 -1.993,-2.866 -2.093,-2.866 
	-2.191,-2.866 -2.29,-2.866 -2.389,-2.866 -2.488,-2.866 -2.587,-2.866 -2.686,-2.866 -2.785,-2.866 -2.884,-2.866 -2.983,-2.866 
	-3.082,-2.866 -3.181,-2.866 -3.28,-2.866 -3.379,-2.866 -3.408,-2.934 -3.406,-3.033 -3.404,-3.131 -3.401,-3.23 -3.399,-3.329 
	-3.396,-3.428 -3.394,-3.527 -3.391,-3.626 -3.389,-3.725 -3.386,-3.824 -3.384,-3.923 -3.382,-4.021 -3.379,-4.121 -3.377,-4.219 
	"/>
<polygon fill="none" stroke="#000000" stroke-linecap="round" stroke-linejoin="round" points="12.528,6.756 12.055,6.756 
	11.583,6.756 11.11,6.756 11.076,6.317 11.076,5.844 11.076,5.372 11.076,4.899 11.076,4.426 11.076,3.954 11.076,3.48 
	11.076,3.008 11.076,2.535 11.076,2.063 11.086,1.6 11.559,1.6 12.032,1.6 12.504,1.6 12.746,1.831 12.746,2.304 12.757,2.776 
	12.865,3.235 13.073,3.659 13.356,4.037 13.693,4.368 14.069,4.654 14.474,4.896 14.902,5.099 15.345,5.261 15.802,5.384 
	16.267,5.469 16.737,5.514 17.21,5.519 17.681,5.483 18.147,5.403 18.602,5.276 19.04,5.098 19.45,4.864 19.819,4.569 20.13,4.214 
	20.359,3.802 20.489,3.348 20.512,2.877 20.443,2.41 20.268,1.973 19.994,1.588 19.655,1.26 19.277,0.976 18.878,0.724 
	18.465,0.494 18.043,0.281 17.615,0.08 17.182,-0.112 16.748,-0.297 16.31,-0.476 15.871,-0.651 15.43,-0.824 14.994,-1.003 
	14.56,-1.194 14.134,-1.396 13.714,-1.614 13.304,-1.85 12.908,-2.106 12.529,-2.389 12.173,-2.701 11.851,-3.046 11.571,-3.427 
	11.341,-3.839 11.168,-4.279 11.052,-4.737 10.987,-5.205 10.966,-5.677 10.986,-6.149 11.051,-6.617 11.164,-7.077 11.325,-7.521 
	11.534,-7.944 11.789,-8.343 12.085,-8.71 12.419,-9.044 12.787,-9.342 13.18,-9.602 13.597,-9.825 14.031,-10.012 14.479,-10.164 
	14.937,-10.282 15.402,-10.368 15.871,-10.423 16.343,-10.451 16.815,-10.452 17.288,-10.428 17.758,-10.375 18.222,-10.29 
	18.679,-10.169 19.124,-10.01 19.552,-9.811 19.961,-9.573 20.345,-9.298 20.501,-9.563 20.578,-10.03 20.656,-10.496 
	21.102,-10.527 21.575,-10.527 22.048,-10.527 22.174,-10.234 22.096,-9.768 22.018,-9.301 21.94,-8.835 21.863,-8.369 
	21.785,-7.902 21.708,-7.436 21.63,-6.97 21.552,-6.503 21.474,-6.037 21.396,-5.571 21.154,-5.299 20.681,-5.299 20.209,-5.299 
	19.807,-5.35 19.93,-5.806 19.998,-6.273 19.991,-6.745 19.869,-7.201 19.645,-7.616 19.344,-7.979 18.986,-8.288 18.588,-8.542 
	18.161,-8.744 17.714,-8.897 17.254,-9.002 16.784,-9.061 16.312,-9.074 15.841,-9.042 15.376,-8.959 14.924,-8.82 14.498,-8.617 
	14.112,-8.345 13.785,-8.004 13.535,-7.604 13.372,-7.161 13.298,-6.695 13.295,-6.223 13.342,-5.752 13.504,-5.311 13.805,-4.95 
	14.183,-4.667 14.593,-4.429 15.014,-4.217 15.443,-4.018 15.876,-3.828 16.311,-3.642 16.748,-3.46 17.184,-3.281 17.623,-3.103 
	18.061,-2.925 18.498,-2.745 18.931,-2.556 19.36,-2.357 19.783,-2.145 20.197,-1.917 20.6,-1.671 20.987,-1.4 21.353,-1.101 
	21.687,-0.767 21.981,-0.396 22.221,0.01 22.403,0.446 22.525,0.902 22.594,1.37 22.621,1.842 22.611,2.314 22.559,2.784 
	22.465,3.247 22.325,3.698 22.14,4.133 21.911,4.547 21.64,4.934 21.331,5.291 20.986,5.614 20.611,5.902 20.211,6.152 
	19.789,6.366 19.35,6.542 18.898,6.681 18.437,6.784 17.97,6.854 17.499,6.893 17.026,6.901 16.553,6.887 16.082,6.854 
	15.613,6.799 15.147,6.718 14.687,6.608 14.237,6.466 13.799,6.289 13.378,6.073 12.98,5.818 12.61,5.523 12.528,5.811 
	12.528,6.283 "/>
<polygon fill="none" stroke="#000000" stroke-linecap="round" stroke-linejoin="round" points="12.528,6.756 12.055,6.756 
	11.583,6.756 11.11,6.756 11.076,6.317 11.076,5.844 11.076,5.372 11.076,4.899 11.076,4.426 11.076,3.954 11.076,3.48 
	11.076,3.008 11.076,2.535 11.076,2.063 11.086,1.6 11.559,1.6 12.032,1.6 12.504,1.6 12.746,1.831 12.746,2.304 12.757,2.776 
	12.865,3.235 13.073,3.659 13.356,4.037 13.693,4.368 14.069,4.654 14.474,4.896 14.902,5.099 15.345,5.261 15.802,5.384 
	16.267,5.469 16.737,5.514 17.21,5.519 17.681,5.483 18.147,5.403 18.602,5.276 19.04,5.098 19.45,4.864 19.819,4.569 20.13,4.214 
	20.359,3.802 20.489,3.348 20.512,2.877 20.443,2.41 20.268,1.973 19.994,1.588 19.655,1.26 19.277,0.976 18.878,0.724 
	18.465,0.494 18.043,0.281 17.615,0.08 17.182,-0.112 16.748,-0.297 16.31,-0.476 15.871,-0.651 15.43,-0.824 14.994,-1.003 
	14.56,-1.194 14.134,-1.396 13.714,-1.614 13.304,-1.85 12.908,-2.106 12.529,-2.389 12.173,-2.701 11.851,-3.046 11.571,-3.427 
	11.341,-3.839 11.168,-4.279 11.052,-4.737 10.987,-5.205 10.966,-5.677 10.986,-6.149 11.051,-6.617 11.164,-7.077 11.325,-7.521 
	11.534,-7.944 11.789,-8.343 12.085,-8.71 12.419,-9.044 12.787,-9.342 13.18,-9.602 13.597,-9.825 14.031,-10.012 14.479,-10.164 
	14.937,-10.282 15.402,-10.368 15.871,-10.423 16.343,-10.451 16.815,-10.452 17.288,-10.428 17.758,-10.375 18.222,-10.29 
	18.679,-10.169 19.124,-10.01 19.552,-9.811 19.961,-9.573 20.345,-9.298 20.501,-9.563 20.578,-10.03 20.656,-10.496 
	21.102,-10.527 21.575,-10.527 22.048,-10.527 22.174,-10.234 22.096,-9.768 22.018,-9.301 21.94,-8.835 21.863,-8.369 
	21.785,-7.902 21.708,-7.436 21.63,-6.97 21.552,-6.503 21.474,-6.037 21.396,-5.571 21.154,-5.299 20.681,-5.299 20.209,-5.299 
	19.807,-5.35 19.93,-5.806 19.998,-6.273 19.991,-6.745 19.869,-7.201 19.645,-7.616 19.344,-7.979 18.986,-8.288 18.588,-8.542 
	18.161,-8.744 17.714,-8.897 17.254,-9.002 16.784,-9.061 16.312,-9.074 15.841,-9.042 15.376,-8.959 14.924,-8.82 14.498,-8.617 
	14.112,-8.345 13.785,-8.004 13.535,-7.604 13.372,-7.161 13.298,-6.695 13.295,-6.223 13.342,-5.752 13.504,-5.311 13.805,-4.95 
	14.183,-4.667 14.593,-4.429 15.014,-4.217 15.443,-4.018 15.876,-3.828 16.311,-3.642 16.748,-3.46 17.184,-3.281 17.623,-3.103 
	18.061,-2.925 18.498,-2.745 18.931,-2.556 19.36,-2.357 19.783,-2.145 20.197,-1.917 20.6,-1.671 20.987,-1.4 21.353,-1.101 
	21.687,-0.767 21.981,-0.396 22.221,0.01 22.403,0.446 22.525,0.902 22.594,1.37 22.621,1.842 22.611,2.314 22.559,2.784 
	22.465,3.247 22.325,3.698 22.14,4.133 21.911,4.547 21.64,4.934 21.331,5.291 20.986,5.614 20.611,5.902 20.211,6.152 
	19.789,6.366 19.35,6.542 18.898,6.681 18.437,6.784 17.97,6.854 17.499,6.893 17.026,6.901 16.553,6.887 16.082,6.854 
	15.613,6.799 15.147,6.718 14.687,6.608 14.237,6.466 13.799,6.289 13.378,6.073 12.98,5.818 12.61,5.523 12.528,5.811 
	12.528,6.283 "/>
<polygon fill="none" stroke="#000000" stroke-linecap="round" stroke-linejoin="round" points="-3.374,-4.318 -3.275,-4.318 
	-3.177,-4.318 -3.078,-4.318 -2.979,-4.318 -2.88,-4.318 -2.781,-4.318 -2.682,-4.318 -2.583,-4.318 -2.484,-4.318 -2.385,-4.318 
	-2.286,-4.318 -2.187,-4.318 -2.088,-4.318 -1.989,-4.318 -1.89,-4.318 -1.791,-4.318 -1.692,-4.318 -1.593,-4.318 -1.495,-4.318 
	-1.396,-4.318 -1.296,-4.318 -1.198,-4.318 -1.099,-4.318 -1,-4.318 -0.901,-4.318 -0.802,-4.318 -0.703,-4.318 -0.604,-4.318 
	-0.505,-4.318 -0.406,-4.318 -0.307,-4.318 -0.208,-4.318 -0.109,-4.318 -0.01,-4.318 0.088,-4.318 0.188,-4.318 0.287,-4.318 
	0.385,-4.318 0.484,-4.318 0.583,-4.318 0.682,-4.318 0.781,-4.318 0.88,-4.318 0.979,-4.318 1.078,-4.318 1.177,-4.318 
	1.276,-4.318 1.375,-4.318 1.474,-4.318 1.573,-4.318 1.671,-4.318 1.771,-4.318 1.87,-4.318 1.968,-4.318 2.068,-4.318 
	2.167,-4.318 2.265,-4.318 2.364,-4.318 2.463,-4.318 2.562,-4.318 2.661,-4.318 2.76,-4.318 2.859,-4.318 2.958,-4.318 
	3.057,-4.318 3.156,-4.318 3.255,-4.318 3.354,-4.318 3.453,-4.318 3.552,-4.318 3.651,-4.318 3.75,-4.318 3.849,-4.318 
	3.948,-4.318 4.046,-4.318 4.145,-4.318 4.245,-4.318 4.343,-4.318 4.442,-4.318 4.542,-4.318 4.64,-4.318 4.739,-4.318 
	4.838,-4.318 4.937,-4.318 5.036,-4.318 5.049,-4.233 5.049,-4.134 5.049,-4.035 5.049,-3.937 5.049,-3.837 5.049,-3.739 
	5.049,-3.64 5.049,-3.541 5.049,-3.442 5.049,-3.343 5.049,-3.244 5.049,-3.145 5.049,-3.046 5.049,-2.947 5.032,-2.866 
	4.933,-2.866 4.833,-2.866 4.735,-2.866 4.636,-2.866 4.537,-2.866 4.438,-2.866 4.339,-2.866 4.24,-2.866 4.141,-2.866 
	4.042,-2.866 3.943,-2.866 3.844,-2.866 3.746,-2.866 3.646,-2.866 3.547,-2.866 3.449,-2.866 3.349,-2.866 3.25,-2.866 
	3.152,-2.866 3.053,-2.866 2.954,-2.866 2.855,-2.866 2.756,-2.866 2.657,-2.866 2.558,-2.866 2.459,-2.866 2.36,-2.866 
	2.261,-2.866 2.162,-2.866 2.063,-2.866 1.964,-2.866 1.865,-2.866 1.766,-2.866 1.667,-2.866 1.568,-2.866 1.469,-2.866 
	1.371,-2.866 1.272,-2.866 1.173,-2.866 1.074,-2.866 0.975,-2.866 0.875,-2.866 0.777,-2.866 0.678,-2.866 0.579,-2.866 
	0.48,-2.866 0.381,-2.866 0.282,-2.866 0.183,-2.866 0.084,-2.866 -0.015,-2.866 -0.114,-2.866 -0.212,-2.866 -0.312,-2.866 
	-0.411,-2.866 -0.509,-2.866 -0.608,-2.866 -0.708,-2.866 -0.806,-2.866 -0.905,-2.866 -1.004,-2.866 -1.103,-2.866 -1.202,-2.866 
	-1.301,-2.866 -1.4,-2.866 -1.499,-2.866 -1.598,-2.866 -1.697,-2.866 -1.796,-2.866 -1.895,-2.866 -1.993,-2.866 -2.093,-2.866 
	-2.191,-2.866 -2.29,-2.866 -2.389,-2.866 -2.488,-2.866 -2.587,-2.866 -2.686,-2.866 -2.785,-2.866 -2.884,-2.866 -2.983,-2.866 
	-3.082,-2.866 -3.181,-2.866 -3.28,-2.866 -3.379,-2.866 -3.408,-2.934 -3.406,-3.033 -3.404,-3.131 -3.401,-3.23 -3.399,-3.329 
	-3.396,-3.428 -3.394,-3.527 -3.391,-3.626 -3.389,-3.725 -3.386,-3.824 -3.384,-3.923 -3.382,-4.021 -3.379,-4.121 -3.377,-4.219 
	"/>
<polygon fill="none" stroke="#000000" stroke-linecap="round" stroke-linejoin="round" points="-3.41,-2.866 -3.41,-2.458 
	-3.403,-2.049 -3.383,-1.642 -3.349,-1.235 -3.3,-0.829 -3.236,-0.426 -3.156,-0.025 -3.06,0.372 -2.947,0.764 -2.817,1.151 
	-2.667,1.531 -2.5,1.903 -2.312,2.266 -2.104,2.618 -1.876,2.956 -1.626,3.279 -1.356,3.585 -1.065,3.872 -0.754,4.137 
	-0.424,4.376 -0.076,4.59 0.289,4.774 0.667,4.929 1.056,5.051 1.454,5.142 1.858,5.201 2.265,5.229 2.674,5.228 3.082,5.203 
	3.486,5.149 3.885,5.064 4.277,4.948 4.659,4.804 5.032,4.638 5.397,4.455 5.755,4.259 6.108,4.054 6.458,3.841 6.803,3.624 
	7.035,3.82 7.221,4.183 7.408,4.546 7.586,4.907 7.231,5.109 6.875,5.308 6.515,5.502 6.153,5.691 5.788,5.874 5.418,6.048 
	5.044,6.212 4.665,6.363 4.28,6.498 3.888,6.615 3.492,6.712 3.09,6.788 2.686,6.842 2.279,6.877 1.871,6.896 1.462,6.901 
	1.054,6.89 0.647,6.86 0.242,6.811 -0.161,6.741 -0.559,6.65 -0.952,6.539 -1.338,6.406 -1.716,6.253 -2.086,6.08 -2.445,5.885 
	-2.793,5.671 -3.128,5.438 -3.45,5.187 -3.757,4.917 -4.049,4.632 -4.324,4.331 -4.583,4.015 -4.825,3.686 -5.05,3.345 
	-5.256,2.993 -5.445,2.63 -5.616,2.26 -5.769,1.881 -5.905,1.496 -6.023,1.105 -6.124,0.709 -6.208,0.31 -6.275,-0.093 
	-6.326,-0.499 -6.362,-0.905 -6.382,-1.313 -6.388,-1.721 -6.379,-2.13 -6.355,-2.538 -6.316,-2.944 -6.262,-3.349 -6.192,-3.751 
	-6.107,-4.15 -6.005,-4.546 -5.886,-4.937 -5.751,-5.322 -5.599,-5.701 -5.43,-6.073 -5.243,-6.436 -5.04,-6.79 -4.82,-7.134 
	-4.583,-7.466 -4.329,-7.787 -4.059,-8.093 -3.773,-8.384 -3.472,-8.66 -3.156,-8.919 -2.826,-9.16 -2.484,-9.382 -2.129,-9.585 
	-1.764,-9.767 -1.389,-9.929 -1.005,-10.069 -0.615,-10.187 -0.218,-10.284 0.184,-10.358 0.588,-10.412 0.996,-10.444 
	1.404,-10.455 1.812,-10.445 2.219,-10.416 2.625,-10.365 3.027,-10.293 3.423,-10.198 3.814,-10.079 4.197,-9.937 4.57,-9.771 
	4.932,-9.581 5.28,-9.367 5.612,-9.13 5.927,-8.871 6.224,-8.59 6.5,-8.29 6.755,-7.97 6.987,-7.634 7.196,-7.283 7.381,-6.919 
	7.542,-6.544 7.679,-6.16 7.792,-5.767 7.883,-5.369 7.951,-4.966 7.997,-4.561 8.022,-4.153 8.027,-3.745 8.027,-3.336 
	8.027,-2.928 7.68,-2.866 7.272,-2.866 6.864,-2.866 6.456,-2.866 6.047,-2.866 5.638,-2.866 5.23,-2.866 5.049,-3.094 
	5.049,-3.502 5.049,-3.911 5.049,-4.319 5.049,-4.728 5.049,-5.136 5.036,-5.544 4.986,-5.949 4.897,-6.348 4.768,-6.735 
	4.597,-7.106 4.386,-7.455 4.134,-7.776 3.846,-8.065 3.524,-8.316 3.174,-8.526 2.801,-8.693 2.412,-8.814 2.011,-8.892 
	1.604,-8.927 1.196,-8.924 0.789,-8.891 0.386,-8.826 -0.01,-8.729 -0.397,-8.598 -0.771,-8.432 -1.126,-8.233 -1.462,-8.001 
	-1.775,-7.738 -2.062,-7.448 -2.321,-7.132 -2.552,-6.795 -2.753,-6.44 -2.927,-6.07 -3.072,-5.689 -3.19,-5.298 -3.283,-4.9 
	-3.351,-4.498 -3.38,-4.091 -3.39,-3.683 -3.4,-3.274 "/>
<polygon fill="none" stroke="#000000" stroke-linecap="round" stroke-linejoin="round" points="-14.81,2.036 -14.689,1.718 
	-14.569,1.401 -14.448,1.083 -14.328,0.766 -14.207,0.448 -14.087,0.13 -13.966,-0.187 -13.845,-0.504 -13.725,-0.822 
	-13.604,-1.14 -13.484,-1.457 -13.363,-1.774 -13.243,-2.092 -13.122,-2.41 -13.002,-2.728 -12.881,-3.045 -12.76,-3.362 
	-12.64,-3.68 -12.519,-3.998 -12.399,-4.315 -12.278,-4.633 -12.158,-4.95 -12.037,-5.268 -11.917,-5.585 -11.796,-5.903 
	-11.676,-6.22 -11.555,-6.538 -11.434,-6.855 -11.314,-7.173 -11.193,-7.491 -11.073,-7.808 -10.952,-8.125 -10.832,-8.443 
	-10.834,-8.675 -11.174,-8.675 -11.514,-8.675 -11.854,-8.675 -12.193,-8.675 -12.533,-8.675 -12.873,-8.675 -13.176,-8.712 
	-13.176,-9.051 -13.176,-9.391 -13.176,-9.731 -13.124,-10.019 -12.784,-10.019 -12.445,-10.019 -12.105,-10.019 -11.765,-10.019 
	-11.426,-10.019 -11.086,-10.019 -10.747,-10.019 -10.407,-10.019 -10.067,-10.019 -9.728,-10.019 -9.388,-10.019 -9.048,-10.019 
	-8.708,-10.019 -8.369,-10.019 -8.029,-10.019 -7.689,-10.019 -7.584,-9.785 -7.584,-9.445 -7.584,-9.105 -7.584,-8.766 
	-7.834,-8.675 -8.173,-8.675 -8.513,-8.675 -8.853,-8.675 -9.139,-8.598 -9.261,-8.281 -9.383,-7.963 -9.505,-7.646 -9.627,-7.33 
	-9.749,-7.013 -9.871,-6.696 -9.993,-6.378 -10.115,-6.062 -10.237,-5.745 -10.359,-5.428 -10.481,-5.111 -10.603,-4.794 
	-10.725,-4.477 -10.847,-4.16 -10.969,-3.843 -11.092,-3.526 -11.213,-3.208 -11.335,-2.892 -11.458,-2.575 -11.58,-2.258 
	-11.702,-1.941 -11.824,-1.624 -11.946,-1.307 -12.068,-0.99 -12.19,-0.673 -12.312,-0.356 -12.434,-0.039 -12.556,0.278 
	-12.678,0.595 -12.8,0.912 -12.922,1.229 -13.044,1.546 -13.166,1.863 -13.288,2.18 -13.41,2.497 -13.532,2.814 -13.654,3.131 
	-13.776,3.448 -13.898,3.765 -14.02,4.082 -14.142,4.399 -14.264,4.716 -14.386,5.033 -14.508,5.35 -14.63,5.667 -14.752,5.984 
	-14.874,6.301 -14.996,6.618 -15.118,6.935 -15.24,7.252 -15.364,7.568 -15.491,7.883 -15.623,8.196 -15.758,8.508 -15.896,8.818 
	-16.037,9.127 -16.181,9.435 -16.327,9.741 -16.477,10.046 -16.629,10.35 -16.785,10.652 -16.942,10.953 -17.103,11.252 
	-17.266,11.55 -17.433,11.846 -17.602,12.141 -17.774,12.433 -17.95,12.724 -18.129,13.013 -18.312,13.299 -18.499,13.582 
	-18.694,13.86 -18.896,14.133 -19.098,14.406 -19.299,14.68 -19.501,14.953 -19.703,15.226 -19.906,15.499 -20.115,15.683 
	-20.352,15.439 -20.588,15.195 -20.825,14.952 -21.061,14.708 -21.298,14.464 -21.534,14.22 -21.771,13.976 -22.007,13.732 
	-22.244,13.489 -22.378,13.26 -22.083,13.092 -21.789,12.921 -21.498,12.747 -21.209,12.568 -20.924,12.383 -20.645,12.19 
	-20.372,11.988 -20.107,11.775 -19.852,11.55 -19.608,11.314 -19.373,11.069 -19.147,10.815 -18.929,10.555 -18.717,10.29 
	-18.51,10.02 -18.31,9.746 -18.114,9.469 -17.924,9.187 -17.742,8.9 -17.569,8.608 -17.404,8.311 -17.247,8.01 -17.097,7.705 
	-16.954,7.397 -16.816,7.086 -16.682,6.774 -16.552,6.461 -16.424,6.146 -16.298,5.831 -16.174,5.514 -16.05,5.198 -15.926,4.882 
	-15.802,4.566 -15.678,4.25 -15.554,3.933 -15.43,3.617 -15.306,3.301 -15.182,2.984 -15.058,2.668 -14.934,2.352 "/>
<polygon fill="none" stroke="#000000" stroke-linecap="round" stroke-linejoin="round" points="-14.81,2.036 -14.892,2.245 
	-14.974,2.455 -15.056,2.664 -15.138,2.873 -15.22,3.082 -15.302,3.292 -15.384,3.501 -15.467,3.71 -15.548,3.919 -15.631,4.129 
	-15.713,4.338 -15.794,4.547 -15.877,4.756 -15.959,4.966 -16.041,5.175 -16.123,5.384 -16.205,5.594 -16.288,5.676 -16.373,5.468 
	-16.458,5.259 -16.542,5.051 -16.627,4.843 -16.712,4.635 -16.797,4.427 -16.882,4.219 -16.967,4.011 -17.052,3.803 -17.137,3.594 
	-17.222,3.386 -17.307,3.178 -17.392,2.97 -17.477,2.762 -17.562,2.554 -17.647,2.346 -17.731,2.138 -17.817,1.93 -17.901,1.722 
	-17.986,1.513 -18.071,1.305 -18.156,1.097 -18.241,0.889 -18.326,0.681 -18.411,0.473 -18.496,0.265 -18.581,0.057 -18.666,-0.152 
	-18.751,-0.36 -18.836,-0.568 -18.921,-0.776 -19.006,-0.984 -19.091,-1.192 -19.176,-1.4 -19.26,-1.608 -19.345,-1.816 
	-19.43,-2.025 -19.515,-2.233 -19.6,-2.441 -19.685,-2.649 -19.77,-2.857 -19.855,-3.065 -19.94,-3.273 -20.025,-3.481 
	-20.11,-3.689 -20.195,-3.898 -20.28,-4.106 -20.365,-4.314 -20.449,-4.522 -20.534,-4.73 -20.619,-4.938 -20.704,-5.146 
	-20.789,-5.354 -20.874,-5.563 -20.959,-5.771 -21.044,-5.979 -21.129,-6.187 -21.214,-6.395 -21.299,-6.604 -21.384,-6.812 
	-21.469,-7.02 -21.553,-7.228 -21.639,-7.436 -21.723,-7.644 -21.808,-7.852 -21.893,-8.06 -21.978,-8.268 -22.063,-8.477 
	-22.154,-8.675 -22.379,-8.675 -22.604,-8.675 -22.829,-8.675 -23.053,-8.675 -23.278,-8.675 -23.503,-8.675 -23.669,-8.734 
	-23.669,-8.958 -23.669,-9.184 -23.669,-9.408 -23.669,-9.633 -23.669,-9.858 -23.605,-10.019 -23.381,-10.019 -23.156,-10.019 
	-22.931,-10.019 -22.706,-10.019 -22.481,-10.019 -22.257,-10.019 -22.032,-10.019 -21.807,-10.019 -21.582,-10.019 
	-21.358,-10.019 -21.133,-10.019 -20.908,-10.019 -20.683,-10.019 -20.458,-10.019 -20.234,-10.019 -20.009,-10.019 
	-19.784,-10.019 -19.559,-10.019 -19.334,-10.019 -19.11,-10.019 -18.885,-10.019 -18.66,-10.019 -18.436,-10.019 -18.211,-10.019 
	-17.986,-10.019 -17.761,-10.019 -17.536,-10.019 -17.312,-10.019 -17.087,-10.019 -16.862,-10.019 -16.637,-10.019 -16.625,-9.806 
	-16.625,-9.581 -16.625,-9.356 -16.625,-9.131 -16.625,-8.907 -16.625,-8.682 -16.844,-8.675 -17.069,-8.675 -17.293,-8.675 
	-17.518,-8.675 -17.743,-8.675 -17.968,-8.675 -18.192,-8.675 -18.417,-8.675 -18.642,-8.675 -18.867,-8.675 -19.092,-8.675 
	-19.16,-8.571 -19.075,-8.363 -18.99,-8.155 -18.904,-7.947 -18.819,-7.739 -18.734,-7.531 -18.648,-7.323 -18.563,-7.115 
	-18.478,-6.907 -18.392,-6.699 -18.307,-6.491 -18.222,-6.283 -18.137,-6.075 -18.051,-5.867 -17.966,-5.659 -17.881,-5.451 
	-17.795,-5.243 -17.71,-5.035 -17.625,-4.827 -17.54,-4.619 -17.454,-4.411 -17.369,-4.203 -17.284,-3.995 -17.198,-3.787 
	-17.113,-3.579 -17.028,-3.371 -16.942,-3.164 -16.857,-2.956 -16.772,-2.748 -16.687,-2.54 -16.601,-2.332 -16.516,-2.124 
	-16.431,-1.916 -16.345,-1.708 -16.26,-1.5 -16.175,-1.292 -16.09,-1.083 -16.004,-0.875 -15.919,-0.668 -15.834,-0.46 
	-15.748,-0.252 -15.663,-0.044 -15.578,0.164 -15.492,0.372 -15.407,0.58 -15.322,0.788 -15.237,0.996 -15.151,1.204 -15.066,1.412 
	-14.981,1.62 -14.895,1.828 "/>
<polygon fill="none" stroke="#000000" stroke-linecap="round" stroke-linejoin="round" points="-3.41,-2.866 -3.41,-2.458 
	-3.403,-2.049 -3.383,-1.642 -3.349,-1.235 -3.3,-0.829 -3.236,-0.426 -3.156,-0.025 -3.06,0.372 -2.947,0.764 -2.817,1.151 
	-2.667,1.531 -2.5,1.903 -2.312,2.266 -2.104,2.618 -1.876,2.956 -1.626,3.279 -1.356,3.585 -1.065,3.872 -0.754,4.137 
	-0.424,4.376 -0.076,4.59 0.289,4.774 0.667,4.929 1.056,5.051 1.454,5.142 1.858,5.201 2.265,5.229 2.674,5.228 3.082,5.203 
	3.486,5.149 3.885,5.064 4.277,4.948 4.659,4.804 5.032,4.638 5.397,4.455 5.755,4.259 6.108,4.054 6.458,3.841 6.803,3.624 
	7.035,3.82 7.221,4.183 7.408,4.546 7.586,4.907 7.231,5.109 6.875,5.308 6.515,5.502 6.153,5.691 5.788,5.874 5.418,6.048 
	5.044,6.212 4.665,6.363 4.28,6.498 3.888,6.615 3.492,6.712 3.09,6.788 2.686,6.842 2.279,6.877 1.871,6.896 1.462,6.901 
	1.054,6.89 0.647,6.86 0.242,6.811 -0.161,6.741 -0.559,6.65 -0.952,6.539 -1.338,6.406 -1.716,6.253 -2.086,6.08 -2.445,5.885 
	-2.793,5.671 -3.128,5.438 -3.45,5.187 -3.757,4.917 -4.049,4.632 -4.324,4.331 -4.583,4.015 -4.825,3.686 -5.05,3.345 
	-5.256,2.993 -5.445,2.63 -5.616,2.26 -5.769,1.881 -5.905,1.496 -6.023,1.105 -6.124,0.709 -6.208,0.31 -6.275,-0.093 
	-6.326,-0.499 -6.362,-0.905 -6.382,-1.313 -6.388,-1.721 -6.379,-2.13 -6.355,-2.538 -6.316,-2.944 -6.262,-3.349 -6.192,-3.751 
	-6.107,-4.15 -6.005,-4.546 -5.886,-4.937 -5.751,-5.322 -5.599,-5.701 -5.43,-6.073 -5.243,-6.436 -5.04,-6.79 -4.82,-7.134 
	-4.583,-7.466 -4.329,-7.787 -4.059,-8.093 -3.773,-8.384 -3.472,-8.66 -3.156,-8.919 -2.826,-9.16 -2.484,-9.382 -2.129,-9.585 
	-1.764,-9.767 -1.389,-9.929 -1.005,-10.069 -0.615,-10.187 -0.218,-10.284 0.184,-10.358 0.588,-10.412 0.996,-10.444 
	1.404,-10.455 1.812,-10.445 2.219,-10.416 2.625,-10.365 3.027,-10.293 3.423,-10.198 3.814,-10.079 4.197,-9.937 4.57,-9.771 
	4.932,-9.581 5.28,-9.367 5.612,-9.13 5.927,-8.871 6.224,-8.59 6.5,-8.29 6.755,-7.97 6.987,-7.634 7.196,-7.283 7.381,-6.919 
	7.542,-6.544 7.679,-6.16 7.792,-5.767 7.883,-5.369 7.951,-4.966 7.997,-4.561 8.022,-4.153 8.027,-3.745 8.027,-3.336 
	8.027,-2.928 7.68,-2.866 7.272,-2.866 6.864,-2.866 6.456,-2.866 6.047,-2.866 5.638,-2.866 5.23,-2.866 5.049,-3.094 
	5.049,-3.502 5.049,-3.911 5.049,-4.319 5.049,-4.728 5.049,-5.136 5.036,-5.544 4.986,-5.949 4.897,-6.348 4.768,-6.735 
	4.597,-7.106 4.386,-7.455 4.134,-7.776 3.846,-8.065 3.524,-8.316 3.174,-8.526 2.801,-8.693 2.412,-8.814 2.011,-8.892 
	1.604,-8.927 1.196,-8.924 0.789,-8.891 0.386,-8.826 -0.01,-8.729 -0.397,-8.598 -0.771,-8.432 -1.126,-8.233 -1.462,-8.001 
	-1.775,-7.738 -2.062,-7.448 -2.321,-7.132 -2.552,-6.795 -2.753,-6.44 -2.927,-6.07 -3.072,-5.689 -3.19,-5.298 -3.283,-4.9 
	-3.351,-4.498 -3.38,-4.091 -3.39,-3.683 -3.4,-3.274 "/>
</svg>
