<?xml version="1.0"?>
<!DOCTYPE svg PUBLIC "-//W3C//DTD SVG 1.1//EN"
 "http://www.w3.org/Graphics/SVG/1.1/DTD/svg11.dtd">
 
<svg xmlns="http://www.w3.org/2000/svg" version = "1.1"
      preserveAspectRatio = "xMinYMin meet" viewBox = "0 0 150 150">
 <path d= "M0.1943468900,0.5266721500 
L 0.5618167700,0.5266721500
L 0.5114714600,0.5266721500
L 0.4611261500,0.5266721500
L 0.4413348400,0.4961181600
L 0.4413348400,0.4457728600
L 0.4413348400,0.3954275500
L 0.4413348400,0.3450822400
L 0.4413348400,0.2947369400
L 0.4413348400,0.2443916300
L 0.4413348400,0.1940463300
L 0.4413348400,0.1437010200
L 0.4413348400,0.0933557100
L 0.4413348400,0.0430104100
L 0.4413348400,-0.0073349000
L 0.4413348400,-0.0576802000
L 0.4413348400,-0.1080255100
L 0.4413348400,-0.1583708200
L 0.4413348400,-0.2087161200
L 0.4346071500,-0.2450389600
L 0.3951429100,-0.2137803200
L 0.3544435200,-0.1841562200
L 0.3113210800,-0.1583285000
L 0.2661086800,-0.1361830900
L 0.2201800200,-0.1155773400
L 0.1943468900,-0.1285969500
L 0.1943468900,-0.1789422600
L 0.2022163100,-0.2246245200
L 0.2460241700,-0.2494308100
L 0.2888928300,-0.2758219700
L 0.3302735200,-0.3044832100
L 0.3695543800,-0.3359542700
L 0.4076584600,-0.3688311600
L 0.4418069100,-0.4057764600
L 0.4703631500,-0.4471767400
L 0.5045653400,-0.4733278500
L 0.5549106400,-0.4733278500
L 0.5618167700,-0.4298886600
L 0.5618167700,-0.3795433600
L 0.5618167700,-0.3291980500
L 0.5618167700,-0.2788527400
L 0.5618167700,-0.2285074400
L 0.5618167700,-0.1781621300
L 0.5618167700,-0.1278168300
L 0.5618167700,-0.0774715200
L 0.5618167700,-0.0271262100
L 0.5618167700,0.0232190900
L 0.5618167700,0.0735644000
L 0.5618167700,0.1239097000
L 0.5618167700,0.1742550100
L 0.5618167700,0.2246003200
L 0.5618167700,0.2749456200
L 0.5618167700,0.3252909300
L 0.5618167700,0.3756362300
L 0.5618167700,0.4259815400
L 0.5618167700,0.4763268500
L 0.5618167700,0.526672150
 " stroke = "black" stroke-width = ".1" fill = "none" />
</svg>