<?xml version="1.0"?>
<!DOCTYPE svg PUBLIC "-//W3C//DTD SVG 1.1//EN"
 "http://www.w3.org/Graphics/SVG/1.1/DTD/svg11.dtd">
 
<svg xmlns="http://www.w3.org/2000/svg" version = "1.1"
      preserveAspectRatio = "xMinYMin meet" viewBox = "0 0 150 150">
 <path d= "M-0.6912791800,0.5261293900 
L -0.0478903100,0.4056474600
L -0.0478903100,0.4905219900
L -0.0971574500,0.5261293900
L -0.1820319800,0.5261293900
L -0.2669065100,0.5261293900
L -0.3517810400,0.5261293900
L -0.4366555800,0.5261293900
L -0.5215301100,0.5261293900
L -0.6064046400,0.5261293900
L -0.6912791800,0.5261293900
L -0.6882745100,0.4493175200
L -0.6534330400,0.3721936000
L -0.6037375600,0.3035168800
L -0.5462907900,0.2411385700
L -0.4829113500,0.1847085300
L -0.4178513800,0.1302053400
L -0.3543886400,0.0738544900
L -0.2933945200,0.0148477300
L -0.2365919100,-0.0481777400
L -0.1883682100,-0.1177202800
L -0.1684000700,-0.1995144000
L -0.1888286900,-0.2807487600
L -0.2471750600,-0.3411641800
L -0.3265562100,-0.3692726600
L -0.4110379600,-0.3667973900
L -0.4879859700,-0.3327947500
L -0.5406167400,-0.2672773100
L -0.5594494900,-0.1850376800
L -0.6256728800,-0.1765018600
L -0.6775430700,-0.2140814900
L -0.6560204600,-0.2959409900
L -0.6131795600,-0.3688926000
L -0.5511512800,-0.4260769500
L -0.4733807400,-0.4593228900
L -0.3897278400,-0.4727850800
L -0.3050113800,-0.4706925900
L -0.2228866900,-0.4500872300
L -0.1488340300,-0.4091816500
L -0.0921140300,-0.3466178200
L -0.0573092300,-0.2696016100
L -0.0480839100,-0.1855502300
L -0.0633362100,-0.1024123200
L -0.1013822900,-0.0266915500
L -0.1526509700,0.0408495800
L -0.2119355800,0.1015503700
L -0.2746597600,0.1587217800
L -0.3387137900,0.2144039700
L -0.4016148500,0.2713868600
L -0.4658073900,0.3269024800
L -0.5249002700,0.3874011700
L -0.4722629700,0.4056474600
L -0.3873884400,0.4056474600
L -0.3025139100,0.4056474600
L -0.2176393700,0.4056474600
L -0.1327648400,0.4056474600
L -0.0478903100,0.405647460
 " stroke = "black" stroke-width = ".1" fill = "none" />
</svg>