<?xml version="1.0"?>
<!DOCTYPE svg PUBLIC "-//W3C//DTD SVG 1.1//EN"
 "http://www.w3.org/Graphics/SVG/1.1/DTD/svg11.dtd">
 
<svg xmlns="http://www.w3.org/2000/svg" version = "1.1"
      preserveAspectRatio = "xMinYMin meet" viewBox = "0 0 150 150">
 <path d= "M0.0563873900,0.5261293900 
L 0.6997762600,0.4056474600
L 0.6997762600,0.4905219900
L 0.6505091200,0.5261293900
L 0.5656345900,0.5261293900
L 0.4807600600,0.5261293900
L 0.3958855200,0.5261293900
L 0.3110109900,0.5261293900
L 0.2261364600,0.5261293900
L 0.1412619200,0.5261293900
L 0.0563873900,0.5261293900
L 0.0593920600,0.4493175200
L 0.0942335300,0.3721936000
L 0.1439290100,0.3035168800
L 0.2013757800,0.2411385700
L 0.2647552200,0.1847085300
L 0.3298151900,0.1302053400
L 0.3932779300,0.0738544900
L 0.4542720400,0.0148477300
L 0.5110746500,-0.0481777400
L 0.5592983600,-0.1177202800
L 0.5792665000,-0.1995144000
L 0.5588378800,-0.2807487600
L 0.5004915100,-0.3411641800
L 0.4211103500,-0.3692726600
L 0.3366286100,-0.3667973900
L 0.2596806000,-0.3327947500
L 0.2070498300,-0.2672773100
L 0.1882170800,-0.1850376800
L 0.1219936900,-0.1765018600
L 0.0701235000,-0.2140814900
L 0.0916461000,-0.2959409900
L 0.1344870100,-0.3688926000
L 0.1965152900,-0.4260769500
L 0.2742858300,-0.4593228900
L 0.3579387200,-0.4727850800
L 0.4426551900,-0.4706925900
L 0.5247798800,-0.4500872300
L 0.5988325400,-0.4091816500
L 0.6555525400,-0.3466178200
L 0.6903573300,-0.2696016100
L 0.6995826600,-0.1855502300
L 0.6843303600,-0.1024123200
L 0.6462842800,-0.0266915500
L 0.5950156000,0.0408495800
L 0.5357309800,0.1015503700
L 0.4730068100,0.1587217800
L 0.4089527800,0.2144039700
L 0.3460517200,0.2713868600
L 0.2818591800,0.3269024800
L 0.2227663000,0.3874011700
L 0.2754036000,0.4056474600
L 0.3602781300,0.4056474600
L 0.4451526600,0.4056474600
L 0.5300271900,0.4056474600
L 0.6149017300,0.4056474600
L 0.6997762600,0.405647460
 " stroke = "black" stroke-width = ".1" fill = "none" />
</svg>