<?xml version="1.0"?>
<!DOCTYPE svg PUBLIC "-//W3C//DTD SVG 1.1//EN"
 "http://www.w3.org/Graphics/SVG/1.1/DTD/svg11.dtd">
 
<svg xmlns="http://www.w3.org/2000/svg" version = "1.1"
      preserveAspectRatio = "xMinYMin meet" viewBox = "0 0 150 150">
 <path d= "M0.0231169100,0.5446977600 
L 0.0231169100,0.5446977600
L 0.0855889700,0.5446977600
L 0.1480610300,0.5446977600
L 0.2105330900,0.5446977600
L 0.2730051500,0.5446977600
L 0.3354772100,0.5446977600
L 0.3979492600,0.5446977600
L 0.4604213200,0.5446977600
L 0.5228933800,0.5446977600
L 0.5853654400,0.5446977600
L 0.6478375000,0.5446977600
L 0.7103095600,0.5446977600
L 0.7236308100,0.4955469500
L 0.7236308100,0.4330748900
L 0.7236308100,0.3706028400
L 0.7236308100,0.3081307800
L 0.7236308100,0.2456587200
L 0.7236308100,0.1831866600
L 0.7236308100,0.1207146000
L 0.7236308100,0.0582425400
L 0.7236308100,-0.0042295200
L 0.7236308100,-0.0667015800
L 0.7236308100,-0.1291736400
L 0.7236308100,-0.1916456900
L 0.7236308100,-0.2541177500
L 0.7236308100,-0.3165898100
L 0.7236308100,-0.3790618700
L 0.7236308100,-0.4415339300
L 0.6923947800,-0.4727699600
L 0.6299227200,-0.4727699600
L 0.5674506600,-0.4727699600
L 0.5049786000,-0.4727699600
L 0.4425065400,-0.4727699600
L 0.3800344800,-0.4727699600
L 0.3175624200,-0.4727699600
L 0.2550903600,-0.4727699600
L 0.1926183100,-0.4727699600
L 0.1301462500,-0.4727699600
L 0.0676741900,-0.4727699600
L 0.0231169100,-0.4548551800
L 0.0231169100,-0.3923831200
L 0.0231169100,-0.3299110600
L 0.0231169100,-0.2674390000
L 0.0231169100,-0.2049669400
L 0.0231169100,-0.1424948800
L 0.0231169100,-0.0800228200
L 0.0231169100,-0.0175507700
L 0.0231169100,0.0449212900
L 0.0231169100,0.1073933500
L 0.0231169100,0.1698654100
L 0.0231169100,0.2323374700
L 0.0231169100,0.2948095300
L 0.0231169100,0.3572815900
L 0.0231169100,0.4197536500
L 0.0231169100,0.4822257100
L 0.0231169100,0.544697760
 " stroke = "black" stroke-width = ".1" fill = "none" />
</svg>