<?xml version="1.0"?>
<!DOCTYPE svg PUBLIC "-//W3C//DTD SVG 1.1//EN"
 "http://www.w3.org/Graphics/SVG/1.1/DTD/svg11.dtd">
 
<svg xmlns="http://www.w3.org/2000/svg" version = "1.1"
      preserveAspectRatio = "xMinYMin meet" viewBox = "0 0 150 150">
 <path d= "M-0.2012,-0.4754 
L 1.3542,-5.2285
L 1.3542,-5.0347
L 1.3542,-4.8408
L 1.3542,-4.6469
L 1.3542,-4.4531
L 1.3542,-4.2592
L 1.3542,-4.0653
L 1.3542,-3.8714
L 1.3542,-3.6776
L 1.3542,-3.4837
L 1.3542,-3.2898
L 1.3542,-3.096
L 1.3542,-2.9021
L 1.3542,-2.7082
L 1.3364,-2.5202
L 1.2215,-2.364
L 1.1067,-2.2079
L 0.9918,-2.0517
L 0.8769,-1.8955
L 0.762,-1.7393
L 0.6472,-1.5832
L 0.5323,-1.427
L 0.4174,-1.2708
L 0.3026,-1.1147
L 0.1877,-0.9585
L 0.0728,-0.8023
L -0.0421,-0.6461
L -0.1569,-0.49
L -0.2012,-0.4754
L -0.1552,-0.6637
L -0.1214,-0.8546
L -0.0984,-1.0471
L -0.0852,-1.2405
L -0.0806,-1.4343
L -0.0806,-1.6281
L -0.0806,-1.822
L -0.0806,-2.0159
L -0.0806,-2.2097
L -0.0806,-2.4036
L -0.0806,-2.5975
L -0.0806,-2.7913
L -0.0806,-2.9852
L -0.0806,-3.1791
L -0.0243,-3.3545
L 0.0906,-3.5106
L 0.2055,-3.6668
L 0.3204,-3.823
L 0.4352,-3.9791
L 0.5501,-4.1353
L 0.665,-4.2915
L 0.7798,-4.4477
L 0.8947,-4.6038
L 1.0096,-4.76
L 1.1244,-4.9162
L 1.2393,-5.0724
L 1.3542,-5.228
 " stroke = "black" stroke-width = ".1" fill = "none" />
</svg>