<?xml version="1.0"?>
<!DOCTYPE svg PUBLIC "-//W3C//DTD SVG 1.1//EN"
 "http://www.w3.org/Graphics/SVG/1.1/DTD/svg11.dtd">
 
<svg xmlns="http://www.w3.org/2000/svg" version = "1.1"
      preserveAspectRatio = "xMinYMin meet" viewBox = "0 0 150 150">
 <path d= "M-4.15,2.4895 
L -3.2388,1.0158
L -3.0944,1.0333
L -2.9494,1.0452
L -2.8041,1.0523
L -2.6587,1.0547
L -2.5132,1.0539
L -2.3679,1.0488
L -2.2227,1.039
L -2.0781,1.0239
L -1.9341,1.0031
L -1.7912,0.976
L -1.6497,0.9421
L -1.5103,0.9009
L -1.3734,0.8516
L -1.2399,0.7939
L -1.1107,0.7272
L -1.0191,0.6822
L -1.1053,0.7994
L -1.1915,0.9165
L -1.2777,1.0337
L -1.3638,1.1509
L -1.45,1.2681
L -1.5362,1.3853
L -1.6224,1.5024
L -1.7086,1.6196
L -1.7948,1.7368
L -1.881,1.854
L -1.9672,1.9712
L -2.0534,2.0883
L -2.1396,2.2055
L -2.2257,2.3227
L -2.3119,2.4399
L -2.4323,2.4895
L -2.5778,2.4895
L -2.7233,2.4895
L -2.8687,2.4895
L -3.0142,2.4895
L -3.1597,2.4895
L -3.3051,2.4883
L -3.4503,2.4798
L -3.5947,2.4625
L -3.7377,2.4358
L -3.8784,2.3992
L -4.0162,2.3525
L -4.15,2.2956
L -4.1007,2.1876
L -4.0145,2.0705
L -3.9283,1.9533
L -3.8421,1.8361
L -3.7559,1.7189
L -3.6697,1.6017
L -3.5835,1.4846
L -3.4973,1.3674
L -3.4112,1.2502
L -3.325,1.133
L -3.2388,1.015
 " stroke = "black" stroke-width = ".1" fill = "none" />
</svg>