<?xml version="1.0"?>
<!DOCTYPE svg PUBLIC "-//W3C//DTD SVG 1.1//EN"
 "http://www.w3.org/Graphics/SVG/1.1/DTD/svg11.dtd">
 
<svg xmlns="http://www.w3.org/2000/svg" version = "1.1"
      preserveAspectRatio = "xMinYMin meet" viewBox = "0 0 150 150">
 <path d= "M-6.4637,1.5258 
L -5.6383,-1.0901
L -5.5701,-0.996
L -5.5019,-0.9019
L -5.4337,-0.8077
L -5.3656,-0.7136
L -5.2974,-0.6195
L -5.2292,-0.5253
L -5.161,-0.4312
L -5.0928,-0.337
L -5.0246,-0.2429
L -4.9565,-0.1488
L -4.8883,-0.0546
L -4.8201,0.0395
L -4.7469,0.1297
L -4.6705,0.2173
L -4.6928,0.3086
L -4.7617,0.4022
L -4.8306,0.4959
L -4.8995,0.5895
L -4.9683,0.6831
L -5.0372,0.7768
L -5.1061,0.8704
L -5.1749,0.964
L -5.2438,1.0577
L -5.3127,1.1513
L -5.3816,1.2449
L -5.4504,1.3386
L -5.5193,1.4322
L -5.5882,1.5258
L -5.6274,1.4222
L -5.6696,1.3139
L -5.7155,1.2071
L -5.765,1.102
L -5.8177,0.9984
L -5.8734,0.8964
L -5.932,0.796
L -5.9932,0.6971
L -6.0568,0.5999
L -6.1227,0.5041
L -6.1907,0.4098
L -6.2591,0.3159
L -6.3273,0.2217
L -6.3955,0.1276
L -6.4637,0.0335
L -6.3959,-0.0602
L -6.327,-0.1538
L -6.2581,-0.2474
L -6.1893,-0.3411
L -6.1204,-0.4347
L -6.0515,-0.5283
L -5.9827,-0.622
L -5.9138,-0.7156
L -5.8449,-0.8092
L -5.776,-0.9029
L -5.7072,-0.9965
L -5.6383,-1.090
 " stroke = "black" stroke-width = ".1" fill = "none" />
</svg>