<?xml version="1.0"?>
<!DOCTYPE svg PUBLIC "-//W3C//DTD SVG 1.1//EN"
 "http://www.w3.org/Graphics/SVG/1.1/DTD/svg11.dtd">
 
<svg xmlns="http://www.w3.org/2000/svg" version = "1.1"
      preserveAspectRatio = "xMinYMin meet" viewBox = "0 0 150 150">
 <path d= "M-16.4174,4.2311 
L -15.3992,1.4438
L -15.368,1.5625
L -15.333,1.6801
L -15.294,1.7965
L -15.2511,1.9115
L -15.2042,2.0249
L -15.1533,2.1366
L -15.0985,2.2464
L -15.0399,2.3542
L -14.9773,2.4598
L -14.9111,2.5632
L -14.8412,2.6641
L -14.7678,2.7625
L -14.6911,2.8582
L -14.611,2.9513
L -14.6032,3.0457
L -14.6759,3.1446
L -14.7486,3.2434
L -14.8214,3.3423
L -14.8941,3.4412
L -14.9668,3.5401
L -15.0395,3.6389
L -15.1123,3.7378
L -15.185,3.8367
L -15.2577,3.9356
L -15.3304,4.0344
L -15.4032,4.1333
L -15.476,4.2311
L -15.5649,4.1464
L -15.6505,4.0585
L -15.7326,3.9673
L -15.8111,3.8729
L -15.8857,3.7755
L -15.9578,3.6761
L -16.0276,3.5751
L -16.095,3.4725
L -16.1599,3.3684
L -16.2222,3.2626
L -16.2819,3.1554
L -16.3389,3.0467
L -16.3931,2.9366
L -16.4174,2.828
L -16.3446,2.7291
L -16.2719,2.6303
L -16.1992,2.5314
L -16.1264,2.4325
L -16.0537,2.3336
L -15.981,2.2348
L -15.9083,2.1359
L -15.8355,2.037
L -15.7628,1.9381
L -15.6901,1.8393
L -15.6174,1.7404
L -15.5446,1.6415
L -15.4719,1.5426
L -15.3992,1.443
 " stroke = "black" stroke-width = ".1" fill = "none" />
</svg>