<?xml version="1.0"?>
<!DOCTYPE svg PUBLIC "-//W3C//DTD SVG 1.1//EN"
 "http://www.w3.org/Graphics/SVG/1.1/DTD/svg11.dtd">
 
<svg xmlns="http://www.w3.org/2000/svg" version = "1.1"
      preserveAspectRatio = "xMinYMin meet" viewBox = "0 0 150 150">
 <path d= "M-0.0806,-6.0368 
L 1.3542,-10.5968
L 1.3542,-10.4111
L 1.3542,-10.2255
L 1.3542,-10.0398
L 1.3542,-9.8542
L 1.3542,-9.6685
L 1.3542,-9.4828
L 1.3542,-9.2972
L 1.3542,-9.1115
L 1.3542,-8.9259
L 1.3542,-8.7402
L 1.3542,-8.5546
L 1.3542,-8.3689
L 1.3542,-8.1832
L 1.3542,-7.9976
L 1.2945,-7.8315
L 1.1845,-7.682
L 1.0745,-7.5324
L 0.9645,-7.3828
L 0.8545,-7.2333
L 0.7445,-7.0837
L 0.6345,-6.9342
L 0.5245,-6.7846
L 0.4145,-6.635
L 0.3045,-6.4855
L 0.1945,-6.3359
L 0.0844,-6.1864
L -0.0256,-6.0368
L -0.0806,-6.0549
L -0.0806,-6.2405
L -0.0806,-6.4262
L -0.0806,-6.6118
L -0.0806,-6.7975
L -0.0806,-6.9832
L -0.0806,-7.1688
L -0.0806,-7.3545
L -0.0806,-7.5401
L -0.0806,-7.7258
L -0.0806,-7.9114
L -0.0806,-8.0971
L -0.0806,-8.2828
L -0.0806,-8.4684
L -0.0759,-8.6525
L 0.0341,-8.8021
L 0.1441,-8.9516
L 0.2541,-9.1012
L 0.3641,-9.2508
L 0.4741,-9.4003
L 0.5842,-9.5499
L 0.6942,-9.6994
L 0.8042,-9.849
L 0.9142,-9.9985
L 1.0242,-10.1481
L 1.1342,-10.2977
L 1.2442,-10.4472
L 1.3542,-10.596
 " stroke = "black" stroke-width = ".1" fill = "none" />
</svg>