<?xml version="1.0"?>
<!DOCTYPE svg PUBLIC "-//W3C//DTD SVG 1.1//EN"
 "http://www.w3.org/Graphics/SVG/1.1/DTD/svg11.dtd">
 
<svg xmlns="http://www.w3.org/2000/svg" version = "1.1"
      preserveAspectRatio = "xMinYMin meet" viewBox = "0 0 150 150">
 <path d= "M10.6317,-3.9161 
L 11.4674,-5.5574
L 11.5466,-5.5186
L 11.625,-5.4783
L 11.7026,-5.4365
L 11.7794,-5.3932
L 11.8554,-5.3484
L 11.9305,-5.3023
L 12.0047,-5.2548
L 12.0781,-5.2059
L 12.1506,-5.1557
L 12.2221,-5.1042
L 12.2927,-5.0514
L 12.2525,-4.978
L 12.2056,-4.9034
L 12.1586,-4.8288
L 12.1116,-4.7542
L 12.0647,-4.6796
L 12.0177,-4.605
L 11.9707,-4.5304
L 11.9237,-4.4558
L 11.8768,-4.3812
L 11.8298,-4.3066
L 11.7828,-4.232
L 11.7359,-4.1574
L 11.6889,-4.0828
L 11.6419,-4.0082
L 11.5949,-3.9336
L 11.5382,-3.9161
L 11.468,-3.9694
L 11.3963,-4.0207
L 11.3233,-4.0701
L 11.2489,-4.1174
L 11.1732,-4.1626
L 11.0962,-4.2055
L 11.018,-4.2462
L 10.9387,-4.2847
L 10.8582,-4.3207
L 10.7768,-4.3544
L 10.6944,-4.3857
L 10.6317,-4.4211
L 10.6839,-4.4921
L 10.7362,-4.5632
L 10.7884,-4.6342
L 10.8406,-4.7052
L 10.8929,-4.7762
L 10.9451,-4.8472
L 10.9973,-4.9182
L 11.0496,-4.9893
L 11.1018,-5.0603
L 11.154,-5.1313
L 11.2063,-5.2023
L 11.2585,-5.2733
L 11.3107,-5.3443
L 11.363,-5.4153
L 11.4152,-5.4864
L 11.4674,-5.557
 " stroke = "black" stroke-width = ".1" fill = "none" />
</svg>