<?xml version="1.0"?>
<!DOCTYPE svg PUBLIC "-//W3C//DTD SVG 1.1//EN"
 "http://www.w3.org/Graphics/SVG/1.1/DTD/svg11.dtd">
 
<svg xmlns="http://www.w3.org/2000/svg" version = "1.1"
      preserveAspectRatio = "xMinYMin meet" viewBox = "0 0 150 150">
 <path d= "M9.5379,2.4895 
L 12.5268,1.0547
L 12.4459,1.1648
L 12.365,1.2748
L 12.284,1.3848
L 12.2031,1.4948
L 12.1222,1.6048
L 12.0413,1.7148
L 11.9604,1.8248
L 11.8794,1.9349
L 11.7985,2.0449
L 11.7176,2.1549
L 11.6367,2.2649
L 11.5558,2.3749
L 11.4749,2.4849
L 11.3406,2.4895
L 11.204,2.4895
L 11.0675,2.4895
L 10.9309,2.4895
L 10.7943,2.4895
L 10.6577,2.4895
L 10.5212,2.4895
L 10.3846,2.4895
L 10.248,2.4895
L 10.1115,2.4895
L 9.9749,2.4895
L 9.8383,2.4895
L 9.7018,2.4895
L 9.5652,2.4895
L 9.5379,2.4342
L 9.6188,2.3242
L 9.6997,2.2142
L 9.7806,2.1042
L 9.8615,1.9942
L 9.9425,1.8842
L 10.0234,1.7741
L 10.1043,1.6641
L 10.1852,1.5541
L 10.2661,1.4441
L 10.3471,1.3341
L 10.428,1.2241
L 10.5089,1.1141
L 10.6148,1.0543
L 10.7514,1.0547
L 10.888,1.0547
L 11.0245,1.0547
L 11.1611,1.0547
L 11.2977,1.0547
L 11.4343,1.0547
L 11.5708,1.0547
L 11.7074,1.0547
L 11.844,1.0547
L 11.9805,1.0547
L 12.1171,1.0547
L 12.2537,1.0547
L 12.3902,1.0547
L 12.5268,1.054
 " stroke = "black" stroke-width = ".1" fill = "none" />
</svg>