<?xml version="1.0"?>
<!DOCTYPE svg PUBLIC "-//W3C//DTD SVG 1.1//EN"
 "http://www.w3.org/Graphics/SVG/1.1/DTD/svg11.dtd">
 
<svg xmlns="http://www.w3.org/2000/svg" version = "1.1"
      preserveAspectRatio = "xMinYMin meet" viewBox = "0 0 150 150">
 <path d= "M5.4706,-2.7856 
L 7.5918,-5.6564
L 7.5128,-5.549
L 7.4338,-5.4416
L 7.3548,-5.3342
L 7.2758,-5.2268
L 7.1968,-5.1194
L 7.1178,-5.012
L 7.0388,-4.9046
L 6.9598,-4.7972
L 6.8808,-4.6898
L 6.8018,-4.5824
L 6.7228,-4.475
L 6.6438,-4.3676
L 6.5648,-4.2602
L 6.4858,-4.1528
L 6.4068,-4.0454
L 6.3278,-3.938
L 6.2488,-3.8306
L 6.1698,-3.7232
L 6.0908,-3.6158
L 6.0118,-3.5084
L 5.9328,-3.401
L 5.8538,-3.2936
L 5.7748,-3.1862
L 5.6958,-3.0788
L 5.6168,-2.9714
L 5.5379,-2.864
L 5.4706,-2.7856
L 5.491,-2.9173
L 5.5154,-3.0484
L 5.5439,-3.1786
L 5.5765,-3.3079
L 5.6136,-3.4359
L 5.655,-3.5627
L 5.7009,-3.6878
L 5.7514,-3.8112
L 5.8065,-3.9326
L 5.8662,-4.0518
L 5.9304,-4.1687
L 5.9991,-4.2829
L 6.0722,-4.3944
L 6.1496,-4.5029
L 6.2312,-4.6084
L 6.3168,-4.7106
L 6.4062,-4.8095
L 6.4992,-4.905
L 6.5956,-4.997
L 6.6951,-5.0857
L 6.7977,-5.1709
L 6.9032,-5.2524
L 7.0116,-5.3301
L 7.1227,-5.4038
L 7.2364,-5.4733
L 7.3526,-5.5387
L 7.4711,-5.5997
L 7.5918,-5.656
 " stroke = "black" stroke-width = ".1" fill = "none" />
</svg>