<?xml version="1.0"?>
<!DOCTYPE svg PUBLIC "-//W3C//DTD SVG 1.1//EN"
 "http://www.w3.org/Graphics/SVG/1.1/DTD/svg11.dtd">
 
<svg xmlns="http://www.w3.org/2000/svg" version = "1.1"
      preserveAspectRatio = "xMinYMin meet" viewBox = "0 0 150 150">
 <path d= "M-8.4049,5.3805 
L -7.367,3.9443
L -7.0756,3.9272
L -6.7865,3.8871
L -6.5031,3.8177
L -6.2317,3.711
L -5.983,3.5589
L -5.7725,3.3575
L -5.6147,3.1127
L -5.5141,2.8392
L -5.4648,2.5518
L -5.4566,2.2601
L -5.4838,1.9696
L -5.544,1.6841
L -5.5133,1.4241
L -5.3404,1.1889
L -5.1674,0.9537
L -4.9944,0.7186
L -4.8214,0.4834
L -4.6484,0.2482
L -4.4433,0.4485
L -4.2187,0.6349
L -3.9728,0.7917
L -3.7053,0.908
L -3.4236,0.9838
L -3.3006,1.0999
L -3.4736,1.3351
L -3.6466,1.5702
L -3.8195,1.8054
L -3.9925,2.0406
L -4.1655,2.2758
L -4.3219,2.4884
L -4.4949,2.7236
L -4.6679,2.9587
L -4.8408,3.1939
L -5.0138,3.4291
L -5.1868,3.6643
L -5.3598,3.8995
L -5.5328,4.1347
L -5.7058,4.3698
L -5.8788,4.605
L -6.0517,4.8402
L -6.2247,5.0754
L -6.4167,5.2803
L -6.7052,5.3245
L -6.9956,5.3547
L -7.287,5.3727
L -7.5788,5.3802
L -7.8708,5.3805
L -8.1627,5.3805
L -8.4049,5.3554
L -8.2319,5.1202
L -8.059,4.885
L -7.886,4.6498
L -7.713,4.4146
L -7.54,4.1794
L -7.367,3.944
 " stroke = "black" stroke-width = ".1" fill = "none" />
</svg>