<?xml version="1.0"?>
<!DOCTYPE svg PUBLIC "-//W3C//DTD SVG 1.1//EN"
 "http://www.w3.org/Graphics/SVG/1.1/DTD/svg11.dtd">
 
<svg xmlns="http://www.w3.org/2000/svg" version = "1.1"
      preserveAspectRatio = "xMinYMin meet" viewBox = "0 0 150 150">
 <path d= "M-7.4252,0.0241 
L -7.1756,-1.6842
L -7.0787,-1.6801
L -6.9818,-1.676
L -6.8849,-1.6719
L -6.7881,-1.6678
L -6.6912,-1.6637
L -6.5943,-1.6596
L -6.4974,-1.6555
L -6.4005,-1.6513
L -6.3036,-1.6472
L -6.2067,-1.6431
L -6.1099,-1.639
L -6.0214,-1.6191
L -5.9646,-1.5406
L -5.9077,-1.4621
L -5.8508,-1.3835
L -5.7939,-1.305
L -5.737,-1.2265
L -5.6801,-1.1479
L -5.6535,-1.0695
L -5.7109,-0.9914
L -5.7684,-0.9133
L -5.8259,-0.8351
L -5.8833,-0.757
L -5.9408,-0.6789
L -5.9982,-0.6008
L -6.0557,-0.5227
L -6.1131,-0.4446
L -6.1706,-0.3664
L -6.2281,-0.2883
L -6.2855,-0.2102
L -6.343,-0.1321
L -6.4004,-0.054
L -6.4579,0.0241
L -6.5149,-0.0371
L -6.5717,-0.1156
L -6.6286,-0.1942
L -6.6855,-0.2727
L -6.7424,-0.3512
L -6.7993,-0.4297
L -6.8562,-0.5083
L -6.9131,-0.5868
L -6.97,-0.6653
L -7.0269,-0.7438
L -7.0838,-0.8224
L -7.1407,-0.9009
L -7.1976,-0.9794
L -7.2545,-1.0579
L -7.3114,-1.1365
L -7.3683,-1.215
L -7.4252,-1.2935
L -7.4054,-1.3718
L -7.348,-1.4499
L -7.2905,-1.528
L -7.233,-1.6061
L -7.1756,-1.684
 " stroke = "black" stroke-width = ".1" fill = "none" />
</svg>