<?xml version="1.0"?>
<!DOCTYPE svg PUBLIC "-//W3C//DTD SVG 1.1//EN"
 "http://www.w3.org/Graphics/SVG/1.1/DTD/svg11.dtd">
 
<svg xmlns="http://www.w3.org/2000/svg" version = "1.1"
      preserveAspectRatio = "xMinYMin meet" viewBox = "0 0 150 150">
 <path d= "M-0.0806,-8.6474 
L 0.9691,-12.7574
L 1.1404,-12.7574
L 1.3118,-12.7574
L 1.3542,-12.6285
L 1.3542,-12.4572
L 1.3542,-12.2858
L 1.3542,-12.1145
L 1.3542,-11.9432
L 1.3542,-11.7719
L 1.3542,-11.6005
L 1.3542,-11.4292
L 1.3542,-11.2579
L 1.3542,-11.0866
L 1.3542,-10.9152
L 1.3542,-10.7439
L 1.3399,-10.5773
L 1.2383,-10.4393
L 1.1368,-10.3013
L 1.0353,-10.1633
L 0.9338,-10.0253
L 0.8323,-9.8872
L 0.7308,-9.7492
L 0.6293,-9.6112
L 0.5278,-9.4732
L 0.4262,-9.3352
L 0.3247,-9.1972
L 0.2232,-9.0592
L 0.1217,-8.9212
L 0.0202,-8.7832
L -0.0806,-8.6474
L -0.0806,-8.8188
L -0.0806,-8.9901
L -0.0806,-9.1614
L -0.0806,-9.3327
L -0.0806,-9.5041
L -0.0806,-9.6754
L -0.0806,-9.8467
L -0.0806,-10.018
L -0.0806,-10.1894
L -0.0806,-10.3607
L -0.0806,-10.532
L -0.0806,-10.7033
L -0.0806,-10.8746
L -0.0806,-11.046
L -0.0806,-11.2173
L -0.046,-11.3773
L 0.0555,-11.5153
L 0.157,-11.6533
L 0.2585,-11.7913
L 0.36,-11.9293
L 0.4616,-12.0673
L 0.5631,-12.2053
L 0.6646,-12.3434
L 0.7661,-12.4814
L 0.8676,-12.6194
L 0.9691,-12.757
 " stroke = "black" stroke-width = ".1" fill = "none" />
</svg>