<?xml version="1.0"?>
<!DOCTYPE svg PUBLIC "-//W3C//DTD SVG 1.1//EN"
 "http://www.w3.org/Graphics/SVG/1.1/DTD/svg11.dtd">
 
<svg xmlns="http://www.w3.org/2000/svg" version = "1.1"
      preserveAspectRatio = "xMinYMin meet" viewBox = "0 0 150 150">
 <path d= "M8.7051,-4.4219 
L 9.815,-5.995
L 9.9417,-5.9833
L 10.068,-5.9684
L 10.1939,-5.9503
L 10.3193,-5.9289
L 10.4441,-5.9042
L 10.5682,-5.8761
L 10.6914,-5.8446
L 10.8138,-5.8098
L 10.9351,-5.7716
L 11.0553,-5.73
L 11.1743,-5.685
L 11.292,-5.6367
L 11.4082,-5.5852
L 11.4308,-5.5076
L 11.3555,-5.4051
L 11.2801,-5.3026
L 11.2047,-5.2002
L 11.1293,-5.0977
L 11.054,-4.9952
L 10.9786,-4.8928
L 10.9032,-4.7903
L 10.8279,-4.6878
L 10.7525,-4.5853
L 10.6771,-4.4829
L 10.5884,-4.4219
L 10.4666,-4.4584
L 10.3433,-4.4898
L 10.2189,-4.5162
L 10.0935,-4.5377
L 9.9674,-4.5544
L 9.8408,-4.5664
L 9.7138,-4.5739
L 9.5867,-4.5771
L 9.4595,-4.576
L 9.3324,-4.5707
L 9.2056,-4.5609
L 9.0792,-4.5464
L 8.9535,-4.5269
L 8.8287,-4.5022
L 8.7051,-4.4721
L 8.7598,-4.5604
L 8.8352,-4.6628
L 8.9106,-4.7653
L 8.986,-4.8678
L 9.0613,-4.9703
L 9.1367,-5.0727
L 9.2121,-5.1752
L 9.2874,-5.2777
L 9.3628,-5.3801
L 9.4382,-5.4826
L 9.5136,-5.5851
L 9.5889,-5.6876
L 9.6643,-5.79
L 9.7397,-5.8925
L 9.815,-5.99
 " stroke = "black" stroke-width = ".1" fill = "none" />
</svg>