<?xml version="1.0"?>
<!DOCTYPE svg PUBLIC "-//W3C//DTD SVG 1.1//EN"
 "http://www.w3.org/Graphics/SVG/1.1/DTD/svg11.dtd">
 
<svg xmlns="http://www.w3.org/2000/svg" version = "1.1"
      preserveAspectRatio = "xMinYMin meet" viewBox = "0 0 150 150">
 <path d= "M11.4971,2.4895 
L 12.5268,1.0547
L 12.6234,1.0547
L 12.7199,1.0547
L 12.8164,1.0547
L 12.913,1.0547
L 13.0095,1.0547
L 13.0463,1.1145
L 13.0463,1.2111
L 13.0463,1.3076
L 13.0463,1.4042
L 13.0463,1.5007
L 13.0463,1.5973
L 13.0463,1.6938
L 13.0463,1.7904
L 13.0463,1.8869
L 13.0463,1.9835
L 13.0463,2.08
L 13.0463,2.1766
L 13.0463,2.2731
L 13.0463,2.3697
L 13.0463,2.4662
L 12.973,2.4895
L 12.8765,2.4895
L 12.7799,2.4895
L 12.6834,2.4895
L 12.5868,2.4895
L 12.4903,2.4895
L 12.3937,2.4895
L 12.2972,2.4895
L 12.2007,2.4895
L 12.1041,2.4895
L 12.0076,2.4895
L 11.911,2.4895
L 11.8145,2.4895
L 11.7179,2.4895
L 11.6214,2.4895
L 11.5248,2.4895
L 11.4971,2.4547
L 11.5543,2.3769
L 11.6115,2.2991
L 11.6687,2.2214
L 11.7259,2.1436
L 11.7831,2.0658
L 11.8403,1.988
L 11.8975,1.9103
L 11.9547,1.8325
L 12.012,1.7547
L 12.0692,1.6769
L 12.1264,1.5992
L 12.1836,1.5214
L 12.2408,1.4436
L 12.298,1.3658
L 12.3552,1.2881
L 12.4124,1.2103
L 12.4696,1.1325
L 12.5268,1.054
 " stroke = "black" stroke-width = ".1" fill = "none" />
</svg>