<?xml version="1.0"?>
<!DOCTYPE svg PUBLIC "-//W3C//DTD SVG 1.1//EN"
 "http://www.w3.org/Graphics/SVG/1.1/DTD/svg11.dtd">
 
<svg xmlns="http://www.w3.org/2000/svg" version = "1.1"
      preserveAspectRatio = "xMinYMin meet" viewBox = "0 0 150 150">
 <path d= "M-15.4552,5.0269 
L -14.568,2.9979
L -14.4868,3.0795
L -14.4016,3.157
L -14.3128,3.2304
L -14.2207,3.2995
L -14.1255,3.3644
L -14.0276,3.425
L -13.9272,3.4815
L -13.8247,3.5339
L -13.7202,3.5824
L -13.6141,3.6271
L -13.5064,3.6681
L -13.3975,3.7056
L -13.2876,3.7398
L -13.1766,3.7708
L -13.2254,3.8567
L -13.2937,3.9495
L -13.3619,4.0422
L -13.4301,4.135
L -13.4984,4.2278
L -13.5666,4.3206
L -13.6349,4.4134
L -13.7031,4.5062
L -13.7714,4.5989
L -13.8396,4.6917
L -13.9079,4.7845
L -13.9761,4.8773
L -14.0444,4.9701
L -14.1235,5.0269
L -14.2311,4.9859
L -14.3377,4.9423
L -14.4433,4.8963
L -14.5477,4.8477
L -14.6509,4.7965
L -14.7527,4.7426
L -14.853,4.686
L -14.9517,4.6266
L -15.0486,4.5643
L -15.1435,4.4991
L -15.2363,4.4309
L -15.3269,4.3598
L -15.415,4.2856
L -15.4552,4.2041
L -15.387,4.1113
L -15.3187,4.0185
L -15.2505,3.9257
L -15.1822,3.833
L -15.114,3.7402
L -15.0458,3.6474
L -14.9775,3.5546
L -14.9093,3.4618
L -14.841,3.369
L -14.7728,3.2763
L -14.7045,3.1835
L -14.6363,3.0907
L -14.568,2.997
 " stroke = "black" stroke-width = ".1" fill = "none" />
</svg>