<?xml version="1.0"?>
<!DOCTYPE svg PUBLIC "-//W3C//DTD SVG 1.1//EN"
 "http://www.w3.org/Graphics/SVG/1.1/DTD/svg11.dtd">
 
<svg xmlns="http://www.w3.org/2000/svg" version = "1.1"
      preserveAspectRatio = "xMinYMin meet" viewBox = "0 0 150 150">
 <path d= "M5.5947,2.4895 
L 6.604,1.0547
L 6.7701,1.0547
L 6.7225,0.9759
L 6.7554,0.8489
L 6.8538,0.7151
L 6.9522,0.5813
L 7.0506,0.4475
L 7.149,0.3137
L 7.2474,0.1799
L 7.3459,0.0461
L 7.4443,-0.0877
L 7.5519,0.0325
L 7.6653,0.1539
L 7.7856,0.2684
L 7.9145,0.3731
L 8.0507,0.4681
L 8.193,0.5537
L 8.3404,0.6302
L 8.4919,0.6983
L 8.6467,0.7585
L 8.7424,0.8316
L 8.644,0.9654
L 8.5456,1.0992
L 8.4472,1.233
L 8.3488,1.3668
L 8.2503,1.5006
L 8.1519,1.6344
L 8.0535,1.7682
L 7.9551,1.902
L 7.8567,2.0358
L 7.7583,2.1696
L 7.6598,2.3034
L 7.5614,2.4372
L 7.4218,2.4895
L 7.2557,2.4895
L 7.0896,2.4895
L 6.9235,2.4895
L 6.7574,2.4895
L 6.5913,2.4895
L 6.4252,2.4895
L 6.2591,2.4895
L 6.093,2.4895
L 5.9269,2.4895
L 5.7608,2.4895
L 5.5947,2.4895
L 5.6198,2.3928
L 5.7182,2.259
L 5.8166,2.1252
L 5.9151,1.9914
L 6.0135,1.8576
L 6.1119,1.7238
L 6.2103,1.59
L 6.3087,1.4562
L 6.4071,1.3224
L 6.5056,1.1885
L 6.604,1.054
 " stroke = "black" stroke-width = ".1" fill = "none" />
</svg>