<?xml version="1.0"?>
<!DOCTYPE svg PUBLIC "-//W3C//DTD SVG 1.1//EN"
 "http://www.w3.org/Graphics/SVG/1.1/DTD/svg11.dtd">
 
<svg xmlns="http://www.w3.org/2000/svg" version = "1.1"
      preserveAspectRatio = "xMinYMin meet" viewBox = "0 0 150 150">
 <path d= "M-0.0806,-11.3353 
L 0.9691,-12.7574
L 0.9234,-12.6952
L 0.8776,-12.6329
L 0.8318,-12.5707
L 0.7861,-12.5085
L 0.7403,-12.4463
L 0.6945,-12.3841
L 0.6487,-12.3218
L 0.603,-12.2596
L 0.5572,-12.1974
L 0.5114,-12.1352
L 0.4657,-12.0729
L 0.4199,-12.0107
L 0.3741,-11.9485
L 0.3284,-11.8863
L 0.2826,-11.824
L 0.2368,-11.7618
L 0.1911,-11.6996
L 0.1453,-11.6374
L 0.0995,-11.5751
L 0.0538,-11.5129
L 0.008,-11.4507
L -0.0378,-11.3885
L -0.0806,-11.3353
L -0.0806,-11.4126
L -0.0806,-11.4898
L -0.0806,-11.567
L -0.0806,-11.6443
L -0.0806,-11.7215
L -0.0806,-11.7988
L -0.0806,-11.876
L -0.0806,-11.9533
L -0.0806,-12.0305
L -0.0806,-12.1077
L -0.0806,-12.185
L -0.0806,-12.2622
L -0.0806,-12.3395
L -0.0806,-12.4167
L -0.0806,-12.4939
L -0.0806,-12.5712
L -0.0806,-12.6484
L -0.0806,-12.7257
L -0.035,-12.7574
L 0.0422,-12.7574
L 0.1195,-12.7574
L 0.1967,-12.7574
L 0.2739,-12.7574
L 0.3512,-12.7574
L 0.4284,-12.7574
L 0.5057,-12.7574
L 0.5829,-12.7574
L 0.6602,-12.7574
L 0.7374,-12.7574
L 0.8146,-12.7574
L 0.8919,-12.7574
L 0.9691,-12.757
 " stroke = "black" stroke-width = ".1" fill = "none" />
</svg>