<?xml version="1.0"?>
<!DOCTYPE svg PUBLIC "-//W3C//DTD SVG 1.1//EN"
 "http://www.w3.org/Graphics/SVG/1.1/DTD/svg11.dtd">
 
<svg xmlns="http://www.w3.org/2000/svg" version = "1.1"
      preserveAspectRatio = "xMinYMin meet" viewBox = "0 0 150 150">
 <path d= "M-9.5454,8.6567 
L -9.5454,7.0078
L -9.4294,7.0078
L -9.3133,7.0078
L -9.1973,7.0078
L -9.0813,7.0078
L -8.9653,7.0078
L -8.8492,7.0078
L -8.7332,7.0078
L -8.6172,7.0078
L -8.5012,7.0078
L -8.3851,7.0078
L -8.2691,7.0078
L -8.1531,7.0078
L -8.0371,7.0078
L -8.0036,7.0904
L -8.0036,7.2064
L -8.0036,7.3224
L -8.0036,7.4384
L -8.0036,7.5545
L -8.0036,7.6705
L -8.0036,7.7865
L -8.0036,7.9025
L -8.0036,8.0186
L -8.0036,8.1346
L -8.0036,8.2506
L -8.0036,8.3666
L -8.0036,8.4827
L -8.0036,8.5987
L -8.0616,8.6567
L -8.1776,8.6567
L -8.2936,8.6567
L -8.4097,8.6567
L -8.5257,8.6567
L -8.6417,8.6567
L -8.7577,8.6567
L -8.8738,8.6567
L -8.9898,8.6567
L -9.1058,8.6567
L -9.2219,8.6567
L -9.3379,8.6567
L -9.4539,8.6567
L -9.5454,8.6322
L -9.5454,8.5161
L -9.5454,8.4001
L -9.5454,8.2841
L -9.5454,8.1681
L -9.5454,8.052
L -9.5454,7.936
L -9.5454,7.82
L -9.5454,7.704
L -9.5454,7.5879
L -9.5454,7.4719
L -9.5454,7.3559
L -9.5454,7.2399
L -9.5454,7.1238
L -9.5454,7.007
 " stroke = "black" stroke-width = ".1" fill = "none" />
</svg>