<?xml version="1.0"?>
<!DOCTYPE svg PUBLIC "-//W3C//DTD SVG 1.1//EN"
 "http://www.w3.org/Graphics/SVG/1.1/DTD/svg11.dtd">
 
<svg xmlns="http://www.w3.org/2000/svg" version = "1.1"
      preserveAspectRatio = "xMinYMin meet" viewBox = "0 0 150 150">
 <path d= "M-6.3356,5.265 
L -4.1853,2.3026
L -4.1582,2.4431
L -4.1405,2.585
L -4.1307,2.7277
L -4.1276,2.8707
L -4.1308,3.0137
L -4.1409,3.1564
L -4.1585,3.2984
L -4.1841,3.4391
L -4.2181,3.578
L -4.2609,3.7145
L -4.3127,3.8478
L -4.3735,3.9773
L -4.4432,4.1022
L -4.5215,4.2219
L -4.6079,4.3358
L -4.7019,4.4437
L -4.8027,4.5451
L -4.9096,4.6402
L -5.0219,4.7287
L -5.1394,4.8103
L -5.2614,4.8849
L -5.3874,4.9527
L -5.5167,5.0139
L -5.6487,5.069
L -5.783,5.1183
L -5.9191,5.1622
L -6.0568,5.2011
L -6.1957,5.2352
L -6.3356,5.265
L -6.3043,5.1836
L -6.2196,5.0684
L -6.1348,4.9532
L -6.0501,4.8379
L -5.9653,4.7227
L -5.8805,4.6074
L -5.7958,4.4922
L -5.711,4.377
L -5.6262,4.2617
L -5.5415,4.1465
L -5.4567,4.0312
L -5.3719,3.916
L -5.2872,3.8008
L -5.2024,3.6855
L -5.1177,3.5703
L -5.0329,3.455
L -4.9481,3.3398
L -4.8634,3.2246
L -4.7786,3.1093
L -4.6938,2.9941
L -4.6091,2.8788
L -4.5243,2.7636
L -4.4396,2.6484
L -4.3548,2.5331
L -4.27,2.4179
L -4.1853,2.302
 " stroke = "black" stroke-width = ".1" fill = "none" />
</svg>