<?xml version="1.0"?>
<!DOCTYPE svg PUBLIC "-//W3C//DTD SVG 1.1//EN"
 "http://www.w3.org/Graphics/SVG/1.1/DTD/svg11.dtd">
 
<svg xmlns="http://www.w3.org/2000/svg" version = "1.1"
      preserveAspectRatio = "xMinYMin meet" viewBox = "0 0 150 150">
 <path d= "M-0.0806,-3.3527 
L 1.3542,-7.9127
L 1.3542,-7.727
L 1.3542,-7.5413
L 1.3542,-7.3557
L 1.3542,-7.17
L 1.3542,-6.9844
L 1.3542,-6.7987
L 1.3542,-6.6131
L 1.3542,-6.4274
L 1.3542,-6.2417
L 1.3542,-6.0561
L 1.3542,-5.8704
L 1.3542,-5.6848
L 1.3542,-5.4991
L 1.3542,-5.3135
L 1.2945,-5.1474
L 1.1845,-4.9978
L 1.0745,-4.8483
L 0.9645,-4.6987
L 0.8545,-4.5492
L 0.7445,-4.3996
L 0.6345,-4.25
L 0.5245,-4.1005
L 0.4145,-3.9509
L 0.3045,-3.8014
L 0.1945,-3.6518
L 0.0844,-3.5022
L -0.0256,-3.3527
L -0.0806,-3.3707
L -0.0806,-3.5564
L -0.0806,-3.7421
L -0.0806,-3.9277
L -0.0806,-4.1134
L -0.0806,-4.299
L -0.0806,-4.4847
L -0.0806,-4.6703
L -0.0806,-4.856
L -0.0806,-5.0417
L -0.0806,-5.2273
L -0.0806,-5.413
L -0.0806,-5.5986
L -0.0806,-5.7843
L -0.0759,-5.9684
L 0.0341,-6.118
L 0.1441,-6.2675
L 0.2541,-6.4171
L 0.3641,-6.5666
L 0.4741,-6.7162
L 0.5842,-6.8658
L 0.6942,-7.0153
L 0.8042,-7.1649
L 0.9142,-7.3144
L 1.0242,-7.464
L 1.1342,-7.6135
L 1.2442,-7.7631
L 1.3542,-7.912
 " stroke = "black" stroke-width = ".1" fill = "none" />
</svg>