<?xml version="1.0"?>
<!DOCTYPE svg PUBLIC "-//W3C//DTD SVG 1.1//EN"
 "http://www.w3.org/Graphics/SVG/1.1/DTD/svg11.dtd">
 
<svg xmlns="http://www.w3.org/2000/svg" version = "1.1"
      preserveAspectRatio = "xMinYMin meet" viewBox = "0 0 150 150">
 <path d= "M-7.7159,-1.3237 
L -7.1756,-1.6842
L -7.1916,-1.6625
L -7.2075,-1.6408
L -7.2235,-1.6191
L -7.2395,-1.5974
L -7.2554,-1.5757
L -7.2714,-1.554
L -7.2874,-1.5323
L -7.3033,-1.5105
L -7.3193,-1.4888
L -7.3353,-1.4671
L -7.3513,-1.4454
L -7.3672,-1.4237
L -7.3832,-1.402
L -7.3992,-1.3803
L -7.4151,-1.3586
L -7.4311,-1.3369
L -7.447,-1.3237
L -7.4629,-1.3455
L -7.4787,-1.3673
L -7.4945,-1.3891
L -7.5103,-1.411
L -7.5261,-1.4328
L -7.5419,-1.4546
L -7.5577,-1.4765
L -7.5736,-1.4983
L -7.5894,-1.5201
L -7.6052,-1.5419
L -7.621,-1.5638
L -7.6368,-1.5856
L -7.6526,-1.6074
L -7.6684,-1.6292
L -7.6842,-1.6511
L -7.7001,-1.6729
L -7.7159,-1.6947
L -7.7141,-1.7071
L -7.6872,-1.706
L -7.6603,-1.7048
L -7.6334,-1.7037
L -7.6064,-1.7025
L -7.5795,-1.7014
L -7.5526,-1.7002
L -7.5257,-1.6991
L -7.4987,-1.698
L -7.4718,-1.6968
L -7.4449,-1.6957
L -7.4179,-1.6945
L -7.391,-1.6934
L -7.3641,-1.6922
L -7.3372,-1.6911
L -7.3102,-1.69
L -7.2833,-1.6888
L -7.2564,-1.6877
L -7.2294,-1.6865
L -7.2025,-1.6854
L -7.1756,-1.684
 " stroke = "black" stroke-width = ".1" fill = "none" />
</svg>