<?xml version="1.0"?>
<!DOCTYPE svg PUBLIC "-//W3C//DTD SVG 1.1//EN"
 "http://www.w3.org/Graphics/SVG/1.1/DTD/svg11.dtd">
 
<svg xmlns="http://www.w3.org/2000/svg" version = "1.1"
      preserveAspectRatio = "xMinYMin meet" viewBox = "0 0 150 150">
 <path d= "M-14.0648,5.3646 
L -13.1646,3.7739
L -13.0416,3.8041
L -12.9178,3.8309
L -12.7934,3.8543
L -12.6684,3.8747
L -12.543,3.8922
L -12.4173,3.907
L -12.2913,3.9191
L -12.165,3.9289
L -12.0386,3.9363
L -11.9121,3.9415
L -11.7855,3.9446
L -11.6589,3.9458
L -11.5323,3.9458
L -11.4057,3.9458
L -11.339,3.9761
L -11.414,4.0781
L -11.489,4.1801
L -11.564,4.2821
L -11.6391,4.3841
L -11.7141,4.4861
L -11.7891,4.5881
L -11.8641,4.6901
L -11.9392,4.7921
L -12.0142,4.8941
L -12.0892,4.9961
L -12.1642,5.0981
L -12.2393,5.2001
L -12.3143,5.3021
L -12.4078,5.3646
L -12.5341,5.3558
L -12.6603,5.3449
L -12.7862,5.3318
L -12.9119,5.3165
L -13.0373,5.2988
L -13.1623,5.2787
L -13.2869,5.2561
L -13.411,5.231
L -13.5345,5.2031
L -13.6573,5.1725
L -13.7795,5.139
L -13.9007,5.1026
L -14.0211,5.0632
L -14.0648,4.9979
L -13.9898,4.8959
L -13.9148,4.7939
L -13.8398,4.6919
L -13.7648,4.5899
L -13.6897,4.4879
L -13.6147,4.3859
L -13.5397,4.2839
L -13.4647,4.1819
L -13.3896,4.0799
L -13.3146,3.9779
L -13.2396,3.8759
L -13.1646,3.773
 " stroke = "black" stroke-width = ".1" fill = "none" />
</svg>