<?xml version="1.0"?>
<!DOCTYPE svg PUBLIC "-//W3C//DTD SVG 1.1//EN"
 "http://www.w3.org/Graphics/SVG/1.1/DTD/svg11.dtd">
 
<svg xmlns="http://www.w3.org/2000/svg" version = "1.1"
      preserveAspectRatio = "xMinYMin meet" viewBox = "0 0 150 150">
 <path d= "M-12.3578,5.3805 
L -11.3167,3.9458
L -11.1806,3.9458
L -11.0445,3.9458
L -10.9084,3.9458
L -10.7723,3.9458
L -10.6362,3.9458
L -10.5001,3.9458
L -10.3641,3.9458
L -10.228,3.9458
L -10.0919,3.9458
L -9.9558,3.9458
L -9.8197,3.9458
L -9.6836,3.9458
L -9.5475,3.9458
L -9.4114,3.9458
L -9.3821,3.9998
L -9.4628,4.1094
L -9.5434,4.219
L -9.624,4.3287
L -9.7047,4.4383
L -9.7853,4.5479
L -9.8659,4.6575
L -9.9466,4.7672
L -10.0272,4.8768
L -10.1078,4.9864
L -10.1885,5.096
L -10.2691,5.2057
L -10.3497,5.3153
L -10.4528,5.3805
L -10.5889,5.3805
L -10.725,5.3805
L -10.8611,5.3805
L -10.9972,5.3805
L -11.1333,5.3805
L -11.2694,5.3805
L -11.4055,5.3805
L -11.5415,5.3805
L -11.6776,5.3805
L -11.8137,5.3805
L -11.9498,5.3802
L -12.0859,5.3782
L -12.2219,5.374
L -12.3578,5.3676
L -12.2843,5.2613
L -12.2037,5.1517
L -12.123,5.042
L -12.0424,4.9324
L -11.9617,4.8228
L -11.8811,4.7132
L -11.8005,4.6035
L -11.7198,4.4939
L -11.6392,4.3843
L -11.5586,4.2746
L -11.4779,4.165
L -11.3973,4.0554
L -11.3167,3.945
 " stroke = "black" stroke-width = ".1" fill = "none" />
</svg>