<?xml version="1.0"?>
<!DOCTYPE svg PUBLIC "-//W3C//DTD SVG 1.1//EN"
 "http://www.w3.org/Graphics/SVG/1.1/DTD/svg11.dtd">
 
<svg xmlns="http://www.w3.org/2000/svg" version = "1.1"
      preserveAspectRatio = "xMinYMin meet" viewBox = "0 0 150 150">
 <path d= "M5.4235,-0.5077 
L 7.5918,-5.6564
L 7.8513,-5.7612
L 8.1178,-5.8468
L 8.3896,-5.9135
L 8.6652,-5.9621
L 8.9433,-5.9938
L 9.2227,-6.0096
L 9.5026,-6.0107
L 9.7822,-5.9975
L 9.6687,-5.796
L 9.5028,-5.5705
L 9.337,-5.345
L 9.1711,-5.1195
L 9.0052,-4.894
L 8.8394,-4.6685
L 8.6617,-4.4601
L 8.397,-4.3695
L 8.1436,-4.2508
L 7.9053,-4.1044
L 7.6848,-3.932
L 7.4857,-3.7355
L 7.3138,-3.5149
L 7.1719,-3.2738
L 7.0606,-3.0171
L 6.9784,-2.7497
L 6.9229,-2.4754
L 6.8908,-2.1974
L 6.8287,-1.9348
L 6.6628,-1.7093
L 6.4969,-1.4838
L 6.3311,-1.2583
L 6.1652,-1.0328
L 5.9993,-0.8073
L 5.8335,-0.5818
L 5.6876,-0.5077
L 5.5989,-0.7731
L 5.5293,-1.0442
L 5.478,-1.3193
L 5.4441,-1.5971
L 5.4263,-1.8765
L 5.4235,-2.1563
L 5.4348,-2.436
L 5.4612,-2.7146
L 5.6014,-2.9505
L 5.7673,-3.176
L 5.9331,-3.4015
L 6.099,-3.627
L 6.2649,-3.8525
L 6.4307,-4.078
L 6.5966,-4.3035
L 6.7624,-4.529
L 6.9283,-4.7545
L 7.0942,-4.98
L 7.26,-5.2055
L 7.4259,-5.4309
L 7.5918,-5.656
 " stroke = "black" stroke-width = ".1" fill = "none" />
</svg>