<?xml version="1.0"?>
<!DOCTYPE svg PUBLIC "-//W3C//DTD SVG 1.1//EN"
 "http://www.w3.org/Graphics/SVG/1.1/DTD/svg11.dtd">
 
<svg xmlns="http://www.w3.org/2000/svg" version = "1.1"
      preserveAspectRatio = "xMinYMin meet" viewBox = "0 0 150 150">
 <path d= "M1.8608,2.4895 
L 2.7668,0.9033
L 2.8899,0.9364
L 3.0141,0.9645
L 3.1394,0.9879
L 3.2653,1.0072
L 3.3918,1.0228
L 3.5186,1.035
L 3.6457,1.044
L 3.773,1.0502
L 3.9003,1.0539
L 4.0278,1.0545
L 4.1552,1.0545
L 4.2826,1.0545
L 4.41,1.0546
L 4.5374,1.0546
L 4.609,1.0828
L 4.5335,1.1855
L 4.458,1.2881
L 4.3826,1.3908
L 4.3071,1.4934
L 4.2316,1.5961
L 4.1561,1.6987
L 4.0806,1.8013
L 4.0051,1.904
L 3.9296,2.0066
L 3.8541,2.1093
L 3.7786,2.2119
L 3.7031,2.3146
L 3.6276,2.4172
L 3.5367,2.4895
L 3.4093,2.4885
L 3.2819,2.4847
L 3.1547,2.4779
L 3.0277,2.4679
L 2.901,2.4545
L 2.7747,2.4376
L 2.649,2.4169
L 2.5239,2.3923
L 2.3998,2.3635
L 2.2768,2.3303
L 2.1551,2.2926
L 2.035,2.2501
L 1.9167,2.2027
L 1.8608,2.135
L 1.9363,2.0324
L 2.0118,1.9297
L 2.0873,1.8271
L 2.1628,1.7244
L 2.2383,1.6218
L 2.3138,1.5192
L 2.3893,1.4165
L 2.4648,1.3139
L 2.5403,1.2112
L 2.6158,1.1086
L 2.6913,1.0059
L 2.7668,0.903
 " stroke = "black" stroke-width = ".1" fill = "none" />
</svg>