<?xml version="1.0"?>
<!DOCTYPE svg PUBLIC "-//W3C//DTD SVG 1.1//EN"
 "http://www.w3.org/Graphics/SVG/1.1/DTD/svg11.dtd">
 
<svg xmlns="http://www.w3.org/2000/svg" version = "1.1"
      preserveAspectRatio = "xMinYMin meet" viewBox = "0 0 150 150">
 <path d= "M-16.8947,2.8127 
L -15.8273,-0.6583
L -15.6802,-0.6583
L -15.5332,-0.6583
L -15.52,-0.5244
L -15.52,-0.3773
L -15.52,-0.2302
L -15.52,-0.0832
L -15.52,0.0639
L -15.52,0.211
L -15.52,0.3581
L -15.5187,0.5052
L -15.5132,0.6521
L -15.5032,0.7989
L -15.4885,0.9452
L -15.4689,1.091
L -15.4442,1.236
L -15.4143,1.3799
L -15.4475,1.5094
L -15.5346,1.6279
L -15.6218,1.7464
L -15.7089,1.8649
L -15.7961,1.9833
L -15.8832,2.1018
L -15.9704,2.2203
L -16.0575,2.3388
L -16.1447,2.4573
L -16.2318,2.5758
L -16.319,2.6942
L -16.4061,2.8127
L -16.4741,2.7575
L -16.5297,2.6213
L -16.5811,2.4835
L -16.6282,2.3442
L -16.6709,2.2034
L -16.7097,2.0616
L -16.7449,1.9188
L -16.7765,1.7751
L -16.8046,1.6308
L -16.8292,1.4858
L -16.8505,1.3402
L -16.8684,1.1943
L -16.8831,1.0479
L -16.8947,0.9013
L -16.8731,0.7635
L -16.786,0.645
L -16.6988,0.5265
L -16.6117,0.4081
L -16.5245,0.2896
L -16.4374,0.1711
L -16.3502,0.0526
L -16.2631,-0.0659
L -16.1759,-0.1843
L -16.0888,-0.3028
L -16.0016,-0.4213
L -15.9145,-0.5398
L -15.8273,-0.658
 " stroke = "black" stroke-width = ".1" fill = "none" />
</svg>