<?xml version="1.0"?>
<!DOCTYPE svg PUBLIC "-//W3C//DTD SVG 1.1//EN"
 "http://www.w3.org/Graphics/SVG/1.1/DTD/svg11.dtd">
 
<svg xmlns="http://www.w3.org/2000/svg" version = "1.1"
      preserveAspectRatio = "xMinYMin meet" viewBox = "0 0 150 150">
 <path d= "M-2.2915,2.4889 
L -1.0056,0.6639
L -0.7993,0.509
L -0.6173,0.3264
L -0.4631,0.1196
L -0.3383,-0.1061
L -0.2417,-0.3453
L -0.1044,-0.5614
L 0.0485,-0.7693
L 0.2015,-0.9772
L 0.3544,-1.1852
L 0.5074,-1.3931
L 0.6603,-1.601
L 0.8133,-1.809
L 0.9662,-2.0169
L 1.1191,-2.2248
L 1.2721,-2.4328
L 1.3542,-2.4248
L 1.3542,-2.1667
L 1.3542,-1.9086
L 1.3542,-1.6505
L 1.3548,-1.3923
L 1.366,-1.1345
L 1.3927,-0.8778
L 1.4376,-0.6237
L 1.5032,-0.3741
L 1.5571,-0.1362
L 1.4042,0.0717
L 1.2512,0.2797
L 1.0983,0.4876
L 0.9454,0.6956
L 0.7924,0.9035
L 0.6419,1.0679
L 0.5232,0.8387
L 0.4189,0.8644
L 0.3016,1.0943
L 0.1657,1.3136
L 0.0104,1.5197
L -0.1643,1.7096
L -0.3576,1.8805
L -0.5677,2.0303
L -0.792,2.1578
L -1.0277,2.2627
L -1.2721,2.3456
L -1.5225,2.4079
L -1.7769,2.4513
L -2.0336,2.4777
L -2.2915,2.4889
L -2.2292,2.3273
L -2.0762,2.1194
L -1.9233,1.9115
L -1.7703,1.7035
L -1.6174,1.4956
L -1.4644,1.2877
L -1.3115,1.0797
L -1.1585,0.8718
L -1.0056,0.663
 " stroke = "black" stroke-width = ".1" fill = "none" />
</svg>