<?xml version="1.0"?>
<!DOCTYPE svg PUBLIC "-//W3C//DTD SVG 1.1//EN"
 "http://www.w3.org/Graphics/SVG/1.1/DTD/svg11.dtd">
 
<svg xmlns="http://www.w3.org/2000/svg" version = "1.1"
      preserveAspectRatio = "xMinYMin meet" viewBox = "0 0 150 150">
 <path d= "M7.5271,2.4895 
L 8.7661,0.7994
L 8.8994,0.84
L 9.034,0.8761
L 9.1697,0.9081
L 9.3062,0.9362
L 9.4434,0.9608
L 9.5812,0.9819
L 9.7194,1.0
L 9.858,1.0152
L 9.9968,1.0276
L 10.1359,1.0375
L 10.2751,1.0451
L 10.4144,1.0503
L 10.5533,1.0537
L 10.4707,1.166
L 10.3881,1.2783
L 10.3055,1.3906
L 10.2229,1.5029
L 10.1403,1.6152
L 10.0577,1.7275
L 9.9751,1.8398
L 9.8925,1.9521
L 9.8099,2.0644
L 9.7273,2.1767
L 9.6447,2.2889
L 9.5621,2.4012
L 9.4674,2.4895
L 9.328,2.4895
L 9.1886,2.4895
L 9.0492,2.4895
L 8.9098,2.4895
L 8.7704,2.4895
L 8.631,2.4895
L 8.4916,2.4895
L 8.3522,2.4895
L 8.2128,2.4895
L 8.0734,2.4895
L 7.934,2.4895
L 7.7946,2.4895
L 7.6552,2.4895
L 7.5271,2.4838
L 7.6097,2.3715
L 7.6923,2.2592
L 7.7749,2.1469
L 7.8575,2.0346
L 7.9401,1.9223
L 8.0227,1.81
L 8.1053,1.6977
L 8.1879,1.5855
L 8.2705,1.4732
L 8.3531,1.3609
L 8.4357,1.2486
L 8.5183,1.1363
L 8.6009,1.024
L 8.6835,0.9117
L 8.7661,0.799
 " stroke = "black" stroke-width = ".1" fill = "none" />
</svg>