<?xml version="1.0"?>
<!DOCTYPE svg PUBLIC "-//W3C//DTD SVG 1.1//EN"
 "http://www.w3.org/Graphics/SVG/1.1/DTD/svg11.dtd">
 
<svg xmlns="http://www.w3.org/2000/svg" version = "1.1"
      preserveAspectRatio = "xMinYMin meet" viewBox = "0 0 150 150">
 <path d= "M3.5779,2.4895 
L 4.6298,1.0546
L 4.7664,1.0546
L 4.9029,1.0547
L 5.0395,1.0547
L 5.176,1.0547
L 5.3126,1.0547
L 5.4492,1.0547
L 5.5857,1.0547
L 5.7223,1.0547
L 5.8588,1.0547
L 5.9954,1.0547
L 6.132,1.0547
L 6.2685,1.0547
L 6.4051,1.0547
L 6.5416,1.0547
L 6.56,1.1145
L 6.4791,1.2245
L 6.3982,1.3345
L 6.3173,1.4445
L 6.2364,1.5546
L 6.1554,1.6646
L 6.0745,1.7746
L 5.9936,1.8846
L 5.9127,1.9946
L 5.8318,2.1046
L 5.7509,2.2146
L 5.67,2.3246
L 5.589,2.4346
L 5.4803,2.4895
L 5.3437,2.4895
L 5.2071,2.4895
L 5.0706,2.4895
L 4.934,2.4895
L 4.7975,2.4895
L 4.6609,2.4895
L 4.5243,2.4895
L 4.3878,2.4895
L 4.2512,2.4895
L 4.1147,2.4895
L 3.9781,2.4895
L 3.8415,2.4895
L 3.705,2.4895
L 3.5779,2.4847
L 3.6588,2.3747
L 3.7398,2.2647
L 3.8207,2.1547
L 3.9016,2.0447
L 3.9825,1.9347
L 4.0634,1.8246
L 4.1443,1.7146
L 4.2252,1.6046
L 4.3062,1.4946
L 4.3871,1.3846
L 4.468,1.2746
L 4.5489,1.1646
L 4.6298,1.054
 " stroke = "black" stroke-width = ".1" fill = "none" />
</svg>