<?xml version="1.0"?>
<!DOCTYPE svg PUBLIC "-//W3C//DTD SVG 1.1//EN"
 "http://www.w3.org/Graphics/SVG/1.1/DTD/svg11.dtd">
 
<svg xmlns="http://www.w3.org/2000/svg" version = "1.1"
      preserveAspectRatio = "xMinYMin meet" viewBox = "0 0 150 150">
 <path d= "M-12.5862,8.6567 
L -12.5862,7.0078
L -12.4702,7.0078
L -12.3542,7.0078
L -12.2381,7.0078
L -12.1221,7.0078
L -12.0061,7.0078
L -11.8901,7.0078
L -11.774,7.0078
L -11.658,7.0078
L -11.542,7.0078
L -11.426,7.0078
L -11.3099,7.0078
L -11.1939,7.0078
L -11.0779,7.0078
L -11.0444,7.0904
L -11.0444,7.2064
L -11.0444,7.3224
L -11.0444,7.4384
L -11.0444,7.5545
L -11.0444,7.6705
L -11.0444,7.7865
L -11.0444,7.9025
L -11.0444,8.0186
L -11.0444,8.1346
L -11.0444,8.2506
L -11.0444,8.3666
L -11.0444,8.4827
L -11.0444,8.5987
L -11.1024,8.6567
L -11.2184,8.6567
L -11.3345,8.6567
L -11.4505,8.6567
L -11.5665,8.6567
L -11.6825,8.6567
L -11.7986,8.6567
L -11.9146,8.6567
L -12.0306,8.6567
L -12.1466,8.6567
L -12.2627,8.6567
L -12.3787,8.6567
L -12.4947,8.6567
L -12.5862,8.6322
L -12.5862,8.5161
L -12.5862,8.4001
L -12.5862,8.2841
L -12.5862,8.1681
L -12.5862,8.052
L -12.5862,7.936
L -12.5862,7.82
L -12.5862,7.704
L -12.5862,7.5879
L -12.5862,7.4719
L -12.5862,7.3559
L -12.5862,7.2399
L -12.5862,7.1238
L -12.5862,7.007
 " stroke = "black" stroke-width = ".1" fill = "none" />
</svg>