<?xml version="1.0"?>
<!DOCTYPE svg PUBLIC "-//W3C//DTD SVG 1.1//EN"
 "http://www.w3.org/Graphics/SVG/1.1/DTD/svg11.dtd">
 
<svg xmlns="http://www.w3.org/2000/svg" version = "1.1"
      preserveAspectRatio = "xMinYMin meet" viewBox = "0 0 150 150">
 <path d= "M-10.3947,5.3805 
L -9.3424,3.9458
L -9.2058,3.9458
L -9.0692,3.9458
L -8.9326,3.9458
L -8.7959,3.9458
L -8.6593,3.9458
L -8.5227,3.9458
L -8.3861,3.9458
L -8.2495,3.9458
L -8.1129,3.9458
L -7.9763,3.9458
L -7.8397,3.9458
L -7.7031,3.9458
L -7.5664,3.9458
L -7.4298,3.9454
L -7.4107,4.0037
L -7.4917,4.1138
L -7.5726,4.2238
L -7.6536,4.3338
L -7.7345,4.4439
L -7.8155,4.5539
L -7.8964,4.664
L -7.9774,4.774
L -8.0583,4.8841
L -8.1392,4.9941
L -8.2202,5.1042
L -8.3011,5.2142
L -8.3821,5.3243
L -8.4902,5.3805
L -8.6269,5.3805
L -8.7635,5.3805
L -8.9001,5.3805
L -9.0367,5.3805
L -9.1733,5.3805
L -9.3099,5.3805
L -9.4465,5.3805
L -9.5831,5.3805
L -9.7198,5.3805
L -9.8564,5.3805
L -9.993,5.3805
L -10.1296,5.3805
L -10.2662,5.3805
L -10.3947,5.3764
L -10.3137,5.2664
L -10.2328,5.1563
L -10.1518,5.0463
L -10.0709,4.9362
L -9.99,4.8262
L -9.909,4.7161
L -9.8281,4.6061
L -9.7471,4.496
L -9.6662,4.386
L -9.5852,4.2759
L -9.5043,4.1659
L -9.4233,4.0558
L -9.3424,3.945
 " stroke = "black" stroke-width = ".1" fill = "none" />
</svg>