<?xml version="1.0"?>
<!DOCTYPE svg PUBLIC "-//W3C//DTD SVG 1.1//EN"
 "http://www.w3.org/Graphics/SVG/1.1/DTD/svg11.dtd">
 
<svg xmlns="http://www.w3.org/2000/svg" version = "1.1"
      preserveAspectRatio = "xMinYMin meet" viewBox = "0 0 150 150">
 <path d= "M-6.8908,5.5665 
L -5.121,0.5342
L -4.9302,0.7751
L -4.7394,1.016
L -4.5486,1.2569
L -4.3578,1.4978
L -4.167,1.7387
L -3.9762,1.9796
L -3.7854,2.2205
L -3.5946,2.4614
L -3.4038,2.7024
L -3.213,2.9433
L -3.0222,3.1842
L -2.8314,3.4251
L -2.6405,3.666
L -2.4497,3.9069
L -2.2589,4.1478
L -2.0681,4.3887
L -1.8773,4.6296
L -1.6865,4.8706
L -1.4957,5.1115
L -1.3049,5.3524
L -1.1695,5.5665
L -1.4769,5.5665
L -1.7842,5.5665
L -2.0915,5.5665
L -2.3988,5.5665
L -2.7061,5.5665
L -2.9832,5.5039
L -3.174,5.263
L -3.3648,5.0221
L -3.5556,4.7811
L -3.7464,4.5402
L -3.8507,4.2521
L -3.9503,3.9614
L -4.0499,3.6706
L -4.1495,3.3799
L -4.2491,3.0892
L -4.3487,2.7985
L -4.4483,2.5077
L -4.7532,2.5043
L -5.0605,2.5043
L -5.3644,2.4973
L -5.5552,2.2564
L -5.746,2.0154
L -5.9368,1.7745
L -6.1276,1.5336
L -6.3184,1.2927
L -6.5092,1.0518
L -6.7,0.8109
L -6.8908,0.57
L -6.6575,0.5342
L -6.3502,0.5342
L -6.0429,0.5342
L -5.7356,0.5342
L -5.4283,0.5342
L -5.121,0.534
 " stroke = "black" stroke-width = ".1" fill = "none" />
</svg>