<?xml version="1.0"?>
<!DOCTYPE svg PUBLIC "-//W3C//DTD SVG 1.1//EN"
 "http://www.w3.org/Graphics/SVG/1.1/DTD/svg11.dtd">
 
<svg xmlns="http://www.w3.org/2000/svg" version = "1.1"
      preserveAspectRatio = "xMinYMin meet" viewBox = "0 0 150 150">
 <path d= "M2.9732,-9.5358 
L 2.9732,-9.6801
L 2.9813,-9.6801
L 2.9894,-9.6801
L 2.9975,-9.6801
L 3.0056,-9.6801
L 3.0137,-9.6801
L 3.0219,-9.6801
L 3.03,-9.6801
L 3.0381,-9.6801
L 3.0462,-9.6801
L 3.0543,-9.6801
L 3.0624,-9.6801
L 3.0705,-9.6801
L 3.0786,-9.6801
L 3.0867,-9.6801
L 3.0883,-9.6736
L 3.0883,-9.6655
L 3.0883,-9.6574
L 3.0883,-9.6493
L 3.0883,-9.6412
L 3.0883,-9.6331
L 3.0883,-9.625
L 3.0883,-9.6168
L 3.0883,-9.6087
L 3.0883,-9.6006
L 3.0883,-9.5925
L 3.0883,-9.5844
L 3.0883,-9.5763
L 3.0883,-9.5682
L 3.0883,-9.5601
L 3.0883,-9.552
L 3.0883,-9.5439
L 3.0883,-9.5358
L 3.084,-9.5402
L 3.0789,-9.5466
L 3.0739,-9.553
L 3.0689,-9.5593
L 3.0638,-9.5657
L 3.0588,-9.572
L 3.0538,-9.5784
L 3.0487,-9.5847
L 3.0437,-9.5911
L 3.0387,-9.5975
L 3.0336,-9.6038
L 3.0286,-9.6102
L 3.0235,-9.6165
L 3.0185,-9.6229
L 3.0135,-9.6292
L 3.0084,-9.6356
L 3.0034,-9.642
L 2.9984,-9.6483
L 2.9933,-9.6547
L 2.9883,-9.661
L 2.9833,-9.6674
L 2.9782,-9.6737
L 2.9732,-9.680
 " stroke = "black" stroke-width = ".1" fill = "none" />
</svg>