<?xml version="1.0"?>
<!DOCTYPE svg PUBLIC "-//W3C//DTD SVG 1.1//EN"
 "http://www.w3.org/Graphics/SVG/1.1/DTD/svg11.dtd">
 
<svg xmlns="http://www.w3.org/2000/svg" version = "1.1"
      preserveAspectRatio = "xMinYMin meet" viewBox = "0 0 150 150">
 <path d= "M0.9041,1.7351 
L 0.9041,-3.2107
L 1.0348,-3.0457
L 1.1655,-2.8807
L 1.2962,-2.7157
L 1.4269,-2.5507
L 1.5575,-2.3857
L 1.6882,-2.2207
L 1.8189,-2.0557
L 1.9496,-1.8907
L 2.0803,-1.7257
L 2.211,-1.5607
L 2.3417,-1.3956
L 2.4723,-1.2306
L 2.603,-1.0656
L 2.7337,-0.9006
L 2.8644,-0.7356
L 2.9951,-0.5706
L 3.0883,-0.3926
L 3.0883,-0.1821
L 3.0883,0.0284
L 3.0883,0.2389
L 3.0883,0.4494
L 3.0883,0.6599
L 3.0883,0.8704
L 3.0883,1.0809
L 3.0883,1.2914
L 3.0883,1.5019
L 3.0883,1.7124
L 3.023,1.7351
L 2.8923,1.5701
L 2.7616,1.4051
L 2.6309,1.2401
L 2.5003,1.0751
L 2.3696,0.9101
L 2.2389,0.745
L 2.1082,0.58
L 1.9775,0.415
L 1.8468,0.25
L 1.7161,0.085
L 1.5854,-0.08
L 1.4548,-0.245
L 1.3241,-0.41
L 1.1934,-0.575
L 1.0627,-0.74
L 0.932,-0.905
L 0.9041,-1.1058
L 0.9041,-1.3163
L 0.9041,-1.5268
L 0.9041,-1.7373
L 0.9041,-1.9478
L 0.9041,-2.1583
L 0.9041,-2.3688
L 0.9041,-2.5793
L 0.9041,-2.7898
L 0.9041,-3.0002
L 0.9041,-3.210
 " stroke = "black" stroke-width = ".1" fill = "none" />
</svg>