<?xml version="1.0"?>
<!DOCTYPE svg PUBLIC "-//W3C//DTD SVG 1.1//EN"
 "http://www.w3.org/Graphics/SVG/1.1/DTD/svg11.dtd">
 
<svg xmlns="http://www.w3.org/2000/svg" version = "1.1"
      preserveAspectRatio = "xMinYMin meet" viewBox = "0 0 150 150">
 <path d= "M8.3169,-7.7894 
L 8.3169,-9.7444
L 8.4267,-9.7444
L 8.5365,-9.7444
L 8.6464,-9.7444
L 8.7562,-9.7444
L 8.866,-9.7444
L 8.9759,-9.7444
L 9.0857,-9.7444
L 9.1955,-9.7444
L 9.3054,-9.7444
L 9.4152,-9.7444
L 9.525,-9.7444
L 9.6348,-9.7444
L 9.7447,-9.7444
L 9.8545,-9.7444
L 9.8765,-9.6565
L 9.8765,-9.5467
L 9.8765,-9.4369
L 9.8765,-9.327
L 9.8765,-9.2172
L 9.8765,-9.1074
L 9.8765,-8.9975
L 9.8765,-8.8877
L 9.8765,-8.7779
L 9.8765,-8.6681
L 9.8765,-8.5582
L 9.8765,-8.4484
L 9.8765,-8.3386
L 9.8765,-8.2287
L 9.8765,-8.1189
L 9.8765,-8.0091
L 9.8765,-7.8992
L 9.8765,-7.7894
L 9.8171,-7.8503
L 9.7489,-7.9364
L 9.6807,-8.0225
L 9.6125,-8.1086
L 9.5443,-8.1947
L 9.4761,-8.2807
L 9.4079,-8.3668
L 9.3397,-8.4529
L 9.2715,-8.539
L 9.2033,-8.6251
L 9.1352,-8.7112
L 9.067,-8.7973
L 8.9988,-8.8834
L 8.9306,-8.9695
L 8.8624,-9.0556
L 8.7942,-9.1417
L 8.726,-9.2278
L 8.6578,-9.3139
L 8.5896,-9.4
L 8.5215,-9.4861
L 8.4533,-9.5722
L 8.3851,-9.6583
L 8.3169,-9.744
 " stroke = "black" stroke-width = ".1" fill = "none" />
</svg>