<?xml version="1.0"?>
<!DOCTYPE svg PUBLIC "-//W3C//DTD SVG 1.1//EN"
 "http://www.w3.org/Graphics/SVG/1.1/DTD/svg11.dtd">
 
<svg xmlns="http://www.w3.org/2000/svg" version = "1.1"
      preserveAspectRatio = "xMinYMin meet" viewBox = "0 0 150 150">
 <path d= "M-8.7548,-2.5246 
L -7.8161,-9.6802
L -7.6132,-9.424
L -7.4103,-9.1677
L -7.2073,-8.9115
L -7.0044,-8.6553
L -6.8014,-8.399
L -6.5985,-8.1428
L -6.3956,-7.8866
L -6.1926,-7.6303
L -5.9897,-7.3741
L -5.7868,-7.1179
L -5.5838,-6.8617
L -5.3964,-6.5967
L -5.2839,-6.2899
L -5.1714,-5.983
L -5.0589,-5.6761
L -4.9464,-5.3692
L -4.8339,-5.0623
L -4.7214,-4.7554
L -4.6089,-4.4485
L -4.4964,-4.1416
L -4.3839,-3.8347
L -4.2714,-3.5278
L -4.1589,-3.2209
L -4.0464,-2.914
L -3.9339,-2.6072
L -3.9471,-2.5246
L -4.15,-2.7808
L -4.353,-3.0371
L -4.5559,-3.2933
L -4.7588,-3.5495
L -4.9618,-3.8058
L -5.1647,-4.062
L -5.3677,-4.3182
L -5.5706,-4.5745
L -5.7735,-4.8307
L -5.9765,-5.0869
L -6.1794,-5.3432
L -6.3823,-5.5994
L -6.5853,-5.8556
L -6.7882,-6.1119
L -6.9911,-6.3681
L -7.1941,-6.6243
L -7.397,-6.8806
L -7.6,-7.1368
L -7.8029,-7.393
L -8.0058,-7.6493
L -8.2088,-7.9055
L -8.4117,-8.1617
L -8.6146,-8.418
L -8.7548,-8.6843
L -8.6423,-8.9912
L -8.5298,-9.2981
L -8.4173,-9.605
L -8.143,-9.6802
L -7.8161,-9.680
 " stroke = "black" stroke-width = ".1" fill = "none" />
</svg>