<?xml version="1.0"?>
<!DOCTYPE svg PUBLIC "-//W3C//DTD SVG 1.1//EN"
 "http://www.w3.org/Graphics/SVG/1.1/DTD/svg11.dtd">
 
<svg xmlns="http://www.w3.org/2000/svg" version = "1.1"
      preserveAspectRatio = "xMinYMin meet" viewBox = "0 0 150 150">
 <path d= "M-8.6658,2.5043 
L -6.9192,0.5342
L -6.8218,0.6571
L -6.7245,0.78
L -6.6272,0.9029
L -6.5298,1.0258
L -6.4325,1.1487
L -6.3352,1.2716
L -6.2378,1.3945
L -6.1405,1.5174
L -6.0431,1.6403
L -5.9458,1.7632
L -5.8485,1.8861
L -5.7511,2.009
L -5.6538,2.1319
L -5.5565,2.2548
L -5.4591,2.3777
L -5.3618,2.5006
L -5.5109,2.5043
L -5.6677,2.5043
L -5.8245,2.5043
L -5.9812,2.5043
L -6.138,2.5043
L -6.2948,2.5043
L -6.4516,2.5043
L -6.6083,2.5043
L -6.7651,2.5043
L -6.9219,2.5043
L -7.0787,2.5043
L -7.2057,2.4428
L -7.3031,2.3199
L -7.4004,2.197
L -7.4977,2.0741
L -7.5951,1.9512
L -7.6924,1.8283
L -7.7897,1.7054
L -7.8871,1.5825
L -7.9844,1.4596
L -8.0818,1.3367
L -8.1791,1.2138
L -8.2764,1.0909
L -8.3738,0.968
L -8.4711,0.8451
L -8.5684,0.7222
L -8.6658,0.5993
L -8.6437,0.5342
L -8.4869,0.5342
L -8.3302,0.5342
L -8.1734,0.5342
L -8.0166,0.5342
L -7.8598,0.5342
L -7.7031,0.5342
L -7.5463,0.5342
L -7.3895,0.5342
L -7.2327,0.5342
L -7.0759,0.5342
L -6.9192,0.534
 " stroke = "black" stroke-width = ".1" fill = "none" />
</svg>