<?xml version="1.0"?>
<!DOCTYPE svg PUBLIC "-//W3C//DTD SVG 1.1//EN"
 "http://www.w3.org/Graphics/SVG/1.1/DTD/svg11.dtd">
 
<svg xmlns="http://www.w3.org/2000/svg" version = "1.1"
      preserveAspectRatio = "xMinYMin meet" viewBox = "0 0 150 150">
 <path d= "M0.9041,-0.5354 
L 0.9041,-5.4812
L 1.0348,-5.3162
L 1.1655,-5.1512
L 1.2962,-4.9862
L 1.4269,-4.8212
L 1.5575,-4.6562
L 1.6882,-4.4912
L 1.8189,-4.3261
L 1.9496,-4.1611
L 2.0803,-3.9961
L 2.211,-3.8311
L 2.3417,-3.6661
L 2.4723,-3.5011
L 2.603,-3.3361
L 2.7337,-3.1711
L 2.8644,-3.0061
L 2.9951,-2.8411
L 3.0883,-2.663
L 3.0883,-2.4525
L 3.0883,-2.242
L 3.0883,-2.0315
L 3.0883,-1.8211
L 3.0883,-1.6106
L 3.0883,-1.4001
L 3.0883,-1.1896
L 3.0883,-0.9791
L 3.0883,-0.7686
L 3.0883,-0.5581
L 3.023,-0.5354
L 2.8923,-0.7004
L 2.7616,-0.8654
L 2.6309,-1.0304
L 2.5003,-1.1954
L 2.3696,-1.3604
L 2.2389,-1.5254
L 2.1082,-1.6904
L 1.9775,-1.8554
L 1.8468,-2.0204
L 1.7161,-2.1854
L 1.5854,-2.3505
L 1.4548,-2.5155
L 1.3241,-2.6805
L 1.1934,-2.8455
L 1.0627,-3.0105
L 0.932,-3.1755
L 0.9041,-3.3763
L 0.9041,-3.5868
L 0.9041,-3.7973
L 0.9041,-4.0078
L 0.9041,-4.2183
L 0.9041,-4.4287
L 0.9041,-4.6392
L 0.9041,-4.8497
L 0.9041,-5.0602
L 0.9041,-5.2707
L 0.9041,-5.481
 " stroke = "black" stroke-width = ".1" fill = "none" />
</svg>