<?xml version="1.0"?>
<!DOCTYPE svg PUBLIC "-//W3C//DTD SVG 1.1//EN"
 "http://www.w3.org/Graphics/SVG/1.1/DTD/svg11.dtd">
 
<svg xmlns="http://www.w3.org/2000/svg" version = "1.1"
      preserveAspectRatio = "xMinYMin meet" viewBox = "0 0 150 150">
 <path d= "M1.2179,-7.3193 
L 2.9732,-9.6801
L 3.056,-9.5755
L 3.0883,-9.4534
L 3.0883,-9.32
L 3.0883,-9.1867
L 3.0883,-9.0533
L 3.0883,-8.9199
L 3.0883,-8.7865
L 3.0883,-8.6531
L 3.0883,-8.5198
L 3.0883,-8.3864
L 3.0883,-8.253
L 3.0883,-8.1196
L 3.0883,-7.9862
L 3.0883,-7.8529
L 3.0883,-7.7195
L 3.0883,-7.5861
L 3.0883,-7.4527
L 3.0883,-7.3193
L 3.0397,-7.3256
L 2.9569,-7.4302
L 2.8741,-7.5347
L 2.7913,-7.6393
L 2.7085,-7.7439
L 2.6257,-7.8484
L 2.5429,-7.953
L 2.4601,-8.0575
L 2.3773,-8.1621
L 2.2944,-8.2667
L 2.2116,-8.3712
L 2.1288,-8.4758
L 2.046,-8.5803
L 1.9632,-8.6849
L 1.8804,-8.7894
L 1.7976,-8.894
L 1.7148,-8.9986
L 1.632,-9.1031
L 1.5491,-9.2077
L 1.4663,-9.3122
L 1.3835,-9.4168
L 1.3007,-9.5214
L 1.2179,-9.6259
L 1.2393,-9.6801
L 1.3726,-9.6801
L 1.506,-9.6801
L 1.6394,-9.6801
L 1.7728,-9.6801
L 1.9062,-9.6801
L 2.0395,-9.6801
L 2.1729,-9.6801
L 2.3063,-9.6801
L 2.4397,-9.6801
L 2.5731,-9.6801
L 2.7064,-9.6801
L 2.8398,-9.6801
L 2.9732,-9.680
 " stroke = "black" stroke-width = ".1" fill = "none" />
</svg>