<?xml version="1.0"?>
<!DOCTYPE svg PUBLIC "-//W3C//DTD SVG 1.1//EN"
 "http://www.w3.org/Graphics/SVG/1.1/DTD/svg11.dtd">
 
<svg xmlns="http://www.w3.org/2000/svg" version = "1.1"
      preserveAspectRatio = "xMinYMin meet" viewBox = "0 0 150 150">
 <path d= "M-9.3096,1.7833 
L -3.8663,-2.4225
L -4.1753,-2.8127
L -4.4843,-3.2029
L -4.7933,-3.5931
L -5.1023,-3.9832
L -5.4114,-4.3734
L -5.7204,-4.7636
L -6.0294,-5.1538
L -6.3384,-5.5439
L -6.6474,-5.9341
L -6.9565,-6.3243
L -7.2655,-6.7145
L -7.5745,-7.1047
L -7.8835,-7.4948
L -8.1925,-7.885
L -8.5016,-8.2752
L -8.7957,-8.5727
L -8.967,-8.1053
L -9.1383,-7.638
L -9.3096,-7.1707
L -9.103,-6.7641
L -8.7939,-6.3739
L -8.4849,-5.9837
L -8.1759,-5.5935
L -7.8669,-5.2034
L -7.6694,-5.4788
L -7.5045,-5.9484
L -7.3411,-6.0465
L -7.1801,-5.5756
L -7.0191,-5.1046
L -6.8582,-4.6336
L -6.6972,-4.1626
L -6.5362,-3.6916
L -6.3203,-3.2506
L -6.0113,-2.8605
L -5.7023,-2.4703
L -5.3933,-2.0801
L -5.0842,-1.6899
L -4.7752,-1.2998
L -4.4662,-0.9096
L -4.1572,-0.5194
L -3.8482,-0.1292
L -3.5391,0.261
L -3.2301,0.6511
L -2.9211,1.0413
L -2.6121,1.4315
L -2.3245,1.7833
L -2.4958,1.316
L -2.6671,0.8487
L -2.8384,0.3814
L -3.0097,-0.0859
L -3.181,-0.5533
L -3.3523,-1.0206
L -3.5236,-1.4879
L -3.6949,-1.9552
L -3.8663,-2.422
 " stroke = "black" stroke-width = ".1" fill = "none" />
</svg>