<?xml version="1.0"?>
<!DOCTYPE svg PUBLIC "-//W3C//DTD SVG 1.1//EN"
 "http://www.w3.org/Graphics/SVG/1.1/DTD/svg11.dtd">
 
<svg xmlns="http://www.w3.org/2000/svg" version = "1.1"
      preserveAspectRatio = "xMinYMin meet" viewBox = "0 0 150 150">
 <path d= "M-10.4686,-2.0342 
L -9.9151,-5.519
L -9.8204,-5.3994
L -9.7256,-5.2798
L -9.6309,-5.1602
L -9.5362,-5.0407
L -9.4415,-4.9211
L -9.3468,-4.8015
L -9.2521,-4.6819
L -9.1574,-4.5624
L -9.0627,-4.4428
L -8.968,-4.3232
L -8.8733,-4.2036
L -8.7786,-4.084
L -8.6839,-3.9645
L -8.5892,-3.8449
L -8.4945,-3.7253
L -8.3998,-3.6057
L -8.3733,-3.4747
L -8.4239,-3.3308
L -8.4744,-3.1869
L -8.525,-3.043
L -8.5755,-2.899
L -8.6261,-2.7551
L -8.6766,-2.6112
L -8.7272,-2.4673
L -8.7777,-2.3234
L -8.8283,-2.1794
L -8.8788,-2.0355
L -8.9533,-2.0342
L -9.048,-2.1537
L -9.1427,-2.2733
L -9.2374,-2.3929
L -9.3321,-2.5125
L -9.4268,-2.632
L -9.5215,-2.7516
L -9.6162,-2.8712
L -9.7109,-2.9908
L -9.8056,-3.1104
L -9.9003,-3.2299
L -9.995,-3.3495
L -10.0898,-3.4691
L -10.1845,-3.5887
L -10.2792,-3.7083
L -10.3739,-3.8278
L -10.4686,-3.9474
L -10.4401,-4.0868
L -10.3876,-4.23
L -10.3351,-4.3732
L -10.2826,-4.5164
L -10.2301,-4.6597
L -10.1776,-4.8029
L -10.1251,-4.9461
L -10.0726,-5.0893
L -10.0201,-5.2325
L -9.9676,-5.3758
L -9.9151,-5.51
 " stroke = "black" stroke-width = ".1" fill = "none" />
</svg>