<?xml version="1.0"?>
<!DOCTYPE svg PUBLIC "-//W3C//DTD SVG 1.1//EN"
 "http://www.w3.org/Graphics/SVG/1.1/DTD/svg11.dtd">
 
<svg xmlns="http://www.w3.org/2000/svg" version = "1.1"
      preserveAspectRatio = "xMinYMin meet" viewBox = "0 0 150 150">
 <path d= "M0.9041,-2.8058 
L 0.9041,-7.7517
L 1.0348,-7.5867
L 1.1655,-7.4217
L 1.2962,-7.2566
L 1.4269,-7.0916
L 1.5575,-6.9266
L 1.6882,-6.7616
L 1.8189,-6.5966
L 1.9496,-6.4316
L 2.0803,-6.2666
L 2.211,-6.1016
L 2.3417,-5.9366
L 2.4723,-5.7716
L 2.603,-5.6066
L 2.7337,-5.4415
L 2.8644,-5.2765
L 2.9951,-5.1115
L 3.0883,-4.9335
L 3.0883,-4.723
L 3.0883,-4.5125
L 3.0883,-4.302
L 3.0883,-4.0915
L 3.0883,-3.881
L 3.0883,-3.6705
L 3.0883,-3.46
L 3.0883,-3.2496
L 3.0883,-3.0391
L 3.0883,-2.8286
L 3.023,-2.8058
L 2.8923,-2.9708
L 2.7616,-3.1358
L 2.6309,-3.3009
L 2.5003,-3.4659
L 2.3696,-3.6309
L 2.2389,-3.7959
L 2.1082,-3.9609
L 1.9775,-4.1259
L 1.8468,-4.2909
L 1.7161,-4.4559
L 1.5854,-4.6209
L 1.4548,-4.7859
L 1.3241,-4.9509
L 1.1934,-5.1159
L 1.0627,-5.281
L 0.932,-5.446
L 0.9041,-5.6467
L 0.9041,-5.8572
L 0.9041,-6.0677
L 0.9041,-6.2782
L 0.9041,-6.4887
L 0.9041,-6.6992
L 0.9041,-6.9097
L 0.9041,-7.1202
L 0.9041,-7.3307
L 0.9041,-7.5412
L 0.9041,-7.751
 " stroke = "black" stroke-width = ".1" fill = "none" />
</svg>