<?xml version="1.0"?>
<!DOCTYPE svg PUBLIC "-//W3C//DTD SVG 1.1//EN"
 "http://www.w3.org/Graphics/SVG/1.1/DTD/svg11.dtd">
 
<svg xmlns="http://www.w3.org/2000/svg" version = "1.1"
      preserveAspectRatio = "xMinYMin meet" viewBox = "0 0 150 150">
 <path d= "M8.2482,-3.3296 
L 8.2482,-5.2903
L 8.3583,-5.2903
L 8.4684,-5.2903
L 8.5786,-5.2903
L 8.6887,-5.2903
L 8.7989,-5.2903
L 8.909,-5.2903
L 9.0192,-5.2903
L 9.1293,-5.2903
L 9.2395,-5.2903
L 9.3496,-5.2903
L 9.4598,-5.2903
L 9.5699,-5.2903
L 9.6801,-5.2903
L 9.7902,-5.2903
L 9.8122,-5.2021
L 9.8122,-5.092
L 9.8122,-4.9818
L 9.8122,-4.8717
L 9.8122,-4.7615
L 9.8122,-4.6514
L 9.8122,-4.5413
L 9.8122,-4.4311
L 9.8122,-4.321
L 9.8122,-4.2108
L 9.8122,-4.1007
L 9.8122,-3.9905
L 9.8122,-3.8804
L 9.8122,-3.7702
L 9.8122,-3.6601
L 9.8122,-3.5499
L 9.8122,-3.4398
L 9.8122,-3.3296
L 9.7526,-3.3907
L 9.6843,-3.477
L 9.6159,-3.5634
L 9.5475,-3.6497
L 9.4791,-3.736
L 9.4107,-3.8224
L 9.3423,-3.9087
L 9.2739,-3.9951
L 9.2056,-4.0814
L 9.1372,-4.1678
L 9.0688,-4.2541
L 9.0004,-4.3405
L 8.932,-4.4268
L 8.8636,-4.5132
L 8.7952,-4.5995
L 8.7269,-4.6858
L 8.6585,-4.7722
L 8.5901,-4.8585
L 8.5217,-4.9449
L 8.4533,-5.0312
L 8.3849,-5.1176
L 8.3165,-5.2039
L 8.2482,-5.290
 " stroke = "black" stroke-width = ".1" fill = "none" />
</svg>