<?xml version="1.0"?>
<!DOCTYPE svg PUBLIC "-//W3C//DTD SVG 1.1//EN"
 "http://www.w3.org/Graphics/SVG/1.1/DTD/svg11.dtd">
 
<svg xmlns="http://www.w3.org/2000/svg" version = "1.1"
      preserveAspectRatio = "xMinYMin meet" viewBox = "0 0 150 150">
 <path d= "M7.628,3.4134 
L 7.628,-1.5324
L 7.7587,-1.3674
L 7.8893,-1.2024
L 8.02,-1.0374
L 8.1507,-0.8724
L 8.2814,-0.7074
L 8.4121,-0.5424
L 8.5428,-0.3773
L 8.6735,-0.2123
L 8.8042,-0.0473
L 8.9348,0.1177
L 9.0655,0.2827
L 9.1962,0.4477
L 9.3269,0.6127
L 9.4576,0.7777
L 9.5883,0.9427
L 9.719,1.1077
L 9.8122,1.2858
L 9.8122,1.4963
L 9.8122,1.7068
L 9.8122,1.9173
L 9.8122,2.1277
L 9.8122,2.3382
L 9.8122,2.5487
L 9.8122,2.7592
L 9.8122,2.9697
L 9.8122,3.1802
L 9.8122,3.3907
L 9.7469,3.4134
L 9.6162,3.2484
L 9.4855,3.0834
L 9.3548,2.9184
L 9.2241,2.7534
L 9.0934,2.5884
L 8.9627,2.4234
L 8.8321,2.2584
L 8.7014,2.0934
L 8.5707,1.9284
L 8.44,1.7634
L 8.3093,1.5983
L 8.1786,1.4333
L 8.0479,1.2683
L 7.9173,1.1033
L 7.7866,0.9383
L 7.6559,0.7733
L 7.628,0.5725
L 7.628,0.362
L 7.628,0.1515
L 7.628,-0.059
L 7.628,-0.2695
L 7.628,-0.4799
L 7.628,-0.6904
L 7.628,-0.9009
L 7.628,-1.1114
L 7.628,-1.3219
L 7.628,-1.532
 " stroke = "black" stroke-width = ".1" fill = "none" />
</svg>