<?xml version="1.0"?>
<!DOCTYPE svg PUBLIC "-//W3C//DTD SVG 1.1//EN"
 "http://www.w3.org/Graphics/SVG/1.1/DTD/svg11.dtd">
 
<svg xmlns="http://www.w3.org/2000/svg" version = "1.1"
      preserveAspectRatio = "xMinYMin meet" viewBox = "0 0 150 150">
 <path d= "M-6.435,5.5063 
L -6.435,-3.3954
L -6.193,-3.0898
L -5.9509,-2.7843
L -5.7089,-2.4787
L -5.4669,-2.1731
L -5.2249,-1.8676
L -4.9829,-1.562
L -4.7409,-1.2564
L -4.4989,-0.9508
L -4.2569,-0.6453
L -4.0149,-0.3397
L -3.7729,-0.0341
L -3.5308,0.2714
L -3.2888,0.577
L -3.0468,0.8826
L -2.8048,1.1881
L -2.5628,1.4937
L -2.3208,1.7993
L -2.1849,2.1643
L -2.0507,2.5303
L -1.9166,2.8962
L -1.7824,3.2622
L -1.6483,3.6282
L -1.5141,3.9942
L -1.38,4.3602
L -1.2458,4.7261
L -1.1116,5.0921
L -0.9775,5.4581
L -1.183,5.5063
L -1.425,5.2008
L -1.667,4.8952
L -1.909,4.5896
L -2.1511,4.2841
L -2.3931,3.9785
L -2.6351,3.6729
L -2.8771,3.3674
L -3.1191,3.0618
L -3.3611,2.7562
L -3.6031,2.4506
L -3.8451,2.1451
L -4.0871,1.8395
L -4.3291,1.5339
L -4.5712,1.2284
L -4.8132,0.9228
L -5.0552,0.6172
L -5.1743,0.2931
L -5.3004,-0.0758
L -5.4264,-0.4446
L -5.5525,-0.8135
L -5.6786,-1.1823
L -5.8046,-1.5512
L -5.9307,-1.92
L -6.0568,-2.2888
L -6.1828,-2.6577
L -6.3089,-3.0265
L -6.435,-3.395
 " stroke = "black" stroke-width = ".1" fill = "none" />
</svg>