<?xml version="1.0"?>
<!DOCTYPE svg PUBLIC "-//W3C//DTD SVG 1.1//EN"
 "http://www.w3.org/Graphics/SVG/1.1/DTD/svg11.dtd">
 
<svg xmlns="http://www.w3.org/2000/svg" version = "1.1"
      preserveAspectRatio = "xMinYMin meet" viewBox = "0 0 150 150">
 <path d= "M4.5819,4.5155 
L 4.5819,3.7034
L 4.6275,3.7034
L 4.6731,3.7034
L 4.7188,3.7034
L 4.7644,3.7034
L 4.81,3.7034
L 4.8556,3.7034
L 4.9013,3.7034
L 4.9469,3.7034
L 4.9925,3.7034
L 5.0381,3.7034
L 5.0838,3.7034
L 5.1294,3.7034
L 5.175,3.7034
L 5.2206,3.7034
L 5.2298,3.7399
L 5.2298,3.7855
L 5.2298,3.8311
L 5.2298,3.8768
L 5.2298,3.9224
L 5.2298,3.968
L 5.2298,4.0137
L 5.2298,4.0593
L 5.2298,4.1049
L 5.2298,4.1505
L 5.2298,4.1962
L 5.2298,4.2418
L 5.2298,4.2874
L 5.2298,4.333
L 5.2298,4.3787
L 5.2298,4.4243
L 5.2298,4.4699
L 5.2298,4.5155
L 5.2051,4.4903
L 5.1768,4.4545
L 5.1484,4.4187
L 5.1201,4.383
L 5.0918,4.3472
L 5.0635,4.3114
L 5.0351,4.2757
L 5.0068,4.2399
L 4.9785,4.2041
L 4.9501,4.1684
L 4.9218,4.1326
L 4.8935,4.0968
L 4.8652,4.0611
L 4.8368,4.0253
L 4.8085,3.9895
L 4.7802,3.9538
L 4.7519,3.918
L 4.7235,3.8822
L 4.6952,3.8465
L 4.6669,3.8107
L 4.6385,3.7749
L 4.6102,3.7392
L 4.5819,3.703
 " stroke = "black" stroke-width = ".1" fill = "none" />
</svg>