<?xml version="1.0"?>
<!DOCTYPE svg PUBLIC "-//W3C//DTD SVG 1.1//EN"
 "http://www.w3.org/Graphics/SVG/1.1/DTD/svg11.dtd">
 
<svg xmlns="http://www.w3.org/2000/svg" version = "1.1"
      preserveAspectRatio = "xMinYMin meet" viewBox = "0 0 150 150">
 <path d= "M-12.1642,2.7158 
L -11.6219,-0.8627
L -11.5049,-0.715
L -11.3879,-0.5672
L -11.2709,-0.4195
L -11.1539,-0.2718
L -11.0369,-0.1241
L -10.9199,0.0236
L -10.8029,0.1714
L -10.6859,0.3191
L -10.5689,0.4668
L -10.4519,0.6145
L -10.3349,0.7623
L -10.2179,0.91
L -10.1009,1.0577
L -9.9839,1.2054
L -9.867,1.3531
L -9.75,1.5009
L -9.633,1.6486
L -9.516,1.7963
L -9.399,1.944
L -9.282,2.0918
L -9.165,2.2395
L -9.048,2.3872
L -8.9944,2.5043
L -9.1828,2.5043
L -9.3713,2.5043
L -9.5597,2.5043
L -9.7481,2.5043
L -9.9366,2.5043
L -10.125,2.5043
L -10.3135,2.5043
L -10.4781,2.5376
L -10.5392,2.7158
L -10.6433,2.6434
L -10.7603,2.4957
L -10.8773,2.348
L -10.9943,2.2002
L -11.1113,2.0525
L -11.2282,1.9048
L -11.3452,1.7571
L -11.4622,1.6094
L -11.5792,1.4616
L -11.6962,1.3139
L -11.8132,1.1662
L -11.9302,1.0185
L -12.0472,0.8707
L -12.1642,0.723
L -12.1407,0.5527
L -12.0759,0.3758
L -12.011,0.1989
L -11.9462,0.022
L -11.8813,-0.155
L -11.8165,-0.3319
L -11.7516,-0.5088
L -11.6868,-0.6858
L -11.6219,-0.862
 " stroke = "black" stroke-width = ".1" fill = "none" />
</svg>