<?xml version="1.0"?>
<!DOCTYPE svg PUBLIC "-//W3C//DTD SVG 1.1//EN"
 "http://www.w3.org/Graphics/SVG/1.1/DTD/svg11.dtd">
 
<svg xmlns="http://www.w3.org/2000/svg" version = "1.1"
      preserveAspectRatio = "xMinYMin meet" viewBox = "0 0 150 150">
 <path d= "M7.5637,-7.4317 
L 7.5637,-8.4249
L 7.5637,-8.5653
L 7.5637,-8.7057
L 7.5637,-8.8461
L 7.5637,-8.9865
L 7.5637,-9.1268
L 7.5637,-9.2672
L 7.5637,-9.4076
L 7.5637,-9.548
L 7.5637,-9.6884
L 7.6481,-9.7444
L 7.7885,-9.7444
L 7.9289,-9.7444
L 8.0692,-9.7444
L 8.2096,-9.7444
L 8.3375,-9.7184
L 8.4246,-9.6084
L 8.5118,-9.4983
L 8.5989,-9.3883
L 8.6861,-9.2782
L 8.7733,-9.1682
L 8.8604,-9.0581
L 8.9476,-8.9481
L 9.0347,-8.838
L 9.1219,-8.728
L 9.2091,-8.6179
L 9.2962,-8.5079
L 9.3834,-8.3978
L 9.4706,-8.2878
L 9.5577,-8.1777
L 9.6449,-8.0677
L 9.732,-7.9576
L 9.8192,-7.8476
L 9.8765,-7.7271
L 9.8765,-7.5867
L 9.8765,-7.4463
L 9.7507,-7.4317
L 9.6103,-7.4317
L 9.4699,-7.4317
L 9.3295,-7.4317
L 9.1892,-7.4317
L 9.0488,-7.4317
L 8.9084,-7.4317
L 8.768,-7.4317
L 8.6276,-7.4317
L 8.4872,-7.4317
L 8.3482,-7.4344
L 8.261,-7.5445
L 8.1739,-7.6545
L 8.0867,-7.7646
L 7.9995,-7.8747
L 7.9124,-7.9847
L 7.8252,-8.0948
L 7.738,-8.2048
L 7.6509,-8.3149
L 7.5637,-8.424
 " stroke = "black" stroke-width = ".1" fill = "none" />
</svg>