<?xml version="1.0"?>
<!DOCTYPE svg PUBLIC "-//W3C//DTD SVG 1.1//EN"
 "http://www.w3.org/Graphics/SVG/1.1/DTD/svg11.dtd">
 
<svg xmlns="http://www.w3.org/2000/svg" version = "1.1"
      preserveAspectRatio = "xMinYMin meet" viewBox = "0 0 150 150">
 <path d= "M0.9041,5.5664 
L 4.5819,3.7034
L 4.776,3.9484
L 4.9701,4.1935
L 5.1641,4.4386
L 5.2298,4.7283
L 5.2298,5.0409
L 5.2298,5.3535
L 5.13,5.5664
L 4.8174,5.5664
L 4.5048,5.5664
L 4.2176,5.5139
L 4.0235,5.2688
L 3.8294,5.0238
L 3.6353,4.7787
L 3.4413,4.5337
L 3.2472,4.2886
L 3.0531,4.0435
L 2.859,3.7985
L 2.6649,3.5534
L 2.4708,3.3084
L 2.2767,3.0633
L 2.0827,2.8183
L 1.8886,2.5732
L 1.6945,2.3281
L 1.5004,2.0831
L 1.3063,1.838
L 1.1122,1.593
L 0.9181,1.3479
L 0.9041,1.0402
L 0.9041,0.7276
L 0.9041,0.415
L 0.9041,0.1024
L 0.9041,-0.2103
L 0.9041,-0.5229
L 0.9041,-0.8355
L 1.0331,-0.7774
L 1.2272,-0.5323
L 1.4213,-0.2873
L 1.6154,-0.0422
L 1.8095,0.2029
L 2.0036,0.4479
L 2.1976,0.693
L 2.3917,0.938
L 2.5858,1.1831
L 2.7799,1.4281
L 2.974,1.6732
L 3.0883,1.946
L 3.0883,2.2586
L 3.091,2.5712
L 3.1246,2.8817
L 3.2165,3.1797
L 3.395,3.4341
L 3.6564,3.6022
L 3.9577,3.6825
L 4.2693,3.7034
L 4.5819,3.703
 " stroke = "black" stroke-width = ".1" fill = "none" />
</svg>