<?xml version="1.0"?>
<!DOCTYPE svg PUBLIC "-//W3C//DTD SVG 1.1//EN"
 "http://www.w3.org/Graphics/SVG/1.1/DTD/svg11.dtd">
 
<svg xmlns="http://www.w3.org/2000/svg" version = "1.1"
      preserveAspectRatio = "xMinYMin meet" viewBox = "0 0 150 150">
 <path d= "M7.628,5.5665 
L 7.628,0.7381
L 7.7553,0.8988
L 7.8826,1.0596
L 8.01,1.2204
L 8.1373,1.3812
L 8.2647,1.542
L 8.392,1.7028
L 8.5193,1.8635
L 8.6467,2.0243
L 8.774,2.1851
L 8.9014,2.3459
L 9.0287,2.5067
L 9.156,2.6674
L 9.2834,2.8282
L 9.4107,2.989
L 9.5381,3.1498
L 9.6654,3.3106
L 9.7927,3.4714
L 9.8122,3.6697
L 9.8122,3.8748
L 9.8122,4.0799
L 9.8122,4.285
L 9.8122,4.4901
L 9.8122,4.6952
L 9.8122,4.9003
L 9.8122,5.1054
L 9.8122,5.3105
L 9.8122,5.5156
L 9.6581,5.5665
L 9.5291,5.409
L 9.4018,5.2482
L 9.2745,5.0874
L 9.1471,4.9267
L 9.0198,4.7659
L 8.8924,4.6051
L 8.7651,4.4443
L 8.6378,4.2835
L 8.5104,4.1227
L 8.3831,3.962
L 8.2558,3.8012
L 8.1284,3.6404
L 8.0011,3.4796
L 7.8737,3.3188
L 7.7464,3.158
L 7.628,2.9942
L 7.628,2.7891
L 7.628,2.584
L 7.628,2.3789
L 7.628,2.1738
L 7.628,1.9687
L 7.628,1.7636
L 7.628,1.5585
L 7.628,1.3534
L 7.628,1.1483
L 7.628,0.9432
L 7.628,0.738
 " stroke = "black" stroke-width = ".1" fill = "none" />
</svg>