<?xml version="1.0"?>
<!DOCTYPE svg PUBLIC "-//W3C//DTD SVG 1.1//EN"
 "http://www.w3.org/Graphics/SVG/1.1/DTD/svg11.dtd">
 
<svg xmlns="http://www.w3.org/2000/svg" version = "1.1"
      preserveAspectRatio = "xMinYMin meet" viewBox = "0 0 150 150">
 <path d= "M7.628,-1.1004 
L 8.2482,-5.2903
L 8.3657,-5.1418
L 8.4833,-4.9934
L 8.6009,-4.8449
L 8.7184,-4.6965
L 8.836,-4.548
L 8.9536,-4.3996
L 9.0712,-4.2511
L 9.1887,-4.1027
L 9.3063,-3.9542
L 9.4239,-3.8058
L 9.5415,-3.6573
L 9.659,-3.5089
L 9.7766,-3.3604
L 9.8122,-3.1834
L 9.8122,-2.9941
L 9.8122,-2.8047
L 9.8122,-2.6153
L 9.8122,-2.426
L 9.8122,-2.2366
L 9.8122,-2.0472
L 9.8122,-1.8579
L 9.8122,-1.6685
L 9.8122,-1.4791
L 9.8122,-1.2898
L 9.8122,-1.1004
L 9.729,-1.15
L 9.6115,-1.2984
L 9.4939,-1.4469
L 9.3763,-1.5953
L 9.2588,-1.7438
L 9.1412,-1.8922
L 9.0236,-2.0407
L 8.906,-2.1891
L 8.7885,-2.3376
L 8.6709,-2.486
L 8.5533,-2.6345
L 8.4357,-2.7829
L 8.3182,-2.9314
L 8.2006,-3.0798
L 8.083,-3.2283
L 7.9655,-3.3767
L 7.8479,-3.5252
L 7.7303,-3.6736
L 7.628,-3.8274
L 7.628,-4.0168
L 7.628,-4.2061
L 7.628,-4.3955
L 7.628,-4.5849
L 7.628,-4.7742
L 7.628,-4.9636
L 7.628,-5.153
L 7.68,-5.2903
L 7.8694,-5.2903
L 8.0588,-5.2903
L 8.2482,-5.290
 " stroke = "black" stroke-width = ".1" fill = "none" />
</svg>