<?xml version="1.0"?>
<!DOCTYPE svg PUBLIC "-//W3C//DTD SVG 1.1//EN"
 "http://www.w3.org/Graphics/SVG/1.1/DTD/svg11.dtd">
 
<svg xmlns="http://www.w3.org/2000/svg" version = "1.1"
      preserveAspectRatio = "xMinYMin meet" viewBox = "0 0 150 150">
 <path d= "M-12.7318,4.2767 
L -12.1908,0.6894
L -12.0933,0.8126
L -11.9957,0.9358
L -11.8981,1.0591
L -11.8005,1.1823
L -11.7029,1.3055
L -11.6053,1.4287
L -11.5077,1.5519
L -11.4101,1.6752
L -11.3125,1.7984
L -11.2149,1.9216
L -11.1174,2.0448
L -11.0198,2.168
L -10.9222,2.2913
L -10.8246,2.4145
L -10.727,2.5377
L -10.6294,2.6609
L -10.5645,2.7897
L -10.6155,2.9384
L -10.6664,3.0871
L -10.7174,3.2358
L -10.7683,3.3845
L -10.8193,3.5332
L -10.8702,3.6819
L -10.9212,3.8306
L -10.9721,3.9793
L -11.0231,4.128
L -11.074,4.2767
L -11.1512,4.2725
L -11.2488,4.1493
L -11.3464,4.0261
L -11.444,3.9029
L -11.5416,3.7797
L -11.6392,3.6564
L -11.7367,3.5332
L -11.8343,3.41
L -11.9319,3.2868
L -12.0295,3.1636
L -12.1271,3.0404
L -12.2247,2.9171
L -12.3223,2.7939
L -12.4199,2.6707
L -12.5175,2.5475
L -12.6151,2.4243
L -12.7126,2.301
L -12.7318,2.1652
L -12.6777,2.0176
L -12.6236,1.8701
L -12.5695,1.7225
L -12.5154,1.5749
L -12.4613,1.4273
L -12.4072,1.2797
L -12.3531,1.1322
L -12.299,0.9846
L -12.2449,0.837
L -12.1908,0.689
 " stroke = "black" stroke-width = ".1" fill = "none" />
</svg>