<?xml version="1.0"?>
<!DOCTYPE svg PUBLIC "-//W3C//DTD SVG 1.1//EN"
 "http://www.w3.org/Graphics/SVG/1.1/DTD/svg11.dtd">
 
<svg xmlns="http://www.w3.org/2000/svg" version = "1.1"
      preserveAspectRatio = "xMinYMin meet" viewBox = "0 0 150 150">
 <path d= "M7.5637,-7.4317 
L 7.5637,-8.4249
L 7.5981,-8.3815
L 7.6325,-8.3381
L 7.6669,-8.2946
L 7.7013,-8.2512
L 7.7357,-8.2078
L 7.7701,-8.1643
L 7.8045,-8.1209
L 7.8389,-8.0775
L 7.8733,-8.0341
L 7.9077,-7.9906
L 7.9421,-7.9472
L 7.9765,-7.9038
L 8.0109,-7.8604
L 8.0452,-7.8169
L 8.0796,-7.7735
L 8.114,-7.7301
L 8.1484,-7.6866
L 8.1828,-7.6432
L 8.2172,-7.5998
L 8.2516,-7.5564
L 8.286,-7.5129
L 8.3204,-7.4695
L 8.3432,-7.4317
L 8.2878,-7.4317
L 8.2324,-7.4317
L 8.177,-7.4317
L 8.1216,-7.4317
L 8.0662,-7.4317
L 8.0108,-7.4317
L 7.9554,-7.4317
L 7.9,-7.4317
L 7.8446,-7.4317
L 7.7892,-7.4317
L 7.7338,-7.4317
L 7.6784,-7.4317
L 7.6231,-7.4317
L 7.5677,-7.4317
L 7.5637,-7.4832
L 7.5637,-7.5386
L 7.5637,-7.5939
L 7.5637,-7.6493
L 7.5637,-7.7047
L 7.5637,-7.7601
L 7.5637,-7.8155
L 7.5637,-7.8709
L 7.5637,-7.9263
L 7.5637,-7.9817
L 7.5637,-8.0371
L 7.5637,-8.0925
L 7.5637,-8.1479
L 7.5637,-8.2033
L 7.5637,-8.2587
L 7.5637,-8.3141
L 7.5637,-8.3695
L 7.5637,-8.424
 " stroke = "black" stroke-width = ".1" fill = "none" />
</svg>