<?xml version="1.0"?>
<!DOCTYPE svg PUBLIC "-//W3C//DTD SVG 1.1//EN"
 "http://www.w3.org/Graphics/SVG/1.1/DTD/svg11.dtd">
 
<svg xmlns="http://www.w3.org/2000/svg" version = "1.1"
      preserveAspectRatio = "xMinYMin meet" viewBox = "0 0 150 150">
 <path d= "M7.628,1.143 
L 7.628,-3.8029
L 7.7587,-3.6379
L 7.8893,-3.4729
L 8.02,-3.3078
L 8.1507,-3.1428
L 8.2814,-2.9778
L 8.4121,-2.8128
L 8.5428,-2.6478
L 8.6735,-2.4828
L 8.8042,-2.3178
L 8.9348,-2.1528
L 9.0655,-1.9878
L 9.1962,-1.8228
L 9.3269,-1.6578
L 9.4576,-1.4927
L 9.5883,-1.3277
L 9.719,-1.1627
L 9.8122,-0.9847
L 9.8122,-0.7742
L 9.8122,-0.5637
L 9.8122,-0.3532
L 9.8122,-0.1427
L 9.8122,0.0678
L 9.8122,0.2783
L 9.8122,0.4888
L 9.8122,0.6992
L 9.8122,0.9097
L 9.8122,1.1202
L 9.7469,1.143
L 9.6162,0.978
L 9.4855,0.813
L 9.3548,0.6479
L 9.2241,0.4829
L 9.0934,0.3179
L 8.9627,0.1529
L 8.8321,-0.0121
L 8.7014,-0.1771
L 8.5707,-0.3421
L 8.44,-0.5071
L 8.3093,-0.6721
L 8.1786,-0.8371
L 8.0479,-1.0021
L 7.9173,-1.1671
L 7.7866,-1.3322
L 7.6559,-1.4972
L 7.628,-1.6979
L 7.628,-1.9084
L 7.628,-2.1189
L 7.628,-2.3294
L 7.628,-2.5399
L 7.628,-2.7504
L 7.628,-2.9609
L 7.628,-3.1714
L 7.628,-3.3819
L 7.628,-3.5924
L 7.628,-3.802
 " stroke = "black" stroke-width = ".1" fill = "none" />
</svg>