<?xml version="1.0"?>
<!DOCTYPE svg PUBLIC "-//W3C//DTD SVG 1.1//EN"
 "http://www.w3.org/Graphics/SVG/1.1/DTD/svg11.dtd">
 
<svg xmlns="http://www.w3.org/2000/svg" version = "1.1"
      preserveAspectRatio = "xMinYMin meet" viewBox = "0 0 150 150">
 <path d= "M-11.0309,-0.4616 
L -10.484,-3.9669
L -10.3887,-3.8466
L -10.2934,-3.7262
L -10.1981,-3.6059
L -10.1028,-3.4855
L -10.0075,-3.3652
L -9.9122,-3.2449
L -9.8169,-3.1245
L -9.7216,-3.0042
L -9.6263,-2.8839
L -9.531,-2.7635
L -9.4356,-2.6432
L -9.3403,-2.5229
L -9.245,-2.4025
L -9.1497,-2.2822
L -9.0544,-2.1619
L -8.9591,-2.0415
L -8.9224,-1.9114
L -8.9733,-1.7665
L -9.0242,-1.6217
L -9.0751,-1.4769
L -9.1259,-1.3321
L -9.1768,-1.1872
L -9.2277,-1.0424
L -9.2785,-0.8976
L -9.3294,-0.7527
L -9.3803,-0.6079
L -9.4312,-0.4631
L -9.5061,-0.4616
L -9.6014,-0.582
L -9.6967,-0.7023
L -9.792,-0.8226
L -9.8873,-0.943
L -9.9826,-1.0633
L -10.0779,-1.1836
L -10.1732,-1.304
L -10.2685,-1.4243
L -10.3638,-1.5447
L -10.4591,-1.665
L -10.5544,-1.7853
L -10.6497,-1.9057
L -10.745,-2.026
L -10.8403,-2.1463
L -10.9356,-2.2667
L -11.0309,-2.387
L -11.0123,-2.5256
L -10.9595,-2.6698
L -10.9067,-2.8139
L -10.8538,-2.958
L -10.801,-3.1021
L -10.7482,-3.2463
L -10.6953,-3.3904
L -10.6425,-3.5345
L -10.5897,-3.6786
L -10.5368,-3.8228
L -10.484,-3.966
 " stroke = "black" stroke-width = ".1" fill = "none" />
</svg>