<?xml version="1.0"?>
<!DOCTYPE svg PUBLIC "-//W3C//DTD SVG 1.1//EN"
 "http://www.w3.org/Graphics/SVG/1.1/DTD/svg11.dtd">
 
<svg xmlns="http://www.w3.org/2000/svg" version = "1.1"
      preserveAspectRatio = "xMinYMin meet" viewBox = "0 0 150 150">
 <path d= "M0.9041,5.5664 
L 1.1482,3.9088
L 1.0749,3.7076
L 1.0155,3.5018
L 0.9695,3.2927
L 0.9361,3.0811
L 0.9148,2.868
L 0.905,2.6541
L 0.9041,2.4399
L 0.9041,2.2257
L 0.9041,2.0115
L 0.9041,1.7972
L 0.9041,1.583
L 0.9041,1.3688
L 1.0131,1.4678
L 1.1461,1.6357
L 1.2791,1.8036
L 1.4121,1.9716
L 1.5451,2.1395
L 1.678,2.3074
L 1.811,2.4753
L 1.944,2.6432
L 2.077,2.8111
L 2.21,2.9791
L 2.343,3.147
L 2.476,3.3149
L 2.609,3.4828
L 2.742,3.6507
L 2.875,3.8186
L 3.008,3.9866
L 3.1409,4.1545
L 3.2739,4.3224
L 3.4069,4.4903
L 3.5399,4.6582
L 3.6729,4.8262
L 3.8059,4.9941
L 3.9389,5.162
L 4.0719,5.3299
L 4.2049,5.4978
L 4.1325,5.5664
L 3.9183,5.5664
L 3.7041,5.563
L 3.4904,5.5491
L 3.2778,5.5237
L 3.067,5.4857
L 2.8591,5.4344
L 2.6552,5.3687
L 2.4568,5.2881
L 2.2654,5.1921
L 2.0827,5.0804
L 1.9461,4.9163
L 1.8131,4.7484
L 1.6801,4.5805
L 1.5472,4.4126
L 1.4142,4.2447
L 1.2812,4.0768
L 1.1482,3.908
 " stroke = "black" stroke-width = ".1" fill = "none" />
</svg>