<?xml version="1.0"?>
<!DOCTYPE svg PUBLIC "-//W3C//DTD SVG 1.1//EN"
 "http://www.w3.org/Graphics/SVG/1.1/DTD/svg11.dtd">
 
<svg xmlns="http://www.w3.org/2000/svg" version = "1.1"
      preserveAspectRatio = "xMinYMin meet" viewBox = "0 0 150 150">
 <path d= "M-9.9062,-3.6067 
L -9.3461,-7.0711
L -9.252,-6.9523
L -9.1579,-6.8334
L -9.0638,-6.7146
L -8.9697,-6.5958
L -8.8756,-6.477
L -8.7815,-6.3581
L -8.6874,-6.2393
L -8.5933,-6.1205
L -8.4991,-6.0017
L -8.405,-5.8829
L -8.3109,-5.764
L -8.2168,-5.6452
L -8.1227,-5.5264
L -8.0286,-5.4076
L -7.9345,-5.2887
L -7.8404,-5.1699
L -7.8242,-5.038
L -7.8744,-4.895
L -7.9247,-4.752
L -7.9749,-4.609
L -8.0251,-4.466
L -8.0754,-4.323
L -8.1256,-4.18
L -8.1758,-4.037
L -8.2261,-3.894
L -8.2763,-3.751
L -8.3265,-3.608
L -8.4005,-3.6067
L -8.4946,-3.7255
L -8.5887,-3.8443
L -8.6828,-3.9631
L -8.7769,-4.082
L -8.871,-4.2008
L -8.9651,-4.3196
L -9.0593,-4.4384
L -9.1534,-4.5572
L -9.2475,-4.6761
L -9.3416,-4.7949
L -9.4357,-4.9137
L -9.5298,-5.0325
L -9.6239,-5.1514
L -9.718,-5.2702
L -9.8121,-5.389
L -9.9062,-5.5078
L -9.8678,-5.6479
L -9.8156,-5.7903
L -9.7635,-5.9326
L -9.7113,-6.0749
L -9.6591,-6.2172
L -9.607,-6.3595
L -9.5548,-6.5018
L -9.5026,-6.6441
L -9.4504,-6.7865
L -9.3983,-6.9288
L -9.3461,-7.071
 " stroke = "black" stroke-width = ".1" fill = "none" />
</svg>