<?xml version="1.0"?>
<!DOCTYPE svg PUBLIC "-//W3C//DTD SVG 1.1//EN"
 "http://www.w3.org/Graphics/SVG/1.1/DTD/svg11.dtd">
 
<svg xmlns="http://www.w3.org/2000/svg" version = "1.1"
      preserveAspectRatio = "xMinYMin meet" viewBox = "0 0 150 150">
 <path d= "M0.9041,-5.058 
L 1.175,-9.6801
L 1.3,-9.5223
L 1.4249,-9.3645
L 1.5499,-9.2068
L 1.6748,-9.049
L 1.7998,-8.8912
L 1.9247,-8.7334
L 2.0497,-8.5757
L 2.1747,-8.4179
L 2.2996,-8.2601
L 2.4246,-8.1023
L 2.5495,-7.9446
L 2.6745,-7.7868
L 2.7995,-7.629
L 2.9244,-7.4712
L 3.0494,-7.3135
L 3.0883,-7.1258
L 3.0883,-6.9245
L 3.0883,-6.7232
L 3.0883,-6.522
L 3.0883,-6.3207
L 3.0883,-6.1194
L 3.0883,-5.9182
L 3.0883,-5.7169
L 3.0883,-5.5156
L 3.0883,-5.3144
L 3.0883,-5.1131
L 3.0375,-5.058
L 2.9125,-5.2158
L 2.7876,-5.3736
L 2.6626,-5.5314
L 2.5376,-5.6891
L 2.4127,-5.8469
L 2.2877,-6.0047
L 2.1628,-6.1625
L 2.0378,-6.3202
L 1.9128,-6.478
L 1.7879,-6.6358
L 1.6629,-6.7936
L 1.538,-6.9513
L 1.413,-7.1091
L 1.288,-7.2669
L 1.1631,-7.4247
L 1.0381,-7.5824
L 0.9132,-7.7402
L 0.9041,-7.9383
L 0.9041,-8.1396
L 0.9041,-8.3409
L 0.9041,-8.5421
L 0.9041,-8.7434
L 0.9041,-8.9447
L 0.9041,-9.1459
L 0.9041,-9.3472
L 0.9041,-9.5485
L 0.9737,-9.6801
L 1.175,-9.680
 " stroke = "black" stroke-width = ".1" fill = "none" />
</svg>