<?xml version="1.0"?>
<!DOCTYPE svg PUBLIC "-//W3C//DTD SVG 1.1//EN"
 "http://www.w3.org/Graphics/SVG/1.1/DTD/svg11.dtd">
 
<svg xmlns="http://www.w3.org/2000/svg" version = "1.1"
      preserveAspectRatio = "xMinYMin meet" viewBox = "0 0 150 150">
 <path d= "M-3.7563,5.5665 
L -3.7563,4.5277
L -3.7236,4.5689
L -3.691,4.6101
L -3.6584,4.6513
L -3.6258,4.6925
L -3.5931,4.7337
L -3.5605,4.7749
L -3.5279,4.8161
L -3.4953,4.8573
L -3.4627,4.8985
L -3.43,4.9396
L -3.3974,4.9808
L -3.3648,5.022
L -3.3322,5.0632
L -3.2995,5.1044
L -3.2669,5.1456
L -3.2343,5.1868
L -3.2017,5.228
L -3.1691,5.2692
L -3.1364,5.3104
L -3.1038,5.3515
L -3.0712,5.3927
L -3.0386,5.4339
L -3.0059,5.4751
L -2.9733,5.5163
L -2.9407,5.5575
L -2.9746,5.5665
L -3.0272,5.5665
L -3.0797,5.5665
L -3.1323,5.5665
L -3.1848,5.5665
L -3.2374,5.5665
L -3.2899,5.5665
L -3.3424,5.5665
L -3.395,5.5665
L -3.4157,5.5219
L -3.4327,5.4722
L -3.4497,5.4225
L -3.4668,5.3728
L -3.4838,5.3231
L -3.5008,5.2734
L -3.5178,5.2237
L -3.5349,5.1739
L -3.5519,5.1242
L -3.5689,5.0745
L -3.586,5.0248
L -3.603,4.9751
L -3.62,4.9254
L -3.637,4.8757
L -3.6541,4.826
L -3.6711,4.7763
L -3.6881,4.7266
L -3.7052,4.6769
L -3.7222,4.6272
L -3.7392,4.5775
L -3.7563,4.527
 " stroke = "black" stroke-width = ".1" fill = "none" />
</svg>