<?xml version="1.0"?>
<!DOCTYPE svg PUBLIC "-//W3C//DTD SVG 1.1//EN"
 "http://www.w3.org/Graphics/SVG/1.1/DTD/svg11.dtd">
 
<svg xmlns="http://www.w3.org/2000/svg" version = "1.1"
      preserveAspectRatio = "xMinYMin meet" viewBox = "0 0 150 150">
 <path d= "M-7.8161,-6.6928 
L -7.8161,-9.6802
L -7.6637,-9.6802
L -7.5113,-9.6802
L -7.3588,-9.6802
L -7.2064,-9.6802
L -7.0539,-9.6802
L -6.9015,-9.6802
L -6.7491,-9.6802
L -6.5966,-9.6802
L -6.4983,-9.6028
L -6.4458,-9.4597
L -6.3934,-9.3165
L -6.3409,-9.1734
L -6.2884,-9.0303
L -6.236,-8.8872
L -6.1835,-8.744
L -6.131,-8.6009
L -6.0786,-8.4578
L -6.0261,-8.3147
L -5.9736,-8.1715
L -5.9212,-8.0284
L -5.8687,-7.8853
L -5.8163,-7.7422
L -5.7638,-7.5991
L -5.7113,-7.4559
L -5.6589,-7.3128
L -5.6064,-7.1697
L -5.5539,-7.0266
L -5.5015,-6.8834
L -5.449,-6.7403
L -5.4501,-6.6928
L -5.5447,-6.8123
L -5.6394,-6.9318
L -5.734,-7.0513
L -5.8286,-7.1708
L -5.9233,-7.2903
L -6.0179,-7.4098
L -6.1126,-7.5293
L -6.2072,-7.6488
L -6.3019,-7.7682
L -6.3965,-7.8877
L -6.4911,-8.0072
L -6.5858,-8.1267
L -6.6804,-8.2462
L -6.7751,-8.3657
L -6.8697,-8.4852
L -6.9643,-8.6047
L -7.059,-8.7242
L -7.1536,-8.8437
L -7.2483,-8.9632
L -7.3429,-9.0827
L -7.4376,-9.2022
L -7.5322,-9.3217
L -7.6268,-9.4412
L -7.7215,-9.5607
L -7.8161,-9.680
 " stroke = "black" stroke-width = ".1" fill = "none" />
</svg>