<?xml version="1.0"?>
<!DOCTYPE svg PUBLIC "-//W3C//DTD SVG 1.1//EN"
 "http://www.w3.org/Graphics/SVG/1.1/DTD/svg11.dtd">
 
<svg xmlns="http://www.w3.org/2000/svg" version = "1.1"
      preserveAspectRatio = "xMinYMin meet" viewBox = "0 0 150 150">
 <path d= "M7.628,5.5665 
L 7.628,5.279
L 7.628,5.139
L 7.628,4.999
L 7.628,4.8591
L 7.628,4.7191
L 7.628,4.5791
L 7.628,4.4391
L 7.628,4.2992
L 7.628,4.1592
L 7.628,4.0192
L 7.628,3.8792
L 7.628,3.7393
L 7.628,3.5993
L 7.628,3.4593
L 7.628,3.3193
L 7.628,3.1794
L 7.628,3.0394
L 7.6957,3.094
L 7.7826,3.2038
L 7.8695,3.3135
L 7.9564,3.4232
L 8.0433,3.533
L 8.1302,3.6427
L 8.2171,3.7524
L 8.304,3.8621
L 8.3909,3.9719
L 8.4778,4.0816
L 8.5648,4.1913
L 8.6517,4.3011
L 8.7386,4.4108
L 8.8255,4.5205
L 8.9124,4.6302
L 8.9993,4.74
L 9.0862,4.8497
L 9.1731,4.9594
L 9.26,5.0692
L 9.3469,5.1789
L 9.4338,5.2886
L 9.5207,5.3983
L 9.6076,5.5081
L 9.5885,5.5665
L 9.4485,5.5665
L 9.3086,5.5665
L 9.1686,5.5665
L 9.0286,5.5665
L 8.8886,5.5665
L 8.7487,5.5665
L 8.6087,5.5665
L 8.4687,5.5665
L 8.3287,5.5665
L 8.1888,5.5665
L 8.0488,5.5665
L 7.9088,5.5665
L 7.8018,5.4984
L 7.7149,5.3887
L 7.628,5.27
 " stroke = "black" stroke-width = ".1" fill = "none" />
</svg>