<?xml version="1.0"?>
<!DOCTYPE svg PUBLIC "-//W3C//DTD SVG 1.1//EN"
 "http://www.w3.org/Graphics/SVG/1.1/DTD/svg11.dtd">
 
<svg xmlns="http://www.w3.org/2000/svg" version = "1.1"
      preserveAspectRatio = "xMinYMin meet" viewBox = "0 0 150 150">
 <path d= "M-13.8977,5.5665 
L -13.8977,5.3457
L -13.8602,5.2434
L -13.8227,5.141
L -13.7851,5.0387
L -13.7476,4.9364
L -13.7101,4.834
L -13.6726,4.7317
L -13.6351,4.6294
L -13.5976,4.527
L -13.5601,4.4247
L -13.5226,4.3224
L -13.485,4.22
L -13.4475,4.1177
L -13.41,4.0154
L -13.3725,3.913
L -13.335,3.8107
L -13.2724,3.8648
L -13.2047,3.9502
L -13.137,4.0356
L -13.0694,4.1211
L -13.0017,4.2065
L -12.934,4.292
L -12.8664,4.3774
L -12.7987,4.4628
L -12.731,4.5483
L -12.6634,4.6337
L -12.5957,4.7192
L -12.528,4.8046
L -12.4604,4.89
L -12.3927,4.9755
L -12.325,5.0609
L -12.2573,5.1464
L -12.1897,5.2318
L -12.122,5.3172
L -12.0543,5.4027
L -11.9867,5.4881
L -11.9336,5.5665
L -12.0426,5.5665
L -12.1516,5.5665
L -12.2606,5.5665
L -12.3696,5.5665
L -12.4786,5.5665
L -12.5876,5.5665
L -12.6966,5.5665
L -12.8056,5.5665
L -12.9145,5.5665
L -13.0235,5.5665
L -13.1325,5.5665
L -13.2415,5.5665
L -13.3505,5.5665
L -13.4595,5.5665
L -13.5685,5.5665
L -13.6775,5.5665
L -13.7623,5.5166
L -13.83,5.4311
L -13.8977,5.345
 " stroke = "black" stroke-width = ".1" fill = "none" />
</svg>