<?xml version="1.0"?>
<!DOCTYPE svg PUBLIC "-//W3C//DTD SVG 1.1//EN"
 "http://www.w3.org/Graphics/SVG/1.1/DTD/svg11.dtd">
 
<svg xmlns="http://www.w3.org/2000/svg" version = "1.1"
      preserveAspectRatio = "xMinYMin meet" viewBox = "0 0 150 150">
 <path d= "M-13.3248,5.5665 
L -12.7598,2.2415
L -12.6661,2.3598
L -12.5725,2.478
L -12.4788,2.5963
L -12.3851,2.7145
L -12.2915,2.8328
L -12.1978,2.9511
L -12.1042,3.0693
L -12.0105,3.1876
L -11.9168,3.3058
L -11.8232,3.4241
L -11.7295,3.5424
L -11.6359,3.6606
L -11.5422,3.7789
L -11.4485,3.8971
L -11.3549,4.0154
L -11.2612,4.1337
L -11.1675,4.2519
L -11.1081,4.376
L -11.157,4.5187
L -11.2059,4.6615
L -11.2548,4.8042
L -11.3037,4.9469
L -11.3526,5.0896
L -11.4015,5.2323
L -11.4504,5.375
L -11.4993,5.5177
L -11.6153,5.5665
L -11.7661,5.5665
L -11.917,5.5665
L -12.0135,5.4542
L -12.1072,5.3359
L -12.2009,5.2177
L -12.2945,5.0994
L -12.3882,4.9812
L -12.4818,4.8629
L -12.5755,4.7446
L -12.6692,4.6264
L -12.7628,4.5081
L -12.8565,4.3899
L -12.9502,4.2716
L -13.0438,4.1533
L -13.1375,4.0351
L -13.2311,3.9168
L -13.3248,3.7986
L -13.279,3.6579
L -13.2271,3.5163
L -13.1751,3.3746
L -13.1232,3.233
L -13.0713,3.0913
L -13.0194,2.9497
L -12.9675,2.8081
L -12.9155,2.6664
L -12.8636,2.5248
L -12.8117,2.3831
L -12.7598,2.241
 " stroke = "black" stroke-width = ".1" fill = "none" />
</svg>