<?xml version="1.0"?>
<!DOCTYPE svg PUBLIC "-//W3C//DTD SVG 1.1//EN"
 "http://www.w3.org/Graphics/SVG/1.1/DTD/svg11.dtd">
 
<svg xmlns="http://www.w3.org/2000/svg" version = "1.1"
      preserveAspectRatio = "xMinYMin meet" viewBox = "0 0 150 150">
 <path d= "M-11.6034,2.5043 
L -8.7174,0.5342
L -8.5494,0.7463
L -8.3813,0.9585
L -8.2133,1.1706
L -8.0453,1.3828
L -7.8773,1.5949
L -7.7092,1.8071
L -7.5412,2.0192
L -7.3732,2.2314
L -7.2052,2.4435
L -7.3502,2.5043
L -7.6208,2.5043
L -7.8914,2.5043
L -8.1621,2.5043
L -8.4327,2.5043
L -8.7033,2.5043
L -8.9669,2.4896
L -9.1349,2.2775
L -9.3029,2.0653
L -9.4709,1.8532
L -9.639,1.641
L -9.807,1.4289
L -9.975,1.2167
L -10.143,1.0046
L -10.3111,0.7924
L -10.4791,0.5803
L -10.6471,0.3681
L -10.8151,0.156
L -10.9831,-0.0562
L -11.1512,-0.2683
L -11.3192,-0.4805
L -11.4872,-0.6926
L -11.6034,-0.9131
L -11.5103,-1.1672
L -11.4171,-1.4213
L -11.324,-1.6754
L -11.2308,-1.9295
L -11.1377,-2.1836
L -11.0378,-2.3957
L -10.8698,-2.1835
L -10.7018,-1.9714
L -10.5337,-1.7592
L -10.3657,-1.5471
L -10.1977,-1.3349
L -10.0297,-1.1228
L -9.8616,-0.9106
L -9.6936,-0.6985
L -9.5256,-0.4863
L -9.5063,-0.2493
L -9.5959,0.0061
L -9.6856,0.2614
L -9.7753,0.5167
L -9.5293,0.5342
L -9.2586,0.5342
L -8.988,0.5342
L -8.7174,0.534
 " stroke = "black" stroke-width = ".1" fill = "none" />
</svg>