<?xml version="1.0"?>
<!DOCTYPE svg PUBLIC "-//W3C//DTD SVG 1.1//EN"
 "http://www.w3.org/Graphics/SVG/1.1/DTD/svg11.dtd">
 
<svg xmlns="http://www.w3.org/2000/svg" version = "1.1"
      preserveAspectRatio = "xMinYMin meet" viewBox = "0 0 150 150">
 <path d= "M-13.6174,14.3566 
L 4.9368,-12.4542
L 4.4308,-12.3156
L 3.9433,-12.1218
L 3.4802,-11.8752
L 3.0473,-11.5788
L 2.65,-11.2363
L 2.293,-10.8519
L 1.9808,-10.4303
L 1.849,-10.2034
L 1.7173,-9.9766
L 1.3738,-9.7276
L 0.8523,-9.7871
L 0.3284,-9.8186
L -0.1964,-9.8222
L -0.7206,-9.7977
L -1.2428,-9.7452
L -1.7615,-9.6649
L -2.2751,-9.5571
L -2.5404,-10.0097
L -2.8541,-10.4301
L -3.2126,-10.8132
L -3.6112,-11.1542
L -4.0452,-11.4489
L -4.5092,-11.6938
L -4.9975,-11.8857
L -5.504,-12.0223
L -6.0225,-12.102
L -6.5467,-12.1238
L -7.07,-12.0873
L -7.5861,-11.9931
L -8.0886,-11.8423
L -8.5712,-11.6367
L -9.0282,-11.3789
L -9.4537,-11.0721
L -9.8426,-10.7201
L -10.1902,-10.3271
L -10.492,-9.898
L -10.7445,-9.4381
L -10.9444,-8.9531
L -11.0894,-8.4489
L -11.1776,-7.9317
L -11.208,-7.408
L -11.1802,-6.8841
L -11.0945,-6.3666
L -10.952,-5.8617
L -10.7544,-5.3757
L -10.5042,-4.9146
L -10.2044,-4.484
L -9.8588,-4.0893
L -9.4716,-3.7354
L -9.2287,-3.3682
L -9.3954,-2.8705
L -9.5353,-2.3647
L -9.6479,-1.8521
L -9.7331,-1.3343
L -9.7905,-0.8126
L -9.9665,-0.4115
L -10.47,-0.2638
L -10.9539,-0.0613
L -11.4125,0.1935
L -11.8399,0.4977
L -12.2311,0.8473
L -12.5811,1.238
L -12.8857,1.6652
L -13.141,2.1235
L -13.344,2.6072
L -13.4922,3.1105
L -13.5837,3.6271
L -13.6174,4.1506
L -13.5929,4.6746
L -13.5105,5.1927
L -13.3712,5.6985
L -13.1767,6.1858
L -12.9294,6.6484
L -12.6323,7.0809
L -12.2892,7.4777
L -11.9043,7.8341
L -11.4822,8.1457
L -11.0282,8.4086
L -10.5479,8.6195
L -10.0471,8.776
L -9.5321,8.876
L -9.0092,8.9183
L -8.4848,8.9024
L -7.9654,8.8286
L -7.4574,8.6976
L -6.9671,8.5112
L -6.5004,8.2716
L -6.0631,7.9817
L -5.6427,8.042
L -5.2052,8.3318
L -4.7528,8.5979
L -4.2869,8.8395
L -3.8087,9.0558
L -3.3196,9.2463
L -2.8415,9.4248
L -2.8357,9.9493
L -2.7718,10.4701
L -2.6506,10.9805
L -2.4736,11.4743
L -2.243,11.9456
L -1.9616,12.3883
L -1.6329,12.7972
L -1.2608,13.1671
L -0.8501,13.4935
L -0.4058,13.7724
L 0.0667,14.0003
L 0.5615,14.1745
L 1.0726,14.2929
L 1.5937,14.3538
L 2.1183,14.3566
L 2.64,14.3013
L 3.1524,14.1886
L 3.6491,14.0198
L 4.124,13.7969
L 4.5714,13.5229
L 4.9856,13.2009
L 5.3616,12.835
L 5.6947,12.4298
L 5.9809,11.9901
L 6.2166,11.5214
L 6.399,11.0295
L 6.5257,10.5204
L 6.5952,10.0004
L 6.6067,9.4759
L 6.56,8.9534
L 6.4557,8.4393
L 6.2951,7.9398
L 6.3278,7.5148
L 6.7201,7.1661
L 7.0932,6.797
L 7.4461,6.4085
L 7.7777,6.0017
L 8.2604,6.154
L 8.7689,6.2832
L 9.2885,6.3552
L 9.813,6.3692
L 10.3357,6.3251
L 10.8504,6.2233
L 11.3505,6.065
L 11.8301,5.8524
L 12.2832,5.5879
L 12.7042,5.2749
L 13.0879,4.9171
L 13.4296,4.519
L 13.7251,4.0855
L 13.9707,3.622
L 14.1635,3.1341
L 14.301,2.6278
L 14.3816,2.1094
L 14.4043,1.5853
L 14.3687,1.0619
L 14.2754,0.5456
L 14.1255,0.0429
L 13.9207,-0.4401
L 13.6638,-0.8975
L 13.3577,-1.3236
L 13.0063,-1.7131
L 12.6139,-2.0614
L 12.1854,-2.364
L 11.7259,-2.6172
L 11.2413,-2.818
L 10.7373,-2.9639
L 10.2203,-3.053
L 9.6966,-3.0843
L 9.2805,-3.2228
L 9.0951,-3.7138
L 8.9359,-4.1823
L 9.3217,-4.5378
L 9.6658,-4.9338
L 9.9639,-5.3655
L 10.2124,-5.8275
L 10.4081,-6.3142
L 10.5487,-6.8197
L 10.6325,-7.3376
L 10.6583,-7.8615
L 10.6259,-8.3852
L 10.5357,-8.902
L 10.3888,-9.4056
L 10.1871,-9.8899
L 9.9329,-10.3488
L 9.6294,-10.7767
L 9.2804,-11.1684
L 8.8901,-11.519
L 8.4634,-11.8242
L 8.0055,-12.0802
L 7.522,-12.2839
L 7.019,-12.4328
L 6.5025,-12.5251
L 5.9791,-12.5596
L 4.9368,-12.454
 " stroke = "black" stroke-width = ".1" fill = "none" />
</svg>